%FSTAX23Y23*%
%MOMM*%
%SFA1B1*%

%IPPOS*%
%AMD35*
4,1,8,1.201420,-0.500380,1.201420,0.500380,0.599440,1.102360,-0.599440,1.102360,-1.201420,0.500380,-1.201420,-0.500380,-0.599440,-1.102360,0.599440,-1.102360,1.201420,-0.500380,0.0*
1,1,1.203452,0.599440,-0.500380*
1,1,1.203452,0.599440,0.500380*
1,1,1.203452,-0.599440,0.500380*
1,1,1.203452,-0.599440,-0.500380*
%
%ADD34R,1.203198X1.503172*%
G04~CAMADD=35~8~0.0~0.0~867.4~946.1~236.9~0.0~15~0.0~0.0~0.0~0.0~0~0.0~0.0~0.0~0.0~0~0.0~0.0~0.0~270.0~946.0~868.0*
%ADD35D35*%
%ADD36R,0.603250X1.553210*%
%ADD37R,0.965200X1.553210*%
%ADD38R,2.203196X1.103122*%
%ADD39R,2.003298X3.403092*%
%ADD40R,1.503172X1.203198*%
%ADD41C,1.703324*%
%ADD42R,1.703324X1.703324*%
%ADD43C,5.203190*%
%ADD44R,1.703324X1.703324*%
%ADD45C,1.403096*%
%ADD46R,1.403096X1.403096*%
%ADD47C,1.503172*%
%LNpcb-1*%
%LPD*%
G54D34*
X34504Y1985D03*
X36444D03*
X34504Y17874D03*
X36444D03*
X16284Y35295D03*
X14344D03*
X33995Y24774D03*
X32055D03*
X33995Y26725D03*
X32055D03*
X33995Y28725D03*
X32055D03*
X16284Y3737D03*
X14344D03*
X40194Y1985D03*
X38254D03*
X40194Y17874D03*
X38254D03*
X32055Y31124D03*
X33995D03*
X32055Y351D03*
X33995D03*
X32055Y33124D03*
X33995D03*
G54D35*
X16299Y021D03*
X088D03*
G54D36*
X12549Y04774D03*
X13225D03*
X11875D03*
G54D37*
X10875Y04774D03*
X14225D03*
G54D38*
X3585Y12899D03*
Y10599D03*
Y15199D03*
G54D39*
X4255Y12899D03*
G54D40*
X14364Y31201D03*
Y33141D03*
X16389Y312D03*
Y3314D03*
Y27476D03*
Y29416D03*
X14364Y27474D03*
Y29414D03*
G54D41*
X28709Y1342D03*
Y1596D03*
Y185D03*
Y2104D03*
Y2358D03*
Y2612D03*
Y2866D03*
Y312D03*
Y3374D03*
Y3628D03*
X21089Y1342D03*
Y1596D03*
Y185D03*
Y2104D03*
Y2358D03*
Y2612D03*
Y2866D03*
Y312D03*
Y3374D03*
X22159Y04999D03*
X13744Y44999D03*
X16284D03*
X04999Y18534D03*
Y15994D03*
Y13454D03*
Y10914D03*
X44999Y31565D03*
Y34105D03*
Y36645D03*
Y39185D03*
X04949Y36645D03*
Y34105D03*
Y31565D03*
Y29025D03*
X27269Y47835D03*
X29809Y45295D03*
Y47835D03*
X32349Y45295D03*
Y47835D03*
X34889Y45295D03*
Y47835D03*
G54D42*
X21089Y3628D03*
X24699Y04999D03*
X18824Y44999D03*
X27269Y45295D03*
G54D43*
X44999Y44999D03*
Y04999D03*
X04999D03*
Y44999D03*
G54D44*
X31049Y04999D03*
X3755D03*
X04999Y21074D03*
X44999Y29025D03*
X04949Y39185D03*
G54D45*
X45079Y22925D03*
G54D46*
X47619Y22925D03*
G54D47*
X38725Y11174D03*
Y15024D03*
M02*