%FSTAX23Y23*%
%MOMM*%
%SFA1B1*%

%IPPOS*%
%ADD17C,0.254000*%
%ADD27C,0.599948*%
%ADD28C,0.249936*%
%ADD29C,0.199898*%
%ADD30C,0.203200*%
%ADD31C,0.177800*%
%ADD32C,0.500126*%
%ADD33C,0.381000*%
%LNpcb-1*%
%LPD*%
G36*
X14796Y16912D02*
X14869D01*
Y16907*
X14937*
Y16901*
X14998*
Y16895*
X15027*
Y1689*
X15055*
Y16884*
X15088*
Y16879*
X15117*
Y16873*
X1515*
Y16867*
X15184*
Y16862*
X15206*
Y16856*
X15223*
Y1685*
X15246*
Y16845*
X15263*
Y16839*
X1528*
Y16834*
X15302*
Y16828*
X15319*
Y16822*
X15341*
Y16817*
X15358*
Y16811*
X15381*
Y16805*
X15403*
Y168*
X15415*
Y16794*
X15431*
Y16789*
X15442*
Y16783*
X15454*
Y16777*
X15471*
Y16772*
X15482*
Y16766*
X15499*
Y1676*
X1551*
Y16755*
X15521*
Y16749*
X15538*
Y16744*
X15549*
Y16738*
X15566*
Y16732*
X15578*
Y16727*
X15594*
Y16721*
X15606*
Y16715*
X15617*
Y1671*
X15628*
Y16704*
X15639*
Y16699*
X1565*
Y16693*
X15662*
Y16688*
X15667*
Y16682*
X15679*
Y16676*
X1569*
Y16671*
X15701*
Y16665*
X15712*
Y16659*
X15724*
Y16654*
X15735*
Y16648*
X1574*
Y16642*
X15752*
Y16637*
X15763*
Y16631*
X15774*
Y16626*
X15785*
Y1662*
X15797*
Y16614*
X15808*
Y16609*
X15814*
Y16603*
X15819*
Y16597*
X1583*
Y16592*
X15836*
Y16586*
X15847*
Y16581*
X15853*
Y16575*
X15864*
Y16569*
X1587*
Y16564*
X15881*
Y16558*
X15887*
Y16552*
X15898*
Y16547*
X15903*
Y16541*
X15915*
Y16536*
X1592*
Y1653*
X15932*
Y16524*
X15937*
Y16519*
X15943*
Y16513*
X15954*
Y16507*
X15965*
Y16502*
X15971*
Y16496*
X15982*
Y16491*
X15988*
Y16485*
X15993*
Y1648*
X15999*
Y16474*
X16005*
Y16468*
X1601*
Y16463*
X16022*
Y16457*
X16027*
Y16451*
X16033*
Y16446*
X16038*
Y1644*
X16044*
Y16435*
X16055*
Y16429*
X16061*
Y16423*
X16067*
Y16418*
X16072*
Y16412*
X16078*
Y16406*
X16083*
Y16401*
X16094*
Y16395*
X161*
Y1639*
X16106*
Y16384*
X16111*
Y16378*
X16117*
Y16373*
X16128*
Y16367*
X16134*
Y16361*
X16139*
Y16356*
X16145*
Y1635*
X16151*
Y16345*
X16156*
Y16339*
X16162*
Y16333*
X16168*
Y16328*
X16173*
Y16322*
X16179*
Y16316*
X16184*
Y16311*
X1619*
Y16305*
X16196*
Y163*
X16201*
Y16294*
X16207*
Y16288*
X16213*
Y16283*
X16218*
Y16277*
X16224*
Y16272*
X16229*
Y16266*
X16235*
Y1626*
X16241*
Y16255*
X16246*
Y16249*
X16252*
Y16243*
X16258*
Y16232*
X16263*
Y16227*
X16269*
Y16221*
X16274*
Y16215*
X1628*
Y1621*
X16286*
Y16204*
X16291*
Y16198*
X16297*
Y16193*
X16302*
Y16187*
X16308*
Y16182*
X16314*
Y1617*
X16319*
Y16165*
X16325*
Y16159*
X16331*
Y16153*
X16336*
Y16142*
X16342*
Y16137*
X16347*
Y16131*
X16353*
Y1612*
X16359*
Y16114*
X16364*
Y16108*
X1637*
Y16103*
X16376*
Y16092*
X16381*
Y16086*
X16387*
Y1608*
X16392*
Y16069*
X16398*
Y16063*
X16404*
Y16058*
X16409*
Y16052*
X16415*
Y16041*
X16421*
Y16036*
X16426*
Y1603*
X16432*
Y16024*
X16437*
Y16013*
X16443*
Y16002*
X16449*
Y15996*
X16454*
Y15985*
X1646*
Y15974*
X16466*
Y15968*
X16471*
Y15957*
X16477*
Y15951*
X16482*
Y1594*
X16488*
Y15929*
X16493*
Y15923*
X16499*
Y15912*
X16505*
Y15906*
X16511*
Y15895*
X16516*
Y15884*
X16522*
Y15878*
X16527*
Y15867*
X16533*
Y15861*
X16538*
Y1585*
X16544*
Y15844*
X1655*
Y15833*
X16555*
Y15822*
X16561*
Y15799*
X16567*
Y15783*
X16572*
Y15766*
X16578*
Y15749*
X16583*
Y15732*
X16589*
Y15715*
X16595*
Y15698*
X166*
Y15681*
X16606*
Y15664*
X16612*
Y15648*
X16617*
Y15631*
X16623*
Y15619*
X16628*
Y15603*
X16634*
Y1558*
X1664*
Y15552*
X16645*
Y1553*
X16651*
Y15507*
X16657*
Y15485*
X16662*
Y15462*
X16668*
Y1544*
X16673*
Y15417*
X16679*
Y15395*
X16685*
Y15378*
X1669*
Y1535*
X16696*
Y15305*
X16702*
Y15271*
X16707*
Y15237*
X16713*
Y15204*
X16718*
Y15164*
X16724*
Y15136*
X1673*
Y15063*
X16735*
Y1499*
X16741*
Y14917*
X16746*
Y14625*
X16741*
Y14568*
X16735*
Y14507*
X1673*
Y14445*
X16724*
Y14389*
X16718*
Y14361*
X16713*
Y14327*
X16707*
Y14293*
X16702*
Y1426*
X16696*
Y14231*
X1669*
Y14198*
X16685*
Y14164*
X16679*
Y14141*
X16673*
Y14124*
X16668*
Y14102*
X16662*
Y14079*
X16657*
Y14057*
X16651*
Y14035*
X16645*
Y14012*
X1664*
Y1399*
X16634*
Y13973*
X16628*
Y13945*
X16623*
Y13928*
X16617*
Y13911*
X16612*
Y139*
X16606*
Y13883*
X166*
Y13866*
X16595*
Y13849*
X16589*
Y13832*
X16583*
Y13815*
X16578*
Y13799*
X16572*
Y13787*
X16567*
Y1377*
X16561*
Y13754*
X16555*
Y13737*
X1655*
Y1372*
X16544*
Y13703*
X16538*
Y13692*
X16533*
Y13675*
X16527*
Y13664*
X16522*
Y13653*
X16516*
Y13635*
X16511*
Y13624*
X16505*
Y13608*
X16499*
Y13596*
X16493*
Y13579*
X16488*
Y13568*
X16482*
Y13551*
X16477*
Y13534*
X16471*
Y13523*
X16466*
Y13495*
X16471*
Y13489*
X16477*
Y13484*
X16482*
Y13478*
X16488*
Y13473*
X16493*
Y13461*
X16499*
Y13456*
X16505*
Y1345*
X16511*
Y13439*
X16516*
Y13433*
X16522*
Y13428*
X16527*
Y13422*
X16533*
Y13411*
X16538*
Y13405*
X16544*
Y13394*
X1655*
Y13383*
X16555*
Y13371*
X16561*
Y13355*
X16567*
Y13343*
X16572*
Y13332*
X16578*
Y13315*
X16583*
Y13304*
X16589*
Y13287*
X16595*
Y13236*
X166*
Y13203*
X16606*
Y13158*
X166*
Y13119*
X16595*
Y13068*
X16589*
Y13051*
X16583*
Y1304*
X16578*
Y13029*
X16572*
Y13012*
X16567*
Y13*
X16561*
Y12984*
X16555*
Y12972*
X1655*
Y12961*
X16544*
Y1295*
X16538*
Y12944*
X16533*
Y12939*
X16527*
Y12927*
X16522*
Y12922*
X16516*
Y12916*
X16511*
Y12911*
X16505*
Y12899*
X16499*
Y12894*
X16493*
Y12882*
X16488*
Y12877*
X16482*
Y12871*
X16477*
Y12866*
X16471*
Y1286*
X16466*
Y12854*
X16454*
Y12849*
X16449*
Y12843*
X16443*
Y12837*
X16432*
Y12832*
X16426*
Y12826*
X16421*
Y12821*
X16409*
Y12815*
X16404*
Y12809*
X16398*
Y12804*
X16392*
Y12798*
X16381*
Y12792*
X1637*
Y12787*
X16353*
Y12781*
X16336*
Y12776*
X16325*
Y1277*
X16308*
Y12765*
X16297*
Y12759*
X16286*
Y12753*
X16252*
Y12748*
X16201*
Y12742*
X16162*
Y12736*
X16117*
Y12731*
X16078*
Y12725*
X16033*
Y1272*
X15993*
Y12714*
X15948*
Y12708*
X15909*
Y12703*
X15864*
Y12697*
X15825*
Y12691*
X15769*
Y12686*
X15701*
Y1268*
X15639*
Y12675*
X15572*
Y12669*
X15504*
Y12663*
X15437*
Y12658*
X1537*
Y12652*
X15274*
Y12646*
X15117*
Y12641*
X15077*
Y12624*
X15083*
Y1254*
X15088*
Y12472*
X15094*
Y12416*
X151*
Y12371*
X15105*
Y12326*
X15111*
Y12287*
X15117*
Y12242*
X15122*
Y12197*
X15128*
Y12163*
X15134*
Y12124*
X15139*
Y12095*
X15145*
Y12068*
X1515*
Y12034*
X15156*
Y12006*
X15162*
Y11978*
X15167*
Y11944*
X15173*
Y11916*
X15178*
Y11888*
X15184*
Y1186*
X1519*
Y11837*
X15195*
Y11815*
X15201*
Y11792*
X15206*
Y1177*
X15212*
Y11747*
X15218*
Y11725*
X15223*
Y11702*
X15229*
Y1168*
X15235*
Y11657*
X1524*
Y11635*
X15246*
Y11612*
X15251*
Y1159*
X15257*
Y11567*
X15263*
Y1155*
X15268*
Y11528*
X15274*
Y11511*
X1528*
Y11494*
X15285*
Y11472*
X15291*
Y11455*
X15296*
Y11438*
X15302*
Y11421*
X15308*
Y11404*
X15313*
Y11382*
X15319*
Y11365*
X15325*
Y11348*
X1533*
Y11331*
X15336*
Y11314*
X15341*
Y11297*
X15347*
Y11281*
X15353*
Y11264*
X15358*
Y11247*
X15364*
Y1123*
X1537*
Y11219*
X15375*
Y11202*
X15381*
Y11185*
X15386*
Y11174*
X15392*
Y11157*
X15398*
Y1114*
X15403*
Y11129*
X15409*
Y11112*
X15415*
Y11095*
X1542*
Y11084*
X15426*
Y11067*
X15431*
Y1105*
X15437*
Y11039*
X15442*
Y11022*
X15448*
Y11011*
X15454*
Y10994*
X15459*
Y10983*
X15465*
Y10966*
X15471*
Y10955*
X15476*
Y10943*
X15482*
Y10932*
X15487*
Y10915*
X15493*
Y10904*
X15499*
Y10893*
X15504*
Y10882*
X1551*
Y10865*
X15516*
Y10853*
X15521*
Y10842*
X15527*
Y10831*
X15533*
Y10814*
X15538*
Y10803*
X15544*
Y10792*
X15549*
Y10781*
X15555*
Y10764*
X15561*
Y10752*
X15566*
Y10741*
X15572*
Y1073*
X15578*
Y10719*
X15583*
Y10707*
X15589*
Y10691*
X15594*
Y10679*
X156*
Y10668*
X15606*
Y10657*
X15611*
Y10646*
X15617*
Y10634*
X15623*
Y10617*
X15628*
Y10606*
X15634*
Y10595*
X15639*
Y10584*
X15645*
Y10573*
X1565*
Y10561*
X15656*
Y1055*
X15662*
Y10539*
X15667*
Y10528*
X15673*
Y10516*
X15679*
Y10505*
X15684*
Y10494*
X1569*
Y10483*
X15695*
Y10477*
X15701*
Y10466*
X15707*
Y10454*
X15712*
Y10449*
X15718*
Y10438*
X15724*
Y10426*
X15729*
Y10415*
X15735*
Y10409*
X1574*
Y10398*
X15746*
Y10387*
X15752*
Y10376*
X15757*
Y1037*
X15763*
Y10359*
X15769*
Y10353*
X15774*
Y10342*
X1578*
Y10331*
X15785*
Y10325*
X15791*
Y1032*
X15797*
Y10308*
X15802*
Y10303*
X15808*
Y10292*
X15814*
Y10286*
X15819*
Y10275*
X15825*
Y10269*
X1583*
Y10263*
X15836*
Y10252*
X15842*
Y10247*
X15847*
Y10235*
X15853*
Y1023*
X15858*
Y10218*
X15864*
Y10213*
X1587*
Y10207*
X15875*
Y10196*
X15881*
Y1019*
X15887*
Y10185*
X15892*
Y10173*
X15898*
Y10168*
X15903*
Y10162*
X15909*
Y10156*
X15915*
Y10151*
X1592*
Y1014*
X15926*
Y10134*
X15932*
Y10129*
X15937*
Y10123*
X15943*
Y10117*
X15948*
Y10106*
X15954*
Y101*
X1596*
Y10095*
X15965*
Y10089*
X15971*
Y10084*
X15977*
Y10072*
X15982*
Y10067*
X15988*
Y10061*
X15993*
Y10055*
X15999*
Y1005*
X16005*
Y10039*
X1601*
Y10033*
X16016*
Y10027*
X16022*
Y10022*
X16027*
Y10016*
X16033*
Y1001*
X16038*
Y10005*
X16044*
Y09999*
X1605*
Y09994*
X16055*
Y09988*
X16061*
Y09982*
X16067*
Y09977*
X16072*
Y09971*
X16078*
Y09965*
X16083*
Y0996*
X16089*
Y09954*
X16094*
Y09949*
X161*
Y09943*
X16106*
Y09938*
X16111*
Y09932*
X16117*
Y09926*
X16123*
Y0992*
X16128*
Y09915*
X16134*
Y09909*
X16139*
Y09904*
X16145*
Y09898*
X16151*
Y09893*
X16156*
Y09887*
X16162*
Y09881*
X16168*
Y09876*
X16173*
Y0987*
X16184*
Y09864*
X1619*
Y09859*
X16196*
Y09853*
X16201*
Y09848*
X16207*
Y09842*
X16218*
Y09836*
X16224*
Y09831*
X16229*
Y09825*
X16235*
Y09819*
X16241*
Y09814*
X16246*
Y09808*
X16258*
Y09802*
X16263*
Y09797*
X16269*
Y09791*
X16274*
Y09786*
X1628*
Y0978*
X16286*
Y09774*
X16297*
Y09769*
X16302*
Y09763*
X16308*
Y09758*
X16319*
Y09752*
X16325*
Y09746*
X16331*
Y09741*
X16342*
Y09735*
X16347*
Y09729*
X16353*
Y09724*
X16364*
Y09718*
X1637*
Y09713*
X16381*
Y09707*
X16387*
Y09701*
X16392*
Y09696*
X16404*
Y0969*
X16409*
Y09685*
X16421*
Y09679*
X16426*
Y09673*
X16437*
Y09668*
X16443*
Y09662*
X16449*
Y09656*
X1646*
Y09651*
X16466*
Y09645*
X16477*
Y0964*
X16482*
Y09634*
X16493*
Y09628*
X16505*
Y09623*
X16511*
Y09617*
X16522*
Y09611*
X16533*
Y09606*
X16544*
Y096*
X1655*
Y09595*
X16561*
Y09589*
X16572*
Y09583*
X16578*
Y09578*
X16589*
Y09572*
X166*
Y09566*
X16606*
Y09561*
X16617*
Y09555*
X16628*
Y0955*
X1664*
Y09544*
X16651*
Y09538*
X16657*
Y09533*
X16668*
Y09527*
X16685*
Y09521*
X16696*
Y09516*
X16707*
Y0951*
X16718*
Y09505*
X1673*
Y09499*
X16741*
Y09494*
X16752*
Y09488*
X16763*
Y09482*
X16775*
Y09476*
X16786*
Y09471*
X16797*
Y09465*
X16808*
Y0946*
X1682*
Y09454*
X16831*
Y09448*
X16842*
Y09443*
X16848*
Y09437*
X16853*
Y09432*
X16859*
Y09426*
X16865*
Y0942*
X1687*
Y09415*
X16876*
Y09403*
X16881*
Y09392*
X16887*
Y09375*
X16893*
Y09325*
X16887*
Y09308*
X16881*
Y09291*
X16876*
Y09285*
X1687*
Y09274*
X16865*
Y09268*
X16859*
Y09263*
X16853*
Y09257*
X16842*
Y09252*
X16836*
Y09246*
X16825*
Y09241*
X16814*
Y09235*
X1678*
Y09229*
X16769*
Y09235*
X16741*
Y09241*
X16724*
Y09246*
X16713*
Y09252*
X16702*
Y09257*
X1669*
Y09263*
X16679*
Y09268*
X16668*
Y09274*
X16657*
Y0928*
X16645*
Y09285*
X16628*
Y09291*
X16617*
Y09297*
X16606*
Y09302*
X16595*
Y09308*
X16583*
Y09313*
X16572*
Y09319*
X16561*
Y09325*
X1655*
Y0933*
X16533*
Y09336*
X16527*
Y09342*
X16516*
Y09347*
X16505*
Y09353*
X16499*
Y09359*
X16488*
Y09364*
X16482*
Y0937*
X16471*
Y09375*
X1646*
Y09381*
X16449*
Y09387*
X16443*
Y09392*
X16432*
Y09398*
X16421*
Y09403*
X16415*
Y09409*
X16404*
Y09415*
X16392*
Y0942*
X16387*
Y09426*
X16376*
Y09432*
X16364*
Y09437*
X16353*
Y09443*
X16347*
Y09448*
X16336*
Y09454*
X16331*
Y0946*
X16319*
Y09465*
X16314*
Y09471*
X16308*
Y09476*
X16297*
Y09482*
X16291*
Y09488*
X1628*
Y09494*
X16274*
Y09499*
X16269*
Y09505*
X16258*
Y0951*
X16252*
Y09516*
X16241*
Y09521*
X16235*
Y09527*
X16229*
Y09533*
X16218*
Y09538*
X16213*
Y09544*
X16201*
Y0955*
X16196*
Y09555*
X1619*
Y09561*
X16179*
Y09566*
X16173*
Y09572*
X16162*
Y09578*
X16156*
Y09583*
X16151*
Y09589*
X16145*
Y09595*
X16139*
Y096*
X16128*
Y09606*
X16123*
Y09611*
X16117*
Y09617*
X16111*
Y09623*
X16106*
Y09628*
X161*
Y09634*
X16089*
Y0964*
X16083*
Y09645*
X16078*
Y09651*
X16072*
Y09656*
X16067*
Y09662*
X16061*
Y09668*
X1605*
Y09673*
X16044*
Y09679*
X16038*
Y09685*
X16033*
Y0969*
X16027*
Y09696*
X16016*
Y09701*
X1601*
Y09707*
X16005*
Y09713*
X15999*
Y09718*
X15993*
Y09724*
X15988*
Y09729*
X15982*
Y09735*
X15977*
Y09741*
X15971*
Y09746*
X15965*
Y09752*
X1596*
Y09758*
X15954*
Y09763*
X15948*
Y09769*
X15943*
Y09774*
X15937*
Y0978*
X15932*
Y09786*
X15926*
Y09791*
X1592*
Y09797*
X15915*
Y09802*
X15909*
Y09808*
X15903*
Y09814*
X15898*
Y09819*
X15892*
Y09825*
X15887*
Y09831*
X15881*
Y09836*
X15875*
Y09842*
X1587*
Y09848*
X15864*
Y09853*
X15858*
Y09859*
X15853*
Y09864*
X15847*
Y0987*
X15842*
Y09876*
X15836*
Y09881*
X1583*
Y09887*
X15825*
Y09898*
X15819*
Y09904*
X15814*
Y09909*
X15808*
Y09915*
X15802*
Y0992*
X15797*
Y09932*
X15791*
Y09938*
X15785*
Y09943*
X1578*
Y09949*
X15774*
Y09954*
X15769*
Y09965*
X15763*
Y09971*
X15757*
Y09977*
X15752*
Y09982*
X15746*
Y09988*
X1574*
Y09999*
X15735*
Y10005*
X15729*
Y1001*
X15724*
Y10016*
X15718*
Y10022*
X15712*
Y10027*
X15707*
Y10039*
X15701*
Y10044*
X15695*
Y1005*
X1569*
Y10061*
X15684*
Y10067*
X15679*
Y10078*
X15673*
Y10084*
X15667*
Y10095*
X15662*
Y101*
X15656*
Y10106*
X1565*
Y10117*
X15645*
Y10123*
X15639*
Y10134*
X15634*
Y1014*
X15628*
Y10151*
X15623*
Y10156*
X15617*
Y10168*
X15611*
Y10173*
X15606*
Y10179*
X156*
Y1019*
X15594*
Y10196*
X15589*
Y10207*
X15583*
Y10213*
X15578*
Y10218*
X15572*
Y1023*
X15566*
Y10241*
X15561*
Y10252*
X15555*
Y10258*
X15549*
Y10269*
X15544*
Y1028*
X15538*
Y10286*
X15533*
Y10297*
X15527*
Y10308*
X15521*
Y1032*
X15516*
Y10325*
X1551*
Y10337*
X15504*
Y10348*
X15499*
Y10359*
X15493*
Y10364*
X15487*
Y10376*
X15482*
Y10387*
X15476*
Y10393*
X15471*
Y10404*
X15465*
Y10415*
X15459*
Y10426*
X15454*
Y10438*
X15448*
Y10449*
X15442*
Y1046*
X15437*
Y10477*
X15431*
Y10488*
X15426*
Y10499*
X1542*
Y10511*
X15415*
Y10522*
X15409*
Y10533*
X15403*
Y10544*
X15398*
Y10556*
X15392*
Y10573*
X15386*
Y10584*
X15381*
Y10595*
X15375*
Y10606*
X1537*
Y10617*
X15364*
Y10629*
X15358*
Y10646*
X15353*
Y10657*
X15347*
Y10668*
X15341*
Y10679*
X15336*
Y10696*
X1533*
Y10707*
X15325*
Y10719*
X15319*
Y1073*
X15313*
Y10747*
X15308*
Y10758*
X15302*
Y10769*
X15296*
Y10781*
X15291*
Y10797*
X15285*
Y10808*
X1528*
Y1082*
X15274*
Y10831*
X15268*
Y10842*
X15263*
Y10859*
X15257*
Y1087*
X15251*
Y10882*
X15246*
Y10893*
X1524*
Y10904*
X15235*
Y10927*
X15229*
Y10938*
X15223*
Y10955*
X15218*
Y10972*
X15212*
Y10983*
X15206*
Y11*
X15201*
Y11016*
X15195*
Y11028*
X1519*
Y11045*
X15184*
Y11056*
X15178*
Y11073*
X15173*
Y1109*
X15167*
Y11101*
X15162*
Y11118*
X15156*
Y11135*
X1515*
Y11146*
X15145*
Y11163*
X15139*
Y11174*
X15134*
Y11191*
X15128*
Y11208*
X15122*
Y1123*
X15117*
Y11247*
X15111*
Y11264*
X15105*
Y11281*
X151*
Y11297*
X15094*
Y11314*
X15088*
Y11337*
X15083*
Y11354*
X15077*
Y11371*
X15072*
Y11387*
X15066*
Y11404*
X1506*
Y11427*
X15055*
Y11444*
X15049*
Y1146*
X15043*
Y11478*
X15038*
Y11494*
X15032*
Y11517*
X15027*
Y11539*
X15021*
Y11562*
X15015*
Y11584*
X1501*
Y11607*
X15004*
Y11629*
X14998*
Y11651*
X14993*
Y11674*
X14987*
Y11696*
X14982*
Y11719*
X14976*
Y11741*
X14971*
Y11764*
X14965*
Y11787*
X14959*
Y11809*
X14953*
Y11843*
X14948*
Y11871*
X14942*
Y11904*
X14937*
Y11933*
X14931*
Y11961*
X14926*
Y11989*
X1492*
Y12023*
X14914*
Y12051*
X14909*
Y12079*
X14903*
Y12107*
X14897*
Y12152*
X14892*
Y12197*
X14886*
Y12236*
X14881*
Y12281*
X14875*
Y12326*
X14869*
Y12365*
X14864*
Y1241*
X14858*
Y12472*
X14852*
Y12556*
X14847*
Y1263*
X14841*
Y12635*
X14538*
Y12641*
X14324*
Y12646*
X14234*
Y12652*
X14139*
Y12658*
X14043*
Y12663*
X13953*
Y12669*
X13886*
Y12675*
X13875*
Y12483*
X1388*
Y12214*
X13875*
Y11966*
X13869*
Y11854*
X13863*
Y11775*
X13858*
Y11696*
X13852*
Y11624*
X13846*
Y11545*
X13841*
Y11455*
X13835*
Y11421*
X1383*
Y11376*
X13824*
Y11331*
X13818*
Y11286*
X13813*
Y11241*
X13807*
Y11196*
X13801*
Y11146*
X13796*
Y11101*
X1379*
Y11056*
X13785*
Y11005*
X13779*
Y10983*
X13773*
Y10949*
X13768*
Y10915*
X13762*
Y10887*
X13756*
Y10853*
X13751*
Y1082*
X13745*
Y10792*
X1374*
Y10758*
X13734*
Y10724*
X13728*
Y10691*
X13723*
Y10662*
X13717*
Y10629*
X13711*
Y10595*
X13706*
Y10561*
X137*
Y10544*
X13695*
Y10516*
X13689*
Y10494*
X13683*
Y10466*
X13678*
Y10443*
X13672*
Y10421*
X13666*
Y10393*
X13661*
Y1037*
X13655*
Y10342*
X1365*
Y1032*
X13644*
Y10297*
X13639*
Y10269*
X13633*
Y10247*
X13627*
Y10218*
X13622*
Y10196*
X13616*
Y10173*
X1361*
Y1014*
X13605*
Y10123*
X13599*
Y10106*
X13594*
Y10084*
X13588*
Y10067*
X13582*
Y10044*
X13577*
Y10027*
X13571*
Y10005*
X13565*
Y09982*
X1356*
Y09965*
X13554*
Y09943*
X13549*
Y09926*
X13543*
Y09904*
X13537*
Y09887*
X13532*
Y09864*
X13526*
Y09848*
X1352*
Y09825*
X13515*
Y09802*
X13509*
Y09786*
X13504*
Y09763*
X13498*
Y09746*
X13492*
Y09724*
X13487*
Y09707*
X13481*
Y0969*
X13475*
Y09679*
X1347*
Y09673*
X13464*
Y09662*
X13459*
Y09656*
X13453*
Y09651*
X13442*
Y09645*
X13436*
Y0964*
X13425*
Y09634*
X13413*
Y09628*
X13397*
Y09623*
X13352*
Y09628*
X13329*
Y09634*
X13318*
Y0964*
X13307*
Y09645*
X13301*
Y09651*
X13296*
Y09656*
X1329*
Y09662*
X13284*
Y09668*
X13279*
Y09673*
X13273*
Y09685*
X13267*
Y09696*
X13262*
Y09707*
X13256*
Y09774*
X13262*
Y09791*
X13267*
Y09814*
X13273*
Y09831*
X13279*
Y09853*
X13284*
Y0987*
X1329*
Y09893*
X13296*
Y09915*
X13301*
Y09932*
X13307*
Y09954*
X13312*
Y09971*
X13318*
Y09994*
X13324*
Y1001*
X13329*
Y10033*
X13335*
Y1005*
X13341*
Y10072*
X13346*
Y10095*
X13352*
Y10112*
X13357*
Y10134*
X13363*
Y10151*
X13369*
Y10173*
X13374*
Y10196*
X1338*
Y10218*
X13386*
Y10241*
X13391*
Y10263*
X13397*
Y10292*
X13402*
Y10314*
X13408*
Y10342*
X13413*
Y10364*
X13419*
Y10387*
X13425*
Y10415*
X13431*
Y10438*
X13436*
Y10466*
X13442*
Y10488*
X13447*
Y10511*
X13453*
Y10539*
X13459*
Y10561*
X13464*
Y10589*
X1347*
Y10617*
X13475*
Y1064*
X13481*
Y10674*
X13487*
Y10707*
X13492*
Y10736*
X13498*
Y10769*
X13504*
Y10803*
X13509*
Y10831*
X13515*
Y10865*
X1352*
Y10898*
X13526*
Y10932*
X13532*
Y1096*
X13537*
Y10994*
X13543*
Y11028*
X13549*
Y11067*
X13554*
Y11106*
X1356*
Y11151*
X13565*
Y11196*
X13571*
Y11241*
X13577*
Y11286*
X13582*
Y11331*
X13588*
Y11376*
X13594*
Y11421*
X13599*
Y11472*
X13605*
Y11534*
X1361*
Y11612*
X13616*
Y11685*
X13622*
Y11764*
X13627*
Y11843*
X13633*
Y11933*
X13639*
Y12157*
X13644*
Y12528*
X13639*
Y12697*
X13627*
Y12703*
X13577*
Y12708*
X1352*
Y12714*
X13459*
Y1272*
X13425*
Y12725*
X13391*
Y12731*
X13357*
Y12736*
X13324*
Y12742*
X13284*
Y12748*
X13251*
Y12753*
X13217*
Y12759*
X13178*
Y12765*
X13144*
Y1277*
X13105*
Y12776*
X13071*
Y12781*
X13037*
Y12787*
X12992*
Y12792*
X1297*
Y12798*
X12942*
Y12804*
X12913*
Y12809*
X12885*
Y12815*
X12863*
Y12821*
X12835*
Y12826*
X12807*
Y12832*
X12778*
Y12837*
X1275*
Y12843*
X12722*
Y12849*
X127*
Y12854*
X12672*
Y1286*
X12644*
Y12866*
X12616*
Y12871*
X12587*
Y12877*
X12559*
Y12882*
X12531*
Y12888*
X12509*
Y12894*
X12481*
Y12899*
X12447*
Y12905*
X12424*
Y12911*
X12413*
Y12916*
X12402*
Y12922*
X12391*
Y12927*
X12379*
Y12933*
X12368*
Y12939*
X12357*
Y12944*
X12346*
Y1295*
X12335*
Y12956*
X12323*
Y12961*
X12318*
Y12967*
X12306*
Y12972*
X12301*
Y12978*
X12295*
Y12984*
X1229*
Y12989*
X12284*
Y12995*
X12278*
Y13*
X12273*
Y13006*
X12262*
Y13012*
X12256*
Y13017*
X1225*
Y13023*
X12245*
Y13029*
X12239*
Y13034*
X12233*
Y1304*
X12228*
Y13045*
X12222*
Y13051*
X12216*
Y13062*
X12211*
Y13068*
X12205*
Y13079*
X122*
Y13085*
X12194*
Y13096*
X12188*
Y13102*
X12183*
Y13107*
X12177*
Y13119*
X12171*
Y13124*
X12166*
Y13135*
X1216*
Y13147*
X12155*
Y13164*
X12149*
Y1318*
X12143*
Y13197*
X12138*
Y13209*
X12132*
Y1322*
X12126*
Y13236*
X12121*
Y13281*
X12115*
Y13332*
X1211*
Y13388*
X12115*
Y13422*
X12121*
Y13467*
X12126*
Y13489*
X12132*
Y13501*
X12138*
Y13512*
X12143*
Y13523*
X12149*
Y1354*
X12155*
Y13551*
X1216*
Y13568*
X12166*
Y13579*
X12171*
Y13591*
X12177*
Y13596*
X12183*
Y13608*
X12188*
Y13613*
X12194*
Y13619*
X122*
Y13624*
X12205*
Y13635*
X12211*
Y13641*
X12216*
Y13647*
X12222*
Y13658*
X12228*
Y13664*
X12233*
Y13675*
X12239*
Y1368*
X12245*
Y13686*
X1225*
Y13692*
X12262*
Y13697*
X12267*
Y13703*
X12273*
Y13709*
X12284*
Y13714*
X1229*
Y1372*
X12295*
Y13725*
X12301*
Y13731*
X12312*
Y13737*
X12318*
Y13742*
X12323*
Y13748*
X12329*
Y13754*
X1234*
Y13759*
X12352*
Y13765*
X12363*
Y13799*
X12357*
Y1386*
X12363*
Y13995*
X12368*
Y1413*
X12374*
Y14175*
X12379*
Y14231*
X12385*
Y14282*
X12391*
Y14338*
X12396*
Y144*
X12402*
Y14422*
X12408*
Y14456*
X12413*
Y1449*
X12419*
Y14523*
X12424*
Y14552*
X1243*
Y14585*
X12436*
Y14619*
X12441*
Y14653*
X12447*
Y14687*
X12453*
Y14703*
X12458*
Y14726*
X12464*
Y14748*
X12469*
Y14771*
X12475*
Y14793*
X12481*
Y14821*
X12486*
Y14844*
X12492*
Y14866*
X12498*
Y14889*
X12503*
Y14911*
X12509*
Y1494*
X12514*
Y14956*
X1252*
Y14973*
X12526*
Y1499*
X12531*
Y15007*
X12537*
Y15029*
X12543*
Y15046*
X12548*
Y15063*
X12554*
Y1508*
X12559*
Y15097*
X12565*
Y15114*
X1257*
Y15136*
X12576*
Y15153*
X12582*
Y1517*
X12587*
Y15187*
X12593*
Y15209*
X12599*
Y15226*
X12604*
Y15237*
X1261*
Y15249*
X12616*
Y15265*
X12621*
Y15282*
X12627*
Y15294*
X12632*
Y1531*
X12638*
Y15322*
X12644*
Y15339*
X12649*
Y1535*
X12655*
Y15367*
X12661*
Y15378*
X12666*
Y15395*
X12672*
Y15412*
X12677*
Y15423*
X12683*
Y1544*
X12689*
Y15451*
X12694*
Y15468*
X127*
Y15485*
X12706*
Y15496*
X12711*
Y15507*
X12717*
Y15518*
X12722*
Y1553*
X12728*
Y15541*
X12734*
Y15552*
X12739*
Y15563*
X12745*
Y15575*
X1275*
Y15592*
X12756*
Y15603*
X12762*
Y15614*
X12767*
Y15625*
X12773*
Y15637*
X12778*
Y15648*
X12784*
Y15659*
X1279*
Y1567*
X12796*
Y15687*
X12801*
Y15698*
X12807*
Y15709*
X12812*
Y15721*
X12818*
Y15738*
X12823*
Y15749*
X12829*
Y15754*
X12835*
Y15766*
X1284*
Y15777*
X12846*
Y15783*
X12852*
Y15794*
X12857*
Y15805*
X12863*
Y15816*
X12868*
Y15828*
X12874*
Y15833*
X1288*
Y15844*
X12885*
Y15856*
X12891*
Y15867*
X12897*
Y15878*
X12902*
Y15884*
X12908*
Y15895*
X12913*
Y15906*
X12919*
Y15917*
X12925*
Y15929*
X1293*
Y15934*
X12936*
Y15946*
X12942*
Y15951*
X12947*
Y15957*
X12953*
Y15968*
X12958*
Y15974*
X12964*
Y15985*
X1297*
Y15991*
X12975*
Y16002*
X12981*
Y16007*
X12987*
Y16013*
X12992*
Y16024*
X12998*
Y1603*
X13003*
Y16041*
X13009*
Y16047*
X13014*
Y16058*
X1302*
Y16063*
X13026*
Y16069*
X13031*
Y1608*
X13037*
Y16086*
X13043*
Y16097*
X13048*
Y16103*
X13054*
Y16114*
X13059*
Y1612*
X13065*
Y16125*
X13071*
Y16131*
X13076*
Y16137*
X13082*
Y16142*
X13088*
Y16148*
X13093*
Y16159*
X13099*
Y16165*
X13105*
Y1617*
X1311*
Y16176*
X13116*
Y16182*
X13121*
Y16187*
X13127*
Y16193*
X13133*
Y16204*
X13138*
Y1621*
X13144*
Y16215*
X1315*
Y16221*
X13155*
Y16227*
X13161*
Y16232*
X13166*
Y16243*
X13172*
Y16249*
X13178*
Y16255*
X13183*
Y1626*
X13189*
Y16266*
X13195*
Y16272*
X132*
Y16277*
X13206*
Y16283*
X13211*
Y16288*
X13217*
Y16294*
X13222*
Y163*
X13228*
Y16305*
X13234*
Y16311*
X1324*
Y16316*
X13245*
Y16322*
X13251*
Y16328*
X13256*
Y16333*
X13262*
Y16339*
X13273*
Y16345*
X13279*
Y1635*
X13284*
Y16356*
X1329*
Y16361*
X13296*
Y16367*
X13301*
Y16373*
X13307*
Y16378*
X13312*
Y16384*
X13318*
Y1639*
X13324*
Y16395*
X13329*
Y16401*
X13335*
Y16406*
X13341*
Y16412*
X13346*
Y16418*
X13352*
Y16423*
X13357*
Y16429*
X13369*
Y16435*
X13374*
Y1644*
X13386*
Y16446*
X13391*
Y16451*
X13397*
Y16457*
X13408*
Y16463*
X13413*
Y16468*
X13419*
Y16474*
X13431*
Y1648*
X13436*
Y16485*
X13442*
Y16491*
X13453*
Y16496*
X13459*
Y16502*
X13464*
Y16507*
X1347*
Y16513*
X13481*
Y16519*
X13487*
Y16524*
X13492*
Y1653*
X13504*
Y16536*
X13509*
Y16541*
X13515*
Y16547*
X1352*
Y16552*
X13532*
Y16558*
X13537*
Y16564*
X13549*
Y16569*
X1356*
Y16575*
X13571*
Y16581*
X13577*
Y16586*
X13588*
Y16592*
X13599*
Y16597*
X13605*
Y16603*
X13616*
Y16609*
X13627*
Y16614*
X13633*
Y1662*
X13644*
Y16626*
X13655*
Y16631*
X13661*
Y16637*
X13672*
Y16642*
X13678*
Y16648*
X13689*
Y16654*
X137*
Y16659*
X13706*
Y16665*
X13717*
Y16671*
X13728*
Y16676*
X1374*
Y16682*
X13751*
Y16688*
X13768*
Y16693*
X13779*
Y16699*
X1379*
Y16704*
X13801*
Y1671*
X13813*
Y16715*
X13824*
Y16721*
X13835*
Y16727*
X13846*
Y16732*
X13858*
Y16738*
X13875*
Y16744*
X13886*
Y16749*
X13897*
Y16755*
X13908*
Y1676*
X13919*
Y16766*
X13936*
Y16772*
X13953*
Y16777*
X1397*
Y16783*
X13987*
Y16789*
X14004*
Y16794*
X14021*
Y168*
X14032*
Y16805*
X14049*
Y16811*
X14066*
Y16817*
X14083*
Y16822*
X14099*
Y16828*
X1411*
Y16834*
X14133*
Y16839*
X14161*
Y16845*
X14184*
Y1685*
X14206*
Y16856*
X14229*
Y16862*
X14251*
Y16867*
X14279*
Y16873*
X14302*
Y16879*
X14318*
Y16884*
X14358*
Y1689*
X14403*
Y16895*
X14448*
Y16901*
X14487*
Y16907*
X14527*
Y16912*
X14678*
Y16918*
X14796*
Y16912*
G37*
G36*
X18933Y14231D02*
X18955D01*
Y14226*
X18966*
Y1422*
X18978*
Y14214*
X18983*
Y14209*
X18989*
Y14203*
X18995*
Y14198*
X19*
Y14192*
X19006*
Y14186*
X19011*
Y14175*
X19017*
Y14164*
X19023*
Y14147*
X19028*
Y14091*
X19023*
Y14074*
X19017*
Y14063*
X19011*
Y14052*
X19006*
Y14046*
X19*
Y1404*
X18995*
Y14035*
X18989*
Y14029*
X18983*
Y14023*
X18978*
Y14018*
X18966*
Y14012*
X18955*
Y14007*
X18933*
Y14001*
X18877*
Y13995*
X18809*
Y1399*
X18742*
Y13984*
X18702*
Y13978*
X18669*
Y13973*
X18641*
Y13967*
X18612*
Y13962*
X18579*
Y13956*
X18551*
Y1395*
X18528*
Y13945*
X18506*
Y13939*
X18489*
Y13933*
X18466*
Y13928*
X1845*
Y13922*
X18433*
Y13917*
X1841*
Y13911*
X18393*
Y13905*
X18371*
Y139*
X18354*
Y13894*
X18343*
Y13888*
X18326*
Y13883*
X18309*
Y13877*
X18298*
Y13872*
X18286*
Y13866*
X1827*
Y1386*
X18258*
Y13855*
X18242*
Y13849*
X1823*
Y13844*
X18213*
Y13838*
X18202*
Y13832*
X18191*
Y13827*
X18174*
Y13821*
X18163*
Y13815*
X18152*
Y1381*
X1814*
Y13804*
X18135*
Y13799*
X18123*
Y13793*
X18112*
Y13787*
X18101*
Y13782*
X1809*
Y13776*
X18078*
Y1377*
X18067*
Y13765*
X18056*
Y13759*
X1805*
Y13754*
X18039*
Y13748*
X18028*
Y13742*
X18017*
Y13737*
X18006*
Y13731*
X18*
Y13725*
X17989*
Y1372*
X17983*
Y13714*
X17972*
Y13709*
X17966*
Y13703*
X17955*
Y13697*
X17949*
Y13692*
X17938*
Y13686*
X17932*
Y1368*
X17921*
Y13675*
X17915*
Y13669*
X17904*
Y13664*
X17899*
Y13658*
X17887*
Y13653*
X17882*
Y13647*
X17871*
Y13641*
X17865*
Y13635*
X17854*
Y1363*
X17848*
Y13624*
X17842*
Y13619*
X17831*
Y13613*
X17826*
Y13608*
X1782*
Y13602*
X17814*
Y13596*
X17809*
Y13591*
X17798*
Y13585*
X17792*
Y13579*
X17786*
Y13574*
X17781*
Y13568*
X17775*
Y13563*
X17764*
Y13557*
X17758*
Y13551*
X17753*
Y13546*
X17747*
Y1354*
X17741*
Y13534*
X1773*
Y13529*
X17724*
Y13523*
X17719*
Y13518*
X17713*
Y13512*
X17708*
Y13506*
X17702*
Y13501*
X17696*
Y13495*
X17691*
Y13489*
X17679*
Y13484*
X17674*
Y13473*
X17668*
Y13467*
X17663*
Y13461*
X17657*
Y13456*
X17651*
Y1345*
X17646*
Y13444*
X1764*
Y13439*
X17634*
Y13433*
X17629*
Y13428*
X17623*
Y13422*
X17618*
Y13416*
X17612*
Y13411*
X17606*
Y13405*
X17601*
Y134*
X17595*
Y13394*
X1759*
Y13388*
X17584*
Y13383*
X17578*
Y13377*
X17573*
Y13371*
X17567*
Y13366*
X17562*
Y1336*
X17556*
Y13349*
X1755*
Y13343*
X17545*
Y13338*
X17539*
Y13332*
X17533*
Y13321*
X17528*
Y13315*
X17522*
Y1331*
X17516*
Y13304*
X17511*
Y13293*
X17505*
Y13287*
X175*
Y13281*
X17494*
Y13276*
X17488*
Y13265*
X17483*
Y13259*
X17477*
Y13253*
X17471*
Y13248*
X17466*
Y13236*
X1746*
Y13231*
X17455*
Y13225*
X17449*
Y13214*
X17443*
Y13209*
X17438*
Y13197*
X17432*
Y13191*
X17426*
Y1318*
X17421*
Y13175*
X17415*
Y13164*
X1741*
Y13158*
X17404*
Y13147*
X17398*
Y13141*
X17393*
Y1313*
X17387*
Y13119*
X17381*
Y13113*
X17376*
Y13102*
X1737*
Y13096*
X17365*
Y13085*
X17359*
Y13074*
X17354*
Y13068*
X17348*
Y13057*
X17342*
Y13045*
X17337*
Y1304*
X17331*
Y13029*
X17325*
Y13017*
X1732*
Y13006*
X17314*
Y12995*
X17309*
Y12984*
X17303*
Y12972*
X17297*
Y12961*
X17292*
Y1295*
X17286*
Y12939*
X1728*
Y12927*
X17275*
Y12916*
X17269*
Y12905*
X17264*
Y12894*
X17258*
Y12877*
X17252*
Y12866*
X17247*
Y12854*
X17241*
Y12837*
X17235*
Y12826*
X1723*
Y12809*
X17224*
Y12792*
X17219*
Y12781*
X17213*
Y12765*
X17207*
Y12748*
X17202*
Y12736*
X17196*
Y1272*
X1719*
Y12703*
X17185*
Y12686*
X17179*
Y12663*
X17174*
Y12646*
X17168*
Y12624*
X17162*
Y12601*
X17157*
Y12579*
X17151*
Y12556*
X17146*
Y1254*
X1714*
Y12512*
X17134*
Y12483*
X17129*
Y1245*
X17123*
Y1241*
X17117*
Y12377*
X17112*
Y12343*
X17106*
Y12276*
X17101*
Y1227*
X17123*
Y12276*
X17151*
Y12281*
X17179*
Y12287*
X17207*
Y12292*
X17235*
Y12298*
X17264*
Y12304*
X17292*
Y12309*
X1732*
Y12315*
X17348*
Y12321*
X17376*
Y12326*
X17404*
Y12332*
X17432*
Y12337*
X1746*
Y12343*
X17488*
Y12348*
X17516*
Y12354*
X17545*
Y1236*
X17573*
Y12365*
X17601*
Y12371*
X17629*
Y12377*
X17657*
Y12382*
X17685*
Y12388*
X17713*
Y12393*
X17741*
Y12399*
X17769*
Y12405*
X17798*
Y1241*
X17826*
Y12416*
X17854*
Y12422*
X17882*
Y12427*
X1791*
Y12433*
X17938*
Y12438*
X17961*
Y12433*
X17989*
Y12427*
X18006*
Y12422*
X18011*
Y12416*
X18022*
Y1241*
X18028*
Y12405*
X18033*
Y12399*
X18039*
Y12393*
X18045*
Y12388*
X1805*
Y12377*
X18056*
Y12365*
X18062*
Y12348*
X18067*
Y12287*
X18062*
Y1227*
X18056*
Y12259*
X1805*
Y12253*
X18045*
Y12242*
X18039*
Y12236*
X18033*
Y1223*
X18028*
Y12225*
X18017*
Y12219*
X18011*
Y12214*
X18*
Y12208*
X17977*
Y12202*
X17955*
Y12197*
X17927*
Y12191*
X17899*
Y12185*
X17871*
Y1218*
X17842*
Y12174*
X17814*
Y12169*
X17786*
Y12163*
X17758*
Y12157*
X1773*
Y12152*
X17702*
Y12146*
X17674*
Y12141*
X17646*
Y12135*
X17618*
Y12129*
X1759*
Y12124*
X17562*
Y12118*
X17533*
Y12113*
X17505*
Y12107*
X17477*
Y12101*
X17449*
Y12095*
X17421*
Y1209*
X17393*
Y12084*
X17365*
Y12079*
X17337*
Y12073*
X17303*
Y12068*
X17275*
Y12062*
X17247*
Y12056*
X17219*
Y12051*
X1719*
Y12045*
X17162*
Y12039*
X17134*
Y12034*
X17106*
Y12028*
X17101*
Y11972*
X17106*
Y1191*
X17112*
Y11871*
X17117*
Y11837*
X17123*
Y11798*
X17129*
Y11764*
X17134*
Y11736*
X1714*
Y11713*
X17146*
Y11691*
X17151*
Y11669*
X17157*
Y11646*
X17162*
Y11629*
X17168*
Y11607*
X17174*
Y11584*
X17179*
Y11562*
X17185*
Y11545*
X1719*
Y11528*
X17196*
Y11517*
X17202*
Y115*
X17207*
Y11483*
X17213*
Y11472*
X17219*
Y11455*
X17224*
Y11438*
X1723*
Y11427*
X17235*
Y1141*
X17241*
Y11393*
X17247*
Y11382*
X17252*
Y11371*
X17258*
Y11359*
X17264*
Y11348*
X17269*
Y11337*
X17275*
Y11326*
X1728*
Y11314*
X17286*
Y11297*
X17292*
Y11286*
X17297*
Y11275*
X17303*
Y11264*
X17309*
Y11252*
X17314*
Y11241*
X1732*
Y1123*
X17325*
Y11219*
X17331*
Y11213*
X17337*
Y11202*
X17342*
Y11191*
X17348*
Y1118*
X17354*
Y11174*
X17359*
Y11163*
X17365*
Y11157*
X1737*
Y11146*
X17376*
Y11135*
X17381*
Y11129*
X17387*
Y11118*
X17393*
Y11112*
X17398*
Y11101*
X17404*
Y11095*
X1741*
Y11084*
X17415*
Y11073*
X17421*
Y11067*
X17426*
Y11056*
X17432*
Y1105*
X17438*
Y11039*
X17443*
Y11033*
X17449*
Y11028*
X17455*
Y11016*
X1746*
Y11011*
X17466*
Y11005*
X17471*
Y11*
X17477*
Y10988*
X17483*
Y10983*
X17488*
Y10977*
X17494*
Y10966*
X175*
Y1096*
X17505*
Y10955*
X17511*
Y10949*
X17516*
Y10938*
X17522*
Y10932*
X17528*
Y10927*
X17533*
Y10921*
X17539*
Y1091*
X17545*
Y10904*
X1755*
Y10898*
X17556*
Y10893*
X17562*
Y10887*
X17567*
Y10876*
X17573*
Y1087*
X17578*
Y10865*
X17584*
Y10859*
X1759*
Y10853*
X17595*
Y10848*
X17601*
Y10842*
X17606*
Y10837*
X17612*
Y10831*
X17618*
Y10825*
X17623*
Y1082*
X17629*
Y10814*
X17634*
Y10808*
X1764*
Y10803*
X17646*
Y10797*
X17651*
Y10792*
X17657*
Y10786*
X17663*
Y10781*
X17668*
Y10775*
X17674*
Y10769*
X17679*
Y10764*
X17685*
Y10758*
X17691*
Y10752*
X17696*
Y10747*
X17702*
Y10741*
X17708*
Y10736*
X17713*
Y1073*
X17719*
Y10724*
X1773*
Y10719*
X17736*
Y10713*
X17741*
Y10707*
X17747*
Y10702*
X17753*
Y10696*
X17764*
Y10691*
X17769*
Y10685*
X17775*
Y10679*
X17781*
Y10674*
X17786*
Y10668*
X17798*
Y10662*
X17803*
Y10657*
X17809*
Y10651*
X17814*
Y10646*
X1782*
Y1064*
X17831*
Y10634*
X17837*
Y10629*
X17842*
Y10623*
X17854*
Y10617*
X17859*
Y10612*
X17865*
Y10606*
X17876*
Y10601*
X17882*
Y10595*
X17893*
Y10589*
X17899*
Y10584*
X1791*
Y10578*
X17915*
Y10573*
X17927*
Y10567*
X17932*
Y10561*
X17944*
Y10556*
X17949*
Y1055*
X17961*
Y10544*
X17966*
Y10539*
X17977*
Y10533*
X17983*
Y10528*
X17994*
Y10522*
X18*
Y10516*
X18011*
Y10511*
X18022*
Y10505*
X18028*
Y10499*
X18039*
Y10494*
X1805*
Y10488*
X18062*
Y10483*
X18073*
Y10477*
X18084*
Y10471*
X18095*
Y10466*
X18101*
Y1046*
X18112*
Y10454*
X18123*
Y10449*
X18135*
Y10443*
X18146*
Y10438*
X18157*
Y10432*
X18168*
Y10426*
X1818*
Y10421*
X18191*
Y10415*
X18208*
Y10409*
X18219*
Y10404*
X18236*
Y10398*
X18247*
Y10393*
X18258*
Y10387*
X18275*
Y10381*
X18286*
Y10376*
X18303*
Y1037*
X18314*
Y10364*
X18331*
Y10359*
X18343*
Y10353*
X1836*
Y10348*
X18376*
Y10342*
X18399*
Y10337*
X18416*
Y10331*
X18438*
Y10325*
X18455*
Y1032*
X18472*
Y10314*
X18495*
Y10308*
X18511*
Y10303*
X18534*
Y10297*
X18556*
Y10292*
X1859*
Y10286*
X18618*
Y1028*
X18646*
Y10275*
X1868*
Y10269*
X18714*
Y10263*
X18759*
Y10258*
X18826*
Y10252*
X18894*
Y10247*
X18944*
Y10241*
X18961*
Y10235*
X18972*
Y1023*
X18978*
Y10224*
X18989*
Y10218*
X18995*
Y10213*
X19*
Y10207*
X19006*
Y10196*
X19011*
Y1019*
X19017*
Y10179*
X19023*
Y10162*
X19028*
Y101*
X19023*
Y10084*
X19017*
Y10072*
X19011*
Y10061*
X19006*
Y10055*
X19*
Y1005*
X18995*
Y10044*
X18989*
Y10039*
X18983*
Y10033*
X18972*
Y10027*
X18961*
Y10022*
X1895*
Y10016*
X18921*
Y1001*
X18905*
Y10016*
X18837*
Y10022*
X18764*
Y10027*
X18691*
Y10033*
X18663*
Y10039*
X18635*
Y10044*
X18607*
Y1005*
X18573*
Y10055*
X18545*
Y10061*
X18517*
Y10067*
X18477*
Y10072*
X18461*
Y10078*
X18444*
Y10084*
X18427*
Y10089*
X18405*
Y10095*
X18388*
Y101*
X18371*
Y10106*
X18348*
Y10112*
X18331*
Y10117*
X18309*
Y10123*
X18286*
Y10129*
X1827*
Y10134*
X18258*
Y1014*
X18247*
Y10145*
X1823*
Y10151*
X18219*
Y10156*
X18202*
Y10162*
X18191*
Y10168*
X18174*
Y10173*
X18163*
Y10179*
X18152*
Y10185*
X18135*
Y1019*
X18123*
Y10196*
X18107*
Y10202*
X18095*
Y10207*
X18078*
Y10213*
X18067*
Y10218*
X18056*
Y10224*
X18045*
Y1023*
X18039*
Y10235*
X18028*
Y10241*
X18017*
Y10247*
X18006*
Y10252*
X17994*
Y10258*
X17983*
Y10263*
X17972*
Y10269*
X17966*
Y10275*
X17955*
Y1028*
X17944*
Y10286*
X17932*
Y10292*
X17921*
Y10297*
X1791*
Y10303*
X17899*
Y10308*
X17887*
Y10314*
X17876*
Y1032*
X17871*
Y10325*
X17859*
Y10331*
X17854*
Y10337*
X17848*
Y10342*
X17837*
Y10348*
X17831*
Y10353*
X1782*
Y10359*
X17814*
Y10364*
X17803*
Y1037*
X17798*
Y10376*
X17786*
Y10381*
X17781*
Y10387*
X17769*
Y10393*
X17764*
Y10398*
X17753*
Y10404*
X17747*
Y10409*
X17741*
Y10415*
X1773*
Y10421*
X17719*
Y10426*
X17713*
Y10432*
X17702*
Y10438*
X17696*
Y10443*
X17691*
Y10449*
X17685*
Y10454*
X17679*
Y1046*
X17668*
Y10466*
X17663*
Y10471*
X17657*
Y10477*
X17651*
Y10483*
X17646*
Y10488*
X1764*
Y10494*
X17629*
Y10499*
X17623*
Y10505*
X17618*
Y10511*
X17612*
Y10516*
X17606*
Y10522*
X17595*
Y10528*
X1759*
Y10533*
X17584*
Y10539*
X17578*
Y10544*
X17573*
Y1055*
X17562*
Y10556*
X17556*
Y10561*
X1755*
Y10567*
X17545*
Y10573*
X17533*
Y10578*
X17528*
Y10584*
X17522*
Y10595*
X17516*
Y10601*
X17511*
Y10606*
X17505*
Y10612*
X175*
Y10617*
X17494*
Y10623*
X17488*
Y10629*
X17483*
Y10634*
X17477*
Y1064*
X17471*
Y10646*
X17466*
Y10651*
X1746*
Y10657*
X17455*
Y10662*
X17449*
Y10668*
X17443*
Y10674*
X17438*
Y10679*
X17432*
Y10685*
X17426*
Y10691*
X17421*
Y10696*
X17415*
Y10702*
X1741*
Y10707*
X17404*
Y10713*
X17398*
Y10719*
X17393*
Y10724*
X17387*
Y1073*
X17381*
Y10736*
X17376*
Y10747*
X1737*
Y10752*
X17365*
Y10758*
X17359*
Y10769*
X17354*
Y10775*
X17348*
Y10781*
X17342*
Y10786*
X17337*
Y10797*
X17331*
Y10803*
X17325*
Y10808*
X1732*
Y1082*
X17314*
Y10825*
X17309*
Y10831*
X17303*
Y10837*
X17297*
Y10848*
X17292*
Y10853*
X17286*
Y10859*
X1728*
Y10865*
X17275*
Y10876*
X17269*
Y10882*
X17264*
Y10887*
X17258*
Y10893*
X17252*
Y10904*
X17247*
Y1091*
X17241*
Y10921*
X17235*
Y10927*
X1723*
Y10938*
X17224*
Y10949*
X17219*
Y10955*
X17213*
Y10966*
X17207*
Y10972*
X17202*
Y10983*
X17196*
Y10994*
X1719*
Y11*
X17185*
Y11011*
X17179*
Y11016*
X17174*
Y11028*
X17168*
Y11033*
X17162*
Y11045*
X17157*
Y11056*
X17151*
Y11061*
X17146*
Y11073*
X1714*
Y11078*
X17134*
Y1109*
X17129*
Y11101*
X17123*
Y11112*
X17117*
Y11123*
X17112*
Y11135*
X17106*
Y11146*
X17101*
Y11157*
X17095*
Y11168*
X17089*
Y1118*
X17084*
Y11191*
X17078*
Y11202*
X17072*
Y11213*
X17067*
Y11225*
X17061*
Y11236*
X17056*
Y11247*
X1705*
Y11258*
X17044*
Y11269*
X17039*
Y11281*
X17033*
Y11292*
X17027*
Y11314*
X17022*
Y11326*
X17016*
Y11342*
X17011*
Y11354*
X17005*
Y11371*
X16999*
Y11387*
X16994*
Y11399*
X16988*
Y11416*
X16982*
Y11432*
X16977*
Y11444*
X16971*
Y1146*
X16966*
Y11472*
X1696*
Y11489*
X16955*
Y11517*
X16949*
Y11539*
X16943*
Y11556*
X16937*
Y11579*
X16932*
Y11601*
X16926*
Y11624*
X16921*
Y11646*
X16915*
Y11663*
X1691*
Y11685*
X16904*
Y11713*
X16898*
Y11753*
X16893*
Y11792*
X16887*
Y11826*
X16881*
Y11865*
X16876*
Y11893*
X1687*
Y11994*
X16865*
Y12095*
X16859*
Y12152*
X16865*
Y12259*
X1687*
Y12354*
X16876*
Y12388*
X16881*
Y12422*
X16887*
Y12455*
X16893*
Y12495*
X16898*
Y12534*
X16904*
Y12568*
X1691*
Y12584*
X16915*
Y12607*
X16921*
Y12624*
X16926*
Y12646*
X16932*
Y12669*
X16937*
Y12691*
X16943*
Y12714*
X16949*
Y12731*
X16955*
Y12759*
X1696*
Y12776*
X16966*
Y12787*
X16971*
Y12804*
X16977*
Y12815*
X16982*
Y12832*
X16988*
Y12849*
X16994*
Y1286*
X16999*
Y12877*
X17005*
Y12894*
X17011*
Y12905*
X17016*
Y12922*
X17022*
Y12939*
X17027*
Y12956*
X17033*
Y12967*
X17039*
Y12978*
X17044*
Y12989*
X1705*
Y13*
X17056*
Y13012*
X17061*
Y13023*
X17067*
Y13034*
X17072*
Y13045*
X17078*
Y13057*
X17084*
Y13068*
X17089*
Y13079*
X17095*
Y1309*
X17101*
Y13102*
X17106*
Y13113*
X17112*
Y13124*
X17117*
Y13135*
X17123*
Y13152*
X17129*
Y13164*
X17134*
Y13169*
X1714*
Y1318*
X17146*
Y13186*
X17151*
Y13197*
X17157*
Y13203*
X17162*
Y13214*
X17168*
Y1322*
X17174*
Y13231*
X17179*
Y13242*
X17185*
Y13248*
X1719*
Y13259*
X17196*
Y13265*
X17202*
Y13276*
X17207*
Y13281*
X17213*
Y13293*
X17219*
Y13304*
X17224*
Y1331*
X1723*
Y13321*
X17235*
Y13332*
X17241*
Y13338*
X17247*
Y13349*
X17252*
Y13355*
X17258*
Y1336*
X17264*
Y13366*
X17269*
Y13377*
X17275*
Y13383*
X1728*
Y13388*
X17286*
Y13394*
X17292*
Y13405*
X17297*
Y13411*
X17303*
Y13416*
X17309*
Y13422*
X17314*
Y13433*
X1732*
Y13439*
X17325*
Y13444*
X17331*
Y13456*
X17337*
Y13461*
X17342*
Y13467*
X17348*
Y13473*
X17354*
Y13484*
X17359*
Y13489*
X17365*
Y13495*
X1737*
Y13506*
X17376*
Y13512*
X17381*
Y13518*
X17387*
Y13523*
X17393*
Y13529*
X17398*
Y13534*
X17404*
Y1354*
X1741*
Y13546*
X17415*
Y13551*
X17421*
Y13557*
X17426*
Y13563*
X17432*
Y13568*
X17438*
Y13574*
X17443*
Y13579*
X17449*
Y13585*
X17455*
Y13591*
X1746*
Y13596*
X17466*
Y13602*
X17471*
Y13608*
X17477*
Y13613*
X17483*
Y13619*
X17488*
Y13624*
X17494*
Y13635*
X175*
Y13641*
X17505*
Y13647*
X17511*
Y13653*
X17516*
Y13658*
X17522*
Y13664*
X17528*
Y13669*
X17533*
Y13675*
X17539*
Y1368*
X17545*
Y13686*
X17556*
Y13692*
X17562*
Y13697*
X17567*
Y13703*
X17573*
Y13709*
X17584*
Y13714*
X1759*
Y1372*
X17595*
Y13725*
X17601*
Y13731*
X17606*
Y13737*
X17618*
Y13742*
X17623*
Y13748*
X17629*
Y13754*
X17634*
Y13759*
X1764*
Y13765*
X17651*
Y1377*
X17657*
Y13776*
X17663*
Y13782*
X17668*
Y13787*
X17674*
Y13793*
X17679*
Y13799*
X17691*
Y13804*
X17696*
Y1381*
X17702*
Y13815*
X17708*
Y13821*
X17719*
Y13827*
X1773*
Y13832*
X17736*
Y13838*
X17747*
Y13844*
X17753*
Y13849*
X17764*
Y13855*
X17769*
Y1386*
X17775*
Y13866*
X17786*
Y13872*
X17792*
Y13877*
X17803*
Y13883*
X17809*
Y13888*
X1782*
Y13894*
X17826*
Y139*
X17837*
Y13905*
X17842*
Y13911*
X17854*
Y13917*
X17859*
Y13922*
X17865*
Y13928*
X17876*
Y13933*
X17887*
Y13939*
X17899*
Y13945*
X1791*
Y1395*
X17921*
Y13956*
X17927*
Y13962*
X17938*
Y13967*
X17949*
Y13973*
X17961*
Y13978*
X17972*
Y13984*
X17983*
Y1399*
X17994*
Y13995*
X18*
Y14001*
X18011*
Y14007*
X18022*
Y14012*
X18033*
Y14018*
X18045*
Y14023*
X18056*
Y14029*
X18062*
Y14035*
X18073*
Y1404*
X1809*
Y14046*
X18107*
Y14052*
X18118*
Y14057*
X18129*
Y14063*
X18146*
Y14068*
X18157*
Y14074*
X18174*
Y14079*
X18185*
Y14085*
X18202*
Y14091*
X18213*
Y14096*
X1823*
Y14102*
X18242*
Y14108*
X18253*
Y14113*
X18264*
Y14119*
X18281*
Y14124*
X18303*
Y1413*
X18326*
Y14136*
X18343*
Y14141*
X18365*
Y14147*
X18382*
Y14153*
X18399*
Y14158*
X18421*
Y14164*
X18438*
Y14169*
X18455*
Y14175*
X18472*
Y14181*
X185*
Y14186*
X18534*
Y14192*
X18567*
Y14198*
X18596*
Y14203*
X18624*
Y14209*
X18657*
Y14214*
X1868*
Y1422*
X18747*
Y14226*
X18815*
Y14231*
X18882*
Y14237*
X18933*
Y14231*
G37*
G36*
X15937Y12427D02*
X15965D01*
Y12422*
X15982*
Y12416*
X15993*
Y1241*
X15999*
Y12405*
X1601*
Y12399*
X16016*
Y12393*
X16022*
Y12382*
X16027*
Y12377*
X16033*
Y12365*
X16038*
Y12354*
X16044*
Y12337*
X1605*
Y12281*
X16044*
Y12202*
X16038*
Y12124*
X16033*
Y11927*
X16038*
Y11826*
X16044*
Y11775*
X1605*
Y11725*
X16055*
Y1168*
X16061*
Y1164*
X16067*
Y11612*
X16072*
Y11584*
X16078*
Y11556*
X16083*
Y11528*
X16089*
Y11505*
X16094*
Y11478*
X161*
Y11449*
X16106*
Y11432*
X16111*
Y1141*
X16117*
Y11393*
X16123*
Y11371*
X16128*
Y11354*
X16134*
Y11337*
X16139*
Y1132*
X16145*
Y11303*
X16151*
Y11281*
X16156*
Y11264*
X16162*
Y11247*
X16168*
Y1123*
X16173*
Y11213*
X16179*
Y11202*
X16184*
Y11185*
X1619*
Y11174*
X16196*
Y11163*
X16201*
Y11146*
X16207*
Y11135*
X16213*
Y11118*
X16218*
Y11106*
X16224*
Y11095*
X16229*
Y11078*
X16235*
Y11067*
X16241*
Y1105*
X16246*
Y11039*
X16252*
Y11028*
X16258*
Y11016*
X16263*
Y11005*
X16269*
Y10994*
X16274*
Y10983*
X1628*
Y10972*
X16286*
Y1096*
X16291*
Y10949*
X16297*
Y10938*
X16302*
Y10932*
X16308*
Y10921*
X16314*
Y1091*
X16319*
Y10898*
X16325*
Y10887*
X16331*
Y10876*
X16336*
Y10865*
X16342*
Y10853*
X16347*
Y10848*
X16353*
Y10837*
X16359*
Y10825*
X16364*
Y1082*
X1637*
Y10808*
X16376*
Y10797*
X16381*
Y10792*
X16387*
Y10781*
X16392*
Y10775*
X16398*
Y10764*
X16404*
Y10758*
X16409*
Y10747*
X16415*
Y10741*
X16421*
Y1073*
X16426*
Y10724*
X16432*
Y10713*
X16437*
Y10707*
X16443*
Y10696*
X16449*
Y10691*
X16454*
Y10679*
X1646*
Y10674*
X16466*
Y10662*
X16471*
Y10657*
X16477*
Y10646*
X16482*
Y1064*
X16488*
Y10634*
X16493*
Y10623*
X16499*
Y10617*
X16505*
Y10612*
X16511*
Y10606*
X16516*
Y10595*
X16522*
Y10589*
X16527*
Y10584*
X16533*
Y10578*
X16538*
Y10573*
X16544*
Y10561*
X1655*
Y10556*
X16555*
Y1055*
X16561*
Y10544*
X16567*
Y10533*
X16572*
Y10528*
X16578*
Y10522*
X16583*
Y10516*
X16589*
Y10505*
X16595*
Y10499*
X166*
Y10494*
X16606*
Y10488*
X16612*
Y10483*
X16617*
Y10471*
X16623*
Y10466*
X16628*
Y1046*
X16634*
Y10454*
X1664*
Y10449*
X16645*
Y10443*
X16651*
Y10438*
X16657*
Y10432*
X16662*
Y10426*
X16668*
Y10421*
X16673*
Y10415*
X16679*
Y10409*
X16685*
Y10404*
X1669*
Y10398*
X16696*
Y10393*
X16702*
Y10387*
X16707*
Y10381*
X16713*
Y10376*
X16718*
Y1037*
X16724*
Y10364*
X1673*
Y10359*
X16735*
Y10353*
X16741*
Y10348*
X16746*
Y10342*
X16752*
Y10337*
X16758*
Y10331*
X16763*
Y10325*
X16769*
Y1032*
X16775*
Y10314*
X1678*
Y10308*
X16786*
Y10303*
X16791*
Y10297*
X16797*
Y10292*
X16803*
Y10286*
X16814*
Y1028*
X1682*
Y10275*
X16825*
Y10269*
X16831*
Y10263*
X16836*
Y10258*
X16848*
Y10252*
X16853*
Y10247*
X16859*
Y10241*
X16865*
Y10235*
X1687*
Y1023*
X16876*
Y10224*
X16887*
Y10218*
X16893*
Y10213*
X16898*
Y10207*
X16904*
Y10202*
X1691*
Y10196*
X16915*
Y1019*
X16926*
Y10185*
X16932*
Y10179*
X16943*
Y10173*
X16955*
Y10168*
X16966*
Y10162*
X16971*
Y10156*
X16982*
Y10151*
X16994*
Y10145*
X17005*
Y1014*
X17016*
Y10134*
X17027*
Y10129*
X17039*
Y10123*
X17044*
Y10117*
X17056*
Y10112*
X17067*
Y10106*
X17078*
Y101*
X17089*
Y10095*
X17101*
Y10089*
X17112*
Y10084*
X17123*
Y10078*
X17129*
Y10072*
X1714*
Y10067*
X17151*
Y10061*
X17162*
Y10055*
X17174*
Y1005*
X17185*
Y10044*
X17196*
Y10039*
X17207*
Y10033*
X17213*
Y10027*
X17224*
Y10022*
X17235*
Y10016*
X17247*
Y1001*
X17258*
Y10005*
X17269*
Y09999*
X1728*
Y09994*
X17292*
Y09988*
X17303*
Y09982*
X17314*
Y09977*
X17331*
Y09971*
X17342*
Y09965*
X17354*
Y0996*
X17365*
Y09954*
X17376*
Y09949*
X17387*
Y09943*
X17398*
Y09938*
X1741*
Y09932*
X17426*
Y09926*
X17438*
Y0992*
X17449*
Y09915*
X1746*
Y09909*
X17471*
Y09904*
X17483*
Y09898*
X17494*
Y09893*
X17505*
Y09887*
X17516*
Y09881*
X17533*
Y09876*
X17545*
Y0987*
X17556*
Y09864*
X17567*
Y09859*
X17578*
Y09853*
X17595*
Y09848*
X17606*
Y09842*
X17618*
Y09836*
X17629*
Y09831*
X17646*
Y09825*
X17657*
Y09819*
X17674*
Y09814*
X17685*
Y09808*
X17696*
Y09802*
X17713*
Y09797*
X17724*
Y09791*
X17741*
Y09786*
X17753*
Y0978*
X17764*
Y09774*
X17781*
Y09769*
X17792*
Y09763*
X17809*
Y09758*
X1782*
Y09752*
X17837*
Y09746*
X17848*
Y09741*
X17859*
Y09735*
X17876*
Y09729*
X17887*
Y09724*
X17904*
Y09718*
X17915*
Y09713*
X17932*
Y09707*
X17944*
Y09701*
X17961*
Y09696*
X17972*
Y0969*
X17989*
Y09685*
X18006*
Y09679*
X18022*
Y09673*
X18039*
Y09668*
X18056*
Y09662*
X18067*
Y09656*
X18084*
Y09651*
X18101*
Y09645*
X18118*
Y0964*
X18135*
Y09634*
X18146*
Y09628*
X18163*
Y09623*
X1818*
Y09617*
X18197*
Y09611*
X18213*
Y09606*
X18225*
Y096*
X18242*
Y09595*
X18258*
Y09589*
X18275*
Y09583*
X18292*
Y09578*
X18309*
Y09572*
X18326*
Y09566*
X18343*
Y09561*
X18365*
Y09555*
X18382*
Y0955*
X18399*
Y09544*
X18421*
Y09538*
X18438*
Y09533*
X18455*
Y09527*
X18477*
Y09521*
X18495*
Y09516*
X18511*
Y0951*
X18534*
Y09505*
X18551*
Y09499*
X18567*
Y09494*
X1859*
Y09488*
X18607*
Y09482*
X18624*
Y09476*
X18646*
Y09471*
X18669*
Y09465*
X18686*
Y0946*
X18708*
Y09454*
X1873*
Y09448*
X18753*
Y09443*
X18775*
Y09437*
X18798*
Y09432*
X1882*
Y09426*
X18843*
Y0942*
X18865*
Y09415*
X18894*
Y09409*
X18916*
Y09403*
X18939*
Y09398*
X18961*
Y09392*
X18983*
Y09387*
X19006*
Y09381*
X19034*
Y09375*
X19056*
Y0937*
X19085*
Y09364*
X19113*
Y09359*
X19141*
Y09353*
X19169*
Y09347*
X19203*
Y09342*
X19231*
Y09336*
X19259*
Y0933*
X19287*
Y09325*
X19315*
Y09319*
X19343*
Y09313*
X19377*
Y09308*
X19405*
Y09302*
X19427*
Y09297*
X19439*
Y09291*
X1945*
Y09285*
X19455*
Y0928*
X19467*
Y09274*
X19472*
Y09268*
X19478*
Y09263*
X19484*
Y09252*
X19489*
Y09241*
X19495*
Y09229*
X195*
Y09212*
X19506*
Y09167*
X195*
Y09145*
X19495*
Y09134*
X19489*
Y09122*
X19484*
Y09117*
X19478*
Y09111*
X19472*
Y09106*
X19467*
Y091*
X19461*
Y09094*
X19455*
Y09089*
X19444*
Y09083*
X19433*
Y09077*
X19416*
Y09072*
X1936*
Y09077*
X19332*
Y09083*
X19298*
Y09089*
X1927*
Y09094*
X19242*
Y091*
X19214*
Y09106*
X19186*
Y09111*
X19158*
Y09117*
X19124*
Y09122*
X19096*
Y09128*
X19068*
Y09134*
X1904*
Y09139*
X19011*
Y09145*
X18978*
Y09151*
X18961*
Y09156*
X18939*
Y09162*
X18916*
Y09167*
X18888*
Y09173*
X18865*
Y09179*
X18843*
Y09184*
X1882*
Y0919*
X18798*
Y09196*
X18775*
Y09201*
X18753*
Y09207*
X1873*
Y09212*
X18708*
Y09218*
X18686*
Y09224*
X18663*
Y09229*
X18641*
Y09235*
X18612*
Y09241*
X18596*
Y09246*
X18579*
Y09252*
X18556*
Y09257*
X18539*
Y09263*
X18522*
Y09268*
X185*
Y09274*
X18483*
Y0928*
X18466*
Y09285*
X18444*
Y09291*
X18427*
Y09297*
X1841*
Y09302*
X18388*
Y09308*
X18371*
Y09313*
X18354*
Y09319*
X18331*
Y09325*
X18314*
Y0933*
X18298*
Y09336*
X18275*
Y09342*
X18258*
Y09347*
X18236*
Y09353*
X18219*
Y09359*
X18208*
Y09364*
X18191*
Y0937*
X18174*
Y09375*
X18157*
Y09381*
X18146*
Y09387*
X18129*
Y09392*
X18112*
Y09398*
X18095*
Y09403*
X18078*
Y09409*
X18062*
Y09415*
X1805*
Y0942*
X18033*
Y09426*
X18017*
Y09432*
X18*
Y09437*
X17983*
Y09443*
X17972*
Y09448*
X17955*
Y09454*
X17938*
Y0946*
X17921*
Y09465*
X17904*
Y09471*
X17893*
Y09476*
X17871*
Y09482*
X17859*
Y09488*
X17842*
Y09494*
X17831*
Y09499*
X1782*
Y09505*
X17803*
Y0951*
X17792*
Y09516*
X17775*
Y09521*
X17764*
Y09527*
X17753*
Y09533*
X17736*
Y09538*
X17724*
Y09544*
X17708*
Y0955*
X17696*
Y09555*
X17685*
Y09561*
X17668*
Y09566*
X17657*
Y09572*
X1764*
Y09578*
X17629*
Y09583*
X17612*
Y09589*
X17601*
Y09595*
X1759*
Y096*
X17573*
Y09606*
X17562*
Y09611*
X17545*
Y09617*
X17533*
Y09623*
X17516*
Y09628*
X17505*
Y09634*
X17488*
Y0964*
X17483*
Y09645*
X17471*
Y09651*
X17455*
Y09656*
X17443*
Y09662*
X17432*
Y09668*
X17421*
Y09673*
X1741*
Y09679*
X17398*
Y09685*
X17387*
Y0969*
X17376*
Y09696*
X17365*
Y09701*
X17348*
Y09707*
X17337*
Y09713*
X17325*
Y09718*
X17314*
Y09724*
X17303*
Y09729*
X17292*
Y09735*
X1728*
Y09741*
X17269*
Y09746*
X17258*
Y09752*
X17241*
Y09758*
X1723*
Y09763*
X17219*
Y09769*
X17207*
Y09774*
X17196*
Y0978*
X17185*
Y09786*
X17174*
Y09791*
X17157*
Y09797*
X17146*
Y09802*
X17134*
Y09808*
X17129*
Y09814*
X17117*
Y09819*
X17106*
Y09825*
X17095*
Y09831*
X17084*
Y09836*
X17072*
Y09842*
X17067*
Y09848*
X17056*
Y09853*
X17044*
Y09859*
X17033*
Y09864*
X17022*
Y0987*
X17011*
Y09876*
X16999*
Y09881*
X16988*
Y09887*
X16982*
Y09893*
X16971*
Y09898*
X1696*
Y09904*
X16949*
Y09909*
X16937*
Y09915*
X16926*
Y0992*
X16915*
Y09926*
X1691*
Y09932*
X16898*
Y09938*
X16887*
Y09943*
X16876*
Y09949*
X16865*
Y09954*
X16853*
Y0996*
X16842*
Y09965*
X16831*
Y09971*
X1682*
Y09977*
X16808*
Y09982*
X16803*
Y09988*
X16791*
Y09994*
X16786*
Y09999*
X1678*
Y10005*
X16775*
Y1001*
X16769*
Y10016*
X16758*
Y10022*
X16752*
Y10027*
X16746*
Y10033*
X16741*
Y10039*
X16735*
Y10044*
X1673*
Y1005*
X16718*
Y10055*
X16713*
Y10061*
X16707*
Y10067*
X16702*
Y10072*
X16696*
Y10078*
X16685*
Y10084*
X16679*
Y10089*
X16673*
Y10095*
X16668*
Y101*
X16662*
Y10106*
X16657*
Y10112*
X16645*
Y10117*
X1664*
Y10123*
X16634*
Y10129*
X16628*
Y10134*
X16623*
Y1014*
X16612*
Y10145*
X16606*
Y10151*
X166*
Y10156*
X16595*
Y10162*
X16589*
Y10168*
X16583*
Y10179*
X16578*
Y10185*
X16572*
Y1019*
X16567*
Y10196*
X16561*
Y10202*
X16555*
Y10207*
X1655*
Y10213*
X16544*
Y10218*
X16538*
Y10224*
X16533*
Y1023*
X16527*
Y10235*
X16522*
Y10241*
X16516*
Y10247*
X16511*
Y10252*
X16505*
Y10258*
X16499*
Y10263*
X16493*
Y10269*
X16488*
Y10275*
X16482*
Y1028*
X16477*
Y10286*
X16471*
Y10292*
X16466*
Y10297*
X1646*
Y10303*
X16454*
Y10308*
X16449*
Y10314*
X16443*
Y1032*
X16437*
Y10325*
X16432*
Y10337*
X16426*
Y10342*
X16421*
Y10348*
X16415*
Y10353*
X16409*
Y10364*
X16404*
Y1037*
X16398*
Y10376*
X16392*
Y10381*
X16387*
Y10393*
X16381*
Y10398*
X16376*
Y10404*
X1637*
Y10409*
X16364*
Y10421*
X16359*
Y10426*
X16353*
Y10432*
X16347*
Y10438*
X16342*
Y10449*
X16336*
Y10454*
X16331*
Y1046*
X16325*
Y10466*
X16319*
Y10477*
X16314*
Y10483*
X16308*
Y10488*
X16302*
Y10494*
X16297*
Y10499*
X16291*
Y10511*
X16286*
Y10516*
X1628*
Y10528*
X16274*
Y10533*
X16269*
Y10544*
X16263*
Y1055*
X16258*
Y10561*
X16252*
Y10567*
X16246*
Y10578*
X16241*
Y10584*
X16235*
Y10595*
X16229*
Y10606*
X16224*
Y10612*
X16218*
Y10623*
X16213*
Y10629*
X16207*
Y1064*
X16201*
Y10646*
X16196*
Y10657*
X1619*
Y10662*
X16184*
Y10674*
X16179*
Y10679*
X16173*
Y10691*
X16168*
Y10696*
X16162*
Y10702*
X16156*
Y10713*
X16151*
Y10724*
X16145*
Y10736*
X16139*
Y10747*
X16134*
Y10758*
X16128*
Y10769*
X16123*
Y10781*
X16117*
Y10792*
X16111*
Y10797*
X16106*
Y10808*
X161*
Y1082*
X16094*
Y10831*
X16089*
Y10842*
X16083*
Y10853*
X16078*
Y10865*
X16072*
Y10876*
X16067*
Y10882*
X16061*
Y10893*
X16055*
Y10904*
X1605*
Y10915*
X16044*
Y10927*
X16038*
Y10938*
X16033*
Y10955*
X16027*
Y10966*
X16022*
Y10983*
X16016*
Y10994*
X1601*
Y11011*
X16005*
Y11022*
X15999*
Y11033*
X15993*
Y1105*
X15988*
Y11061*
X15982*
Y11078*
X15977*
Y1109*
X15971*
Y11101*
X15965*
Y11118*
X1596*
Y11129*
X15954*
Y1114*
X15948*
Y11157*
X15943*
Y1118*
X15937*
Y11196*
X15932*
Y11213*
X15926*
Y11236*
X1592*
Y11252*
X15915*
Y11269*
X15909*
Y11286*
X15903*
Y11303*
X15898*
Y11326*
X15892*
Y11342*
X15887*
Y11359*
X15881*
Y11376*
X15875*
Y11404*
X1587*
Y11432*
X15864*
Y1146*
X15858*
Y11489*
X15853*
Y11511*
X15847*
Y11539*
X15842*
Y11567*
X15836*
Y1159*
X1583*
Y11618*
X15825*
Y1168*
X15819*
Y11725*
X15814*
Y11775*
X15808*
Y1182*
X15802*
Y11989*
X15797*
Y12118*
X15802*
Y12191*
X15808*
Y1227*
X15814*
Y12332*
X15819*
Y12354*
X15825*
Y12365*
X1583*
Y12377*
X15836*
Y12382*
X15842*
Y12393*
X15847*
Y12399*
X15853*
Y12405*
X15864*
Y1241*
X1587*
Y12416*
X15881*
Y12422*
X15898*
Y12427*
X15926*
Y12433*
X15937*
Y12427*
G37*
G36*
X46911Y25368D02*
X4727Y25256D01*
X4761Y25092*
X4792Y24879*
X48195Y24621*
X48429Y24325*
X48615Y23998*
X48683Y23822*
Y22027*
X48615Y21851*
X48429Y21524*
X48195Y21228*
X4792Y20971*
X4761Y20757*
X4727Y20593*
X46911Y20481*
X46538Y20424*
X46349*
Y25424*
X46538*
X46911Y25368*
G37*
G36*
X12492Y16665D02*
X12509D01*
Y16659*
X1252*
Y16654*
X12531*
Y16648*
X12537*
Y16642*
X12548*
Y16637*
X12554*
Y16626*
X12559*
Y1662*
X12565*
Y16614*
X1257*
Y16603*
X12576*
Y16586*
X12582*
Y16519*
X12576*
Y16507*
X1257*
Y16496*
X12565*
Y16485*
X12559*
Y1648*
X12554*
Y16474*
X12548*
Y16468*
X12543*
Y16463*
X12537*
Y16457*
X12531*
Y16451*
X1252*
Y16446*
X12509*
Y1644*
X12492*
Y16435*
X12481*
Y16429*
X12464*
Y16423*
X12453*
Y16418*
X12436*
Y16412*
X12424*
Y16406*
X12408*
Y16401*
X12396*
Y16395*
X12379*
Y1639*
X12368*
Y16384*
X12352*
Y16378*
X1234*
Y16373*
X12329*
Y16367*
X12318*
Y16361*
X12301*
Y16356*
X1229*
Y1635*
X12284*
Y16345*
X12273*
Y16339*
X12262*
Y16333*
X1225*
Y16328*
X12239*
Y16322*
X12228*
Y16316*
X12216*
Y16311*
X12205*
Y16305*
X12194*
Y163*
X12188*
Y16294*
X12177*
Y16288*
X12166*
Y16283*
X12155*
Y16277*
X12143*
Y16272*
X12138*
Y16266*
X12126*
Y1626*
X12115*
Y16255*
X1211*
Y16249*
X12099*
Y16243*
X12093*
Y16238*
X12082*
Y16232*
X12076*
Y16227*
X12065*
Y16221*
X12059*
Y16215*
X12048*
Y1621*
X12042*
Y16204*
X12031*
Y16198*
X12025*
Y16193*
X12014*
Y16187*
X12009*
Y16182*
X11997*
Y16176*
X11992*
Y1617*
X1198*
Y16165*
X11975*
Y16159*
X11969*
Y16153*
X11958*
Y16148*
X11952*
Y16142*
X11947*
Y16137*
X11941*
Y16131*
X11935*
Y16125*
X11924*
Y1612*
X11919*
Y16114*
X11913*
Y16108*
X11907*
Y16103*
X11896*
Y16097*
X11891*
Y16092*
X11885*
Y16086*
X11879*
Y1608*
X11874*
Y16075*
X11862*
Y16069*
X11857*
Y16063*
X11851*
Y16058*
X11846*
Y16052*
X1184*
Y16047*
X11829*
Y16041*
X11823*
Y16036*
X11817*
Y1603*
X11812*
Y16024*
X11806*
Y16019*
X11801*
Y16013*
X11795*
Y16007*
X11789*
Y16002*
X11784*
Y15996*
X11778*
Y15991*
X11772*
Y15985*
X11767*
Y15979*
X11761*
Y15974*
X11756*
Y15968*
X1175*
Y15962*
X11744*
Y15957*
X11739*
Y15951*
X11733*
Y15946*
X11727*
Y1594*
X11722*
Y15934*
X11716*
Y15929*
X11711*
Y15923*
X11705*
Y15917*
X117*
Y15912*
X11694*
Y15906*
X11688*
Y15901*
X11682*
Y15895*
X11677*
Y15884*
X11671*
Y15878*
X11666*
Y15872*
X1166*
Y15867*
X11655*
Y15861*
X11649*
Y1585*
X11643*
Y15844*
X11638*
Y15839*
X11632*
Y15833*
X11626*
Y15822*
X11621*
Y15816*
X11615*
Y15811*
X1161*
Y15805*
X11604*
Y15794*
X11598*
Y15788*
X11593*
Y15783*
X11587*
Y15777*
X11581*
Y15771*
X11576*
Y1576*
X1157*
Y15754*
X11565*
Y15749*
X11559*
Y15738*
X11553*
Y15732*
X11548*
Y15726*
X11542*
Y15715*
X11536*
Y15709*
X11531*
Y15698*
X11525*
Y15687*
X1152*
Y15681*
X11514*
Y1567*
X11508*
Y15664*
X11503*
Y15653*
X11497*
Y15648*
X11491*
Y15637*
X11486*
Y15631*
X1148*
Y15619*
X11475*
Y15614*
X11469*
Y15603*
X11463*
Y15597*
X11458*
Y15586*
X11452*
Y15575*
X11447*
Y15569*
X11441*
Y15558*
X11435*
Y15547*
X1143*
Y15535*
X11424*
Y15524*
X11418*
Y15513*
X11413*
Y15502*
X11407*
Y1549*
X11402*
Y15485*
X11396*
Y15473*
X1139*
Y15462*
X11385*
Y15451*
X11379*
Y1544*
X11373*
Y15428*
X11368*
Y15417*
X11362*
Y15406*
X11357*
Y15395*
X11351*
Y15378*
X11345*
Y15367*
X1134*
Y15355*
X11334*
Y15339*
X11328*
Y15322*
X11323*
Y1531*
X11317*
Y15294*
X11312*
Y15282*
X11306*
Y15265*
X113*
Y15254*
X11295*
Y15237*
X11289*
Y15226*
X11283*
Y15209*
X11278*
Y15193*
X11272*
Y1517*
X11267*
Y15153*
X11261*
Y15131*
X11256*
Y15114*
X1125*
Y15091*
X11244*
Y15074*
X11238*
Y15052*
X11233*
Y15029*
X11227*
Y15007*
X11222*
Y14979*
X11216*
Y14945*
X11211*
Y14917*
X11205*
Y14883*
X11199*
Y1485*
X11194*
Y1481*
X11188*
Y14743*
X11182*
Y14664*
X11177*
Y14501*
X11182*
Y14394*
X11188*
Y14349*
X11194*
Y1431*
X11199*
Y14265*
X11205*
Y14226*
X11211*
Y14198*
X11216*
Y14175*
X11222*
Y14153*
X11227*
Y14124*
X11233*
Y14102*
X11238*
Y14079*
X11244*
Y14052*
X1125*
Y14035*
X11256*
Y14012*
X11261*
Y13995*
X11267*
Y13978*
X11272*
Y13962*
X11278*
Y1395*
X11283*
Y13933*
X11289*
Y13917*
X11295*
Y139*
X113*
Y13883*
X11306*
Y13866*
X11312*
Y13849*
X11317*
Y13838*
X11323*
Y13821*
X11328*
Y1381*
X11334*
Y13799*
X1134*
Y13787*
X11345*
Y13776*
X11351*
Y13759*
X11357*
Y13748*
X11362*
Y13737*
X11368*
Y13725*
X11373*
Y13714*
X11379*
Y13703*
X11385*
Y13686*
X1139*
Y13675*
X11396*
Y13664*
X11402*
Y13658*
X11407*
Y13647*
X11413*
Y13635*
X11418*
Y13624*
X11424*
Y13613*
X1143*
Y13608*
X11435*
Y13596*
X11441*
Y13585*
X11447*
Y13579*
X11452*
Y13568*
X11458*
Y13557*
X11463*
Y13551*
X11469*
Y1354*
X11475*
Y13529*
X1148*
Y13523*
X11486*
Y13512*
X11491*
Y13501*
X11497*
Y13495*
X11503*
Y13484*
X11508*
Y13478*
X11514*
Y13467*
X1152*
Y13461*
X11525*
Y1345*
X11531*
Y13444*
X11536*
Y13439*
X11542*
Y13428*
X11548*
Y13422*
X11553*
Y13416*
X11559*
Y13405*
X11565*
Y134*
X1157*
Y13394*
X11576*
Y13383*
X11581*
Y13377*
X11587*
Y13371*
X11593*
Y1336*
X11598*
Y13355*
X11604*
Y13343*
X1161*
Y13338*
X11615*
Y13332*
X11621*
Y13326*
X11626*
Y13315*
X11632*
Y1331*
X11638*
Y13304*
X11643*
Y13298*
X11649*
Y13293*
X11655*
Y13287*
X1166*
Y13281*
X11666*
Y13276*
X11671*
Y1327*
X11677*
Y13259*
X11682*
Y13253*
X11688*
Y13248*
X11694*
Y13242*
X117*
Y13236*
X11705*
Y13231*
X11711*
Y13225*
X11716*
Y1322*
X11722*
Y13214*
X11727*
Y13203*
X11733*
Y13197*
X11739*
Y13191*
X11744*
Y13186*
X1175*
Y1318*
X11756*
Y13175*
X11761*
Y13169*
X11767*
Y13164*
X11772*
Y13158*
X11778*
Y13152*
X11789*
Y13147*
X11795*
Y13141*
X11801*
Y13135*
X11806*
Y1313*
X11812*
Y13124*
X11817*
Y13119*
X11823*
Y13113*
X11829*
Y13107*
X11834*
Y13102*
X11846*
Y13096*
X11851*
Y1309*
X11857*
Y13085*
X11862*
Y13079*
X11868*
Y13074*
X11874*
Y13068*
X11879*
Y13062*
X11885*
Y13057*
X11891*
Y13051*
X11902*
Y13045*
X11907*
Y1304*
X11919*
Y13034*
X11924*
Y13029*
X11935*
Y13023*
X11941*
Y13017*
X11952*
Y13012*
X11964*
Y13006*
X11969*
Y13*
X1198*
Y12995*
X11986*
Y12989*
X11997*
Y12984*
X12009*
Y12978*
X12014*
Y12972*
X12025*
Y12967*
X12037*
Y12961*
X12042*
Y12956*
X12054*
Y1295*
X12065*
Y12944*
X1207*
Y12939*
X12082*
Y12933*
X12087*
Y12927*
X12099*
Y12922*
X12104*
Y12916*
X1211*
Y12911*
X12115*
Y12905*
X12126*
Y12899*
X12132*
Y12894*
X12138*
Y12888*
X12149*
Y12882*
X12155*
Y12877*
X1216*
Y12871*
X12171*
Y12866*
X12177*
Y1286*
X12183*
Y12854*
X12194*
Y12849*
X122*
Y12843*
X12205*
Y12837*
X12216*
Y12832*
X12222*
Y12826*
X12228*
Y12821*
X12233*
Y12815*
X12245*
Y12809*
X1225*
Y12804*
X12262*
Y12798*
X12267*
Y12792*
X12273*
Y12787*
X12278*
Y12781*
X12284*
Y12776*
X1229*
Y1277*
X12295*
Y12765*
X12301*
Y12759*
X12306*
Y12753*
X12312*
Y12748*
X12323*
Y12742*
X12329*
Y12736*
X12335*
Y12731*
X1234*
Y12725*
X12346*
Y1272*
X12352*
Y12714*
X12357*
Y12708*
X12363*
Y12703*
X12368*
Y12697*
X12374*
Y12691*
X12379*
Y12686*
X12385*
Y1268*
X12396*
Y12675*
X12402*
Y12669*
X12408*
Y12663*
X12413*
Y12658*
X12419*
Y12652*
X12424*
Y12646*
X1243*
Y12641*
X12436*
Y12635*
X12441*
Y1263*
X12447*
Y12624*
X12453*
Y12618*
X12458*
Y12613*
X12464*
Y12607*
X12469*
Y12596*
X12475*
Y1259*
X12481*
Y12584*
X12486*
Y12579*
X12492*
Y12573*
X12498*
Y12568*
X12503*
Y12562*
X12509*
Y12556*
X12514*
Y12545*
X1252*
Y1254*
X12526*
Y12534*
X12531*
Y12528*
X12537*
Y12523*
X12543*
Y12517*
X12548*
Y12512*
X12554*
Y12506*
X12559*
Y12495*
X12565*
Y12489*
X1257*
Y12483*
X12576*
Y12478*
X12582*
Y12472*
X12587*
Y12467*
X12593*
Y12461*
X12599*
Y1245*
X12604*
Y12444*
X1261*
Y12433*
X12616*
Y12427*
X12621*
Y12422*
X12627*
Y1241*
X12632*
Y12405*
X12638*
Y12399*
X12644*
Y12388*
X12649*
Y12382*
X12655*
Y12377*
X12661*
Y12365*
X12666*
Y1236*
X12672*
Y12348*
X12677*
Y12343*
X12683*
Y12337*
X12689*
Y12326*
X12694*
Y12321*
X127*
Y12315*
X12706*
Y12304*
X12711*
Y12298*
X12717*
Y12292*
X12722*
Y12281*
X12728*
Y12276*
X12734*
Y12264*
X12739*
Y12253*
X12745*
Y12247*
X1275*
Y12236*
X12756*
Y12225*
X12762*
Y12214*
X12767*
Y12208*
X12773*
Y12197*
X12778*
Y12185*
X12784*
Y1218*
X1279*
Y12169*
X12796*
Y12157*
X12801*
Y12152*
X12807*
Y12141*
X12812*
Y12129*
X12818*
Y12124*
X12823*
Y12113*
X12829*
Y12101*
X12835*
Y12095*
X1284*
Y12084*
X12846*
Y12073*
X12852*
Y12062*
X12857*
Y12051*
X12863*
Y12039*
X12868*
Y12023*
X12874*
Y12011*
X1288*
Y12*
X12885*
Y11989*
X12891*
Y11978*
X12897*
Y11966*
X12902*
Y11955*
X12908*
Y11944*
X12913*
Y11927*
X12919*
Y11916*
X12925*
Y11904*
X1293*
Y11893*
X12936*
Y11882*
X12942*
Y11871*
X12947*
Y11854*
X12953*
Y11837*
X12958*
Y1182*
X12964*
Y11803*
X1297*
Y11792*
X12975*
Y11775*
X12981*
Y11758*
X12987*
Y11741*
X12992*
Y11725*
X12998*
Y11713*
X13003*
Y11696*
X13009*
Y1168*
X13014*
Y11669*
X1302*
Y11651*
X13026*
Y11624*
X13031*
Y11601*
X13037*
Y11579*
X13043*
Y11556*
X13048*
Y11534*
X13054*
Y11511*
X13059*
Y11489*
X13065*
Y11466*
X13071*
Y11449*
X13076*
Y11427*
X13082*
Y11382*
X13088*
Y11342*
X13093*
Y11309*
X13099*
Y11269*
X13105*
Y11236*
X1311*
Y11202*
X13116*
Y11078*
X13121*
Y10994*
X13127*
Y10955*
X13121*
Y10837*
X13116*
Y10724*
X1311*
Y10691*
X13105*
Y10651*
X13099*
Y10612*
X13093*
Y10567*
X13088*
Y10522*
X13082*
Y10494*
X13076*
Y10477*
X13071*
Y10454*
X13065*
Y10426*
X13059*
Y10404*
X13054*
Y10381*
X13048*
Y10359*
X13043*
Y10337*
X13037*
Y10308*
X13031*
Y10286*
X13026*
Y10269*
X1302*
Y10258*
X13014*
Y10241*
X13009*
Y10224*
X13003*
Y10207*
X12998*
Y1019*
X12992*
Y10173*
X12987*
Y10156*
X12981*
Y1014*
X12975*
Y10123*
X1297*
Y10106*
X12964*
Y10089*
X12958*
Y10072*
X12953*
Y10061*
X12947*
Y1005*
X12942*
Y10039*
X12936*
Y10027*
X1293*
Y1001*
X12925*
Y09999*
X12919*
Y09988*
X12913*
Y09977*
X12908*
Y09965*
X12902*
Y09949*
X12897*
Y09938*
X12891*
Y09926*
X12885*
Y09915*
X1288*
Y09904*
X12874*
Y09887*
X12868*
Y09876*
X12863*
Y09864*
X12857*
Y09853*
X12852*
Y09842*
X12846*
Y09836*
X1284*
Y09825*
X12835*
Y09814*
X12829*
Y09808*
X12823*
Y09797*
X12818*
Y09786*
X12812*
Y09774*
X12807*
Y09769*
X12801*
Y09758*
X12796*
Y09746*
X1279*
Y09735*
X12784*
Y09729*
X12778*
Y09718*
X12773*
Y09707*
X12767*
Y09696*
X12762*
Y0969*
X12756*
Y09679*
X1275*
Y09668*
X12745*
Y09656*
X12739*
Y09651*
X12734*
Y09645*
X12728*
Y09634*
X12722*
Y09628*
X12717*
Y09623*
X12711*
Y09611*
X12706*
Y09606*
X127*
Y09595*
X12694*
Y09589*
X12689*
Y09583*
X12683*
Y09572*
X12677*
Y09566*
X12672*
Y09555*
X12666*
Y0955*
X12661*
Y09544*
X12655*
Y09533*
X12649*
Y09527*
X12644*
Y09516*
X12638*
Y0951*
X12632*
Y09505*
X12627*
Y09494*
X12621*
Y09488*
X12616*
Y09476*
X1261*
Y09471*
X12604*
Y09465*
X12599*
Y0946*
X12593*
Y09454*
X12587*
Y09448*
X12582*
Y09437*
X12576*
Y09432*
X1257*
Y09426*
X12565*
Y0942*
X12559*
Y09415*
X12554*
Y09409*
X12548*
Y09403*
X12543*
Y09392*
X12537*
Y09387*
X12531*
Y09381*
X12526*
Y09375*
X1252*
Y0937*
X12514*
Y09364*
X12509*
Y09353*
X12503*
Y09347*
X12498*
Y09342*
X12492*
Y09336*
X12486*
Y0933*
X12481*
Y09325*
X12475*
Y09313*
X12469*
Y09308*
X12464*
Y09302*
X12458*
Y09297*
X12453*
Y09291*
X12447*
Y09285*
X12441*
Y0928*
X12436*
Y09274*
X1243*
Y09268*
X12419*
Y09263*
X12413*
Y09257*
X12408*
Y09252*
X12402*
Y09246*
X12396*
Y09241*
X12391*
Y09235*
X12385*
Y09229*
X12379*
Y09224*
X12374*
Y09218*
X12368*
Y09212*
X12363*
Y09207*
X12357*
Y09201*
X12352*
Y09196*
X12346*
Y0919*
X1234*
Y09184*
X12335*
Y09179*
X12329*
Y09173*
X12323*
Y09167*
X12318*
Y09162*
X12312*
Y09156*
X12306*
Y09151*
X12301*
Y09145*
X1229*
Y09139*
X12284*
Y09134*
X12278*
Y09128*
X12267*
Y09122*
X12262*
Y09117*
X12256*
Y09111*
X1225*
Y09106*
X12239*
Y091*
X12233*
Y09094*
X12228*
Y09089*
X12216*
Y09083*
X12211*
Y09077*
X12205*
Y09072*
X122*
Y09066*
X12188*
Y09061*
X12183*
Y09055*
X12177*
Y09049*
X12166*
Y09044*
X1216*
Y09038*
X12155*
Y09033*
X12149*
Y09027*
X12138*
Y09021*
X12132*
Y09016*
X12126*
Y0901*
X12121*
Y09004*
X1211*
Y08999*
X12104*
Y08993*
X12093*
Y08988*
X12082*
Y08982*
X12076*
Y08976*
X12065*
Y08971*
X12059*
Y08965*
X12048*
Y0896*
X12042*
Y08954*
X12031*
Y08948*
X1202*
Y08943*
X12014*
Y08937*
X12003*
Y08931*
X11997*
Y08926*
X11986*
Y0892*
X1198*
Y08914*
X11969*
Y08909*
X11958*
Y08903*
X11952*
Y08898*
X11941*
Y08892*
X11935*
Y08886*
X11924*
Y08881*
X11919*
Y08875*
X11907*
Y08869*
X11896*
Y08864*
X11885*
Y08858*
X11874*
Y08853*
X11862*
Y08847*
X11851*
Y08841*
X1184*
Y08836*
X11829*
Y0883*
X11817*
Y08824*
X11806*
Y08819*
X11795*
Y08813*
X11784*
Y08808*
X11772*
Y08802*
X11761*
Y08797*
X1175*
Y08791*
X11739*
Y08785*
X11727*
Y0878*
X11716*
Y08774*
X11705*
Y08768*
X11682*
Y08763*
X11643*
Y08768*
X11621*
Y08774*
X1161*
Y0878*
X11598*
Y08785*
X11593*
Y08791*
X11587*
Y08797*
X11581*
Y08802*
X11576*
Y08808*
X1157*
Y08813*
X11565*
Y08824*
X11559*
Y08836*
X11553*
Y08847*
X11548*
Y08914*
X11553*
Y08926*
X11559*
Y08937*
X11565*
Y08948*
X1157*
Y08954*
X11576*
Y0896*
X11581*
Y08965*
X11587*
Y08971*
X11593*
Y08976*
X11598*
Y08982*
X1161*
Y08988*
X11621*
Y08993*
X11632*
Y08999*
X11643*
Y09004*
X11655*
Y0901*
X11666*
Y09016*
X11677*
Y09021*
X11688*
Y09027*
X117*
Y09033*
X11711*
Y09038*
X11722*
Y09044*
X11727*
Y09049*
X11739*
Y09055*
X1175*
Y09061*
X11761*
Y09066*
X11772*
Y09072*
X11784*
Y09077*
X11795*
Y09083*
X11806*
Y09089*
X11817*
Y09094*
X11823*
Y091*
X11834*
Y09106*
X1184*
Y09111*
X11851*
Y09117*
X11857*
Y09122*
X11868*
Y09128*
X11879*
Y09134*
X11885*
Y09139*
X11896*
Y09145*
X11902*
Y09151*
X11913*
Y09156*
X11919*
Y09162*
X1193*
Y09167*
X11941*
Y09173*
X11947*
Y09179*
X11958*
Y09184*
X11964*
Y0919*
X11975*
Y09196*
X1198*
Y09201*
X11986*
Y09207*
X11997*
Y09212*
X12003*
Y09218*
X12009*
Y09224*
X1202*
Y09229*
X12025*
Y09235*
X12031*
Y09241*
X12037*
Y09246*
X12048*
Y09252*
X12054*
Y09257*
X12059*
Y09263*
X1207*
Y09268*
X12076*
Y09274*
X12082*
Y0928*
X12087*
Y09285*
X12099*
Y09291*
X12104*
Y09297*
X1211*
Y09302*
X12115*
Y09308*
X12126*
Y09313*
X12132*
Y09319*
X12138*
Y09325*
X12143*
Y0933*
X12149*
Y09336*
X12155*
Y09342*
X12166*
Y09347*
X12171*
Y09353*
X12177*
Y09359*
X12183*
Y09364*
X12188*
Y0937*
X12194*
Y09375*
X122*
Y09381*
X12205*
Y09387*
X12211*
Y09392*
X12216*
Y09398*
X12222*
Y09403*
X12228*
Y09409*
X12233*
Y09415*
X12239*
Y0942*
X12245*
Y09426*
X1225*
Y09432*
X12256*
Y09437*
X12262*
Y09443*
X12273*
Y09448*
X12278*
Y09454*
X12284*
Y09465*
X1229*
Y09471*
X12295*
Y09476*
X12301*
Y09482*
X12306*
Y09488*
X12312*
Y09494*
X12318*
Y09499*
X12323*
Y09505*
X12329*
Y0951*
X12335*
Y09521*
X1234*
Y09527*
X12346*
Y09533*
X12352*
Y09538*
X12357*
Y09544*
X12363*
Y0955*
X12368*
Y09561*
X12374*
Y09566*
X12379*
Y09572*
X12385*
Y09578*
X12391*
Y09583*
X12396*
Y09589*
X12402*
Y09595*
X12408*
Y09606*
X12413*
Y09611*
X12419*
Y09617*
X12424*
Y09623*
X1243*
Y09634*
X12436*
Y0964*
X12441*
Y09645*
X12447*
Y09656*
X12453*
Y09662*
X12458*
Y09668*
X12464*
Y09679*
X12469*
Y09685*
X12475*
Y09696*
X12481*
Y09701*
X12486*
Y09707*
X12492*
Y09718*
X12498*
Y09724*
X12503*
Y09735*
X12509*
Y09741*
X12514*
Y09752*
X1252*
Y09758*
X12526*
Y09763*
X12531*
Y09774*
X12537*
Y0978*
X12543*
Y09791*
X12548*
Y09797*
X12554*
Y09808*
X12559*
Y09819*
X12565*
Y09825*
X1257*
Y09836*
X12576*
Y09848*
X12582*
Y09859*
X12587*
Y09864*
X12593*
Y09876*
X12599*
Y09887*
X12604*
Y09898*
X1261*
Y09904*
X12616*
Y09915*
X12621*
Y09926*
X12627*
Y09932*
X12632*
Y09943*
X12638*
Y09954*
X12644*
Y09965*
X12649*
Y09977*
X12655*
Y09988*
X12661*
Y09999*
X12666*
Y1001*
X12672*
Y10022*
X12677*
Y10039*
X12683*
Y1005*
X12689*
Y10061*
X12694*
Y10072*
X127*
Y10084*
X12706*
Y101*
X12711*
Y10112*
X12717*
Y10123*
X12722*
Y10134*
X12728*
Y10145*
X12734*
Y10162*
X12739*
Y10179*
X12745*
Y1019*
X1275*
Y10207*
X12756*
Y10224*
X12762*
Y10241*
X12767*
Y10258*
X12773*
Y10275*
X12778*
Y10292*
X12784*
Y10308*
X1279*
Y10325*
X12796*
Y10342*
X12801*
Y10359*
X12807*
Y10381*
X12812*
Y10404*
X12818*
Y10426*
X12823*
Y10449*
X12829*
Y10471*
X12835*
Y10499*
X1284*
Y10522*
X12846*
Y10544*
X12852*
Y10578*
X12857*
Y10617*
X12863*
Y10657*
X12868*
Y10696*
X12874*
Y10736*
X1288*
Y10808*
X12885*
Y10943*
X12891*
Y10994*
X12885*
Y11095*
X1288*
Y1118*
X12874*
Y11225*
X12868*
Y11264*
X12863*
Y11297*
X12857*
Y11337*
X12852*
Y11371*
X12846*
Y11399*
X1284*
Y11421*
X12835*
Y11444*
X12829*
Y11466*
X12823*
Y11489*
X12818*
Y11511*
X12812*
Y11534*
X12807*
Y11556*
X12801*
Y11579*
X12796*
Y11595*
X1279*
Y11612*
X12784*
Y11629*
X12778*
Y11646*
X12773*
Y11657*
X12767*
Y11674*
X12762*
Y11691*
X12756*
Y11708*
X1275*
Y11719*
X12745*
Y11736*
X12739*
Y11753*
X12734*
Y1177*
X12728*
Y11781*
X12722*
Y11798*
X12717*
Y11809*
X12711*
Y1182*
X12706*
Y11831*
X127*
Y11843*
X12694*
Y11854*
X12689*
Y11865*
X12683*
Y11882*
X12677*
Y11893*
X12672*
Y11904*
X12666*
Y11916*
X12661*
Y11927*
X12655*
Y11938*
X12649*
Y11949*
X12644*
Y11961*
X12638*
Y11972*
X12632*
Y11983*
X12627*
Y11994*
X12621*
Y12*
X12616*
Y12011*
X1261*
Y12023*
X12604*
Y12034*
X12599*
Y12039*
X12593*
Y12051*
X12587*
Y12062*
X12582*
Y12068*
X12576*
Y12079*
X1257*
Y1209*
X12565*
Y12095*
X12559*
Y12107*
X12554*
Y12118*
X12548*
Y12124*
X12543*
Y12135*
X12537*
Y12141*
X12531*
Y12152*
X12526*
Y12163*
X1252*
Y12169*
X12514*
Y12174*
X12509*
Y12185*
X12503*
Y12191*
X12498*
Y12197*
X12492*
Y12208*
X12486*
Y12214*
X12481*
Y12225*
X12475*
Y1223*
X12469*
Y12236*
X12464*
Y12247*
X12458*
Y12253*
X12453*
Y12259*
X12447*
Y1227*
X12441*
Y12276*
X12436*
Y12281*
X1243*
Y12292*
X12424*
Y12298*
X12419*
Y12304*
X12413*
Y12315*
X12408*
Y12321*
X12402*
Y12326*
X12396*
Y12332*
X12391*
Y12337*
X12385*
Y12348*
X12379*
Y12354*
X12374*
Y1236*
X12368*
Y12365*
X12363*
Y12371*
X12357*
Y12377*
X12352*
Y12382*
X12346*
Y12388*
X1234*
Y12399*
X12335*
Y12405*
X12329*
Y1241*
X12323*
Y12416*
X12318*
Y12422*
X12312*
Y12427*
X12306*
Y12433*
X12301*
Y12438*
X12295*
Y1245*
X1229*
Y12455*
X12284*
Y12461*
X12278*
Y12467*
X12273*
Y12472*
X12267*
Y12478*
X12262*
Y12483*
X12256*
Y12489*
X1225*
Y12495*
X12245*
Y125*
X12239*
Y12506*
X12228*
Y12512*
X12222*
Y12517*
X12216*
Y12523*
X12211*
Y12528*
X12205*
Y12534*
X122*
Y1254*
X12194*
Y12545*
X12188*
Y12551*
X12183*
Y12556*
X12177*
Y12562*
X12171*
Y12568*
X12166*
Y12573*
X12155*
Y12579*
X12149*
Y12584*
X12143*
Y1259*
X12138*
Y12596*
X12132*
Y12601*
X12126*
Y12607*
X12121*
Y12613*
X12115*
Y12618*
X12104*
Y12624*
X12099*
Y1263*
X12093*
Y12635*
X12087*
Y12641*
X12076*
Y12646*
X1207*
Y12652*
X12065*
Y12658*
X12054*
Y12663*
X12048*
Y12669*
X12042*
Y12675*
X12031*
Y1268*
X12025*
Y12686*
X1202*
Y12691*
X12009*
Y12697*
X12003*
Y12703*
X11997*
Y12708*
X11986*
Y12714*
X1198*
Y1272*
X11975*
Y12725*
X11964*
Y12731*
X11958*
Y12736*
X11952*
Y12742*
X11941*
Y12748*
X11935*
Y12753*
X11924*
Y12759*
X11913*
Y12765*
X11907*
Y1277*
X11896*
Y12776*
X11891*
Y12781*
X11879*
Y12787*
X11868*
Y12792*
X11862*
Y12798*
X11851*
Y12804*
X1184*
Y12809*
X11834*
Y12815*
X11823*
Y12821*
X11817*
Y12826*
X11806*
Y12832*
X11795*
Y12837*
X11789*
Y12843*
X11778*
Y12849*
X11767*
Y12854*
X11761*
Y1286*
X11756*
Y12866*
X11744*
Y12871*
X11739*
Y12877*
X11733*
Y12882*
X11727*
Y12888*
X11722*
Y12894*
X11716*
Y12899*
X11711*
Y12905*
X11705*
Y12911*
X117*
Y12916*
X11694*
Y12922*
X11688*
Y12927*
X11677*
Y12933*
X11671*
Y12939*
X11666*
Y12944*
X1166*
Y1295*
X11655*
Y12956*
X11649*
Y12961*
X11643*
Y12967*
X11638*
Y12972*
X11632*
Y12978*
X11621*
Y12984*
X11615*
Y12989*
X1161*
Y12995*
X11604*
Y13*
X11598*
Y13006*
X11593*
Y13012*
X11587*
Y13017*
X11581*
Y13023*
X11576*
Y13029*
X1157*
Y13034*
X11565*
Y1304*
X11559*
Y13045*
X11553*
Y13057*
X11548*
Y13062*
X11542*
Y13068*
X11536*
Y13074*
X11531*
Y13079*
X11525*
Y13085*
X1152*
Y1309*
X11514*
Y13096*
X11508*
Y13102*
X11503*
Y13113*
X11497*
Y13119*
X11491*
Y13124*
X11486*
Y1313*
X1148*
Y13135*
X11475*
Y13141*
X11469*
Y13147*
X11463*
Y13152*
X11458*
Y13158*
X11452*
Y13164*
X11447*
Y13169*
X11441*
Y1318*
X11435*
Y13186*
X1143*
Y13191*
X11424*
Y13203*
X11418*
Y13209*
X11413*
Y1322*
X11407*
Y13225*
X11402*
Y13231*
X11396*
Y13242*
X1139*
Y13248*
X11385*
Y13253*
X11379*
Y13265*
X11373*
Y1327*
X11368*
Y13276*
X11362*
Y13287*
X11357*
Y13293*
X11351*
Y13298*
X11345*
Y1331*
X1134*
Y13315*
X11334*
Y13326*
X11328*
Y13332*
X11323*
Y13338*
X11317*
Y13343*
X11312*
Y13355*
X11306*
Y1336*
X113*
Y13371*
X11295*
Y13383*
X11289*
Y13394*
X11283*
Y134*
X11278*
Y13411*
X11272*
Y13422*
X11267*
Y13428*
X11261*
Y13439*
X11256*
Y1345*
X1125*
Y13461*
X11244*
Y13467*
X11238*
Y13478*
X11233*
Y13489*
X11227*
Y13495*
X11222*
Y13506*
X11216*
Y13518*
X11211*
Y13523*
X11205*
Y13534*
X11199*
Y1354*
X11194*
Y13551*
X11188*
Y13568*
X11182*
Y13579*
X11177*
Y13591*
X11171*
Y13602*
X11166*
Y13619*
X1116*
Y1363*
X11154*
Y13641*
X11149*
Y13653*
X11143*
Y13664*
X11137*
Y13675*
X11132*
Y13686*
X11126*
Y13703*
X11121*
Y13714*
X11115*
Y13725*
X11109*
Y13737*
X11104*
Y13748*
X11098*
Y13765*
X11092*
Y13782*
X11087*
Y13799*
X11081*
Y13815*
X11076*
Y13832*
X1107*
Y13849*
X11064*
Y13866*
X11059*
Y13877*
X11053*
Y13894*
X11047*
Y13911*
X11042*
Y13928*
X11036*
Y13945*
X11031*
Y13956*
X11025*
Y13984*
X11019*
Y14007*
X11014*
Y14035*
X11008*
Y14057*
X11003*
Y14079*
X10997*
Y14102*
X10991*
Y1413*
X10986*
Y14153*
X1098*
Y14169*
X10974*
Y14214*
X10969*
Y1426*
X10963*
Y14304*
X10958*
Y14349*
X10952*
Y14383*
X10946*
Y14546*
X10941*
Y14659*
X10946*
Y14731*
X10952*
Y1481*
X10958*
Y14866*
X10963*
Y14895*
X10969*
Y14928*
X10974*
Y14962*
X1098*
Y1499*
X10986*
Y15024*
X10991*
Y15063*
X10997*
Y15086*
X11003*
Y15103*
X11008*
Y15119*
X11014*
Y15142*
X11019*
Y15159*
X11025*
Y15181*
X11031*
Y15198*
X11036*
Y1522*
X11042*
Y15237*
X11047*
Y1526*
X11053*
Y15282*
X11059*
Y15299*
X11064*
Y1531*
X1107*
Y15322*
X11076*
Y15339*
X11081*
Y1535*
X11087*
Y15367*
X11092*
Y15378*
X11098*
Y15395*
X11104*
Y15406*
X11109*
Y15423*
X11115*
Y15434*
X11121*
Y15451*
X11126*
Y15468*
X11132*
Y15485*
X11137*
Y15496*
X11143*
Y15507*
X11149*
Y15518*
X11154*
Y15524*
X1116*
Y15535*
X11166*
Y15547*
X11171*
Y15558*
X11177*
Y15569*
X11182*
Y1558*
X11188*
Y15592*
X11194*
Y15603*
X11199*
Y15614*
X11205*
Y15625*
X11211*
Y15637*
X11216*
Y15648*
X11222*
Y15653*
X11227*
Y15664*
X11233*
Y15681*
X11238*
Y15693*
X11244*
Y15698*
X1125*
Y15709*
X11256*
Y15715*
X11261*
Y15721*
X11267*
Y15732*
X11272*
Y15743*
X11278*
Y15749*
X11283*
Y1576*
X11289*
Y15766*
X11295*
Y15777*
X113*
Y15783*
X11306*
Y15794*
X11312*
Y15799*
X11317*
Y15811*
X11323*
Y15816*
X11328*
Y15828*
X11334*
Y15833*
X1134*
Y15844*
X11345*
Y1585*
X11351*
Y15861*
X11357*
Y15872*
X11362*
Y15878*
X11368*
Y15884*
X11373*
Y15895*
X11379*
Y15901*
X11385*
Y15906*
X1139*
Y15912*
X11396*
Y15917*
X11402*
Y15929*
X11407*
Y15934*
X11413*
Y1594*
X11418*
Y15946*
X11424*
Y15957*
X1143*
Y15962*
X11435*
Y15968*
X11441*
Y15974*
X11447*
Y15979*
X11452*
Y15991*
X11458*
Y15996*
X11463*
Y16002*
X11469*
Y16007*
X11475*
Y16019*
X1148*
Y16024*
X11486*
Y1603*
X11491*
Y16041*
X11497*
Y16047*
X11503*
Y16052*
X11508*
Y16058*
X11514*
Y16063*
X1152*
Y16069*
X11525*
Y16075*
X11531*
Y1608*
X11536*
Y16086*
X11542*
Y16092*
X11548*
Y16097*
X11553*
Y16103*
X11559*
Y16108*
X11565*
Y16114*
X1157*
Y1612*
X11576*
Y16125*
X11581*
Y16131*
X11587*
Y16137*
X11593*
Y16142*
X11598*
Y16148*
X11604*
Y16153*
X1161*
Y16159*
X11615*
Y16165*
X11621*
Y1617*
X11626*
Y16176*
X11632*
Y16182*
X11638*
Y16187*
X11643*
Y16193*
X11649*
Y16198*
X11655*
Y16204*
X1166*
Y1621*
X11666*
Y16215*
X11671*
Y16221*
X11677*
Y16227*
X11688*
Y16232*
X11694*
Y16238*
X117*
Y16243*
X11705*
Y16249*
X11716*
Y16255*
X11722*
Y1626*
X11727*
Y16266*
X11733*
Y16272*
X11739*
Y16277*
X1175*
Y16283*
X11756*
Y16288*
X11761*
Y16294*
X11767*
Y163*
X11778*
Y16305*
X11784*
Y16311*
X11789*
Y16316*
X11795*
Y16322*
X11801*
Y16328*
X11812*
Y16333*
X11817*
Y16339*
X11823*
Y16345*
X11829*
Y1635*
X11834*
Y16356*
X11846*
Y16361*
X11851*
Y16367*
X11862*
Y16373*
X11874*
Y16378*
X11879*
Y16384*
X11891*
Y1639*
X11896*
Y16395*
X11907*
Y16401*
X11913*
Y16406*
X11924*
Y16412*
X1193*
Y16418*
X11941*
Y16423*
X11947*
Y16429*
X11958*
Y16435*
X11964*
Y1644*
X11975*
Y16446*
X1198*
Y16451*
X11992*
Y16457*
X11997*
Y16463*
X12003*
Y16468*
X12014*
Y16474*
X1202*
Y1648*
X12031*
Y16485*
X12042*
Y16491*
X12054*
Y16496*
X12065*
Y16502*
X12076*
Y16507*
X12087*
Y16513*
X12099*
Y16519*
X1211*
Y16524*
X12121*
Y1653*
X12132*
Y16536*
X12143*
Y16541*
X12149*
Y16547*
X1216*
Y16552*
X12171*
Y16558*
X12183*
Y16564*
X12194*
Y16569*
X12205*
Y16575*
X12211*
Y16581*
X12228*
Y16586*
X12239*
Y16592*
X12256*
Y16597*
X12267*
Y16603*
X12284*
Y16609*
X12295*
Y16614*
X12312*
Y1662*
X12323*
Y16626*
X1234*
Y16631*
X12352*
Y16637*
X12368*
Y16642*
X12379*
Y16648*
X12396*
Y16654*
X12408*
Y16659*
X12424*
Y16665*
X12441*
Y16671*
X12492*
Y16665*
G37*
%LNpcb-2*%
%LPC*%
G36*
X14802Y16682D02*
X14633D01*
Y16676*
X14538*
Y16671*
X14493*
Y16665*
X14453*
Y16659*
X14408*
Y16654*
X14375*
Y16648*
X14347*
Y16642*
X14324*
Y16637*
X14296*
Y16631*
X14274*
Y16626*
X14251*
Y1662*
X14229*
Y16614*
X14206*
Y16609*
X14184*
Y16603*
X14167*
Y16597*
X1415*
Y16592*
X14133*
Y16586*
X14116*
Y16581*
X14099*
Y16575*
X14088*
Y16569*
X14071*
Y16564*
X14054*
Y16558*
X14038*
Y16552*
X14021*
Y16547*
X14009*
Y16541*
X13993*
Y16536*
X13981*
Y1653*
X1397*
Y16524*
X13959*
Y16519*
X13948*
Y16513*
X13936*
Y16507*
X13919*
Y16502*
X13908*
Y16496*
X13897*
Y16491*
X13886*
Y16485*
X13875*
Y1648*
X13863*
Y16474*
X13852*
Y16468*
X13841*
Y16463*
X1383*
Y16457*
X13818*
Y16451*
X13807*
Y16446*
X13801*
Y1644*
X1379*
Y16435*
X13779*
Y16429*
X13773*
Y16423*
X13762*
Y16418*
X13751*
Y16412*
X13745*
Y16406*
X13734*
Y16401*
X13723*
Y16395*
X13717*
Y1639*
X13706*
Y16384*
X13695*
Y16378*
X13689*
Y16373*
X13678*
Y16367*
X13672*
Y16361*
X13661*
Y16356*
X13655*
Y1635*
X13644*
Y16345*
X13639*
Y16339*
X13633*
Y16333*
X13622*
Y16328*
X13616*
Y16322*
X1361*
Y16316*
X13599*
Y16311*
X13594*
Y16305*
X13588*
Y163*
X13577*
Y16294*
X13571*
Y16288*
X13565*
Y16283*
X1356*
Y16277*
X13549*
Y16272*
X13543*
Y16266*
X13537*
Y1626*
X13526*
Y16255*
X1352*
Y16249*
X13515*
Y16243*
X13509*
Y16238*
X13498*
Y16232*
X13492*
Y16227*
X13487*
Y16221*
X13481*
Y16215*
X13475*
Y1621*
X1347*
Y16204*
X13464*
Y16198*
X13459*
Y16193*
X13453*
Y16187*
X13447*
Y16182*
X13442*
Y16176*
X13436*
Y1617*
X13431*
Y16165*
X13419*
Y16159*
X13413*
Y16153*
X13408*
Y16148*
X13402*
Y16142*
X13397*
Y16137*
X13391*
Y16131*
X13386*
Y16125*
X1338*
Y1612*
X13374*
Y16114*
X13369*
Y16108*
X13363*
Y16103*
X13357*
Y16097*
X13352*
Y16092*
X13346*
Y16086*
X13341*
Y1608*
Y16075*
X13335*
Y16069*
X13329*
Y16063*
X13324*
Y16058*
X13318*
Y16052*
X13312*
Y16047*
X13307*
Y16041*
Y16036*
X13301*
Y1603*
X13296*
Y16024*
X1329*
Y16019*
X13284*
Y16013*
X13279*
Y16007*
X13273*
Y16002*
X13267*
Y15996*
Y15991*
X13262*
Y15985*
X13256*
Y15979*
X13251*
Y15974*
X13245*
Y15968*
X1324*
Y15962*
Y15957*
X13234*
Y15951*
X13228*
Y15946*
X13222*
Y1594*
Y15934*
X13217*
Y15929*
X13211*
Y15923*
Y15917*
X13206*
Y15912*
X132*
Y15906*
Y15901*
X13195*
Y15895*
X13189*
Y15889*
X13183*
Y15884*
Y15878*
X13178*
Y15872*
X13172*
Y15867*
Y15861*
X13166*
Y15856*
X13161*
Y1585*
Y15844*
X13155*
Y15839*
X1315*
Y15833*
X13144*
Y15828*
Y15822*
X13138*
Y15816*
X13133*
Y15811*
Y15805*
X13127*
Y15799*
Y15794*
X13121*
Y15788*
X13116*
Y15783*
Y15777*
X1311*
Y15771*
Y15766*
X13105*
Y1576*
Y15754*
X13099*
Y15749*
X13093*
Y15743*
Y15738*
X13088*
Y15732*
Y15726*
X13082*
Y15721*
Y15715*
X13076*
Y15709*
Y15704*
X13071*
Y15698*
X13065*
Y15693*
Y15687*
X13059*
Y15681*
Y15676*
X13054*
Y1567*
Y15664*
X13048*
Y15659*
Y15653*
X13043*
Y15648*
Y15642*
X13037*
Y15637*
Y15631*
X13031*
Y15625*
Y15619*
X13026*
Y15614*
X1302*
Y15608*
Y15603*
Y15597*
X13014*
Y15592*
Y15586*
X13009*
Y1558*
Y15575*
X13003*
Y15569*
Y15563*
X12998*
Y15558*
Y15552*
X12992*
Y15547*
Y15541*
X12987*
Y15535*
Y1553*
X12981*
Y15524*
Y15518*
X12975*
Y15513*
Y15507*
Y15502*
X1297*
Y15496*
Y1549*
X12964*
Y15485*
Y15479*
X12958*
Y15473*
Y15468*
X12953*
Y15462*
Y15457*
X12947*
Y15451*
Y15445*
X12942*
Y1544*
Y15434*
X12936*
Y15428*
Y15423*
X1293*
Y15417*
Y15412*
Y15406*
X12925*
Y154*
Y15395*
X12919*
Y15389*
Y15384*
X12913*
Y15378*
Y15372*
Y15367*
X12908*
Y15361*
Y15355*
X12902*
Y1535*
Y15344*
Y15339*
X12897*
Y15333*
Y15327*
X12891*
Y15322*
Y15316*
Y1531*
X12885*
Y15305*
Y15299*
X1288*
Y15294*
Y15288*
Y15282*
X12874*
Y15277*
Y15271*
Y15265*
X12868*
Y1526*
Y15254*
X12863*
Y15249*
Y15243*
Y15237*
X12857*
Y15232*
Y15226*
X12852*
Y1522*
Y15215*
Y15209*
X12846*
Y15204*
Y15198*
X1284*
Y15193*
Y15187*
Y15181*
X12835*
Y15175*
Y1517*
X12829*
Y15164*
Y15159*
Y15153*
X12823*
Y15148*
Y15142*
Y15136*
X12818*
Y15131*
Y15125*
Y15119*
X12812*
Y15114*
Y15108*
Y15103*
X12807*
Y15097*
Y15091*
Y15086*
X12801*
Y1508*
Y15074*
Y15069*
X12796*
Y15063*
Y15058*
Y15052*
Y15046*
X1279*
Y15041*
Y15035*
Y15029*
X12784*
Y15024*
Y15018*
Y15012*
X12778*
Y15007*
Y15001*
Y14996*
X12773*
Y1499*
Y14984*
Y14979*
X12767*
Y14973*
Y14968*
Y14962*
X12762*
Y14956*
Y14951*
Y14945*
Y1494*
X12756*
Y14934*
Y14928*
Y14923*
X1275*
Y14917*
Y14911*
Y14906*
X12745*
Y149*
Y14895*
Y14889*
Y14883*
X12739*
Y14878*
Y14872*
Y14866*
X12734*
Y14861*
Y14855*
Y1485*
Y14844*
X12728*
Y14838*
Y14833*
Y14827*
Y14821*
X12722*
Y14816*
Y1481*
Y14805*
Y14799*
Y14793*
X12717*
Y14788*
Y14782*
Y14776*
Y14771*
X12711*
Y14765*
Y1476*
Y14754*
Y14748*
X12706*
Y14743*
Y14737*
Y14731*
Y14726*
X127*
Y1472*
Y14715*
Y14709*
Y14703*
X12694*
Y14698*
Y14692*
Y14687*
Y14681*
X12689*
Y14675*
Y1467*
Y14664*
Y14659*
X12683*
Y14653*
Y14647*
Y14642*
Y14636*
Y1463*
X12677*
Y14625*
Y14619*
Y14613*
Y14608*
X12672*
Y14602*
Y14597*
Y14591*
Y14585*
Y1458*
Y14574*
X12666*
Y14568*
Y14563*
Y14557*
Y14552*
Y14546*
Y1454*
X12661*
Y14535*
Y14529*
Y14523*
Y14518*
Y14512*
Y14507*
X12655*
Y14501*
Y14496*
Y1449*
Y14484*
Y14479*
X12649*
Y14473*
Y14467*
Y14462*
Y14456*
Y14451*
Y14445*
X12644*
Y14439*
Y14434*
Y14428*
Y14422*
Y14417*
Y14411*
X12638*
Y14406*
Y144*
Y14394*
Y14389*
Y14383*
Y14377*
X12632*
Y14372*
Y14366*
Y14361*
Y14355*
Y14349*
Y14344*
Y14338*
X12627*
Y14332*
Y14327*
Y14321*
Y14316*
Y1431*
Y14304*
Y14299*
Y14293*
Y14288*
Y14282*
X12621*
Y14276*
Y14271*
Y14265*
Y1426*
Y14254*
Y14248*
Y14243*
Y14237*
Y14231*
X12616*
Y14226*
Y1422*
Y14214*
Y14209*
Y14203*
Y14198*
Y14192*
Y14186*
Y14181*
X1261*
Y14175*
Y14169*
Y14164*
Y14158*
Y14153*
Y14147*
Y14141*
Y14136*
Y1413*
Y14124*
X12604*
Y14119*
Y14113*
Y14108*
Y14102*
Y14096*
Y14091*
Y14085*
Y14079*
Y14074*
Y14068*
Y14063*
Y14057*
Y14052*
Y14046*
Y1404*
Y14035*
Y14029*
X12599*
Y14023*
Y14018*
Y14012*
Y14007*
Y14001*
Y13995*
Y1399*
Y13984*
Y13978*
Y13973*
Y13967*
Y13962*
Y13956*
Y1395*
Y13945*
Y13939*
Y13933*
Y13928*
Y13922*
Y13917*
Y13911*
Y13905*
Y139*
Y13894*
Y13888*
Y13883*
X12593*
Y13877*
Y13872*
Y13866*
Y1386*
Y13855*
Y13849*
Y13844*
Y13838*
Y13832*
Y13827*
Y13821*
Y13815*
Y1381*
Y13804*
Y13799*
Y13793*
Y13787*
Y13782*
Y13776*
Y1377*
Y13765*
Y13759*
X12599*
Y13754*
Y13748*
Y13742*
Y13737*
Y13731*
Y13725*
Y1372*
Y13714*
Y13709*
Y13703*
Y13697*
Y13692*
Y13686*
Y1368*
Y13675*
Y13669*
Y13664*
Y13658*
Y13653*
Y13647*
Y13641*
Y13635*
Y1363*
Y13624*
Y13619*
Y13613*
Y13608*
Y13602*
Y13596*
Y13591*
Y13585*
Y13579*
Y13574*
X12604*
Y13568*
Y13563*
Y13557*
Y13551*
Y13546*
Y1354*
Y13534*
Y13529*
Y13523*
Y13518*
Y13512*
Y13506*
Y13501*
X1261*
Y13495*
Y13489*
Y13484*
Y13478*
Y13473*
Y13467*
Y13461*
Y13456*
Y1345*
Y13444*
Y13439*
X12616*
Y13433*
Y13428*
Y13422*
Y13416*
Y13411*
Y13405*
Y134*
Y13394*
Y13388*
Y13383*
X12621*
Y13377*
X12627*
Y13371*
X12649*
Y13366*
X12672*
Y1336*
X12694*
Y13355*
X12717*
Y13349*
X12734*
Y13343*
X12756*
Y13338*
X12778*
Y13332*
X12801*
Y13326*
X12823*
Y13321*
X12846*
Y13315*
X12868*
Y1331*
X12891*
Y13304*
X12913*
Y13298*
X12942*
Y13293*
X12964*
Y13287*
X12987*
Y13281*
X13014*
Y13276*
X13043*
Y1327*
X13071*
Y13265*
X13099*
Y13259*
X13127*
Y13253*
X13155*
Y13248*
X13183*
Y13242*
X13206*
Y13236*
X13234*
Y13231*
X13262*
Y13225*
X1329*
Y1322*
X13318*
Y13214*
X13352*
Y13209*
X1338*
Y13203*
X13419*
Y13197*
X13453*
Y13191*
X13487*
Y13186*
X13526*
Y1318*
X1356*
Y13175*
X13599*
Y13169*
X13633*
Y13164*
X13666*
Y13158*
X13706*
Y13152*
X13745*
Y13147*
X13785*
Y13141*
X13841*
Y13135*
X13891*
Y1313*
X13942*
Y13124*
X13993*
Y13119*
X14049*
Y13113*
X14099*
Y13107*
X14155*
Y13102*
X14229*
Y13096*
X14324*
Y1309*
X14414*
Y13085*
X14504*
Y13079*
X14667*
Y13074*
X15128*
Y13079*
X15302*
Y13085*
X15431*
Y1309*
X15504*
Y13096*
X15572*
Y13102*
X15645*
Y13107*
X15712*
Y13113*
X15785*
Y13119*
X15842*
Y13124*
X15887*
Y1313*
X15932*
Y13135*
X15971*
Y13141*
X16016*
Y13147*
X16061*
Y13152*
X16106*
Y13158*
X16139*
Y13164*
X16145*
Y13169*
Y13175*
Y1318*
Y13186*
Y13191*
Y13197*
X16151*
Y13203*
Y13209*
Y13214*
Y1322*
Y13225*
Y13231*
Y13236*
Y13242*
Y13248*
X16156*
Y13253*
Y13259*
Y13265*
Y1327*
X16162*
Y13276*
Y13281*
Y13287*
Y13293*
Y13298*
X16168*
Y13304*
Y1331*
Y13315*
Y13321*
Y13326*
X16173*
Y13332*
Y13338*
Y13343*
Y13349*
X16179*
Y13355*
Y1336*
Y13366*
Y13371*
X16184*
Y13377*
Y13383*
Y13388*
Y13394*
X1619*
Y134*
Y13405*
Y13411*
Y13416*
Y13422*
X16196*
Y13428*
Y13433*
Y13439*
Y13444*
Y1345*
X16201*
Y13456*
Y13461*
Y13467*
X16207*
Y13473*
Y13478*
Y13484*
X16213*
Y13489*
Y13495*
Y13501*
X16218*
Y13506*
Y13512*
Y13518*
X16224*
Y13523*
Y13529*
Y13534*
X16229*
Y1354*
Y13546*
Y13551*
X16235*
Y13557*
Y13563*
Y13568*
X16241*
Y13574*
Y13579*
Y13585*
Y13591*
X16246*
Y13596*
Y13602*
Y13608*
X16252*
Y13613*
Y13619*
Y13624*
X16258*
Y1363*
Y13635*
Y13641*
X16263*
Y13647*
Y13653*
X16269*
Y13658*
Y13664*
X16274*
Y13669*
Y13675*
Y1368*
X1628*
Y13686*
Y13692*
X16286*
Y13697*
Y13703*
Y13709*
X16291*
Y13714*
Y1372*
X16297*
Y13725*
Y13731*
Y13737*
X16302*
Y13742*
Y13748*
X16308*
Y13754*
Y13759*
X16314*
Y13765*
Y1377*
Y13776*
X16319*
Y13782*
Y13787*
Y13793*
X16325*
Y13799*
Y13804*
X16331*
Y1381*
Y13815*
Y13821*
X16336*
Y13827*
Y13832*
Y13838*
X16342*
Y13844*
Y13849*
Y13855*
X16347*
Y1386*
Y13866*
X16353*
Y13872*
Y13877*
Y13883*
X16359*
Y13888*
Y13894*
Y139*
X16364*
Y13905*
Y13911*
Y13917*
X1637*
Y13922*
Y13928*
Y13933*
X16376*
Y13939*
Y13945*
Y1395*
X16381*
Y13956*
Y13962*
Y13967*
X16387*
Y13973*
Y13978*
X16392*
Y13984*
Y1399*
Y13995*
Y14001*
X16398*
Y14007*
Y14012*
Y14018*
X16404*
Y14023*
Y14029*
Y14035*
Y1404*
X16409*
Y14046*
Y14052*
Y14057*
Y14063*
X16415*
Y14068*
Y14074*
Y14079*
X16421*
Y14085*
Y14091*
Y14096*
Y14102*
X16426*
Y14108*
Y14113*
Y14119*
Y14124*
X16432*
Y1413*
Y14136*
Y14141*
Y14147*
X16437*
Y14153*
Y14158*
Y14164*
Y14169*
X16443*
Y14175*
Y14181*
Y14186*
Y14192*
X16449*
Y14198*
Y14203*
Y14209*
Y14214*
X16454*
Y1422*
Y14226*
Y14231*
Y14237*
Y14243*
X1646*
Y14248*
Y14254*
Y1426*
Y14265*
Y14271*
Y14276*
X16466*
Y14282*
Y14288*
Y14293*
Y14299*
Y14304*
X16471*
Y1431*
Y14316*
Y14321*
Y14327*
Y14332*
Y14338*
X16477*
Y14344*
Y14349*
Y14355*
Y14361*
Y14366*
Y14372*
X16482*
Y14377*
Y14383*
Y14389*
Y14394*
Y144*
Y14406*
X16488*
Y14411*
Y14417*
Y14422*
Y14428*
Y14434*
Y14439*
Y14445*
X16493*
Y14451*
Y14456*
Y14462*
Y14467*
Y14473*
Y14479*
Y14484*
Y1449*
Y14496*
Y14501*
X16499*
Y14507*
Y14512*
Y14518*
Y14523*
Y14529*
Y14535*
Y1454*
Y14546*
Y14552*
Y14557*
Y14563*
X16505*
Y14568*
Y14574*
Y1458*
Y14585*
Y14591*
Y14597*
Y14602*
Y14608*
Y14613*
Y14619*
Y14625*
X16511*
Y1463*
Y14636*
Y14642*
Y14647*
Y14653*
Y14659*
Y14664*
Y1467*
Y14675*
Y14681*
Y14687*
Y14692*
Y14698*
Y14703*
Y14709*
Y14715*
Y1472*
Y14726*
Y14731*
Y14737*
Y14743*
Y14748*
Y14754*
Y1476*
Y14765*
Y14771*
Y14776*
Y14782*
Y14788*
Y14793*
Y14799*
Y14805*
Y1481*
Y14816*
Y14821*
Y14827*
Y14833*
Y14838*
Y14844*
Y1485*
Y14855*
Y14861*
Y14866*
Y14872*
Y14878*
Y14883*
Y14889*
Y14895*
Y149*
Y14906*
Y14911*
Y14917*
Y14923*
Y14928*
X16505*
Y14934*
Y1494*
Y14945*
Y14951*
Y14956*
Y14962*
Y14968*
Y14973*
Y14979*
Y14984*
Y1499*
Y14996*
Y15001*
X16499*
Y15007*
Y15012*
Y15018*
Y15024*
Y15029*
Y15035*
Y15041*
Y15046*
Y15052*
Y15058*
Y15063*
Y15069*
Y15074*
X16493*
Y1508*
Y15086*
Y15091*
Y15097*
Y15103*
Y15108*
Y15114*
Y15119*
X16488*
Y15125*
Y15131*
Y15136*
Y15142*
Y15148*
Y15153*
Y15159*
X16482*
Y15164*
Y1517*
Y15175*
Y15181*
Y15187*
Y15193*
X16477*
Y15198*
Y15204*
Y15209*
Y15215*
Y1522*
Y15226*
X16471*
Y15232*
Y15237*
Y15243*
Y15249*
Y15254*
Y1526*
X16466*
Y15265*
Y15271*
Y15277*
Y15282*
Y15288*
Y15294*
X1646*
Y15299*
Y15305*
Y1531*
Y15316*
Y15322*
X16454*
Y15327*
Y15333*
Y15339*
Y15344*
Y1535*
X16449*
Y15355*
Y15361*
Y15367*
Y15372*
X16443*
Y15378*
Y15384*
Y15389*
Y15395*
X16437*
Y154*
Y15406*
Y15412*
Y15417*
X16432*
Y15423*
Y15428*
Y15434*
Y1544*
X16426*
Y15445*
Y15451*
Y15457*
Y15462*
X16421*
Y15468*
Y15473*
Y15479*
Y15485*
X16415*
Y1549*
Y15496*
Y15502*
Y15507*
X16409*
Y15513*
Y15518*
Y15524*
Y1553*
X16404*
Y15535*
Y15541*
Y15547*
X16398*
Y15552*
Y15558*
Y15563*
X16392*
Y15569*
Y15575*
Y1558*
X16387*
Y15586*
Y15592*
Y15597*
X16381*
Y15603*
Y15608*
Y15614*
X16376*
Y15619*
Y15625*
Y15631*
X1637*
Y15637*
Y15642*
Y15648*
X16364*
Y15653*
Y15659*
Y15664*
X16359*
Y1567*
Y15676*
Y15681*
X16353*
Y15687*
Y15693*
Y15698*
X16347*
Y15704*
Y15709*
Y15715*
X16342*
Y15721*
Y15726*
Y15732*
X16336*
Y15738*
X16331*
Y15743*
Y15749*
X16325*
Y15754*
Y1576*
X16319*
Y15766*
X16314*
Y15771*
Y15777*
X16308*
Y15783*
X16302*
Y15788*
Y15794*
X16297*
Y15799*
Y15805*
X16291*
Y15811*
X16286*
Y15816*
Y15822*
X1628*
Y15828*
X16274*
Y15833*
Y15839*
X16269*
Y15844*
Y1585*
X16263*
Y15856*
X16258*
Y15861*
Y15867*
X16252*
Y15872*
X16246*
Y15878*
Y15884*
X16241*
Y15889*
X16235*
Y15895*
Y15901*
X16229*
Y15906*
X16224*
Y15912*
X16218*
Y15917*
Y15923*
X16213*
Y15929*
X16207*
Y15934*
X16201*
Y1594*
X16196*
Y15946*
Y15951*
X1619*
Y15957*
X16184*
Y15962*
X16179*
Y15968*
Y15974*
X16173*
Y15979*
X16168*
Y15985*
X16162*
Y15991*
X16156*
Y15996*
Y16002*
X16151*
Y16007*
X16145*
Y16013*
X16139*
Y16019*
X16134*
Y16024*
Y1603*
X16128*
Y16036*
X16123*
Y16041*
X16117*
Y16047*
X16111*
Y16052*
X16106*
Y16058*
X161*
Y16063*
X16094*
Y16069*
X16089*
Y16075*
X16083*
Y1608*
X16078*
Y16086*
Y16092*
X16072*
Y16097*
X16067*
Y16103*
X16061*
Y16108*
X16055*
Y16114*
X1605*
Y1612*
X16044*
Y16125*
X16038*
Y16131*
X16033*
Y16137*
X16027*
Y16142*
X16022*
Y16148*
X16016*
Y16153*
X1601*
Y16159*
X16005*
Y16165*
X15999*
Y1617*
X15993*
Y16176*
X15988*
Y16182*
X15982*
Y16187*
X15977*
Y16193*
X15971*
Y16198*
X1596*
Y16204*
X15954*
Y1621*
X15948*
Y16215*
X15943*
Y16221*
X15937*
Y16227*
X15926*
Y16232*
X1592*
Y16238*
X15915*
Y16243*
X15909*
Y16249*
X15903*
Y16255*
X15898*
Y1626*
X15887*
Y16266*
X15881*
Y16272*
X15875*
Y16277*
X1587*
Y16283*
X15864*
Y16288*
X15853*
Y16294*
X15847*
Y163*
X15842*
Y16305*
X1583*
Y16311*
X15825*
Y16316*
X15819*
Y16322*
X15808*
Y16328*
X15802*
Y16333*
X15791*
Y16339*
X15785*
Y16345*
X15774*
Y1635*
X15769*
Y16356*
X15757*
Y16361*
X15752*
Y16367*
X1574*
Y16373*
X15735*
Y16378*
X15724*
Y16384*
X15718*
Y1639*
X15712*
Y16395*
X15701*
Y16401*
X15695*
Y16406*
X15684*
Y16412*
X15673*
Y16418*
X15667*
Y16423*
X15656*
Y16429*
X15645*
Y16435*
X15634*
Y1644*
X15623*
Y16446*
X15611*
Y16451*
X156*
Y16457*
X15594*
Y16463*
X15583*
Y16468*
X15572*
Y16474*
X15561*
Y1648*
X15549*
Y16485*
X15538*
Y16491*
X15527*
Y16496*
X15516*
Y16502*
X15504*
Y16507*
X15493*
Y16513*
X15482*
Y16519*
X15465*
Y16524*
X15454*
Y1653*
X15437*
Y16536*
X15426*
Y16541*
X15415*
Y16547*
X15398*
Y16552*
X15386*
Y16558*
X1537*
Y16564*
X15358*
Y16569*
X15341*
Y16575*
X15325*
Y16581*
X15308*
Y16586*
X15291*
Y16592*
X15274*
Y16597*
X15251*
Y16603*
X15235*
Y16609*
X15212*
Y16614*
X15195*
Y1662*
X15178*
Y16626*
X15156*
Y16631*
X15134*
Y16637*
X15105*
Y16642*
X15072*
Y16648*
X15043*
Y16654*
X1501*
Y16659*
X14982*
Y16665*
X14942*
Y16671*
X14875*
Y16676*
X14802*
Y16682*
G37*
%LNpcb-3*%
%LPD*%
G36*
X14178Y15861D02*
X14212D01*
Y15856*
X14234*
Y1585*
X14251*
Y15844*
X14262*
Y15839*
X14279*
Y15833*
X14285*
Y15828*
X14296*
Y15822*
X14307*
Y15816*
X14313*
Y15811*
X14324*
Y15805*
X1433*
Y15799*
X14341*
Y15794*
X14347*
Y15788*
X14352*
Y15783*
X14358*
Y15777*
X14363*
Y15771*
X14369*
Y15766*
X14375*
Y1576*
X1438*
Y15754*
X14386*
Y15749*
X14392*
Y15738*
X14397*
Y15732*
X14403*
Y15726*
X14408*
Y15721*
X14414*
Y15709*
X1442*
Y15704*
X14425*
Y15693*
X14431*
Y15687*
X14437*
Y15676*
X14442*
Y1567*
X14448*
Y15659*
X14453*
Y15648*
X14459*
Y15637*
X14465*
Y15625*
X1447*
Y15614*
X14476*
Y15603*
X14482*
Y15586*
X14487*
Y15575*
X14493*
Y15558*
X14498*
Y15541*
X14504*
Y15518*
X1451*
Y15496*
X14515*
Y15468*
X14521*
Y15423*
X14527*
Y15367*
X14532*
Y15282*
X14527*
Y1522*
X14521*
Y15187*
X14515*
Y15159*
X1451*
Y15136*
X14504*
Y15114*
X14498*
Y15097*
X14493*
Y15074*
X14487*
Y15063*
X14482*
Y15046*
X14476*
Y15035*
X1447*
Y15024*
X14465*
Y15012*
X14459*
Y15001*
X14453*
Y1499*
X14448*
Y14979*
X14442*
Y14968*
X14437*
Y14962*
X14431*
Y14951*
X14425*
Y14945*
X1442*
Y14934*
X14414*
Y14928*
X14408*
Y14917*
X14403*
Y14911*
X14397*
Y14906*
X14392*
Y149*
X14386*
Y14895*
X1438*
Y14889*
X14375*
Y14883*
X14369*
Y14878*
X14363*
Y14872*
X14358*
Y14866*
X14352*
Y14861*
X14347*
Y14855*
X14341*
Y1485*
X14335*
Y14844*
X14324*
Y14838*
X14318*
Y14833*
X14307*
Y14827*
X14302*
Y14821*
X1429*
Y14816*
X14279*
Y1481*
X14274*
Y14805*
X14262*
Y14799*
X14245*
Y14793*
X14223*
Y14788*
X14195*
Y14782*
X14094*
Y14788*
X14066*
Y14793*
X14049*
Y14799*
X14032*
Y14805*
X14015*
Y1481*
X14004*
Y14816*
X13993*
Y14821*
X13987*
Y14827*
X13976*
Y14833*
X1397*
Y14838*
X13959*
Y14844*
X13953*
Y1485*
X13942*
Y14855*
X13936*
Y14861*
X13931*
Y14866*
X13925*
Y14872*
X13919*
Y14878*
X13914*
Y14883*
X13908*
Y14895*
X13903*
Y149*
X13897*
Y14906*
X13891*
Y14911*
X13886*
Y14917*
X1388*
Y14928*
X13875*
Y14934*
X13869*
Y1494*
X13863*
Y14951*
X13858*
Y14956*
X13852*
Y14968*
X13846*
Y14973*
X13841*
Y14984*
X13835*
Y14996*
X1383*
Y15007*
X13824*
Y15018*
X13818*
Y15029*
X13813*
Y15041*
X13807*
Y15052*
X13801*
Y15069*
X13796*
Y15086*
X1379*
Y15103*
X13785*
Y15119*
X13779*
Y15142*
X13773*
Y1517*
X13768*
Y15204*
X13762*
Y15254*
X13756*
Y15395*
X13762*
Y1544*
X13768*
Y15473*
X13773*
Y15496*
X13779*
Y15518*
X13785*
Y15541*
X1379*
Y15558*
X13796*
Y15575*
X13801*
Y15592*
X13807*
Y15603*
X13813*
Y15619*
X13818*
Y15631*
X13824*
Y15642*
X1383*
Y15653*
X13835*
Y15664*
X13841*
Y1567*
X13846*
Y15681*
X13852*
Y15693*
X13858*
Y15698*
X13863*
Y15709*
X13869*
Y15715*
X13875*
Y15721*
X1388*
Y15732*
X13886*
Y15738*
X13891*
Y15743*
X13897*
Y15749*
X13903*
Y15754*
X13908*
Y1576*
X13914*
Y15766*
X13919*
Y15771*
X13925*
Y15777*
X13931*
Y15783*
X13936*
Y15788*
X13942*
Y15794*
X13948*
Y15799*
X13959*
Y15805*
X13964*
Y15811*
X1397*
Y15816*
X13981*
Y15822*
X13993*
Y15828*
X13998*
Y15833*
X14009*
Y15839*
X14021*
Y15844*
X14032*
Y1585*
X14049*
Y15856*
X14071*
Y15861*
X14105*
Y15867*
X14178*
Y15861*
G37*
G36*
X15251D02*
X1528D01*
Y15856*
X15296*
Y1585*
X15313*
Y15844*
X15325*
Y15839*
X15341*
Y15833*
X15347*
Y15828*
X15358*
Y15822*
X15364*
Y15816*
X15375*
Y15811*
X15381*
Y15805*
X15392*
Y15799*
X15398*
Y15794*
X15403*
Y15788*
X15409*
Y15783*
X1542*
Y15777*
X15426*
Y15771*
X15431*
Y15766*
X15437*
Y1576*
X15442*
Y15754*
X15448*
Y15743*
X15454*
Y15738*
X15459*
Y15732*
X15465*
Y15726*
X15471*
Y15721*
X15476*
Y15709*
X15482*
Y15704*
X15487*
Y15693*
X15493*
Y15681*
X15499*
Y15676*
X15504*
Y15664*
X1551*
Y15653*
X15516*
Y15642*
X15521*
Y15631*
X15527*
Y15619*
X15533*
Y15608*
X15538*
Y15597*
X15544*
Y15586*
X15549*
Y15569*
X15555*
Y15558*
X15561*
Y15541*
X15566*
Y15524*
X15572*
Y15502*
X15578*
Y15479*
X15583*
Y15457*
X15589*
Y15423*
X15594*
Y15367*
X156*
Y15282*
X15594*
Y15226*
X15589*
Y15193*
X15583*
Y15164*
X15578*
Y15142*
X15572*
Y15125*
X15566*
Y15108*
X15561*
Y15091*
X15555*
Y15074*
X15549*
Y15063*
X15544*
Y15052*
X15538*
Y15035*
X15533*
Y15024*
X15527*
Y15012*
X15521*
Y15001*
X15516*
Y1499*
X1551*
Y14979*
X15504*
Y14973*
X15499*
Y14962*
X15493*
Y14956*
X15487*
Y14945*
X15482*
Y1494*
X15476*
Y14928*
X15471*
Y14923*
X15465*
Y14917*
X15459*
Y14906*
X15454*
Y149*
X15448*
Y14895*
X15442*
Y14889*
X15437*
Y14883*
X15431*
Y14878*
X15426*
Y14872*
X1542*
Y14866*
X15415*
Y14861*
X15409*
Y14855*
X15403*
Y1485*
X15398*
Y14844*
X15386*
Y14838*
X15381*
Y14833*
X1537*
Y14827*
X15364*
Y14821*
X15353*
Y14816*
X15341*
Y1481*
X1533*
Y14805*
X15319*
Y14799*
X15302*
Y14793*
X15285*
Y14788*
X15263*
Y14782*
X15235*
Y14776*
X1519*
Y14782*
X15145*
Y14788*
X15122*
Y14793*
X15105*
Y14799*
X15088*
Y14805*
X15077*
Y1481*
X15066*
Y14816*
X15055*
Y14821*
X15043*
Y14827*
X15038*
Y14833*
X15027*
Y14838*
X15021*
Y14844*
X15015*
Y1485*
X15004*
Y14855*
X14998*
Y14861*
X14993*
Y14866*
X14987*
Y14872*
X14982*
Y14878*
X14976*
Y14883*
X14971*
Y14889*
X14965*
Y14895*
X14959*
Y149*
X14953*
Y14906*
X14948*
Y14911*
X14942*
Y14923*
X14937*
Y14928*
X14931*
Y14934*
X14926*
Y14945*
X1492*
Y14951*
X14914*
Y14962*
X14909*
Y14973*
X14903*
Y14979*
X14897*
Y1499*
X14892*
Y15001*
X14886*
Y15012*
X14881*
Y15024*
X14875*
Y15035*
X14869*
Y15046*
X14864*
Y15058*
X14858*
Y15074*
X14852*
Y15091*
X14847*
Y15103*
X14841*
Y15119*
X14836*
Y15142*
X1483*
Y15164*
X14824*
Y15187*
X14819*
Y1522*
X14813*
Y15265*
X14807*
Y15378*
X14813*
Y15428*
X14819*
Y15457*
X14824*
Y15485*
X1483*
Y15507*
X14836*
Y15524*
X14841*
Y15541*
X14847*
Y15558*
X14852*
Y15575*
X14858*
Y15586*
X14864*
Y15597*
X14869*
Y15614*
X14875*
Y15625*
X14881*
Y15637*
X14886*
Y15648*
X14892*
Y15659*
X14897*
Y1567*
X14903*
Y15676*
X14909*
Y15687*
X14914*
Y15693*
X1492*
Y15704*
X14926*
Y15709*
X14931*
Y15721*
X14937*
Y15726*
X14942*
Y15732*
X14948*
Y15738*
X14953*
Y15749*
X14959*
Y15754*
X14965*
Y1576*
X14971*
Y15766*
X14976*
Y15771*
X14982*
Y15777*
X14987*
Y15783*
X14993*
Y15788*
X14998*
Y15794*
X1501*
Y15799*
X15015*
Y15805*
X15021*
Y15811*
X15032*
Y15816*
X15038*
Y15822*
X15049*
Y15828*
X1506*
Y15833*
X15072*
Y15839*
X15083*
Y15844*
X15094*
Y1585*
X15111*
Y15856*
X15128*
Y15861*
X1515*
Y15867*
X15251*
Y15861*
G37*
G36*
X13768Y14428D02*
X1379D01*
Y14422*
X13801*
Y14417*
X13813*
Y14411*
X13818*
Y14406*
X13824*
Y144*
X1383*
Y14394*
X13835*
Y14389*
X13841*
Y14383*
X13846*
Y14372*
X13852*
Y14361*
X13858*
Y14338*
X13863*
Y14293*
X13858*
Y14271*
X13852*
Y1426*
X13846*
Y14254*
X13841*
Y14243*
X13835*
Y14237*
X1383*
Y14226*
X13824*
Y1422*
X13818*
Y14209*
X13813*
Y14203*
X13807*
Y14192*
X13801*
Y14186*
X13796*
Y14164*
X13801*
Y14153*
X13807*
Y14141*
X13813*
Y1413*
X13818*
Y14119*
X13824*
Y14113*
X1383*
Y14102*
X13835*
Y14096*
X13841*
Y14085*
X13846*
Y14079*
X13852*
Y14068*
X13858*
Y14063*
X13863*
Y14052*
X13869*
Y14046*
X13875*
Y14035*
X1388*
Y14029*
X13886*
Y14018*
X13891*
Y14012*
X13897*
Y14007*
X13903*
Y14001*
X13908*
Y13995*
X13914*
Y1399*
X13919*
Y13978*
X13925*
Y13973*
X13931*
Y13967*
X13936*
Y13962*
X13942*
Y13956*
X13948*
Y1395*
X13953*
Y13945*
X13959*
Y13939*
X13964*
Y13928*
X1397*
Y13922*
X13981*
Y13917*
X13987*
Y13911*
X13993*
Y13905*
X13998*
Y139*
X14004*
Y13894*
X14009*
Y13888*
X14021*
Y13883*
X14026*
Y13877*
X14032*
Y13872*
X14038*
Y13866*
X14043*
Y1386*
X14054*
Y13855*
X1406*
Y13849*
X14066*
Y13844*
X14071*
Y13838*
X14083*
Y13832*
X14088*
Y13827*
X14099*
Y13821*
X1411*
Y13815*
X14116*
Y1381*
X14127*
Y13804*
X14133*
Y13799*
X14144*
Y13793*
X14155*
Y13787*
X14161*
Y13782*
X14172*
Y13776*
X14184*
Y1377*
X14195*
Y13765*
X14206*
Y13759*
X14223*
Y13754*
X14234*
Y13748*
X14245*
Y13742*
X14262*
Y13737*
X14274*
Y13731*
X14285*
Y13725*
X14302*
Y1372*
X14318*
Y13714*
X14341*
Y13709*
X14363*
Y13703*
X14386*
Y13697*
X14403*
Y13692*
X14431*
Y13686*
X14476*
Y1368*
X14527*
Y13675*
X14639*
Y1368*
X14706*
Y13686*
X14735*
Y13692*
X14768*
Y13697*
X14796*
Y13703*
X14819*
Y13709*
X14836*
Y13714*
X14852*
Y1372*
X14869*
Y13725*
X14886*
Y13731*
X14903*
Y13737*
X1492*
Y13742*
X14937*
Y13748*
X14953*
Y13754*
X15004*
Y13748*
X15027*
Y13742*
X15038*
Y13737*
X15043*
Y13731*
X15055*
Y13725*
X1506*
Y1372*
X15066*
Y13714*
X15072*
Y13709*
X15077*
Y13697*
X15083*
Y13686*
X15088*
Y13675*
X15094*
Y13641*
X151*
Y1363*
X15094*
Y13602*
X15088*
Y13585*
X15083*
Y13574*
X15077*
Y13568*
X15072*
Y13563*
X15066*
Y13557*
X1506*
Y13551*
X15055*
Y13546*
X15049*
Y1354*
X15043*
Y13534*
X15032*
Y13529*
X15021*
Y13523*
X15004*
Y13518*
X14987*
Y13512*
X14971*
Y13506*
X14953*
Y13501*
X14937*
Y13495*
X1492*
Y13489*
X14903*
Y13484*
X14892*
Y13478*
X14875*
Y13473*
X14841*
Y13467*
X14813*
Y13461*
X14779*
Y13456*
X14751*
Y1345*
X14723*
Y13444*
X14605*
Y13439*
X14521*
Y13444*
X14476*
Y1345*
X14425*
Y13456*
X14375*
Y13461*
X14358*
Y13467*
X14335*
Y13473*
X14318*
Y13478*
X14296*
Y13484*
X14274*
Y13489*
X14251*
Y13495*
X14229*
Y13501*
X14212*
Y13506*
X142*
Y13512*
X14189*
Y13518*
X14178*
Y13523*
X14161*
Y13529*
X1415*
Y13534*
X14139*
Y1354*
X14122*
Y13546*
X1411*
Y13551*
X14094*
Y13557*
X14083*
Y13563*
X14071*
Y13568*
X1406*
Y13574*
X14054*
Y13579*
X14043*
Y13585*
X14038*
Y13591*
X14026*
Y13596*
X14015*
Y13602*
X14009*
Y13608*
X13998*
Y13613*
X13987*
Y13619*
X13981*
Y13624*
X1397*
Y1363*
X13959*
Y13635*
X13953*
Y13641*
X13942*
Y13647*
X13931*
Y13653*
X13925*
Y13658*
X13919*
Y13664*
X13914*
Y13669*
X13908*
Y13675*
X13903*
Y1368*
X13891*
Y13686*
X13886*
Y13692*
X1388*
Y13697*
X13875*
Y13703*
X13869*
Y13709*
X13863*
Y13714*
X13852*
Y1372*
X13846*
Y13725*
X13841*
Y13731*
X13835*
Y13737*
X13824*
Y13742*
X13818*
Y13748*
X13813*
Y13754*
X13807*
Y13759*
X13801*
Y13765*
X13796*
Y1377*
X1379*
Y13776*
X13785*
Y13787*
X13779*
Y13793*
X13773*
Y13799*
X13768*
Y13804*
X13762*
Y1381*
X13756*
Y13815*
X13751*
Y13821*
X13745*
Y13832*
X1374*
Y13838*
X13734*
Y13844*
X13728*
Y13849*
X13723*
Y13855*
X13717*
Y1386*
X13711*
Y13866*
X13706*
Y13872*
X137*
Y13877*
X13695*
Y13888*
X13689*
Y139*
X13683*
Y13905*
X13678*
Y13917*
X13672*
Y13922*
X13666*
Y13933*
X13661*
Y13939*
X13655*
Y1395*
X1365*
Y13956*
X13644*
Y13967*
X13639*
Y13978*
X13633*
Y13984*
X13627*
Y1399*
X13622*
Y14001*
X13616*
Y14007*
X1361*
Y14018*
X13605*
Y14029*
X13599*
Y14046*
X13571*
Y1404*
X13537*
Y14035*
X13509*
Y14029*
X13464*
Y14035*
X13447*
Y1404*
X13436*
Y14046*
X13425*
Y14052*
X13413*
Y14057*
X13408*
Y14063*
X13402*
Y14068*
X13397*
Y14074*
X13391*
Y14085*
X13386*
Y14096*
X1338*
Y14108*
X13374*
Y1413*
X13369*
Y14164*
X13374*
Y14186*
X1338*
Y14198*
X13386*
Y14209*
X13391*
Y1422*
X13397*
Y14226*
X13402*
Y14231*
X13408*
Y14237*
X13413*
Y14243*
X13425*
Y14248*
X13431*
Y14254*
X13447*
Y1426*
X13464*
Y14265*
X13492*
Y14271*
X1352*
Y14276*
X13537*
Y14282*
X13549*
Y14288*
X1356*
Y14293*
X13571*
Y14299*
X13582*
Y14304*
X13588*
Y1431*
X13594*
Y14316*
X13599*
Y14321*
X13605*
Y14327*
X1361*
Y14332*
X13616*
Y14338*
X13622*
Y14344*
X13627*
Y14355*
X13633*
Y14361*
X13639*
Y14372*
X13644*
Y14377*
X1365*
Y14389*
X13655*
Y14394*
X13661*
Y144*
X13666*
Y14406*
X13672*
Y14411*
X13683*
Y14417*
X13689*
Y14422*
X137*
Y14428*
X13723*
Y14434*
X13768*
Y14428*
G37*
G54D17*
X48683Y23822D02*
D01*
X48615Y23982*
X48535Y24138*
X48445Y24287*
X48345Y2443*
X48235Y24566*
X48116Y24693*
X47989Y24812*
X47853Y24922*
X4771Y25022*
X4756Y25112*
X47405Y25191*
X47244Y25259*
X47079Y25316*
X4691Y25361*
X46739Y25394*
X46566Y25415*
X46392Y25424*
X46349Y25424*
Y20424D02*
D01*
X46524Y2043*
X46697Y20449*
X46869Y20479*
X47039Y20521*
X47205Y20575*
X47366Y20641*
X47523Y20717*
X47674Y20804*
X47819Y20902*
X47956Y21009*
X48086Y21126*
X48207Y21252*
X4832Y21385*
X48422Y21526*
X48515Y21674*
X48597Y21829*
X48667Y21988*
X48683Y22027*
X46349Y25424D02*
D01*
X46175Y25418*
X46001Y254*
X4583Y2537*
X4566Y25328*
X45494Y25274*
X45333Y25208*
X45176Y25132*
X45025Y25044*
X4488Y24947*
X44742Y24839*
X44613Y24723*
X44491Y24597*
X44379Y24463*
X44277Y24322*
X44184Y24174*
X44102Y2402*
X44031Y23861*
X43972Y23697*
X43924Y23529*
X43887Y23358*
X43863Y23186*
X43851Y23012*
Y22837*
X43863Y22663*
X43887Y2249*
X43924Y22319*
X43972Y22152*
X44031Y21988*
X44102Y21828*
X44184Y21674*
X44277Y21526*
X44379Y21385*
X44491Y21251*
X44613Y21126*
X44742Y21009*
X4488Y20902*
X45025Y20804*
X45176Y20717*
X45333Y2064*
X45494Y20575*
X4566Y20521*
X4583Y20479*
X46001Y20448*
X46175Y2043*
X46349Y20424*
X31299Y03249D02*
Y0675D01*
X37299Y03249D02*
Y0675D01*
X31299Y03249D02*
X37299D01*
X31299Y0675D02*
X37299D01*
X08774Y05024D02*
X10124D01*
X1455D02*
X1632D01*
X088Y00175D02*
X1632D01*
X08774Y-00474D02*
X1632D01*
X08774D02*
Y05024D01*
X1632Y-00474D02*
Y05024D01*
X46349Y20435D02*
Y25414D01*
X48683Y22027D02*
Y23822D01*
X47848Y24347D02*
X46833D01*
X45994Y24322D02*
X44978D01*
X45486Y23814D02*
Y2483D01*
G54D27*
X23549Y37349D02*
D01*
X23549Y3737*
X23546Y37391*
X23543Y37412*
X23538Y37432*
X23531Y37452*
X23523Y37471*
X23514Y3749*
X23504Y37508*
X23492Y37526*
X23479Y37542*
X23465Y37558*
X2345Y37572*
X23434Y37586*
X23417Y37598*
X23399Y37609*
X23381Y37619*
X23362Y37628*
X23342Y37635*
X23322Y3764*
X23301Y37645*
X23281Y37648*
X2326Y37649*
X23239*
X23218Y37648*
X23197Y37645*
X23177Y3764*
X23157Y37635*
X23137Y37628*
X23118Y37619*
X23099Y37609*
X23082Y37598*
X23065Y37586*
X23049Y37572*
X23034Y37558*
X2302Y37542*
X23007Y37526*
X22995Y37508*
X22985Y3749*
X22975Y37471*
X22968Y37452*
X22961Y37432*
X22956Y37412*
X22952Y37391*
X2295Y3737*
X22949Y37349*
X2295Y37329*
X22952Y37308*
X22956Y37287*
X22961Y37267*
X22968Y37247*
X22975Y37227*
X22985Y37209*
X22995Y3719*
X23007Y37173*
X2302Y37157*
X23034Y37141*
X23049Y37127*
X23065Y37113*
X23082Y37101*
X23099Y3709*
X23118Y3708*
X23137Y37071*
X23157Y37064*
X23177Y37058*
X23197Y37054*
X23218Y37051*
X23239Y3705*
X2326*
X23281Y37051*
X23301Y37054*
X23322Y37058*
X23342Y37064*
X23362Y37071*
X23381Y3708*
X23399Y3709*
X23417Y37101*
X23434Y37113*
X2345Y37127*
X23465Y37141*
X23479Y37157*
X23492Y37173*
X23504Y3719*
X23514Y37209*
X23523Y37227*
X23531Y37247*
X23538Y37267*
X23543Y37287*
X23546Y37308*
X23549Y37329*
X23549Y37349*
G54D28*
X21215Y3758D02*
D01*
X21214Y37588*
X21213Y37597*
X21212Y37606*
X2121Y37614*
X21207Y37622*
X21204Y3763*
X212Y37638*
X21196Y37646*
X21191Y37653*
X21185Y3766*
X2118Y37666*
X21173Y37672*
X21167Y37678*
X2116Y37683*
X21152Y37688*
X21144Y37692*
X21136Y37695*
X21128Y37698*
X2112Y37701*
X21111Y37703*
X21103Y37704*
X21094Y37704*
X21085*
X21077Y37704*
X21068Y37703*
X21059Y37701*
X21051Y37698*
X21043Y37695*
X21035Y37692*
X21027Y37688*
X2102Y37683*
X21013Y37678*
X21006Y37672*
X21Y37666*
X20994Y3766*
X20989Y37653*
X20984Y37646*
X20979Y37638*
X20975Y3763*
X20972Y37622*
X20969Y37614*
X20967Y37606*
X20966Y37597*
X20965Y37588*
X20965Y3758*
X20965Y37571*
X20966Y37562*
X20967Y37554*
X20969Y37545*
X20972Y37537*
X20975Y37529*
X20979Y37521*
X20984Y37513*
X20989Y37506*
X20994Y37499*
X21Y37493*
X21006Y37487*
X21013Y37481*
X2102Y37476*
X21027Y37471*
X21035Y37467*
X21043Y37464*
X21051Y37461*
X21059Y37458*
X21068Y37456*
X21077Y37455*
X21085Y37455*
X21094*
X21103Y37455*
X21111Y37456*
X2112Y37458*
X21128Y37461*
X21136Y37464*
X21144Y37467*
X21152Y37471*
X2116Y37476*
X21167Y37481*
X21173Y37487*
X2118Y37493*
X21185Y37499*
X21191Y37506*
X21196Y37513*
X212Y37521*
X21204Y37529*
X21207Y37537*
X2121Y37545*
X21212Y37554*
X21213Y37562*
X21214Y37571*
X21215Y3758*
G54D29*
X24264Y38349D02*
D01*
X24266Y38305*
X24271Y38261*
X24278Y38217*
X24289Y38174*
X24303Y38132*
X24319Y38091*
X24339Y38051*
X24361Y38013*
X24386Y37976*
X24413Y37941*
X24443Y37908*
X24474Y37878*
X24508Y37849*
X24544Y37823*
X24582Y378*
X24621Y37779*
X24661Y37761*
X24703Y37746*
X24746Y37733*
X24789Y37724*
X24833Y37718*
X24877Y37715*
X24922*
X24966Y37718*
X2501Y37724*
X25053Y37733*
X25096Y37746*
X25137Y37761*
X25178Y37779*
X25217Y378*
X25254Y37823*
X2529Y37849*
X25324Y37878*
X25356Y37908*
X25386Y37941*
X25413Y37976*
X25438Y38013*
X2546Y38051*
X25479Y38091*
X25496Y38132*
X2551Y38174*
X2552Y38217*
X25528Y38261*
X25533Y38305*
X25534Y38349*
X25999Y44025D02*
Y49949D01*
X22249Y11349D02*
X2755D01*
X25534Y38349D02*
X2755D01*
X22249D02*
X24264D01*
X2755Y11349D02*
Y38349D01*
X22249Y11349D02*
Y38349D01*
X20889Y03729D02*
X25969D01*
Y06269*
X20889D02*
X25969D01*
X20889Y03729D02*
Y06269D01*
X20094Y43729D02*
Y46269D01*
X12474Y43729D02*
X20094D01*
X12474D02*
Y46269D01*
X20094*
X03729Y09644D02*
X06269D01*
X03729D02*
Y22344D01*
X06269Y09644D02*
Y22344D01*
X03729D02*
X06269D01*
X43729Y40455D02*
X46269D01*
Y27755D02*
Y40455D01*
X43729Y27755D02*
Y40455D01*
Y27755D02*
X46269D01*
X03679D02*
X06219D01*
X03679D02*
Y40455D01*
X06219Y27755D02*
Y40455D01*
X03679D02*
X06219D01*
X41159Y44025D02*
Y49999D01*
X25999Y44025D02*
X41159D01*
G54D30*
X13389Y26044D02*
X17389D01*
Y1872D02*
Y26044D01*
X13389Y1872D02*
X17389D01*
X13389D02*
Y26044D01*
X31975Y017D02*
Y02715D01*
X32482*
X32652Y02546*
Y02207*
X32482Y02038*
X31975*
X32313D02*
X32652Y017D01*
X33667Y02715D02*
X3299D01*
Y017*
X33667*
X3299Y02207D02*
X33329D01*
X34683Y02546D02*
X34514Y02715D01*
X34175*
X34006Y02546*
Y02377*
X34175Y02207*
X34514*
X34683Y02038*
Y01869*
X34514Y017*
X34175*
X34006Y01869*
X35699Y02715D02*
X35022D01*
Y017*
X35699*
X35022Y02207D02*
X3536D01*
X36037Y02715D02*
X36714D01*
X36376*
Y017*
X13524Y06965D02*
Y06119D01*
X13694Y05949*
X14032*
X14202Y06119*
Y06965*
X15217Y06796D02*
X15048Y06965D01*
X14709*
X1454Y06796*
Y06627*
X14709Y06457*
X15048*
X15217Y06288*
Y06119*
X15048Y05949*
X14709*
X1454Y06119*
X15556Y06965D02*
Y05949D01*
X16064*
X16233Y06119*
Y06288*
X16064Y06457*
X15556*
X16064*
X16233Y06627*
Y06796*
X16064Y06965*
X15556*
X12474Y4779D02*
Y46944D01*
X12644Y46774*
X12982*
X13152Y46944*
Y4779*
X1349Y46774D02*
Y47452D01*
X13829Y4779*
X14167Y47452*
Y46774*
Y47282*
X1349*
X14506Y46774D02*
Y4779D01*
X15014*
X15183Y47621*
Y47282*
X15014Y47113*
X14506*
X14844D02*
X15183Y46774D01*
X15521Y4779D02*
X16199D01*
X1586*
Y46774*
X47103Y33277D02*
X46934Y33107D01*
Y32769*
X47103Y326*
X47272*
X47442Y32769*
Y33107*
X47611Y33277*
X4778*
X47949Y33107*
Y32769*
X4778Y326*
X47949Y34123D02*
Y33785D01*
X4778Y33615*
X47442*
X47272Y33785*
Y34123*
X47442Y34292*
X47611*
Y33615*
X47949Y34631D02*
X47272D01*
Y35139*
X47442Y35308*
X47949*
Y35647D02*
Y36154D01*
X4778Y36324*
X47611Y36154*
Y35816*
X47442Y35647*
X47272Y35816*
Y36324*
X47949Y36832D02*
Y3717D01*
X4778Y37339*
X47442*
X47272Y3717*
Y36832*
X47442Y36662*
X4778*
X47949Y36832*
X47272Y37678D02*
X47949D01*
X47611*
X47442Y37847*
X47272Y38016*
Y38186*
X47949Y40386D02*
Y39709D01*
X47272Y40386*
X47103*
X46934Y40217*
Y39879*
X47103Y39709*
X02203Y33277D02*
X02034Y33107D01*
Y32769*
X02203Y326*
X02372*
X02542Y32769*
Y33107*
X02711Y33277*
X0288*
X0305Y33107*
Y32769*
X0288Y326*
X0305Y34123D02*
Y33785D01*
X0288Y33615*
X02542*
X02372Y33785*
Y34123*
X02542Y34292*
X02711*
Y33615*
X0305Y34631D02*
X02372D01*
Y35139*
X02542Y35308*
X0305*
Y35647D02*
Y36154D01*
X0288Y36324*
X02711Y36154*
Y35816*
X02542Y35647*
X02372Y35816*
Y36324*
X0305Y36832D02*
Y3717D01*
X0288Y37339*
X02542*
X02372Y3717*
Y36832*
X02542Y36662*
X0288*
X0305Y36832*
X02372Y37678D02*
X0305D01*
X02711*
X02542Y37847*
X02372Y38016*
Y38186*
X0305Y39709D02*
Y40048D01*
Y39879*
X02034*
X02203Y39709*
X35349Y282D02*
Y29215D01*
X35857*
X36027Y29046*
Y28707*
X35857Y28538*
X35349*
X35688D02*
X36027Y282D01*
X36365Y29215D02*
X37042D01*
Y29046*
X36365Y28369*
Y282*
X35349Y26325D02*
Y2734D01*
X35857*
X36027Y27171*
Y26832*
X35857Y26663*
X35349*
X35688D02*
X36027Y26325D01*
X37042Y2734D02*
X36704Y27171D01*
X36365Y26832*
Y26494*
X36534Y26325*
X36873*
X37042Y26494*
Y26663*
X36873Y26832*
X36365*
X35349Y242D02*
Y25215D01*
X35857*
X36027Y25046*
Y24707*
X35857Y24538*
X35349*
X35688D02*
X36027Y242D01*
X37042Y25215D02*
X36365D01*
Y24707*
X36704Y24877*
X36873*
X37042Y24707*
Y24369*
X36873Y242*
X36534*
X36365Y24369*
X26049Y42299D02*
Y42977D01*
X26557*
X26727Y42807*
Y42299*
X27065D02*
Y43315D01*
X27573*
X27742Y43146*
Y42807*
X27573Y42638*
X27065*
X27404D02*
X27742Y42299D01*
X28758Y43315D02*
X28081D01*
Y42807*
X28419*
X28081*
Y42299*
X29774D02*
X29096D01*
X29774Y42977*
Y43146*
X29604Y43315*
X29266*
X29096Y43146*
X3062Y42299D02*
Y43315D01*
X30112Y42807*
X30789*
X31128Y43315D02*
Y42299D01*
X31805*
X32143Y43146D02*
X32313Y43315D01*
X32651*
X32821Y43146*
Y42469*
X32651Y42299*
X32313*
X32143Y42469*
Y43146*
X33159Y42299D02*
X33498D01*
X33329*
Y43315*
X33159Y43146*
X34006Y42807D02*
X34683D01*
X34344Y43146D02*
Y42469D01*
X4274Y10724D02*
X42063D01*
X41725Y10386*
X42063Y10047*
X4274*
X41725Y09709D02*
X4274D01*
Y09201*
X42571Y09032*
X42232*
X42063Y09201*
Y09709*
Y0937D02*
X41725Y09032D01*
Y08693D02*
Y08355D01*
Y08524*
X4274*
X42571Y08693*
X02034Y18725D02*
Y19063D01*
Y18894*
X0305*
Y18725*
Y19063*
X02203Y20248D02*
X02034Y20079D01*
Y1974*
X02203Y19571*
X0288*
X0305Y1974*
Y20079*
X0288Y20248*
X02203Y21264D02*
X02034Y21094D01*
Y20756*
X02203Y20586*
X02372*
X02542Y20756*
Y21094*
X02711Y21264*
X0288*
X0305Y21094*
Y20756*
X0288Y20586*
X0305Y21602D02*
X02034D01*
Y2211*
X02203Y22279*
X02542*
X02711Y2211*
Y21602*
X3545Y30574D02*
Y31252D01*
X35788Y3159*
X36127Y31252*
Y30574*
Y31082*
X3545*
X37142Y31421D02*
X36973Y3159D01*
X36634*
X36465Y31421*
Y30744*
X36634Y30574*
X36973*
X37142Y30744*
X37481Y3159D02*
X38158D01*
X37819*
Y30574*
X38497Y31421D02*
X38666Y3159D01*
X39004*
X39174Y31421*
Y31252*
X39004Y31082*
X38835*
X39004*
X39174Y30913*
Y30744*
X39004Y30574*
X38666*
X38497Y30744*
X3545Y32612D02*
Y33289D01*
X35788Y33628*
X36127Y33289*
Y32612*
Y3312*
X3545*
X37142Y33458D02*
X36973Y33628D01*
X36634*
X36465Y33458*
Y32781*
X36634Y32612*
X36973*
X37142Y32781*
X37481Y33628D02*
X38158D01*
X37819*
Y32612*
X39174D02*
X38497D01*
X39174Y33289*
Y33458*
X39004Y33628*
X38666*
X38497Y33458*
X3545Y34649D02*
Y35327D01*
X35788Y35665*
X36127Y35327*
Y34649*
Y35157*
X3545*
X37142Y35496D02*
X36973Y35665D01*
X36634*
X36465Y35496*
Y34819*
X36634Y34649*
X36973*
X37142Y34819*
X37481Y35665D02*
X38158D01*
X37819*
Y34649*
X38497D02*
X38835D01*
X38666*
Y35665*
X38497Y35496*
X31952Y18046D02*
X31782Y18215D01*
X31444*
X31275Y18046*
Y17369*
X31444Y17199*
X31782*
X31952Y17369*
X3229Y18215D02*
X32967D01*
Y18046*
X3229Y17369*
Y17199*
X31952Y20221D02*
X31782Y2039D01*
X31444*
X31275Y20221*
Y19544*
X31444Y19374*
X31782*
X31952Y19544*
X32967Y2039D02*
X32629Y20221D01*
X3229Y19882*
Y19544*
X32459Y19374*
X32798*
X32967Y19544*
Y19713*
X32798Y19882*
X3229*
X42202Y18046D02*
X42032Y18215D01*
X41694*
X41524Y18046*
Y17369*
X41694Y17199*
X42032*
X42202Y17369*
X4254Y18046D02*
X42709Y18215D01*
X43048*
X43217Y18046*
Y17877*
X43048Y17707*
X42879*
X43048*
X43217Y17538*
Y17369*
X43048Y17199*
X42709*
X4254Y17369*
X42202Y20221D02*
X42032Y2039D01*
X41694*
X41524Y20221*
Y19544*
X41694Y19374*
X42032*
X42202Y19544*
X43217Y19374D02*
X4254D01*
X43217Y20052*
Y20221*
X43048Y2039*
X42709*
X4254Y20221*
X42202Y23546D02*
X42032Y23715D01*
X41694*
X41524Y23546*
Y22869*
X41694Y22699*
X42032*
X42202Y22869*
X4254Y22699D02*
X42879D01*
X42709*
Y23715*
X4254Y23546*
X15292Y25516D02*
X15122Y25685D01*
X14784*
X14614Y25516*
Y24839*
X14784Y2467*
X15122*
X15292Y24839*
X16138Y2467D02*
Y25685D01*
X1563Y25177*
X16307*
X15292Y24166D02*
X15122Y24335D01*
X14784*
X14614Y24166*
Y23489*
X14784Y23319*
X15122*
X15292Y23489*
X16307Y24335D02*
X1563D01*
Y23827*
X15969Y23997*
X16138*
X16307Y23827*
Y23489*
X16138Y23319*
X15799*
X1563Y23489*
X16914Y21269D02*
X15899D01*
Y21777*
X16068Y21947*
X16407*
X16576Y21777*
Y21269*
Y21608D02*
X16914Y21947D01*
X16068Y22285D02*
X15899Y22454D01*
Y22793*
X16068Y22962*
X16237*
X16407Y22793*
Y22624*
Y22793*
X16576Y22962*
X16745*
X16914Y22793*
Y22454*
X16745Y22285*
X15115Y21269D02*
X14099D01*
Y21777*
X14268Y21947*
X14607*
X14776Y21777*
Y21269*
Y21608D02*
X15115Y21947D01*
Y22793D02*
X14099D01*
X14607Y22285*
Y22962*
X16914Y19094D02*
X15899D01*
Y19602*
X16068Y19772*
X16407*
X16576Y19602*
Y19094*
Y19433D02*
X16914Y19772D01*
Y20787D02*
Y2011D01*
X16237Y20787*
X16068*
X15899Y20618*
Y20279*
X16068Y2011*
X15115Y19094D02*
X14099D01*
Y19602*
X14268Y19772*
X14607*
X14776Y19602*
Y19094*
Y19433D02*
X15115Y19772D01*
Y2011D02*
Y20449D01*
Y20279*
X14099*
X14268Y2011*
G54D31*
X37325Y18856D02*
X37326Y20842D01*
X33625Y18856D02*
X34474D01*
X33625Y20842D02*
X34474D01*
X36474Y18856D02*
X37325D01*
X36474Y20842D02*
X37325D01*
X33625Y18856D02*
X33626Y20842D01*
X37325Y16882D02*
X37326Y18867D01*
X33625Y16882D02*
X34474D01*
X33625Y18867D02*
X34474D01*
X36474Y16882D02*
X37325D01*
X36474Y18867D02*
X37325D01*
X33625Y16882D02*
X33626Y18867D01*
X13463Y34301D02*
X13465Y36287D01*
X16314D02*
X17165D01*
X16314Y34301D02*
X17165D01*
X13465Y36287D02*
X14314D01*
X13465Y34301D02*
X14314D01*
X17163D02*
X17165Y36287D01*
X13372Y34022D02*
X15358Y34021D01*
Y30321D02*
Y31171D01*
X13372Y30321D02*
Y31171D01*
X15358Y33171D02*
Y34021D01*
X13372Y33171D02*
Y34021D01*
Y30322D02*
X15358Y30321D01*
X31173Y23782D02*
X31174Y25768D01*
X34025D02*
X34874D01*
X34025Y23782D02*
X34874D01*
X31174Y25768D02*
X32025D01*
X31174Y23782D02*
X32025D01*
X34873D02*
X34874Y25768D01*
X31173Y25731D02*
X31174Y27718D01*
X34025D02*
X34874D01*
X34025Y25731D02*
X34874D01*
X31174Y27718D02*
X32025D01*
X31174Y25731D02*
X32025D01*
X34873D02*
X34874Y27718D01*
X31173Y27731D02*
X31174Y29717D01*
X34025D02*
X34874D01*
X34025Y27731D02*
X34874D01*
X31174Y29717D02*
X32025D01*
X31174Y27731D02*
X32025D01*
X34873D02*
X34874Y29717D01*
X13463Y36377D02*
X13465Y38362D01*
X16314D02*
X17165D01*
X16314Y36377D02*
X17165D01*
X13465Y38362D02*
X14314D01*
X13465Y36377D02*
X14314D01*
X17163D02*
X17165Y38362D01*
X37373Y18856D02*
X37375Y20842D01*
X40224D02*
X41075D01*
X40224Y18856D02*
X41075D01*
X37375Y20842D02*
X38224D01*
X37375Y18856D02*
X38224D01*
X41073D02*
X41075Y20842D01*
X37373Y16882D02*
X37375Y18867D01*
X40224D02*
X41075D01*
X40224Y16882D02*
X41075D01*
X37375Y18867D02*
X38224D01*
X37375Y16882D02*
X38224D01*
X41073D02*
X41075Y18867D01*
X15396Y34021D02*
X17382Y34019D01*
Y30319D02*
Y31169D01*
X15396Y30319D02*
Y31169D01*
X17382Y3317D02*
Y34019D01*
X15396Y3317D02*
Y34019D01*
Y30321D02*
X17382Y30319D01*
X15396Y30297D02*
X17382Y30296D01*
Y26596D02*
Y27446D01*
X15396Y26596D02*
Y27446D01*
X17382Y29446D02*
Y30296D01*
X15396Y29446D02*
Y30296D01*
Y26597D02*
X17382Y26596D01*
X13372Y30296D02*
X15358Y30295D01*
Y26595D02*
Y27444D01*
X13372Y26595D02*
Y27444D01*
X15358Y29444D02*
Y30295D01*
X13372Y29444D02*
Y30295D01*
Y26596D02*
X15358Y26595D01*
X31174Y30132D02*
X32025D01*
X31174Y32118D02*
X32025D01*
X33776Y30134D02*
X34695D01*
X31173Y30132D02*
X31174Y32118D01*
X34904Y30343D02*
Y31912D01*
X33761Y32115D02*
X3461D01*
X34701*
X34904Y31912*
X34695Y30134D02*
X34904Y30343D01*
X31174Y34107D02*
X32025D01*
X31174Y36092D02*
X32025D01*
X33776Y34109D02*
X34695D01*
X31173Y34107D02*
X31174Y36092D01*
X34904Y34318D02*
Y35887D01*
X33761Y3609D02*
X3461D01*
X34701*
X34904Y35887*
X34695Y34109D02*
X34904Y34318D01*
X31174Y32132D02*
X32025D01*
X31174Y34118D02*
X32025D01*
X33776Y32134D02*
X34695D01*
X31173Y32132D02*
X31174Y34118D01*
X34904Y32343D02*
Y33912D01*
X33761Y34115D02*
X3461D01*
X34701*
X34904Y33912*
X34695Y32134D02*
X34904Y32343D01*
X244Y36713D02*
Y35973D01*
X24548Y35824*
X24844*
X24992Y35973*
Y36713*
X25288Y35824D02*
X25584D01*
X25436*
Y36713*
X25288Y36565*
X21709Y07467D02*
X21561Y07319D01*
Y07023*
X21709Y06875*
X22301*
X2245Y07023*
Y07319*
X22301Y07467*
X22005*
Y07171*
X2245Y07763D02*
X21561D01*
X2245Y08356*
X21561*
Y08652D02*
X2245D01*
Y09096*
X22301Y09244*
X21709*
X21561Y09096*
Y08652*
X24459Y06875D02*
X24311Y07023D01*
Y07319*
X24459Y07467*
X24607*
X24755Y07319*
Y07171*
Y07319*
X24903Y07467*
X25051*
X252Y07319*
Y07023*
X25051Y06875*
X24311Y07763D02*
X24903D01*
X252Y08059*
X24903Y08356*
X24311*
X24459Y08652D02*
X24311Y088D01*
Y09096*
X24459Y09244*
X24607*
X24755Y09096*
Y08948*
Y09096*
X24903Y09244*
X25051*
X252Y09096*
Y088*
X25051Y08652*
X1405Y42257D02*
X14198Y42405D01*
Y42701*
X1405Y4285*
X13458*
X1331Y42701*
Y42405*
X13458Y42257*
X13754*
Y42553*
X1331Y41961D02*
X14198D01*
X1331Y41368*
X14198*
Y41072D02*
X1331D01*
Y40628*
X13458Y4048*
X1405*
X14198Y40628*
Y41072*
X16738Y4285D02*
Y42257D01*
Y42553*
X1585*
X16738Y41961D02*
X1585Y41368D01*
X16738D02*
X1585Y41961D01*
Y40628D02*
X16294Y41072D01*
X16738Y40628*
X1839Y4285D02*
X19278D01*
Y42405*
X1913Y42257*
X18834*
X18686Y42405*
Y4285*
Y42553D02*
X1839Y42257D01*
X19278Y41961D02*
X1839Y41368D01*
X19278D02*
X1839Y41961D01*
Y41072D02*
X18834Y40628D01*
X19278Y41072*
X406Y29365D02*
X40748Y29513D01*
X41044*
X41192Y29365*
Y29217*
X41044Y29069*
X40896*
X41044*
X41192Y28921*
Y28773*
X41044Y28625*
X40748*
X406Y28773*
X41488Y29513D02*
Y28921D01*
X41785Y28625*
X42081Y28921*
Y29513*
X42377Y29365D02*
X42525Y29513D01*
X42821*
X42969Y29365*
Y29217*
X42821Y29069*
X42673*
X42821*
X42969Y28921*
Y28773*
X42821Y28625*
X42525*
X42377Y28773*
X41192Y31896D02*
X41044Y32044D01*
X40748*
X406Y31896*
Y31304*
X40748Y31156*
X41044*
X41192Y31304*
Y316*
X40896*
X41488Y31156D02*
Y32044D01*
X42081Y31156*
Y32044*
X42377D02*
Y31156D01*
X42821*
X42969Y31304*
Y31896*
X42821Y32044*
X42377*
X41192Y34428D02*
X41044Y34576D01*
X40748*
X406Y34428*
Y34279*
X40748Y34131*
X41044*
X41192Y33983*
Y33835*
X41044Y33687*
X40748*
X406Y33835*
X42081Y34428D02*
X41933Y34576D01*
X41636*
X41488Y34428*
Y33835*
X41636Y33687*
X41933*
X42081Y33835*
X42377Y34576D02*
Y33687D01*
X42969*
X41192Y36959D02*
X41044Y37107D01*
X40748*
X406Y36959*
Y36811*
X40748Y36663*
X41044*
X41192Y36515*
Y36366*
X41044Y36218*
X40748*
X406Y36366*
X41488Y37107D02*
Y36218D01*
X41933*
X42081Y36366*
Y36959*
X41933Y37107*
X41488*
X42377Y36218D02*
Y36811D01*
X42673Y37107*
X42969Y36811*
Y36218*
Y36663*
X42377*
X406Y38749D02*
Y39342D01*
X40896Y39638*
X41192Y39342*
Y38749*
Y39194*
X406*
X41488Y39638D02*
Y38749D01*
X41933*
X42081Y38898*
Y3949*
X41933Y39638*
X41488*
X42377Y38749D02*
Y39638D01*
X42821*
X42969Y3949*
Y39194*
X42821Y39046*
X42377*
X42673D02*
X42969Y38749D01*
X06949Y2075D02*
Y21638D01*
X07246Y21342*
X07542Y21638*
Y2075*
X08431Y2149D02*
X08282Y21638D01*
X07986*
X07838Y2149*
Y20898*
X07986Y2075*
X08282*
X08431Y20898*
X08727Y21638D02*
Y2075D01*
X0932*
X09616D02*
Y21638D01*
X1006*
X10208Y2149*
Y21194*
X1006Y21046*
X09616*
X09912D02*
X10208Y2075D01*
X06949Y1895D02*
X07098Y19098D01*
X07394*
X07542Y1895*
Y18802*
X07394Y18654*
X07246*
X07394*
X07542Y18506*
Y18358*
X07394Y1821*
X07098*
X06949Y18358*
X07838Y19098D02*
Y18506D01*
X08134Y1821*
X08431Y18506*
Y19098*
X08727Y1895D02*
X08875Y19098D01*
X09171*
X0932Y1895*
Y18802*
X09171Y18654*
X09023*
X09171*
X0932Y18506*
Y18358*
X09171Y1821*
X08875*
X08727Y18358*
X07542Y1641D02*
X07394Y16558D01*
X07098*
X06949Y1641*
Y15818*
X07098Y1567*
X07394*
X07542Y15818*
Y16114*
X07246*
X07838Y1567D02*
Y16558D01*
X08431Y1567*
Y16558*
X08727D02*
Y1567D01*
X09171*
X0932Y15818*
Y1641*
X09171Y16558*
X08727*
X06949Y1313D02*
Y14018D01*
X07394*
X07542Y1387*
Y13574*
X07394Y13426*
X06949*
X08431Y1387D02*
X08282Y14018D01*
X07986*
X07838Y1387*
Y13278*
X07986Y1313*
X08282*
X08431Y13278*
Y13574*
X08134*
X08727Y14018D02*
Y1313D01*
X09171*
X0932Y13278*
Y1387*
X09171Y14018*
X08727*
X06949Y1059D02*
Y11478D01*
X07394*
X07542Y1133*
Y11034*
X07394Y10886*
X06949*
X08431Y1133D02*
X08282Y11478D01*
X07986*
X07838Y1133*
Y10738*
X07986Y1059*
X08282*
X08431Y10738*
Y11034*
X08134*
X0932Y1133D02*
X09171Y11478D01*
X08875*
X08727Y1133*
Y10738*
X08875Y1059*
X09171*
X0932Y10738*
X071Y28625D02*
Y29217D01*
X07396Y29513*
X07692Y29217*
Y28625*
Y29069*
X071*
X07988Y29513D02*
Y28625D01*
X08433*
X08581Y28773*
Y29365*
X08433Y29513*
X07988*
X08877Y28625D02*
Y29513D01*
X09321*
X09469Y29365*
Y29069*
X09321Y28921*
X08877*
X09173D02*
X09469Y28625D01*
X07692Y31896D02*
X07544Y32044D01*
X07248*
X071Y31896*
Y31748*
X07248Y316*
X07544*
X07692Y31452*
Y31304*
X07544Y31156*
X07248*
X071Y31304*
X07988Y32044D02*
Y31156D01*
X08433*
X08581Y31304*
Y31896*
X08433Y32044*
X07988*
X08877Y31156D02*
Y31748D01*
X09173Y32044*
X09469Y31748*
Y31156*
Y316*
X08877*
X07692Y34428D02*
X07544Y34576D01*
X07248*
X071Y34428*
Y34279*
X07248Y34131*
X07544*
X07692Y33983*
Y33835*
X07544Y33687*
X07248*
X071Y33835*
X08581Y34428D02*
X08433Y34576D01*
X08136*
X07988Y34428*
Y33835*
X08136Y33687*
X08433*
X08581Y33835*
X08877Y34576D02*
Y33687D01*
X09469*
X07692Y36959D02*
X07544Y37107D01*
X07248*
X071Y36959*
Y36366*
X07248Y36218*
X07544*
X07692Y36366*
Y36663*
X07396*
X07988Y36218D02*
Y37107D01*
X08581Y36218*
Y37107*
X08877D02*
Y36218D01*
X09321*
X09469Y36366*
Y36959*
X09321Y37107*
X08877*
X071Y3949D02*
X07248Y39638D01*
X07544*
X07692Y3949*
Y39342*
X07544Y39194*
X07396*
X07544*
X07692Y39046*
Y38898*
X07544Y38749*
X07248*
X071Y38898*
X07988Y39638D02*
Y39046D01*
X08284Y38749*
X08581Y39046*
Y39638*
X08877Y3949D02*
X09025Y39638D01*
X09321*
X09469Y3949*
Y39342*
X09321Y39194*
X09173*
X09321*
X09469Y39046*
Y38898*
X09321Y38749*
X09025*
X08877Y38898*
G54D32*
X3745Y09549D02*
X4115D01*
X3745Y16249D02*
X4115D01*
X3745Y09549D02*
Y16249D01*
X4115Y09549D02*
Y16249D01*
G54D33*
X25299Y4515D02*
Y45319D01*
X25469*
Y4515*
X25299*
M02*