%FSTAX23Y23*%
%MOMM*%
%SFA1B1*%

%IPPOS*%
%ADD17C,0.254000*%
%ADD18C,0.762000*%
%ADD20C,1.500124*%
%ADD21R,1.500124X1.500124*%
%ADD22C,4.999990*%
%ADD23R,1.500124X1.500124*%
%ADD24C,1.199896*%
%ADD25R,1.199896X1.199896*%
%ADD26C,1.299972*%
%LNpcb-1*%
%LPD*%
G36*
X48324Y49633D02*
X48637Y49538D01*
X48925Y49384*
X49177Y49177*
X49384Y48925*
X49538Y48637*
X49633Y48324*
X49664Y48005*
X49663Y47999*
Y01999*
X49664Y01993*
X49633Y01675*
X49538Y01362*
X49384Y01074*
X49177Y00822*
X48925Y00615*
X48637Y00461*
X48324Y00366*
X48123Y00346*
X47999Y00336*
X47875*
X01999*
X01993Y00335*
X01675Y00366*
X01362Y00461*
X01074Y00615*
X00822Y00822*
X00615Y01074*
X00461Y01362*
X00366Y01675*
X00346Y01876*
X00336Y01999*
Y02125*
Y47873*
Y47875*
Y47999*
X00346Y48122*
X00366Y48324*
X00461Y48637*
X00615Y48925*
X00822Y49177*
X01074Y49384*
X01362Y49538*
X01675Y49633*
X01993Y49664*
X01999Y49663*
X47999*
X48005Y49664*
X48324Y49633*
G37*
%LNpcb-2*%
%LPC*%
G36*
X34889Y48796D02*
X34641Y48763D01*
X34409Y48667*
X3421Y48514*
X34057Y48315*
X33961Y48083*
X33928Y47835*
X33961Y47586*
X34057Y47354*
X3421Y47155*
X34409Y47002*
X34641Y46906*
X34889Y46873*
X35138Y46906*
X3537Y47002*
X35569Y47155*
X35722Y47354*
X35818Y47586*
X35851Y47835*
X35818Y48083*
X35722Y48315*
X35569Y48514*
X3537Y48667*
X35138Y48763*
X34889Y48796*
G37*
G36*
X32349D02*
X32101Y48763D01*
X31869Y48667*
X3167Y48514*
X31517Y48315*
X31421Y48083*
X31388Y47835*
X31421Y47586*
X31517Y47354*
X3167Y47155*
X31869Y47002*
X32101Y46906*
X32349Y46873*
X32598Y46906*
X3283Y47002*
X33029Y47155*
X33182Y47354*
X33278Y47586*
X33311Y47835*
X33278Y48083*
X33182Y48315*
X33029Y48514*
X3283Y48667*
X32598Y48763*
X32349Y48796*
G37*
G36*
X29809D02*
X29561Y48763D01*
X29329Y48667*
X2913Y48514*
X28977Y48315*
X28881Y48083*
X28848Y47835*
X28881Y47586*
X28977Y47354*
X2913Y47155*
X29329Y47002*
X29561Y46906*
X29809Y46873*
X30058Y46906*
X3029Y47002*
X30489Y47155*
X30642Y47354*
X30738Y47586*
X30771Y47835*
X30738Y48083*
X30642Y48315*
X30489Y48514*
X3029Y48667*
X30058Y48763*
X29809Y48796*
G37*
G36*
X27269D02*
X27021Y48763D01*
X26789Y48667*
X2659Y48514*
X26525Y4843*
X24159*
X23932Y48385*
X23738Y48256*
X20628Y45146*
X20499Y44952*
X20454Y44725*
Y3978*
X05903*
Y40138*
X03996*
Y38231*
X05903*
Y38589*
X20494*
Y37233*
X20136*
Y35326*
X22043*
Y37233*
X21685*
Y38589*
X32443*
X42428Y28603*
X42621Y28474*
X4285Y28429*
X44046*
Y28071*
X44484*
Y23468*
X44378Y2333*
X44297Y23134*
X44269Y22925*
X44297Y22715*
X44378Y22519*
X44484Y22381*
Y10576*
X42278Y0837*
X25295*
Y085*
X2525Y08727*
X25121Y08921*
X24534Y09507*
X24341Y09636*
X24113Y09681*
X04466*
X04095Y10052*
Y10319*
X04222Y10362*
X0432Y10235*
X04519Y10082*
X04751Y09986*
X04999Y09953*
X05248Y09986*
X0548Y10082*
X05679Y10235*
X05832Y10434*
X05892Y10578*
X24439*
X24568Y10603*
X24678Y10676*
X26637Y12637*
X26711Y12746*
X26736Y12875*
Y2896*
X2818Y30404*
X28229Y30367*
X28461Y30271*
X28709Y30238*
X28958Y30271*
X2919Y30367*
X29389Y3052*
X29542Y30719*
X29638Y30951*
X29671Y312*
X29638Y31448*
X29542Y3168*
X29389Y31879*
X2919Y32032*
X28958Y32128*
X28709Y32161*
X28461Y32128*
X28229Y32032*
X2803Y31879*
X27877Y3168*
X27781Y31448*
X27748Y312*
X2778Y30956*
X26396Y29572*
X26279Y29621*
Y30833*
X28317Y3287*
X28461Y32811*
X28709Y32778*
X28958Y32811*
X2919Y32907*
X29389Y3306*
X29542Y33259*
X29638Y33491*
X29671Y3374*
X29638Y33988*
X29542Y3422*
X29389Y34419*
X2919Y34572*
X28958Y34668*
X28709Y34701*
X28461Y34668*
X28229Y34572*
X2803Y34419*
X27877Y3422*
X27781Y33988*
X27748Y3374*
X27781Y33491*
X2784Y33347*
X25704Y3121*
X25631Y31101*
X25606Y30972*
Y13203*
X24111Y11708*
X07222*
X05868Y13062*
X05928Y13206*
X05961Y13454*
X05928Y13703*
X05832Y13935*
X05679Y14134*
X0548Y14287*
X05248Y14383*
X04999Y14416*
X04751Y14383*
X04519Y14287*
X0432Y14134*
X04222Y14007*
X04095Y1405*
Y17228*
X04554Y17687*
X04751Y17606*
X04999Y17573*
X05248Y17606*
X0548Y17702*
X05679Y17855*
X05832Y18054*
X05928Y18286*
X05961Y18534*
X05928Y18783*
X05832Y19015*
X05679Y19214*
X0548Y19367*
X05248Y19463*
X04999Y19496*
X04751Y19463*
X04519Y19367*
X0432Y19214*
X04167Y19015*
X04144Y18959*
X04138Y18956*
X03088Y17905*
X03022Y17913*
X02961Y17931*
Y19585*
X03929Y20553*
X04046Y20504*
Y20121*
X05953*
Y22028*
X05909Y22133*
X12099Y28323*
X20197*
X20257Y28179*
X2041Y2798*
X20609Y27827*
X20841Y27731*
X21089Y27698*
X21338Y27731*
X2157Y27827*
X21769Y2798*
X21922Y28179*
X22018Y28411*
X22051Y2866*
X22018Y28908*
X21922Y2914*
X21769Y29339*
X2157Y29492*
X21338Y29588*
X21089Y29621*
X20841Y29588*
X20609Y29492*
X2041Y29339*
X20257Y2914*
X20197Y28996*
X1196*
X11831Y2897*
X11721Y28898*
X04852Y22028*
X04046*
Y21411*
X03975*
X03846Y21386*
X03736Y21313*
X02386Y19963*
X02313Y19853*
X02288Y19725*
Y09675*
X02313Y09546*
X02386Y09436*
X03686Y08136*
X03796Y08063*
X03925Y08038*
X17385*
X18913Y0651*
Y02824*
X18939Y02696*
X19011Y02586*
X19636Y01961*
X19746Y01888*
X19874Y01863*
X29299*
X29428Y01888*
X29538Y01961*
X31287Y03711*
X31361Y03821*
X31386Y03949*
Y04046*
X32003*
Y05953*
X30096*
Y04046*
X30504*
X30553Y03929*
X2916Y02536*
X20014*
X19586Y02964*
Y06649*
X19561Y06778*
X19488Y06887*
X18003Y08373*
X18051Y0849*
X23867*
X24104Y08253*
Y05953*
X23746*
Y04046*
X25653*
Y05953*
X25295*
Y07179*
X42524*
X42753Y07224*
X42946Y07353*
X45501Y09908*
X4563Y10102*
X45675Y10329*
Y22381*
X45781Y22519*
X45862Y22715*
X4589Y22925*
X45862Y23134*
X45781Y2333*
X45675Y23468*
Y28071*
X45953*
Y29978*
X44046*
Y2962*
X43096*
X33111Y39606*
X32917Y39735*
X3269Y3978*
X21645*
Y44478*
X24406Y47239*
X26525*
X2659Y47155*
X26789Y47002*
X27021Y46906*
X27269Y46873*
X27518Y46906*
X2775Y47002*
X27949Y47155*
X28102Y47354*
X28198Y47586*
X28231Y47835*
X28198Y48083*
X28102Y48315*
X27949Y48514*
X2775Y48667*
X27518Y48763*
X27269Y48796*
G37*
G36*
X34889Y46256D02*
X34641Y46223D01*
X34409Y46127*
X3421Y45974*
X34057Y45775*
X33961Y45543*
X33928Y45295*
X33961Y45046*
X34057Y44814*
X3421Y44615*
X34409Y44462*
X34641Y44366*
X34889Y44333*
X35138Y44366*
X3537Y44462*
X35569Y44615*
X35722Y44814*
X35818Y45046*
X35851Y45295*
X35818Y45543*
X35722Y45775*
X35569Y45974*
X3537Y46127*
X35138Y46223*
X34889Y46256*
G37*
G36*
X32349D02*
X32101Y46223D01*
X31869Y46127*
X3167Y45974*
X31517Y45775*
X31421Y45543*
X31388Y45295*
X31421Y45046*
X31517Y44814*
X3167Y44615*
X31869Y44462*
X32101Y44366*
X32349Y44333*
X32598Y44366*
X3283Y44462*
X33029Y44615*
X33182Y44814*
X33278Y45046*
X33311Y45295*
X33278Y45543*
X33182Y45775*
X33029Y45974*
X3283Y46127*
X32598Y46223*
X32349Y46256*
G37*
G36*
X29809D02*
X29561Y46223D01*
X29329Y46127*
X2913Y45974*
X28977Y45775*
X28881Y45543*
X28848Y45295*
X28881Y45046*
X28977Y44814*
X2913Y44615*
X29329Y44462*
X29561Y44366*
X29809Y44333*
X30058Y44366*
X3029Y44462*
X30489Y44615*
X30642Y44814*
X30738Y45046*
X30771Y45295*
X30738Y45543*
X30642Y45775*
X30489Y45974*
X3029Y46127*
X30058Y46223*
X29809Y46256*
G37*
G36*
X19778Y45953D02*
X17871D01*
Y44046*
X19778*
Y45953*
G37*
G36*
X16284Y45961D02*
X16036Y45928D01*
X15804Y45832*
X15605Y45679*
X15452Y4548*
X15356Y45248*
X15323Y44999*
X15356Y44751*
X15452Y44519*
X15605Y4432*
X15804Y44167*
X16036Y44071*
X16284Y44038*
X16533Y44071*
X16765Y44167*
X16964Y4432*
X17117Y44519*
X17213Y44751*
X17246Y44999*
X17213Y45248*
X17117Y4548*
X16964Y45679*
X16765Y45832*
X16533Y45928*
X16284Y45961*
G37*
G36*
X44999Y37606D02*
X44751Y37573D01*
X44519Y37477*
X4432Y37324*
X44167Y37125*
X44071Y36893*
X44038Y36645*
X44071Y36396*
X44167Y36164*
X4432Y35965*
X44519Y35812*
X44751Y35716*
X44999Y35683*
X45248Y35716*
X4548Y35812*
X45679Y35965*
X45832Y36164*
X45928Y36396*
X45961Y36645*
X45928Y36893*
X45832Y37125*
X45679Y37324*
X4548Y37477*
X45248Y37573*
X44999Y37606*
G37*
G36*
Y35066D02*
X44751Y35033D01*
X44519Y34937*
X4432Y34784*
X44167Y34585*
X44071Y34353*
X44038Y34105*
X44071Y33856*
X44167Y33624*
X4432Y33425*
X44519Y33272*
X44751Y33176*
X44999Y33143*
X45248Y33176*
X4548Y33272*
X45679Y33425*
X45832Y33624*
X45928Y33856*
X45961Y34105*
X45928Y34353*
X45832Y34585*
X45679Y34784*
X4548Y34937*
X45248Y35033*
X44999Y35066*
G37*
G36*
X04949D02*
X04701Y35033D01*
X04469Y34937*
X0427Y34784*
X04117Y34585*
X04021Y34353*
X03988Y34105*
X04021Y33856*
X04117Y33624*
X0427Y33425*
X04469Y33272*
X04701Y33176*
X04949Y33143*
X05198Y33176*
X0543Y33272*
X05629Y33425*
X05782Y33624*
X05878Y33856*
X05911Y34105*
X05878Y34353*
X05782Y34585*
X05629Y34784*
X0543Y34937*
X05198Y35033*
X04949Y35066*
G37*
G36*
X21089Y34701D02*
X20841Y34668D01*
X20609Y34572*
X2041Y34419*
X20257Y3422*
X20161Y33988*
X20128Y3374*
X20161Y33491*
X20257Y33259*
X2041Y3306*
X20609Y32907*
X20841Y32811*
X21089Y32778*
X21338Y32811*
X2157Y32907*
X21769Y3306*
X21922Y33259*
X22018Y33491*
X22051Y3374*
X22018Y33988*
X21922Y3422*
X21769Y34419*
X2157Y34572*
X21338Y34668*
X21089Y34701*
G37*
G36*
X04949Y32526D02*
X04701Y32493D01*
X04469Y32397*
X0427Y32244*
X04117Y32045*
X04021Y31813*
X03988Y31565*
X04021Y31316*
X04117Y31084*
X0427Y30885*
X04469Y30732*
X04701Y30636*
X04949Y30603*
X05198Y30636*
X0543Y30732*
X05629Y30885*
X05782Y31084*
X05878Y31316*
X05911Y31565*
X05878Y31813*
X05782Y32045*
X05629Y32244*
X0543Y32397*
X05198Y32493*
X04949Y32526*
G37*
G36*
X21089Y32161D02*
X20841Y32128D01*
X20609Y32032*
X2041Y31879*
X20257Y3168*
X20161Y31448*
X20128Y312*
X20161Y30951*
X20257Y30719*
X2041Y3052*
X20609Y30367*
X20841Y30271*
X21089Y30238*
X21338Y30271*
X2157Y30367*
X21769Y3052*
X21922Y30719*
X22018Y30951*
X22051Y312*
X22018Y31448*
X21922Y3168*
X21769Y31879*
X2157Y32032*
X21338Y32128*
X21089Y32161*
G37*
G36*
X28709Y29621D02*
X28461Y29588D01*
X28229Y29492*
X2803Y29339*
X27877Y2914*
X27781Y28908*
X27748Y2866*
X27781Y28411*
X27877Y28179*
X2803Y2798*
X28229Y27827*
X28461Y27731*
X28709Y27698*
X28958Y27731*
X2919Y27827*
X29389Y2798*
X29542Y28179*
X29638Y28411*
X29671Y2866*
X29638Y28908*
X29542Y2914*
X29389Y29339*
X2919Y29492*
X28958Y29588*
X28709Y29621*
G37*
G36*
Y27081D02*
X28461Y27048D01*
X28229Y26952*
X2803Y26799*
X27877Y266*
X27781Y26368*
X27748Y2612*
X27781Y25871*
X27877Y25639*
X2803Y2544*
X28229Y25287*
X28461Y25191*
X28709Y25158*
X28958Y25191*
X2919Y25287*
X29389Y2544*
X29542Y25639*
X29638Y25871*
X29671Y2612*
X29638Y26368*
X29542Y266*
X29389Y26799*
X2919Y26952*
X28958Y27048*
X28709Y27081*
G37*
G36*
X21089D02*
X20841Y27048D01*
X20609Y26952*
X2041Y26799*
X20257Y266*
X20161Y26368*
X20128Y2612*
X20161Y25871*
X20257Y25639*
X2041Y2544*
X20609Y25287*
X20841Y25191*
X21089Y25158*
X21338Y25191*
X2157Y25287*
X21769Y2544*
X21922Y25639*
X22018Y25871*
X22051Y2612*
X22018Y26368*
X21922Y266*
X21769Y26799*
X2157Y26952*
X21338Y27048*
X21089Y27081*
G37*
G36*
X28709Y24541D02*
X28461Y24508D01*
X28229Y24412*
X2803Y24259*
X27877Y2406*
X27781Y23828*
X27748Y2358*
X27781Y23331*
X27877Y23099*
X2803Y229*
X28229Y22747*
X28461Y22651*
X28709Y22618*
X28958Y22651*
X2919Y22747*
X29389Y229*
X29542Y23099*
X29638Y23331*
X29671Y2358*
X29638Y23828*
X29542Y2406*
X29389Y24259*
X2919Y24412*
X28958Y24508*
X28709Y24541*
G37*
G36*
X21089D02*
X20841Y24508D01*
X20609Y24412*
X2041Y24259*
X20257Y2406*
X20161Y23828*
X20128Y2358*
X20161Y23331*
X20257Y23099*
X2041Y229*
X20609Y22747*
X20841Y22651*
X21089Y22618*
X21338Y22651*
X2157Y22747*
X21769Y229*
X21922Y23099*
X22018Y23331*
X22051Y2358*
X22018Y23828*
X21922Y2406*
X21769Y24259*
X2157Y24412*
X21338Y24508*
X21089Y24541*
G37*
G36*
X28709Y22001D02*
X28461Y21968D01*
X28229Y21872*
X2803Y21719*
X27877Y2152*
X27781Y21288*
X27748Y2104*
X27781Y20791*
X27877Y20559*
X2803Y2036*
X28229Y20207*
X28461Y20111*
X28709Y20078*
X28958Y20111*
X2919Y20207*
X29389Y2036*
X29542Y20559*
X29638Y20791*
X29671Y2104*
X29638Y21288*
X29542Y2152*
X29389Y21719*
X2919Y21872*
X28958Y21968*
X28709Y22001*
G37*
G36*
X21089D02*
X20841Y21968D01*
X20609Y21872*
X2041Y21719*
X20257Y2152*
X20161Y21288*
X20128Y2104*
X20161Y20791*
X20257Y20559*
X2041Y2036*
X20609Y20207*
X20841Y20111*
X21089Y20078*
X21338Y20111*
X2157Y20207*
X21769Y2036*
X21922Y20559*
X22018Y20791*
X22051Y2104*
X22018Y21288*
X21922Y2152*
X21769Y21719*
X2157Y21872*
X21338Y21968*
X21089Y22001*
G37*
G36*
X28709Y19461D02*
X28461Y19428D01*
X28229Y19332*
X2803Y19179*
X27877Y1898*
X27781Y18748*
X27748Y185*
X27781Y18251*
X27877Y18019*
X2803Y1782*
X28229Y17667*
X28461Y17571*
X28709Y17538*
X28958Y17571*
X2919Y17667*
X29389Y1782*
X29542Y18019*
X29638Y18251*
X29671Y185*
X29638Y18748*
X29542Y1898*
X29389Y19179*
X2919Y19332*
X28958Y19428*
X28709Y19461*
G37*
G36*
X21089D02*
X20841Y19428D01*
X20609Y19332*
X2041Y19179*
X20257Y1898*
X20161Y18748*
X20128Y185*
X20161Y18251*
X20257Y18019*
X2041Y1782*
X20609Y17667*
X20841Y17571*
X21089Y17538*
X21338Y17571*
X2157Y17667*
X21769Y1782*
X21922Y18019*
X22018Y18251*
X22051Y185*
X22018Y18748*
X21922Y1898*
X21769Y19179*
X2157Y19332*
X21338Y19428*
X21089Y19461*
G37*
G36*
X28709Y16921D02*
X28461Y16888D01*
X28229Y16792*
X2803Y16639*
X27877Y1644*
X27781Y16208*
X27748Y1596*
X27781Y15711*
X27877Y15479*
X2803Y1528*
X28229Y15127*
X28461Y15031*
X28709Y14998*
X28958Y15031*
X2919Y15127*
X29389Y1528*
X29542Y15479*
X29638Y15711*
X29671Y1596*
X29638Y16208*
X29542Y1644*
X29389Y16639*
X2919Y16792*
X28958Y16888*
X28709Y16921*
G37*
G36*
X21089D02*
X20841Y16888D01*
X20609Y16792*
X2041Y16639*
X20257Y1644*
X20161Y16208*
X20128Y1596*
X20161Y15711*
X20257Y15479*
X2041Y1528*
X20609Y15127*
X20841Y15031*
X21089Y14998*
X21338Y15031*
X2157Y15127*
X21769Y1528*
X21922Y15479*
X22018Y15711*
X22051Y1596*
X22018Y16208*
X21922Y1644*
X21769Y16639*
X2157Y16792*
X21338Y16888*
X21089Y16921*
G37*
G36*
X28709Y14381D02*
X28461Y14348D01*
X28229Y14252*
X2803Y14099*
X27877Y139*
X27781Y13668*
X27748Y1342*
X27781Y13171*
X27877Y12939*
X2803Y1274*
X28229Y12587*
X28461Y12491*
X28709Y12458*
X28958Y12491*
X2919Y12587*
X29389Y1274*
X29542Y12939*
X29638Y13171*
X29671Y1342*
X29638Y13668*
X29542Y139*
X29389Y14099*
X2919Y14252*
X28958Y14348*
X28709Y14381*
G37*
G36*
X21089D02*
X20841Y14348D01*
X20609Y14252*
X2041Y14099*
X20257Y139*
X20161Y13668*
X20128Y1342*
X20161Y13171*
X20257Y12939*
X2041Y1274*
X20609Y12587*
X20841Y12491*
X21089Y12458*
X21338Y12491*
X2157Y12587*
X21769Y1274*
X21922Y12939*
X22018Y13171*
X22051Y1342*
X22018Y13668*
X21922Y139*
X21769Y14099*
X2157Y14252*
X21338Y14348*
X21089Y14381*
G37*
%LNpcb-3*%
%LPD*%
G54D17*
X03925Y08374D02*
X17524D01*
X02625Y09675D02*
X03925Y08374D01*
X02625Y09675D02*
Y19725D01*
X17524Y08374D02*
X19249Y06649D01*
X02625Y19725D02*
X03975Y21074D01*
X31049Y03949D02*
Y04999D01*
X29299Y02199D02*
X31049Y03949D01*
X19874Y02199D02*
X29299D01*
X19249Y02824D02*
X19874Y02199D01*
X19249Y02824D02*
Y06649D01*
X03975Y21074D02*
X04999D01*
Y13454D02*
X07082Y11372D01*
X2425*
X25942Y13064*
Y30972*
X28709Y3374*
X285Y312D02*
X28709D01*
X26399Y291D02*
X285Y312D01*
X26399Y12875D02*
Y291D01*
X24439Y10914D02*
X26399Y12875D01*
X04999Y10914D02*
X24439D01*
X04999Y21074D02*
Y21699D01*
X1196Y2866*
X21089*
G54D18*
X45079Y10329D02*
Y22925D01*
Y28945*
X21049Y39185D02*
X3269D01*
X04949D02*
X21049D01*
X24159Y47835D02*
X27269D01*
X21049Y44725D02*
X24159Y47835D01*
X21049Y39185D02*
Y44725D01*
Y39185D02*
X21089Y39144D01*
Y3628D02*
Y39144D01*
X3269Y39185D02*
X4285Y29025D01*
X44999*
X45079Y28945*
X24699Y04999D02*
Y085D01*
X24113Y09086D02*
X24699Y085D01*
X04219Y09086D02*
X24113D01*
X24699Y07774D02*
X42524D01*
X45079Y10329*
X035Y09805D02*
X04219Y09086D01*
X035Y09805D02*
Y17474D01*
X0456Y18534*
X04999*
G54D20*
X28709Y1342D03*
Y1596D03*
Y185D03*
Y2104D03*
Y2358D03*
Y2612D03*
Y2866D03*
Y312D03*
Y3374D03*
Y3628D03*
X21089Y1342D03*
Y1596D03*
Y185D03*
Y2104D03*
Y2358D03*
Y2612D03*
Y2866D03*
Y312D03*
Y3374D03*
X22159Y04999D03*
X13744Y44999D03*
X16284D03*
X04999Y18534D03*
Y15994D03*
Y13454D03*
Y10914D03*
X44999Y31565D03*
Y34105D03*
Y36645D03*
Y39185D03*
X04949Y36645D03*
Y34105D03*
Y31565D03*
Y29025D03*
X27269Y47835D03*
X29809Y45295D03*
Y47835D03*
X32349Y45295D03*
Y47835D03*
X34889Y45295D03*
Y47835D03*
G54D21*
X21089Y3628D03*
X24699Y04999D03*
X18824Y44999D03*
X27269Y45295D03*
G54D22*
X44999Y44999D03*
Y04999D03*
X04999D03*
Y44999D03*
G54D23*
X31049Y04999D03*
X3755D03*
X04999Y21074D03*
X44999Y29025D03*
X04949Y39185D03*
G54D24*
X45079Y22925D03*
G54D25*
X47619Y22925D03*
G54D26*
X38725Y11174D03*
Y15024D03*
M02*