%FSTAX23Y23*%
%MOMM*%
%SFA1B1*%

%IPPOS*%
%ADD33C,0.381000*%
%LNpcb-1*%
%LPD*%
G36*
X16749Y02797D02*
X16787Y02792D01*
X16825Y02786*
X16858Y02776*
X1689Y02765*
X1692Y02754*
X16947Y0274*
X16973Y02727*
X16996Y02714*
X17015Y02702*
X17032Y02689*
X17045Y02678*
X17055Y02668*
X17064Y02661*
X17068Y02657*
X1707Y02655*
X17093Y02628*
X17115Y02596*
X17134Y02566*
X17151Y02532*
X17163Y02501*
X17174Y02467*
X17191Y02403*
X17197Y02374*
X17201Y02346*
X17203Y02323*
X17206Y02302*
X17208Y02283*
Y0227*
Y02262*
Y02259*
X17206Y02211*
X17201Y02166*
X17197Y02124*
X17189Y0209*
X17182Y02063*
X17178Y02041*
X17176Y02033*
X17174Y02027*
X17172Y02025*
Y02022*
X17157Y01987*
X1714Y01955*
X17123Y01927*
X17106Y01902*
X17091Y01883*
X17079Y0187*
X1707Y0186*
X17068Y01858*
X17043Y01834*
X17015Y01813*
X1699Y01796*
X16964Y01783*
X16943Y01771*
X16924Y01764*
X16914Y0176*
X16909Y01758*
X16873Y01747*
X16837Y01739*
X16804Y01735*
X16772Y01731*
X16746Y01728*
X16725Y01726*
X16706*
X16675Y01728*
X16643Y01731*
X16615Y01735*
X16592Y01739*
X16571Y01743*
X16554Y01745*
X16546Y0175*
X16541*
X16482Y01769*
X16454Y01779*
X16429Y0179*
X16408Y01798*
X16391Y01807*
X1638Y01811*
X16376Y01813*
Y02003*
X16387*
X16404Y01991*
X16421Y01978*
X16433Y0197*
X16438Y01965*
X1644*
X16463Y0195*
X16486Y01938*
X16495Y01931*
X16503Y01929*
X16507Y01925*
X16509*
X16543Y0191*
X16575Y01898*
X1659Y01895*
X166Y01891*
X16607Y01889*
X16609*
X16647Y01883*
X16666Y01879*
X16681*
X16696Y01876*
X16715*
X16742Y01879*
X16768Y01881*
X16814Y01891*
X16854Y01908*
X16888Y01927*
X16914Y01944*
X16933Y01961*
X16943Y01972*
X16947Y01976*
X16975Y02016*
X16996Y02063*
X17009Y02109*
X17019Y02156*
X17026Y02196*
X17028Y02213*
Y0223*
X1703Y02243*
Y02251*
Y02257*
Y02259*
Y02293*
X17026Y02327*
X17022Y02357*
X17017Y02384*
X17011Y02412*
X17003Y02435*
X16996Y02456*
X16988Y02475*
X16979Y02492*
X16973Y02507*
X16964Y0252*
X16958Y0253*
X16954Y02539*
X1695Y02545*
X16945Y02547*
Y02549*
X16928Y02566*
X16912Y02583*
X16873Y02606*
X16835Y02625*
X16797Y02636*
X16766Y02644*
X16751Y02647*
X16738*
X16729Y02649*
X16715*
X16685Y02647*
X16656Y02644*
X16628Y02638*
X16603Y02632*
X16581Y02625*
X16565Y02621*
X16554Y02617*
X1655Y02615*
X16518Y02602*
X16488Y02585*
X16461Y0257*
X16436Y02556*
X16417Y02543*
X164Y02532*
X16391Y02524*
X16387Y02522*
X16376*
Y02712*
X16431Y02738*
X16457Y02748*
X16482Y02757*
X16503Y02763*
X16518Y02769*
X16529Y02771*
X16533Y02773*
X16565Y02782*
X16596Y02788*
X16624Y02792*
X16651Y02797*
X16675*
X16691Y02799*
X16706*
X16749Y02797*
G37*
G36*
X21209Y02801D02*
X21247Y02797D01*
X21281Y0279*
X21314Y0278*
X21346Y02769*
X21374Y02757*
X21399Y02744*
X21425Y02731*
X21446Y02716*
X21462Y02704*
X2148Y02691*
X21492Y0268*
X21503Y0267*
X21509Y02663*
X21514Y02659*
X21516Y02657*
X21539Y0263*
X21558Y02598*
X21575Y02566*
X21589Y02534*
X216Y02501*
X21611Y02469*
X21626Y02405*
X21632Y02376*
X21636Y02348*
X21638Y02325*
X2164Y02304*
X21643Y02285*
Y02272*
Y02264*
Y02262*
X2164Y02215*
X21636Y02173*
X2163Y02132*
X21624Y02094*
X21613Y02058*
X21602Y02027*
X21592Y01997*
X21579Y0197*
X21566Y01946*
X21556Y01925*
X21545Y01906*
X21535Y01893*
X21528Y01881*
X21522Y01872*
X21518Y01868*
X21516Y01866*
X2149Y0184*
X21462Y01819*
X21435Y018*
X21408Y01783*
X21378Y01769*
X21348Y01758*
X21293Y01741*
X21268Y01735*
X21245Y01731*
X21223Y01726*
X21204Y01724*
X2119Y01722*
X21169*
X21128Y01724*
X21092Y01728*
X21056Y01735*
X21023Y01745*
X20993Y01756*
X20965Y01769*
X20938Y01781*
X20915Y01794*
X20894Y01807*
X20877Y01821*
X2086Y01832*
X20847Y01843*
X20836Y01853*
X2083Y0186*
X20826Y01864*
X20824Y01866*
X208Y01893*
X20781Y01925*
X20765Y01957*
X2075Y01989*
X20737Y02022*
X20726Y02054*
X20711Y02118*
X20705Y02147*
X20701Y02175*
X20699Y02198*
X20697Y02219*
X20695Y02238*
Y02251*
Y02259*
Y02262*
X20697Y02308*
X20701Y0235*
X20707Y02391*
X20714Y02429*
X20724Y02465*
X20735Y02496*
X20747Y02526*
X20758Y02553*
X20771Y02577*
X20784Y02598*
X20794Y02615*
X20803Y0263*
X20811Y02642*
X20817Y02651*
X20821Y02655*
X20824Y02657*
X20849Y02683*
X20874Y02706*
X20904Y02725*
X20932Y02742*
X20961Y02757*
X20989Y02767*
X21018Y02778*
X21044Y02784*
X21069Y0279*
X21092Y02795*
X21114Y02799*
X21133Y02801*
X21147Y02803*
X21169*
X21209Y02801*
G37*
G36*
X18412Y02797D02*
X1845Y02792D01*
X18488Y02786*
X18522Y02776*
X18553Y02765*
X18583Y02754*
X18611Y0274*
X18636Y02727*
X18659Y02714*
X18678Y02702*
X18695Y02689*
X18708Y02678*
X18719Y02668*
X18727Y02661*
X18731Y02657*
X18733Y02655*
X18757Y02628*
X18778Y02596*
X18797Y02566*
X18814Y02532*
X18826Y02501*
X18837Y02467*
X18854Y02403*
X1886Y02374*
X18864Y02346*
X18867Y02323*
X18869Y02302*
X18871Y02283*
Y0227*
Y02262*
Y02259*
X18869Y02211*
X18864Y02166*
X1886Y02124*
X18852Y0209*
X18845Y02063*
X18841Y02041*
X18839Y02033*
X18837Y02027*
X18835Y02025*
Y02022*
X1882Y01987*
X18803Y01955*
X18786Y01927*
X18769Y01902*
X18754Y01883*
X18742Y0187*
X18733Y0186*
X18731Y01858*
X18706Y01834*
X18678Y01813*
X18653Y01796*
X18627Y01783*
X18606Y01771*
X18587Y01764*
X18577Y0176*
X18572Y01758*
X18536Y01747*
X185Y01739*
X18467Y01735*
X18435Y01731*
X18409Y01728*
X18388Y01726*
X18369*
X18338Y01728*
X18306Y01731*
X18278Y01735*
X18255Y01739*
X18234Y01743*
X18217Y01745*
X18209Y0175*
X18204*
X18145Y01769*
X18118Y01779*
X18092Y0179*
X18071Y01798*
X18054Y01807*
X18043Y01811*
X18039Y01813*
Y02003*
X1805*
X18067Y01991*
X18084Y01978*
X18096Y0197*
X18101Y01965*
X18103*
X18126Y0195*
X18149Y01938*
X18158Y01931*
X18166Y01929*
X1817Y01925*
X18172*
X18206Y0191*
X18238Y01898*
X18253Y01895*
X18264Y01891*
X1827Y01889*
X18272*
X1831Y01883*
X18329Y01879*
X18344*
X18359Y01876*
X18378*
X18405Y01879*
X18431Y01881*
X18477Y01891*
X18517Y01908*
X18551Y01927*
X18577Y01944*
X18596Y01961*
X18606Y01972*
X18611Y01976*
X18638Y02016*
X18659Y02063*
X18672Y02109*
X18682Y02156*
X18689Y02196*
X18691Y02213*
Y0223*
X18693Y02243*
Y02251*
Y02257*
Y02259*
Y02293*
X18689Y02327*
X18685Y02357*
X1868Y02384*
X18674Y02412*
X18665Y02435*
X18659Y02456*
X18651Y02475*
X18642Y02492*
X18636Y02507*
X18627Y0252*
X18621Y0253*
X18617Y02539*
X18613Y02545*
X18608Y02547*
Y02549*
X18592Y02566*
X18575Y02583*
X18536Y02606*
X18498Y02625*
X1846Y02636*
X18428Y02644*
X18414Y02647*
X18401*
X18393Y02649*
X18378*
X18348Y02647*
X18318Y02644*
X18291Y02638*
X18266Y02632*
X18245Y02625*
X18228Y02621*
X18217Y02617*
X18213Y02615*
X18181Y02602*
X18151Y02585*
X18124Y0257*
X18099Y02556*
X18079Y02543*
X18062Y02532*
X18054Y02524*
X1805Y02522*
X18039*
Y02712*
X18094Y02738*
X1812Y02748*
X18145Y02757*
X18166Y02763*
X18181Y02769*
X18191Y02771*
X18196Y02773*
X18228Y02782*
X18259Y02788*
X18287Y02792*
X18314Y02797*
X18338*
X18355Y02799*
X18369*
X18412Y02797*
G37*
G36*
X23587Y4126D02*
X23809D01*
Y41223*
X23958*
Y41186*
X23994*
Y41149*
X24031*
Y41038*
X24106*
Y40963*
X24143*
Y40852*
X2418*
Y40815*
X24217*
Y40704*
X24291*
Y40593*
X24328*
Y40482*
X24365*
Y40334*
X24402*
Y40223*
X24476*
Y40074*
X24513*
Y39889*
X2455*
Y39778*
X24587*
Y39593*
X24661*
Y39334*
X24698*
Y39075*
X24735*
Y38778*
X24809*
Y38408*
X24846*
Y37927*
X24883*
Y37408*
X24958*
Y36927*
X24994*
Y36741*
X25031*
Y36704*
X25106*
Y36741*
X2518*
Y36815*
X25217*
Y36927*
X25291*
Y37038*
X25328*
Y37186*
X25365*
Y37408*
X25402*
Y37963*
X25365*
Y38112*
X25328*
Y38149*
X25291*
Y38778*
X25328*
Y39075*
X25365*
Y3926*
X25402*
Y39445*
X25476*
Y39593*
X25513*
Y39667*
X2555*
Y39815*
X25587*
Y39889*
X25661*
Y4*
X25698*
Y40074*
X25735*
Y40186*
X25772*
Y40223*
X25846*
Y40334*
X25883*
Y40408*
X2592*
Y40445*
X25958*
Y40519*
X26031*
Y40593*
X26069*
Y4063*
X26106*
Y40667*
X2618*
Y40704*
X26217*
Y40778*
X26291*
Y40815*
X26365*
Y40852*
X26402*
Y40889*
X26513*
Y40963*
X26587*
Y41*
X26735*
Y41038*
X27402*
Y41*
X27661*
Y40963*
X27846*
Y40889*
X28031*
Y40852*
X28105*
Y40815*
X28254*
Y40778*
X28365*
Y40704*
X28476*
Y40667*
X28587*
Y4063*
X28661*
Y40593*
X28735*
Y40519*
X28809*
Y40482*
X2892*
Y40445*
X28994*
Y40408*
X29031*
Y40334*
X29142*
Y4026*
X2918*
Y40223*
X29291*
Y40186*
X29328*
Y40149*
X29402*
Y40074*
X29476*
Y40038*
X29587*
Y4*
X29624*
Y39963*
X29735*
Y39889*
X29772*
Y39852*
X29809*
Y39815*
X2992*
Y39778*
X29957*
Y39704*
X30031*
Y39667*
X30105*
Y3963*
X30142*
Y39593*
X30217*
Y39519*
X30291*
Y39482*
X30365*
Y39445*
X30402*
Y39408*
X30476*
Y39334*
X3055*
Y39297*
X30624*
Y3926*
X30698*
Y39223*
X30809*
Y39149*
X30846*
Y39111*
X3092*
Y39075*
X30994*
Y39*
X31068*
Y38963*
X31105*
Y38926*
X3118*
Y38889*
X31216*
Y38815*
X31291*
Y38778*
X31328*
Y38741*
X31365*
Y3863*
X31402*
Y38593*
X31476*
Y38519*
X31513*
Y38482*
X3155*
Y38445*
X31587*
Y38334*
X31661*
Y38297*
X31698*
Y3826*
X31735*
Y38223*
X31809*
Y38112*
X31846*
Y38075*
X31883*
Y38*
X3192*
Y37927*
X31994*
Y37889*
X32031*
Y37815*
X32068*
Y37741*
X32105*
Y37704*
X32179*
Y3763*
X32216*
Y37556*
X32253*
Y37519*
X32291*
Y37445*
X32365*
Y37371*
X32402*
Y37334*
X32439*
Y3726*
X32476*
Y37186*
X3255*
Y37149*
X32587*
Y37075*
X32624*
Y36964*
X32661*
Y36927*
X32735*
Y36889*
X32772*
Y36778*
X32846*
Y36741*
X32883*
Y3663*
X3292*
Y36593*
X32994*
Y36556*
X33031*
Y36445*
X33068*
Y36408*
X33105*
Y36371*
X33179*
Y3626*
X33216*
Y36223*
X33253*
Y36186*
X33291*
Y36149*
X33365*
Y36075*
X33402*
Y36*
X33439*
Y35964*
X33476*
Y35889*
X3355*
Y35852*
X33587*
Y35741*
X33624*
Y35704*
X33661*
Y35667*
X33735*
Y3563*
X33772*
Y35556*
X33809*
Y35445*
X33846*
Y35408*
X3392*
Y35371*
X33957*
Y35334*
X33994*
Y3526*
X34068*
Y35186*
X34105*
Y35149*
X34142*
Y35075*
X34179*
Y35038*
X34253*
Y34964*
X34291*
Y34889*
X34328*
Y34852*
X34402*
Y34778*
X34439*
Y34704*
X34476*
Y3463*
X3455*
Y34556*
X34587*
Y34482*
X34624*
Y34445*
X34661*
Y34334*
X34735*
Y3426*
X34772*
Y34186*
X34809*
Y34112*
X34846*
Y34001*
X3492*
Y33927*
X34957*
Y33816*
X34994*
Y33704*
X35031*
Y3363*
X35105*
Y33519*
X35142*
Y33445*
X35179*
Y33297*
X35253*
Y33186*
X35291*
Y33075*
X35327*
Y32964*
X35364*
Y32816*
X35439*
Y32704*
X35476*
Y32556*
X35513*
Y32371*
X3555*
Y32186*
X35624*
Y32075*
X35661*
Y31964*
X35698*
Y31927*
X35735*
Y31816*
X35809*
Y31741*
X35846*
Y3163*
X35883*
Y31556*
X3592*
Y31445*
X35994*
Y31371*
X36031*
Y31223*
X36105*
Y31075*
X36142*
Y30927*
X36179*
Y30705*
X36216*
Y30445*
X3629*
Y29519*
X36216*
Y29334*
X36179*
Y29112*
X36142*
Y29001*
X36105*
Y2889*
X36031*
Y28742*
X35994*
Y2863*
X3592*
Y28445*
X35883*
Y28149*
X35846*
Y27816*
X35809*
Y2726*
X35735*
Y26631*
X35698*
Y26001*
X35661*
Y25556*
X35624*
Y2526*
X3555*
Y25001*
X35513*
Y24742*
X35476*
Y24556*
X35439*
Y24408*
X35364*
Y2426*
X35327*
Y24186*
X35291*
Y24038*
X35253*
Y23927*
X35179*
Y23853*
X35142*
Y23742*
X35105*
Y23668*
X35031*
Y23556*
X34994*
Y23483*
X34957*
Y23371*
X3492*
Y23297*
X34846*
Y23223*
X34809*
Y23149*
X34772*
Y23038*
X34735*
Y22964*
X34661*
Y22853*
X34624*
Y22779*
X34587*
Y22668*
X3455*
Y22556*
X34476*
Y22483*
X34439*
Y22371*
X34402*
Y22297*
X34328*
Y22186*
X34291*
Y22038*
X34253*
Y21927*
X34179*
Y21742*
X34142*
Y21594*
X34105*
Y21186*
X34068*
Y20816*
X33994*
Y20483*
X33957*
Y20223*
X3392*
Y20001*
X33846*
Y19779*
X33809*
Y19594*
X33772*
Y19409*
X33735*
Y1926*
X33661*
Y19112*
X33624*
Y19001*
X33587*
Y18853*
X3355*
Y18742*
X33476*
Y18668*
X33439*
Y18557*
X33402*
Y18483*
X33365*
Y18372*
X33291*
Y18297*
X33253*
Y18186*
X33216*
Y18149*
X33179*
Y18038*
X33105*
Y18001*
X33068*
Y17927*
X33031*
Y17853*
X32994*
Y17816*
X3292*
Y17705*
X32883*
Y17668*
X32846*
Y17557*
X32772*
Y17483*
X32735*
Y17334*
X32661*
Y17223*
X32624*
Y17149*
X32587*
Y17038*
X3255*
Y17001*
X32476*
Y16927*
X32439*
Y16816*
X32402*
Y16779*
X32365*
Y16668*
X32291*
Y16631*
X32253*
Y16557*
X32216*
Y16483*
X32179*
Y16409*
X32105*
Y16334*
X32068*
Y16298*
X32031*
Y16186*
X31994*
Y16149*
X3192*
Y16112*
X31883*
Y16038*
X31846*
Y16001*
X31809*
Y15927*
X31735*
Y15853*
X31698*
Y15816*
X31661*
Y15779*
X31587*
Y15742*
X3155*
Y15668*
X31513*
Y15631*
X31476*
Y15594*
X31402*
Y15557*
X31328*
Y15483*
X31291*
Y15446*
X31216*
Y15409*
X3118*
Y15334*
X31105*
Y15298*
X31031*
Y15261*
X30994*
Y15223*
X3092*
Y15149*
X30883*
Y15112*
X30809*
Y15075*
X30735*
Y15038*
X30661*
Y14964*
X30624*
Y14927*
X30513*
Y1489*
X30476*
Y14853*
X30365*
Y14779*
X30291*
Y14742*
X3018*
Y14668*
X30105*
Y14631*
X29994*
Y14594*
X2992*
Y14557*
X29846*
Y14483*
X29772*
Y14446*
X29735*
Y14409*
X29624*
Y14372*
X29587*
Y14298*
X29513*
Y14261*
X29402*
Y14223*
X29365*
Y14149*
X29328*
Y14113*
X29217*
Y14075*
X2918*
Y14038*
X29142*
Y13964*
X29031*
Y13927*
X28994*
Y1389*
X28957*
Y13853*
X28846*
Y13779*
X28809*
Y13742*
X28735*
Y13705*
X28624*
Y13668*
X28587*
Y13594*
X28476*
Y13557*
X28402*
Y1352*
X28254*
Y13483*
X28105*
Y13409*
X2792*
Y13372*
X27402*
Y13409*
X27142*
Y13483*
X27106*
Y13409*
X26772*
Y13372*
X26106*
Y13409*
X25846*
Y13483*
X25587*
Y1352*
X25476*
Y13557*
X25365*
Y13594*
X25291*
Y13668*
X2518*
Y13705*
X25106*
Y13742*
X25031*
Y13779*
X24994*
Y13853*
X24958*
Y1389*
X24883*
Y13927*
X24846*
Y13964*
X24809*
Y14038*
X24735*
Y14113*
X24698*
Y14223*
X24661*
Y14409*
X24587*
Y14742*
X24661*
Y14964*
X24698*
Y15112*
X24735*
Y15334*
X24809*
Y15668*
X24587*
Y15631*
X2455*
Y15594*
X24513*
Y15557*
X24476*
Y15483*
X24402*
Y15409*
X24365*
Y15298*
X24328*
Y15223*
X24291*
Y14927*
X24328*
Y14668*
X24365*
Y14261*
X24328*
Y14075*
X24291*
Y13927*
X24217*
Y13853*
X2418*
Y13779*
X24143*
Y13705*
X24106*
Y13668*
X24031*
Y13594*
X23994*
Y13557*
X23958*
Y1352*
X2392*
Y13483*
X23809*
Y13409*
X23772*
Y13372*
X23661*
Y13335*
X23587*
Y13298*
X23476*
Y13224*
X23328*
Y13186*
X23143*
Y1315*
X22402*
Y13186*
X22143*
Y13224*
X21958*
Y13298*
X21846*
Y13335*
X21661*
Y13372*
X21476*
Y13409*
X21328*
Y13483*
X21217*
Y1352*
X21069*
Y13557*
X20958*
Y13594*
X20884*
Y13668*
X20735*
Y13705*
X20661*
Y13742*
X2055*
Y13779*
X20476*
Y13853*
X20365*
Y1389*
X20254*
Y13927*
X2018*
Y13964*
X20069*
Y14038*
X19995*
Y14075*
X1992*
Y14113*
X19847*
Y14149*
X19735*
Y14223*
X19698*
Y14261*
X19587*
Y14298*
X1955*
Y14372*
X19476*
Y14409*
X19402*
Y14446*
X19328*
Y14483*
X19291*
Y14557*
X1918*
Y14594*
X19143*
Y14631*
X19069*
Y14668*
X18995*
Y14742*
X18958*
Y14779*
X18884*
Y14853*
X18847*
Y1489*
X18772*
Y14927*
X18698*
Y14964*
X18661*
Y15038*
X18624*
Y15075*
X18587*
Y15112*
X18513*
Y15149*
X18476*
Y15223*
X18439*
Y15261*
X18402*
Y15298*
X18291*
Y15334*
X18217*
Y15409*
X1818*
Y15446*
X18143*
Y15483*
X18069*
Y15557*
X18032*
Y15631*
X17995*
Y15668*
X17958*
Y15742*
X17884*
Y15779*
X17847*
Y15816*
X17809*
Y15853*
X17772*
Y15927*
X17698*
Y16001*
X17661*
Y16038*
X17624*
Y16112*
X17587*
Y16149*
X17513*
Y16186*
X17476*
Y16298*
X17439*
Y16334*
X17402*
Y16446*
X17328*
Y16483*
X17291*
Y16557*
X17254*
Y16631*
X17217*
Y16668*
X17143*
Y16779*
X17106*
Y16816*
X17069*
Y16927*
X17032*
Y17001*
X16958*
Y17038*
X16921*
Y17149*
X16884*
Y17223*
X16809*
Y17334*
X16773*
Y17409*
X16698*
Y1752*
X16661*
Y17594*
X16624*
Y17705*
X16587*
Y17816*
X16513*
Y17927*
X16476*
Y18001*
X16439*
Y18149*
X16402*
Y18297*
X16328*
Y18409*
X16291*
Y1852*
X16254*
Y18668*
X16217*
Y18816*
X16143*
Y1889*
X16106*
Y19038*
X16069*
Y19112*
X16032*
Y1926*
X15958*
Y19372*
X15921*
Y1952*
X15884*
Y19594*
X15809*
Y19705*
X15773*
Y19853*
X15736*
Y19927*
X15698*
Y20038*
X15624*
Y20186*
X15587*
Y20297*
X1555*
Y20408*
X15513*
Y20557*
X15439*
Y20631*
X15402*
Y20779*
X15365*
Y20927*
X15328*
Y21075*
X15254*
Y2126*
X15217*
Y21483*
X15143*
Y21742*
X15106*
Y21964*
X15069*
Y22186*
X15032*
Y22371*
X14958*
Y22556*
X14921*
Y22742*
X14884*
Y22853*
X14847*
Y23001*
X14773*
Y23112*
X14736*
Y23223*
X14698*
Y23371*
X14625*
Y23519*
X14587*
Y23668*
X1455*
Y23742*
X14513*
Y2389*
X14439*
Y24038*
X14402*
Y24112*
X14365*
Y2426*
X14328*
Y24408*
X14254*
Y24556*
X14217*
Y24705*
X1418*
Y24853*
X14143*
Y25038*
X14069*
Y25223*
X14032*
Y25408*
X13995*
Y25482*
X13958*
Y25594*
X13884*
Y25742*
X13847*
Y26001*
X1381*
Y26223*
X13773*
Y27556*
X1381*
Y2763*
X13773*
Y28371*
X13698*
Y28556*
X13661*
Y28705*
X13625*
Y29556*
X13661*
Y30001*
X13698*
Y30223*
X13773*
Y30519*
X1381*
Y30705*
X13847*
Y3089*
X13884*
Y31075*
X13958*
Y3126*
X13995*
Y31445*
X14032*
Y31593*
X14069*
Y31741*
X14143*
Y31889*
X1418*
Y31964*
X14217*
Y32112*
X14254*
Y32186*
X14328*
Y32371*
X14365*
Y32445*
X14402*
Y32556*
X14439*
Y3263*
X14513*
Y32741*
X1455*
Y32816*
X14587*
Y32927*
X14625*
Y33001*
X14698*
Y33112*
X14736*
Y33186*
X14773*
Y33297*
X14847*
Y33371*
X14884*
Y33482*
X14921*
Y33593*
X14958*
Y3363*
X15032*
Y33704*
X15069*
Y33816*
X15106*
Y33927*
X15143*
Y34075*
X15217*
Y34149*
X15254*
Y3426*
X15328*
Y34334*
X15365*
Y34445*
X15402*
Y34519*
X15439*
Y3463*
X15513*
Y34704*
X1555*
Y34852*
X15587*
Y34964*
X15624*
Y35038*
X15698*
Y35149*
X15736*
Y35223*
X15773*
Y35334*
X15809*
Y35408*
X15884*
Y35519*
X15921*
Y35556*
X15958*
Y35667*
X16032*
Y35704*
X16069*
Y35815*
X16106*
Y35889*
X16143*
Y35964*
X16217*
Y36*
X16254*
Y36075*
X16291*
Y36149*
X16328*
Y36186*
X16402*
Y36223*
X16439*
Y36334*
X16476*
Y36371*
X16513*
Y36408*
X16587*
Y36445*
X16624*
Y36519*
X16661*
Y36556*
X16698*
Y3663*
X16773*
Y36704*
X16809*
Y36741*
X16884*
Y36778*
X16921*
Y36815*
X16958*
Y36889*
X17032*
Y36927*
X17069*
Y36964*
X17106*
Y37075*
X17143*
Y37149*
X17217*
Y37186*
X17254*
Y37223*
X17291*
Y3726*
X17328*
Y37334*
X17402*
Y37371*
X17439*
Y37408*
X17476*
Y37445*
X17513*
Y37519*
X17587*
Y37556*
X17624*
Y37593*
X17661*
Y3763*
X17698*
Y37741*
X17772*
Y37778*
X17809*
Y37815*
X17847*
Y37889*
X17884*
Y37963*
X17958*
Y38*
X17995*
Y38075*
X18032*
Y38112*
X18069*
Y38223*
X18143*
Y3826*
X1818*
Y38297*
X18217*
Y38334*
X18291*
Y38408*
X18328*
Y38482*
X18402*
Y38519*
X18439*
Y38593*
X18476*
Y3863*
X18513*
Y38704*
X18587*
Y38741*
X18624*
Y38778*
X18661*
Y38815*
X18698*
Y38889*
X18772*
Y38926*
X18809*
Y38963*
X18847*
Y39*
X18884*
Y39075*
X18958*
Y39111*
X18995*
Y39149*
X19032*
Y39223*
X19069*
Y3926*
X19143*
Y39297*
X1918*
Y39334*
X19291*
Y39408*
X19328*
Y39445*
X19402*
Y39482*
X19476*
Y39519*
X1955*
Y39593*
X19661*
Y3963*
X19735*
Y39667*
X19847*
Y39704*
X1992*
Y39778*
X20069*
Y39815*
X20254*
Y39852*
X20402*
Y39889*
X20476*
Y39963*
X20513*
Y4*
X2055*
Y40038*
X20587*
Y40074*
X20661*
Y40149*
X20698*
Y40186*
X20735*
Y40223*
X20772*
Y4026*
X20847*
Y40334*
X20884*
Y40408*
X2092*
Y40445*
X20958*
Y40482*
X21069*
Y40519*
X21106*
Y40593*
X21143*
Y4063*
X21254*
Y40667*
X21291*
Y40704*
X21402*
Y40778*
X21439*
Y40815*
X2155*
Y40852*
X21661*
Y40889*
X21735*
Y40963*
X21846*
Y41*
X2192*
Y41038*
X22032*
Y41074*
X22106*
Y41149*
X22254*
Y41186*
X22402*
Y41223*
X22513*
Y4126*
X22809*
Y41334*
X23587*
Y4126*
G37*
G36*
X15794Y02801D02*
X15832Y02797D01*
X15866Y0279*
X159Y0278*
X15932Y02769*
X15959Y02757*
X15985Y02744*
X1601Y02731*
X16031Y02716*
X16048Y02704*
X16065Y02691*
X16078Y0268*
X16088Y0267*
X16095Y02663*
X16099Y02659*
X16101Y02657*
X16124Y0263*
X16143Y02598*
X16161Y02566*
X16175Y02534*
X16186Y02501*
X16196Y02469*
X16211Y02405*
X16217Y02376*
X16222Y02348*
X16224Y02325*
X16226Y02304*
X16228Y02285*
Y02272*
Y02264*
Y02262*
X16226Y02215*
X16222Y02173*
X16215Y02132*
X16209Y02094*
X16198Y02058*
X16188Y02027*
X16177Y01997*
X16165Y0197*
X16152Y01946*
X16141Y01925*
X16131Y01906*
X1612Y01893*
X16114Y01881*
X16107Y01872*
X16103Y01868*
X16101Y01866*
X16076Y0184*
X16048Y01819*
X16021Y018*
X15993Y01783*
X15964Y01769*
X15934Y01758*
X15879Y01741*
X15854Y01735*
X1583Y01731*
X15809Y01726*
X1579Y01724*
X15775Y01722*
X15754*
X15714Y01724*
X15678Y01728*
X15642Y01735*
X15608Y01745*
X15579Y01756*
X15551Y01769*
X15523Y01781*
X155Y01794*
X15479Y01807*
X15462Y01821*
X15445Y01832*
X15433Y01843*
X15422Y01853*
X15416Y0186*
X15411Y01864*
X15409Y01866*
X15386Y01893*
X15367Y01925*
X1535Y01957*
X15335Y01989*
X15323Y02022*
X15312Y02054*
X15297Y02118*
X15291Y02147*
X15286Y02175*
X15284Y02198*
X15282Y02219*
X1528Y02238*
Y02251*
Y02259*
Y02262*
X15282Y02308*
X15286Y0235*
X15293Y02391*
X15299Y02429*
X1531Y02465*
X1532Y02496*
X15333Y02526*
X15344Y02553*
X15356Y02577*
X15369Y02598*
X1538Y02615*
X15388Y0263*
X15396Y02642*
X15403Y02651*
X15407Y02655*
X15409Y02657*
X15435Y02683*
X1546Y02706*
X1549Y02725*
X15517Y02742*
X15547Y02757*
X15574Y02767*
X15604Y02778*
X15629Y02784*
X15655Y0279*
X15678Y02795*
X15699Y02799*
X15718Y02801*
X15733Y02803*
X15754*
X15794Y02801*
G37*
G36*
X28764Y02797D02*
X28796Y02792D01*
X28821Y02788*
X28845Y02784*
X28859Y0278*
X2887Y02778*
X28874Y02776*
X28902Y02765*
X28927Y02754*
X2895Y02742*
X28969Y02731*
X28984Y02721*
X28995Y02714*
X29004Y02708*
X29006Y02706*
X29025Y02689*
X29039Y02672*
X29054Y02655*
X29065Y0264*
X29073Y02625*
X29079Y02615*
X29082Y02609*
X29084Y02606*
X29092Y02585*
X29099Y02564*
X29103Y02545*
X29105Y02526*
X29107Y02511*
X29109Y02498*
Y0249*
Y02488*
X29107Y02452*
X29101Y02418*
X29092Y02388*
X29082Y02365*
X29071Y02344*
X29063Y02329*
X29056Y02321*
X29054Y02316*
X29029Y02291*
X28999Y0227*
X28967Y02253*
X28936Y02238*
X28908Y02226*
X28883Y02217*
X28874Y02215*
X28868Y02213*
X28864Y02211*
X28862*
X28824Y02202*
X28807Y02198*
X2879Y02194*
X28777Y02192*
X28767Y02189*
X28758Y02187*
X28756*
X28735Y02183*
X28716Y02181*
X28699Y02177*
X28684Y02175*
X28673Y02173*
X28665Y0217*
X28661Y02168*
X28659*
X28625Y0216*
X28595Y02151*
X28572Y02143*
X28555Y02135*
X28542Y02126*
X28532Y02122*
X28527Y02118*
X28525Y02116*
X28513Y02103*
X28504Y02088*
X28498Y02073*
X28493Y02056*
X28491Y02044*
X28489Y02033*
Y02025*
Y02022*
X28491Y01995*
X285Y01972*
X2851Y01953*
X28521Y01936*
X28534Y01923*
X28544Y01914*
X28553Y0191*
X28555Y01908*
X2858Y01895*
X2861Y01887*
X2864Y01881*
X28667Y01876*
X28692Y01874*
X28713Y01872*
X28732*
X28767Y01874*
X288Y01879*
X28834Y01883*
X28864Y01891*
X28889Y01898*
X28908Y01902*
X28921Y01906*
X28923Y01908*
X28925*
X28961Y01923*
X28995Y01938*
X29027Y01955*
X29052Y0197*
X29073Y01984*
X2909Y01995*
X29101Y02003*
X29105Y02006*
X29113*
Y01811*
X29088Y018*
X29063Y01788*
X29035Y01779*
X2901Y01769*
X28989Y01762*
X28969Y01756*
X28959Y01754*
X28955Y01752*
X28919Y01743*
X28883Y01737*
X28847Y01733*
X28815Y01731*
X28786Y01728*
X28764Y01726*
X28745*
X28673Y01731*
X28642Y01735*
X2861Y01741*
X28582Y01747*
X28557Y01754*
X28534Y01762*
X2851Y01771*
X28491Y01779*
X28474Y01788*
X28462Y01794*
X28449Y018*
X28441Y01807*
X28434Y01811*
X2843Y01815*
X28428*
X28407Y01832*
X2839Y01851*
X28373Y0187*
X2836Y01889*
X28339Y01927*
X28326Y01965*
X28318Y01997*
X28316Y0201*
X28314Y02022*
X28312Y02033*
Y02039*
Y02044*
Y02046*
X28314Y02086*
X28322Y02122*
X28333Y02151*
X28343Y02177*
X28356Y02198*
X28366Y02213*
X28375Y02224*
X28377Y02226*
X28405Y02249*
X28434Y0227*
X28464Y02285*
X28496Y02299*
X28521Y02308*
X28544Y02316*
X28553Y02319*
X28557*
X28561Y02321*
X28563*
X28595Y02327*
X28627Y02334*
X2864Y02336*
X2865Y02338*
X28659Y0234*
X28661*
X28703Y02348*
X2872Y02353*
X28737Y02355*
X2875Y02359*
X2876Y02361*
X28767Y02363*
X28769*
X28798Y02372*
X28824Y0238*
X28847Y02388*
X28864Y02395*
X28877Y02403*
X28887Y0241*
X28891Y02412*
X28894Y02414*
X28906Y02426*
X28915Y02441*
X28923Y02458*
X28927Y02473*
X28929Y02488*
X28931Y02498*
Y02507*
Y02509*
X28929Y02534*
X28921Y02556*
X2891Y02575*
X289Y0259*
X28887Y02602*
X28879Y02611*
X2887Y02615*
X28868Y02617*
X28843Y0263*
X28815Y02638*
X28788Y02647*
X28762Y02651*
X28741Y02653*
X28722Y02655*
X28707*
X28673Y02653*
X2864Y02651*
X2861Y02644*
X2858Y02638*
X28557Y02632*
X2854Y02628*
X28527Y02623*
X28523Y02621*
X28489Y02609*
X28457Y02594*
X2843Y02581*
X28407Y02568*
X28388Y02556*
X28375Y02547*
X28364Y02541*
X28362Y02539*
X28352*
Y02723*
X28377Y02733*
X28403Y02744*
X2843Y02754*
X28455Y02763*
X28477Y02769*
X28493Y02773*
X28506Y02778*
X2851*
X28544Y02786*
X28578Y0279*
X2861Y02795*
X28637Y02799*
X28663*
X2868Y02801*
X28732*
X28764Y02797*
G37*
G36*
X17756Y0175D02*
X17536D01*
Y02012*
X17756*
Y0175*
G37*
G36*
X30874Y02797D02*
X30905Y02792D01*
X30931Y02788*
X30954Y02784*
X30969Y0278*
X3098Y02778*
X30984Y02776*
X31011Y02765*
X31037Y02754*
X3106Y02742*
X31079Y02731*
X31094Y02721*
X31104Y02714*
X31113Y02708*
X31115Y02706*
X31134Y02689*
X31149Y02672*
X31164Y02655*
X31174Y0264*
X31183Y02625*
X31189Y02615*
X31191Y02609*
X31193Y02606*
X31202Y02585*
X31208Y02564*
X31212Y02545*
X31215Y02526*
X31217Y02511*
X31219Y02498*
Y0249*
Y02488*
X31217Y02452*
X3121Y02418*
X31202Y02388*
X31191Y02365*
X31181Y02344*
X31172Y02329*
X31166Y02321*
X31164Y02316*
X31138Y02291*
X31109Y0227*
X31077Y02253*
X31045Y02238*
X31018Y02226*
X30992Y02217*
X30984Y02215*
X30977Y02213*
X30973Y02211*
X30971*
X30933Y02202*
X30916Y02198*
X30899Y02194*
X30886Y02192*
X30876Y02189*
X30867Y02187*
X30865*
X30844Y02183*
X30825Y02181*
X30808Y02177*
X30793Y02175*
X30783Y02173*
X30774Y0217*
X3077Y02168*
X30768*
X30734Y0216*
X30705Y02151*
X30681Y02143*
X30664Y02135*
X30652Y02126*
X30641Y02122*
X30637Y02118*
X30635Y02116*
X30622Y02103*
X30614Y02088*
X30607Y02073*
X30603Y02056*
X30601Y02044*
X30599Y02033*
Y02025*
Y02022*
X30601Y01995*
X30609Y01972*
X3062Y01953*
X3063Y01936*
X30643Y01923*
X30654Y01914*
X30662Y0191*
X30664Y01908*
X3069Y01895*
X30719Y01887*
X30749Y01881*
X30776Y01876*
X30802Y01874*
X30823Y01872*
X30842*
X30876Y01874*
X3091Y01879*
X30944Y01883*
X30973Y01891*
X30999Y01898*
X31018Y01902*
X3103Y01906*
X31032Y01908*
X31034*
X31071Y01923*
X31104Y01938*
X31136Y01955*
X31161Y0197*
X31183Y01984*
X312Y01995*
X3121Y02003*
X31215Y02006*
X31223*
Y01811*
X31198Y018*
X31172Y01788*
X31145Y01779*
X31119Y01769*
X31098Y01762*
X31079Y01756*
X31069Y01754*
X31064Y01752*
X31028Y01743*
X30992Y01737*
X30956Y01733*
X30925Y01731*
X30895Y01728*
X30874Y01726*
X30855*
X30783Y01731*
X30751Y01735*
X30719Y01741*
X30692Y01747*
X30666Y01754*
X30643Y01762*
X3062Y01771*
X30601Y01779*
X30584Y01788*
X30571Y01794*
X30558Y018*
X3055Y01807*
X30544Y01811*
X30539Y01815*
X30537*
X30516Y01832*
X30499Y01851*
X30482Y0187*
X3047Y01889*
X30449Y01927*
X30436Y01965*
X30427Y01997*
X30425Y0201*
X30423Y02022*
X30421Y02033*
Y02039*
Y02044*
Y02046*
X30423Y02086*
X30431Y02122*
X30442Y02151*
X30453Y02177*
X30466Y02198*
X30476Y02213*
X30485Y02224*
X30487Y02226*
X30514Y02249*
X30544Y0227*
X30573Y02285*
X30605Y02299*
X3063Y02308*
X30654Y02316*
X30662Y02319*
X30666*
X30671Y02321*
X30673*
X30705Y02327*
X30736Y02334*
X30749Y02336*
X30759Y02338*
X30768Y0234*
X3077*
X30812Y02348*
X30829Y02353*
X30846Y02355*
X30859Y02359*
X3087Y02361*
X30876Y02363*
X30878*
X30908Y02372*
X30933Y0238*
X30956Y02388*
X30973Y02395*
X30986Y02403*
X30997Y0241*
X31001Y02412*
X31003Y02414*
X31015Y02426*
X31024Y02441*
X31032Y02458*
X31037Y02473*
X31039Y02488*
X31041Y02498*
Y02507*
Y02509*
X31039Y02534*
X3103Y02556*
X3102Y02575*
X31009Y0259*
X30997Y02602*
X30988Y02611*
X3098Y02615*
X30977Y02617*
X30952Y0263*
X30925Y02638*
X30897Y02647*
X30872Y02651*
X30851Y02653*
X30832Y02655*
X30817*
X30783Y02653*
X30749Y02651*
X30719Y02644*
X3069Y02638*
X30666Y02632*
X30649Y02628*
X30637Y02623*
X30633Y02621*
X30599Y02609*
X30567Y02594*
X30539Y02581*
X30516Y02568*
X30497Y02556*
X30485Y02547*
X30474Y02541*
X30472Y02539*
X30461*
Y02723*
X30487Y02733*
X30512Y02744*
X30539Y02754*
X30565Y02763*
X30586Y02769*
X30603Y02773*
X30616Y02778*
X3062*
X30654Y02786*
X30688Y0279*
X30719Y02795*
X30747Y02799*
X30772*
X30789Y02801*
X30842*
X30874Y02797*
G37*
G36*
X19315Y0175D02*
X19141D01*
Y02776*
X19315*
Y0175*
G37*
G36*
X31775D02*
X31555D01*
Y02012*
X31775*
Y0175*
G37*
G36*
X22279Y02801D02*
X22311Y02797D01*
X22341Y0279*
X22368Y02784*
X22391Y02778*
X22408Y02771*
X22419Y02767*
X22423Y02765*
X22455Y0275*
X22485Y02733*
X22512Y02714*
X22537Y02697*
X22559Y02683*
X22573Y0267*
X22584Y02661*
X22588Y02659*
Y02776*
X22762*
Y0175*
X22588*
Y02513*
X22563Y02532*
X22535Y02551*
X22512Y02566*
X22489Y02579*
X2247Y0259*
X22455Y02596*
X22446Y026*
X22442Y02602*
X22413Y02615*
X22385Y02623*
X22362Y0263*
X22339Y02634*
X22319Y02636*
X22307Y02638*
X22269*
X22248Y02636*
X22229Y02632*
X22212Y0263*
X22199Y02625*
X2219Y02621*
X22184Y02619*
X22182*
X22154Y02602*
X22133Y02583*
X22127Y02575*
X22121Y02568*
X22117Y02564*
Y02562*
X22108Y02547*
X22102Y02532*
X22091Y02501*
X22089Y02486*
X22087Y02475*
X22085Y02467*
Y02465*
X2208Y02418*
X22078Y02395*
X22076Y02376*
Y02357*
Y02344*
Y02336*
Y02331*
Y0175*
X21903*
Y02414*
X21907Y0248*
X21911Y02511*
X21917Y02539*
X21924Y02564*
X2193Y02587*
X21939Y02609*
X21947Y02628*
X21956Y02644*
X21964Y02659*
X2197Y02672*
X21977Y02683*
X21983Y02691*
X21987Y02697*
X2199Y027*
X21992Y02702*
X22009Y02719*
X22028Y02736*
X22068Y02761*
X2211Y02778*
X2215Y0279*
X22188Y02799*
X22203Y02801*
X22218*
X22229Y02803*
X22246*
X22279Y02801*
G37*
G36*
X2013Y0175D02*
X19956D01*
X19539Y02776*
X19721*
X20037Y01959*
X20356Y02776*
X20542*
X2013Y0175*
G37*
G36*
X29892Y02799D02*
X29924Y02797D01*
X29953Y02792*
X29977Y0279*
X29996Y02786*
X30008Y02784*
X30013*
X30046Y02778*
X30076Y02771*
X301Y02767*
X30121Y02763*
X30135Y02759*
X30148Y02754*
X30154Y02752*
X30156*
Y02579*
X30148*
X30114Y02592*
X30085Y02602*
X30055Y02611*
X3003Y02619*
X30008Y02623*
X29992Y02628*
X29981Y02632*
X29977*
X29947Y02638*
X29917Y02642*
X29892Y02647*
X29871Y02649*
X29852Y02651*
X29826*
X29786Y02649*
X29769*
X29753Y02647*
X2974Y02644*
X29729*
X29723Y02642*
X29721*
X29685Y02636*
X2967Y0263*
X29657Y02625*
X29647Y02621*
X29638Y02617*
X29634Y02615*
X29632Y02613*
X29607Y02594*
X29587Y02575*
X29581Y02566*
X29577Y02558*
X29572Y02553*
Y02551*
X2956Y0252*
X29553Y02488*
X29551Y02475*
Y02465*
Y02456*
Y02454*
Y02429*
X29607Y02424*
X29659Y02422*
X29706Y02418*
X29748Y02414*
X29784Y0241*
X29797*
X29809Y02407*
X2982*
X29826Y02405*
X29833*
X29879Y02399*
X29924Y02391*
X29962Y02382*
X29994Y02372*
X30021Y02363*
X3004Y02357*
X30053Y02353*
X30055Y0235*
X30057*
X30089Y02334*
X30119Y02314*
X30142Y02295*
X30163Y02278*
X30178Y02262*
X3019Y02249*
X30197Y0224*
X30199Y02236*
X30216Y02207*
X30226Y02177*
X30235Y02145*
X30241Y02116*
X30245Y02088*
X30248Y02067*
Y02058*
Y02052*
Y0205*
Y02048*
X30245Y02022*
X30243Y01997*
X30233Y0195*
X30218Y0191*
X30199Y01876*
X30182Y01849*
X30167Y0183*
X30156Y01817*
X30152Y01815*
Y01813*
X30133Y01796*
X30114Y01783*
X30076Y0176*
X30036Y01745*
X3Y01733*
X29968Y01726*
X29953Y01724*
X29943*
X29932Y01722*
X29892*
X29867Y01724*
X29846Y01726*
X29824Y01731*
X29809Y01733*
X29799Y01735*
X2979Y01737*
X29788*
X2975Y01747*
X29733Y01754*
X29719Y01758*
X29706Y01764*
X29697Y01766*
X29691Y01771*
X29689*
X29661Y01785*
X29638Y018*
X2963Y01804*
X29621Y01811*
X29617Y01813*
X29615Y01815*
X29587Y01834*
X29568Y01847*
X29556Y01858*
X29551Y0186*
Y0175*
X29378*
Y02446*
X2938Y02482*
X29382Y02513*
X29389Y02541*
X29393Y02566*
X29399Y02585*
X29405Y02598*
X29408Y02609*
X2941Y02611*
X29422Y02634*
X29435Y02657*
X2945Y02676*
X29465Y02691*
X29477Y02704*
X29488Y02712*
X29494Y02719*
X29497Y02721*
X2952Y02736*
X29543Y02748*
X29566Y02759*
X29587Y02767*
X29607Y02773*
X29623Y02778*
X29632Y02782*
X29636*
X29668Y02788*
X29699Y02792*
X29731Y02797*
X29761Y02799*
X29786Y02801*
X29824*
X29892Y02799*
G37*
G36*
X27783D02*
X27814Y02797D01*
X27844Y02792*
X27867Y0279*
X27886Y02786*
X27899Y02784*
X27903*
X27937Y02778*
X27967Y02771*
X2799Y02767*
X28011Y02763*
X28026Y02759*
X28039Y02754*
X28045Y02752*
X28047*
Y02579*
X28039*
X28005Y02592*
X27975Y02602*
X27946Y02611*
X2792Y02619*
X27899Y02623*
X27882Y02628*
X27871Y02632*
X27867*
X27838Y02638*
X27808Y02642*
X27783Y02647*
X27761Y02649*
X27742Y02651*
X27717*
X27677Y02649*
X2766*
X27643Y02647*
X2763Y02644*
X2762*
X27613Y02642*
X27611*
X27575Y02636*
X27561Y0263*
X27548Y02625*
X27537Y02621*
X27529Y02617*
X27524Y02615*
X27522Y02613*
X27497Y02594*
X27478Y02575*
X27472Y02566*
X27467Y02558*
X27463Y02553*
Y02551*
X2745Y0252*
X27444Y02488*
X27442Y02475*
Y02465*
Y02456*
Y02454*
Y02429*
X27497Y02424*
X2755Y02422*
X27596Y02418*
X27639Y02414*
X27675Y0241*
X27687*
X277Y02407*
X27711*
X27717Y02405*
X27723*
X2777Y02399*
X27814Y02391*
X27852Y02382*
X27884Y02372*
X27912Y02363*
X27931Y02357*
X27943Y02353*
X27946Y0235*
X27948*
X27979Y02334*
X28009Y02314*
X28032Y02295*
X28054Y02278*
X28068Y02262*
X28081Y02249*
X28087Y0224*
X28089Y02236*
X28106Y02207*
X28117Y02177*
X28125Y02145*
X28132Y02116*
X28136Y02088*
X28138Y02067*
Y02058*
Y02052*
Y0205*
Y02048*
X28136Y02022*
X28134Y01997*
X28123Y0195*
X28108Y0191*
X28089Y01876*
X28072Y01849*
X28058Y0183*
X28047Y01817*
X28043Y01815*
Y01813*
X28024Y01796*
X28005Y01783*
X27967Y0176*
X27927Y01745*
X2789Y01733*
X27859Y01726*
X27844Y01724*
X27833*
X27823Y01722*
X27783*
X27757Y01724*
X27736Y01726*
X27715Y01731*
X277Y01733*
X2769Y01735*
X27681Y01737*
X27679*
X27641Y01747*
X27624Y01754*
X27609Y01758*
X27596Y01764*
X27588Y01766*
X27582Y01771*
X2758*
X27552Y01785*
X27529Y018*
X2752Y01804*
X27512Y01811*
X27507Y01813*
X27505Y01815*
X27478Y01834*
X27459Y01847*
X27446Y01858*
X27442Y0186*
Y0175*
X27268*
Y02446*
X2727Y02482*
X27273Y02513*
X27279Y02541*
X27283Y02566*
X2729Y02585*
X27296Y02598*
X27298Y02609*
X273Y02611*
X27313Y02634*
X27326Y02657*
X2734Y02676*
X27355Y02691*
X27368Y02704*
X27378Y02712*
X27385Y02719*
X27387Y02721*
X2741Y02736*
X27434Y02748*
X27457Y02759*
X27478Y02767*
X27497Y02773*
X27514Y02778*
X27522Y02782*
X27526*
X27558Y02788*
X2759Y02792*
X27622Y02797*
X27651Y02799*
X27677Y02801*
X27715*
X27783Y02799*
G37*
G36*
X2554D02*
X25571Y02797D01*
X25601Y02792*
X25625Y0279*
X25644Y02786*
X25656Y02784*
X2566*
X25694Y02778*
X25724Y02771*
X25747Y02767*
X25768Y02763*
X25783Y02759*
X25796Y02754*
X25802Y02752*
X25804*
Y02579*
X25796*
X25762Y02592*
X25732Y02602*
X25703Y02611*
X25677Y02619*
X25656Y02623*
X25639Y02628*
X25629Y02632*
X25625*
X25595Y02638*
X25565Y02642*
X2554Y02647*
X25519Y02649*
X255Y02651*
X25474*
X25434Y02649*
X25417*
X254Y02647*
X25388Y02644*
X25377*
X25371Y02642*
X25369*
X25332Y02636*
X25318Y0263*
X25305Y02625*
X25294Y02621*
X25286Y02617*
X25282Y02615*
X2528Y02613*
X25254Y02594*
X25235Y02575*
X25229Y02566*
X25224Y02558*
X2522Y02553*
Y02551*
X25208Y0252*
X25201Y02488*
X25199Y02475*
Y02465*
Y02456*
Y02454*
Y02429*
X25254Y02424*
X25307Y02422*
X25354Y02418*
X25396Y02414*
X25432Y0241*
X25445*
X25457Y02407*
X25468*
X25474Y02405*
X25481*
X25527Y02399*
X25571Y02391*
X2561Y02382*
X25641Y02372*
X25669Y02363*
X25688Y02357*
X25701Y02353*
X25703Y0235*
X25705*
X25737Y02334*
X25766Y02314*
X25789Y02295*
X25811Y02278*
X25825Y02262*
X25838Y02249*
X25845Y0224*
X25847Y02236*
X25864Y02207*
X25874Y02177*
X25883Y02145*
X25889Y02116*
X25893Y02088*
X25895Y02067*
Y02058*
Y02052*
Y0205*
Y02048*
X25893Y02022*
X25891Y01997*
X25881Y0195*
X25866Y0191*
X25847Y01876*
X2583Y01849*
X25815Y0183*
X25804Y01817*
X258Y01815*
Y01813*
X25781Y01796*
X25762Y01783*
X25724Y0176*
X25684Y01745*
X25648Y01733*
X25616Y01726*
X25601Y01724*
X25591*
X2558Y01722*
X2554*
X25514Y01724*
X25493Y01726*
X25472Y01731*
X25457Y01733*
X25447Y01735*
X25438Y01737*
X25436*
X25398Y01747*
X25381Y01754*
X25366Y01758*
X25354Y01764*
X25345Y01766*
X25339Y01771*
X25337*
X25309Y01785*
X25286Y018*
X25277Y01804*
X25269Y01811*
X25265Y01813*
X25263Y01815*
X25235Y01834*
X25216Y01847*
X25203Y01858*
X25199Y0186*
Y0175*
X25026*
Y02446*
X25028Y02482*
X2503Y02513*
X25036Y02541*
X25041Y02566*
X25047Y02585*
X25053Y02598*
X25055Y02609*
X25057Y02611*
X2507Y02634*
X25083Y02657*
X25098Y02676*
X25112Y02691*
X25125Y02704*
X25136Y02712*
X25142Y02719*
X25144Y02721*
X25167Y02736*
X25191Y02748*
X25214Y02759*
X25235Y02767*
X25254Y02773*
X25271Y02778*
X2528Y02782*
X25284*
X25315Y02788*
X25347Y02792*
X25379Y02797*
X25409Y02799*
X25434Y02801*
X25472*
X2554Y02799*
G37*
G36*
X19326Y02947D02*
X19131D01*
Y03127*
X19326*
Y02947*
G37*
G36*
X14542Y02801D02*
X14574Y02797D01*
X14601Y0279*
X14629Y02784*
X1465Y02778*
X14664Y02771*
X14675Y02767*
X14679Y02765*
X14709Y0275*
X14739Y02733*
X14766Y02716*
X14789Y027*
X1481Y02685*
X14825Y02672*
X14836Y02663*
X1484Y02661*
Y02776*
X15014*
Y0175*
X1484*
Y02513*
X14815Y02532*
X14789Y02551*
X14766Y02566*
X14745Y02579*
X14726Y0259*
X14713Y02596*
X14703Y026*
X14701Y02602*
X14673Y02615*
X14648Y02623*
X14624Y0263*
X14603Y02634*
X14584Y02636*
X14571Y02638*
X14531*
X14508Y02634*
X14489Y02632*
X14472Y02628*
X14461Y02623*
X14451Y02621*
X14447Y02617*
X14444*
X14417Y026*
X14398Y02581*
X14392Y02573*
X14387Y02564*
X14383Y0256*
Y02558*
X14377Y02543*
X1437Y02528*
X14364Y02496*
X1436Y02482*
Y02471*
X14358Y02463*
Y02461*
X14354Y02414*
Y02393*
X14351Y02374*
Y02357*
Y02342*
Y02334*
Y02331*
Y0175*
X14178*
Y02403*
Y02424*
Y02441*
X1418Y02454*
Y02456*
Y02458*
X14182Y0248*
X14184Y02494*
X14186Y02505*
Y02509*
X14159Y02528*
X14131Y02547*
X14108Y02562*
X14085Y02575*
X14068Y02585*
X14053Y02594*
X14042Y02598*
X1404Y026*
X14013Y02613*
X13988Y02621*
X13964Y0263*
X13941Y02634*
X13924Y02636*
X13909Y02638*
X13869*
X13846Y02634*
X13827Y02632*
X1381Y02628*
X13799Y02623*
X13789Y02621*
X13784Y02617*
X13782*
X13755Y02598*
X13736Y02579*
X13729Y0257*
X13725Y02564*
X13721Y0256*
Y02558*
X13714Y02543*
X13708Y02526*
X13702Y02494*
X13697Y0248*
Y02469*
X13695Y02461*
Y02458*
X13691Y02412*
Y02391*
X13689Y02372*
Y02355*
Y02342*
Y02334*
Y02331*
Y0175*
X13516*
Y02414*
X1352Y0248*
X13528Y02537*
X13541Y02585*
X13547Y02606*
X13556Y02625*
X13564Y02642*
X13571Y02657*
X13577Y0267*
X13583Y0268*
X13587Y02689*
X13592Y02695*
X13596Y02697*
Y027*
X13613Y02719*
X1363Y02733*
X13649Y02748*
X13668Y02759*
X1371Y02778*
X13751Y0279*
X13789Y02797*
X13803Y02801*
X13818*
X13829Y02803*
X13846*
X13882Y02801*
X13918Y02797*
X13947Y0279*
X13977Y02784*
X14Y02776*
X14017Y02769*
X14028Y02765*
X14032Y02763*
X14063Y02746*
X14098Y02727*
X14129Y02706*
X14159Y02685*
X14184Y02666*
X14205Y02651*
X14218Y0264*
X1422Y02638*
X14222Y02636*
X14237Y02663*
X14254Y02689*
X14273Y0271*
X1429Y02727*
X14307Y0274*
X1432Y0275*
X14328Y02757*
X14332Y02759*
X1436Y02773*
X14389Y02784*
X14419Y02792*
X14447Y02797*
X14472Y02801*
X14491Y02803*
X14508*
X14542Y02801*
G37*
G36*
X24693Y0175D02*
X2452D01*
Y02477*
X24494Y02496*
X24469Y02515*
X24446Y0253*
X24423Y02543*
X24406Y02553*
X24391Y02562*
X24382Y02566*
X24378Y02568*
X24351Y02581*
X24323Y0259*
X24296Y02596*
X24273Y026*
X24253Y02602*
X24236Y02604*
X2419*
X24175Y02602*
X24154*
X24146Y026*
X24139*
X24112Y02596*
X24088Y02592*
X2408Y0259*
X24071*
X24067Y02587*
X24055*
Y02763*
X24082Y02767*
X24101Y02769*
X24114Y02771*
X24118*
X24126Y02773*
X24135*
X24156Y02776*
X24182*
X24211Y02773*
X24241Y02769*
X24266Y02765*
X24292Y02759*
X24311Y0275*
X24327Y02746*
X24336Y02742*
X2434Y0274*
X2437Y02725*
X24402Y02708*
X24431Y02689*
X24459Y0267*
X24484Y02651*
X24503Y02636*
X24516Y02628*
X24518Y02623*
X2452*
Y02776*
X24693*
Y0175*
G37*
G36*
X23608Y02799D02*
X2364Y02797D01*
X2367Y02792*
X23693Y0279*
X23712Y02786*
X23724Y02784*
X23729*
X23762Y02778*
X23792Y02771*
X23816Y02767*
X23837Y02763*
X23851Y02759*
X23864Y02754*
X2387Y02752*
X23872*
Y02579*
X23864*
X2383Y02592*
X23801Y02602*
X23771Y02611*
X23746Y02619*
X23724Y02623*
X23708Y02628*
X23697Y02632*
X23693*
X23663Y02638*
X23633Y02642*
X23608Y02647*
X23587Y02649*
X23568Y02651*
X23543*
X23502Y02649*
X23485*
X23468Y02647*
X23456Y02644*
X23445*
X23439Y02642*
X23437*
X23401Y02636*
X23386Y0263*
X23373Y02625*
X23363Y02621*
X23354Y02617*
X2335Y02615*
X23348Y02613*
X23323Y02594*
X23303Y02575*
X23297Y02566*
X23293Y02558*
X23289Y02553*
Y02551*
X23276Y0252*
X23269Y02488*
X23267Y02475*
Y02465*
Y02456*
Y02454*
Y02429*
X23323Y02424*
X23375Y02422*
X23422Y02418*
X23464Y02414*
X235Y0241*
X23513*
X23525Y02407*
X23536*
X23543Y02405*
X23549*
X23595Y02399*
X2364Y02391*
X23678Y02382*
X2371Y02372*
X23737Y02363*
X23756Y02357*
X23769Y02353*
X23771Y0235*
X23773*
X23805Y02334*
X23835Y02314*
X23858Y02295*
X23879Y02278*
X23894Y02262*
X23906Y02249*
X23913Y0224*
X23915Y02236*
X23932Y02207*
X23942Y02177*
X23951Y02145*
X23957Y02116*
X23961Y02088*
X23964Y02067*
Y02058*
Y02052*
Y0205*
Y02048*
X23961Y02022*
X23959Y01997*
X23949Y0195*
X23934Y0191*
X23915Y01876*
X23898Y01849*
X23883Y0183*
X23872Y01817*
X23868Y01815*
Y01813*
X23849Y01796*
X2383Y01783*
X23792Y0176*
X23752Y01745*
X23716Y01733*
X23684Y01726*
X2367Y01724*
X23659*
X23648Y01722*
X23608*
X23583Y01724*
X23562Y01726*
X2354Y01731*
X23525Y01733*
X23515Y01735*
X23506Y01737*
X23504*
X23466Y01747*
X23449Y01754*
X23435Y01758*
X23422Y01764*
X23413Y01766*
X23407Y01771*
X23405*
X23377Y01785*
X23354Y018*
X23346Y01804*
X23337Y01811*
X23333Y01813*
X23331Y01815*
X23303Y01834*
X23284Y01847*
X23272Y01858*
X23267Y0186*
Y0175*
X23094*
Y02446*
X23096Y02482*
X23098Y02513*
X23105Y02541*
X23109Y02566*
X23115Y02585*
X23121Y02598*
X23124Y02609*
X23126Y02611*
X23138Y02634*
X23151Y02657*
X23166Y02676*
X23181Y02691*
X23194Y02704*
X23204Y02712*
X2321Y02719*
X23212Y02721*
X23236Y02736*
X23259Y02748*
X23282Y02759*
X23303Y02767*
X23323Y02773*
X23339Y02778*
X23348Y02782*
X23352*
X23384Y02788*
X23416Y02792*
X23447Y02797*
X23477Y02799*
X23502Y02801*
X2354*
X23608Y02799*
G37*
G36*
X34739Y0175D02*
X34581D01*
X34318Y02539*
X34054Y0175*
X33893*
X33624Y02776*
X33798*
X33978Y0198*
X34242Y02776*
X34384*
X34642Y0198*
X34833Y02776*
X3501*
X34739Y0175*
G37*
G36*
X33199D02*
X3304D01*
X32778Y02539*
X32514Y0175*
X32353*
X32084Y02776*
X32257*
X32437Y0198*
X32702Y02776*
X32844*
X33102Y0198*
X33292Y02776*
X3347*
X33199Y0175*
G37*
G36*
X26928D02*
X26754D01*
Y0209*
X26644Y02198*
X26234Y0175*
X26005*
X26515Y02299*
X26039Y02776*
X26257*
X26754Y02262*
Y03178*
X26928*
Y0175*
G37*
G36*
X3628D02*
X36121D01*
X35859Y02539*
X35594Y0175*
X35434*
X35165Y02776*
X35338*
X35518Y0198*
X35783Y02776*
X35924*
X36182Y0198*
X36373Y02776*
X36551*
X3628Y0175*
G37*
%LNpcb-2*%
%LPC*%
G36*
X21181Y02653D02*
X21143D01*
X2112Y02649*
X21078Y02638*
X2104Y02621*
X2101Y02604*
X20984Y02587*
X20967Y0257*
X20957Y0256*
X20953Y02558*
Y02556*
X20938Y02537*
X20925Y02515*
X20906Y02469*
X20891Y0242*
X20883Y02372*
X20877Y02329*
X20874Y0231*
Y02293*
X20872Y0228*
Y0227*
Y02264*
Y02262*
Y02226*
X20877Y02194*
X20879Y02162*
X20885Y02135*
X20891Y02107*
X20898Y02084*
X20904Y02063*
X20913Y02044*
X20921Y02025*
X20927Y0201*
X20934Y01999*
X2094Y01989*
X20944Y0198*
X20948Y01974*
X20953Y01972*
Y0197*
X20967Y01953*
X20984Y01938*
X21021Y01912*
X21056Y01895*
X2109Y01885*
X2112Y01876*
X21145Y01874*
X21156Y01872*
X21169*
X21194Y01874*
X21217Y01876*
X21262Y01887*
X213Y01904*
X21329Y01921*
X21355Y01938*
X21372Y01955*
X21382Y01965*
X21387Y0197*
X21399Y01989*
X21412Y0201*
X21431Y02056*
X21446Y02105*
X21454Y02154*
X2146Y02196*
X21462Y02213*
Y0223*
X21465Y02243*
Y02253*
Y02259*
Y02262*
Y02297*
X2146Y02331*
X21458Y02361*
X21452Y02391*
X21448Y02416*
X21441Y02441*
X21433Y02463*
X21427Y02482*
X2142Y02501*
X21412Y02515*
X21406Y02528*
X21401Y02537*
X21395Y02545*
X21393Y02551*
X21389Y02553*
Y02556*
X21374Y02573*
X21357Y02587*
X21321Y02613*
X21285Y0263*
X21249Y0264*
X21217Y02649*
X21204Y02651*
X21192*
X21181Y02653*
G37*
G36*
X20587Y39482D02*
X20328D01*
Y39445*
X20254*
Y39408*
X2018*
Y39334*
X20143*
Y3926*
X20513*
Y39297*
X2055*
Y39334*
X20587*
Y39482*
G37*
G36*
X19402Y39075D02*
X19365D01*
Y39*
X19328*
Y38926*
X19402*
Y39075*
G37*
G36*
X31846Y36556D02*
X3155D01*
Y36519*
X31513*
Y36445*
X3155*
Y36371*
X31587*
Y36223*
X31661*
Y35889*
X31698*
Y3563*
X31735*
Y35445*
X31809*
Y35408*
X31846*
Y35371*
X31883*
Y35334*
X3192*
Y3526*
X32105*
Y35223*
X32476*
Y3526*
X32624*
Y35334*
X32661*
Y35408*
X32735*
Y35667*
X32661*
Y35815*
X32624*
Y35889*
X32587*
Y35964*
X3255*
Y36*
X32476*
Y36075*
X32439*
Y36149*
X32402*
Y36186*
X32365*
Y36223*
X32291*
Y3626*
X32253*
Y36334*
X32216*
Y36371*
X32105*
Y36408*
X32068*
Y36445*
X31994*
Y36519*
X31846*
Y36556*
G37*
G36*
X24217Y33297D02*
X24106D01*
Y3326*
X24143*
Y33186*
X2418*
Y33149*
X24217*
Y33297*
G37*
G36*
X28217Y36556D02*
X27809D01*
Y36519*
X27735*
Y3626*
X27772*
Y36223*
X27809*
Y36149*
X27846*
Y36075*
X2792*
Y36038*
X27957*
Y36*
X28031*
Y35889*
X28069*
Y35852*
X28105*
Y35815*
X28142*
Y35741*
X28217*
Y35667*
X28254*
Y3563*
X28291*
Y35519*
X28365*
Y35408*
X28291*
Y35371*
X28217*
Y35408*
X28069*
Y35445*
X2792*
Y35519*
X27809*
Y35556*
X27735*
Y3563*
X27624*
Y35667*
X2755*
Y35704*
X27439*
Y35741*
X27365*
Y35815*
X27254*
Y35852*
X27106*
Y35889*
X27031*
Y35964*
X2692*
Y36*
X26846*
Y36038*
X26735*
Y36075*
X26698*
Y36149*
X26587*
Y36186*
X26513*
Y36223*
X26365*
Y3626*
X2592*
Y36223*
X25772*
Y36186*
X25698*
Y36149*
X25661*
Y36075*
X25587*
Y36038*
X2555*
Y36*
X25513*
Y35889*
X25476*
Y35852*
X25402*
Y35741*
X25365*
Y35667*
X25328*
Y35519*
X25291*
Y35223*
X25217*
Y34482*
X25291*
Y34297*
X25328*
Y34149*
X25365*
Y34112*
X25402*
Y34001*
X25476*
Y33964*
X2555*
Y33927*
X25587*
Y33852*
X25735*
Y33816*
X25958*
Y33778*
X26291*
Y33816*
X27291*
Y33778*
X27402*
Y33704*
X27439*
Y33667*
X27476*
Y3363*
X2755*
Y33593*
X27624*
Y33519*
X27661*
Y33482*
X27735*
Y33445*
X27772*
Y33371*
X27809*
Y33334*
X27846*
Y3326*
X2792*
Y33186*
X27957*
Y33149*
X28031*
Y33112*
X28069*
Y33001*
X28105*
Y32964*
X28142*
Y32889*
X28217*
Y32816*
X28254*
Y32704*
X28291*
Y32593*
X28365*
Y32445*
X28291*
Y32371*
X28254*
Y32297*
X27735*
Y32371*
X27661*
Y32408*
X27624*
Y32445*
X27587*
Y32556*
X27476*
Y32593*
X27439*
Y3263*
X27402*
Y32704*
X27365*
Y32741*
X27254*
Y32778*
X27217*
Y32816*
X27106*
Y32889*
X27031*
Y32927*
X2692*
Y32964*
X26772*
Y33001*
X2655*
Y33075*
X26106*
Y33001*
X2592*
Y32964*
X25772*
Y32927*
X25735*
Y32889*
X25661*
Y32816*
X25587*
Y32778*
X2555*
Y32741*
X25513*
Y32704*
X25476*
Y32593*
X25402*
Y32519*
X25365*
Y32371*
X25328*
Y32112*
X25291*
Y3089*
X25328*
Y29816*
X25365*
Y29297*
X25328*
Y28667*
X25291*
Y28334*
X25217*
Y28149*
X2518*
Y27964*
X25143*
Y27779*
X2518*
Y26742*
X25217*
Y26371*
X25291*
Y26112*
X25328*
Y26001*
X25365*
Y2589*
X25402*
Y25742*
X25476*
Y25705*
X25513*
Y25594*
X2555*
Y25556*
X25587*
Y25482*
X25661*
Y25445*
X25698*
Y25408*
X25735*
Y25371*
X25772*
Y25297*
X25883*
Y2526*
X25958*
Y25186*
X2592*
Y25112*
X25772*
Y25075*
X25698*
Y25038*
X25661*
Y25001*
X25587*
Y24927*
X2555*
Y2489*
X25513*
Y24816*
X25476*
Y24668*
X25402*
Y24519*
X25365*
Y23705*
X25402*
Y23297*
X25476*
Y23112*
X25513*
Y22964*
X2555*
Y22816*
X25587*
Y22668*
X25661*
Y2252*
X25698*
Y22371*
X25735*
Y22001*
X25698*
Y21964*
X25661*
Y21927*
X25587*
Y21853*
X2555*
Y21816*
X25513*
Y21742*
X25476*
Y21594*
X25402*
Y21408*
X25476*
Y21223*
X25513*
Y21112*
X2555*
Y21001*
X25587*
Y20927*
X25661*
Y20816*
X25698*
Y20779*
X25735*
Y20668*
X25772*
Y20594*
X25846*
Y20483*
X25883*
Y20408*
X2592*
Y20186*
X25883*
Y20112*
X25846*
Y20075*
X25735*
Y20038*
X25587*
Y1989*
X2555*
Y19742*
X25513*
Y19594*
X25476*
Y1926*
X25402*
Y17964*
X25476*
Y17223*
X25402*
Y16816*
X25365*
Y16594*
X25328*
Y16446*
X25291*
Y16298*
X25217*
Y16112*
X25291*
Y15779*
X25328*
Y15409*
X25365*
Y15038*
X25402*
Y14853*
X25476*
Y14668*
X25513*
Y14594*
X2555*
Y14483*
X25587*
Y14409*
X25661*
Y14372*
X25735*
Y14298*
X26031*
Y14372*
X26069*
Y14446*
X26106*
Y14483*
X2618*
Y14557*
X26217*
Y14594*
X26254*
Y14631*
X26291*
Y14668*
X26402*
Y14742*
X2655*
Y14779*
X27031*
Y14742*
X27254*
Y14668*
X27439*
Y14631*
X27587*
Y14594*
X27772*
Y14557*
X2792*
Y14483*
X28105*
Y14446*
X28735*
Y14483*
X28846*
Y14557*
X28994*
Y14594*
X29105*
Y14631*
X2918*
Y14668*
X29291*
Y14742*
X29328*
Y14779*
X29365*
Y14853*
X29476*
Y1489*
X29513*
Y14927*
X29587*
Y14964*
X29624*
Y15075*
X29661*
Y15112*
X29735*
Y15149*
X29772*
Y15223*
X29809*
Y15298*
X29846*
Y15334*
X2992*
Y15446*
X29957*
Y15557*
X29994*
Y15594*
X30031*
Y15668*
X30105*
Y15779*
X30142*
Y15853*
X3018*
Y15964*
X30217*
Y16038*
X30291*
Y16112*
X30328*
Y16186*
X30365*
Y16298*
X30402*
Y16409*
X30476*
Y16446*
X30513*
Y16483*
X3055*
Y16594*
X30624*
Y16631*
X30661*
Y16668*
X30698*
Y16779*
X30735*
Y16816*
X30809*
Y16853*
X30846*
Y16927*
X3092*
Y16964*
X30994*
Y17001*
X31031*
Y17038*
X31105*
Y17112*
X31216*
Y17149*
X31291*
Y17186*
X31476*
Y17038*
X31402*
Y16964*
X31365*
Y16853*
X31328*
Y16816*
X31291*
Y16742*
X31216*
Y16668*
X3118*
Y16631*
X31105*
Y16557*
X31068*
Y16483*
X31031*
Y16446*
X30994*
Y16334*
X3092*
Y16298*
X30883*
Y16223*
X30846*
Y16149*
X30809*
Y16112*
X30735*
Y16001*
X30698*
Y15964*
X30661*
Y15853*
X30735*
Y15816*
X31031*
Y15853*
X3118*
Y15927*
X31216*
Y15964*
X31291*
Y16001*
X31365*
Y16112*
X31402*
Y16149*
X31476*
Y16186*
X31513*
Y16298*
X3155*
Y16409*
X31587*
Y16446*
X31661*
Y16557*
X31698*
Y16631*
X31735*
Y16668*
X31809*
Y16779*
X31846*
Y16816*
X31883*
Y16853*
X3192*
Y16927*
X31994*
Y16964*
X32031*
Y17001*
X32068*
Y17038*
X32179*
Y17112*
X32216*
Y17149*
X32253*
Y17186*
X32291*
Y17223*
X32365*
Y17297*
X32402*
Y17372*
X32439*
Y17483*
X32365*
Y1752*
X32105*
Y17557*
X31994*
Y17594*
X3192*
Y17668*
X31883*
Y17964*
X31846*
Y1889*
X31883*
Y19075*
X3192*
Y1926*
X31994*
Y19409*
X32031*
Y19557*
X32068*
Y19705*
X32105*
Y19853*
X32179*
Y20001*
X32216*
Y20186*
X32253*
Y20297*
X32291*
Y20445*
X32365*
Y20631*
X3255*
Y20594*
X32587*
Y20557*
X32624*
Y20483*
X32661*
Y20408*
X32735*
Y20297*
X32772*
Y19594*
X32735*
Y19372*
X32661*
Y19186*
X32624*
Y19038*
X32587*
Y18853*
X3255*
Y18668*
X32476*
Y18409*
X32439*
Y17853*
X32476*
Y17927*
X32624*
Y17964*
X32661*
Y18001*
X32772*
Y18038*
X32846*
Y18149*
X32883*
Y18186*
X3292*
Y18297*
X32994*
Y18334*
X33031*
Y18409*
X33068*
Y18557*
X33105*
Y18668*
X33179*
Y18816*
X33216*
Y18927*
X33253*
Y19075*
X33291*
Y1926*
X33365*
Y19409*
X33402*
Y19594*
X33439*
Y19779*
X33476*
Y19927*
X3355*
Y20112*
X33587*
Y20297*
X33624*
Y20557*
X33661*
Y20853*
X33624*
Y20964*
X33587*
Y21001*
X33402*
Y21075*
X33291*
Y21001*
X33031*
Y21075*
X32994*
Y21112*
X3292*
Y21223*
X32883*
Y21297*
X32846*
Y21445*
X32772*
Y21631*
X32735*
Y21853*
X32661*
Y22038*
X32624*
Y22297*
X32587*
Y2252*
X3255*
Y22742*
X32476*
Y22816*
X32439*
Y22964*
X32402*
Y23038*
X32365*
Y23371*
X32402*
Y23483*
X32439*
Y23519*
X32587*
Y23483*
X32624*
Y23445*
X32661*
Y23371*
X32735*
Y23297*
X32772*
Y23186*
X32846*
Y23112*
X32883*
Y22964*
X3292*
Y22853*
X32994*
Y22742*
X33031*
Y22556*
X33068*
Y22445*
X33105*
Y2226*
X33179*
Y22038*
X33216*
Y21853*
X33253*
Y21816*
X33365*
Y21853*
X33476*
Y21927*
X33587*
Y21964*
X33661*
Y22001*
X33735*
Y22038*
X33772*
Y22112*
X33809*
Y22149*
X33846*
Y22186*
X3392*
Y2226*
X33957*
Y22334*
X33994*
Y22371*
X34068*
Y22445*
X34105*
Y2252*
X34142*
Y22631*
X34179*
Y22742*
X34253*
Y22816*
X34291*
Y22964*
X34328*
Y23038*
X34402*
Y23186*
X34439*
Y23334*
X34476*
Y23483*
X3455*
Y23631*
X34587*
Y23816*
X34624*
Y23927*
X34661*
Y24075*
X34735*
Y24223*
X34772*
Y24371*
X34809*
Y24519*
X34846*
Y24816*
X34809*
Y25075*
X34846*
Y25371*
X3492*
Y25482*
X34957*
Y25631*
X34994*
Y25742*
X35031*
Y2589*
X35105*
Y26038*
X35142*
Y26186*
X35179*
Y26371*
X35253*
Y26742*
X35179*
Y26779*
X35142*
Y26816*
X35105*
Y26927*
X35031*
Y27001*
X34994*
Y27149*
X34957*
Y27371*
X3492*
Y27964*
X34957*
Y28149*
X34994*
Y2826*
X35031*
Y28297*
X35105*
Y28334*
X35291*
Y28297*
X35327*
Y2826*
X35364*
Y28186*
X35439*
Y28149*
X35513*
Y28297*
X3555*
Y28445*
X35624*
Y28556*
X35661*
Y28705*
X35698*
Y28853*
X35735*
Y29001*
X35809*
Y29149*
X35846*
Y29297*
X35883*
Y29445*
X3592*
Y2963*
X35994*
Y2989*
X36031*
Y30556*
X35994*
Y30741*
X3592*
Y3089*
X35883*
Y31001*
X35846*
Y31038*
X35809*
Y31075*
X35735*
Y31112*
X35698*
Y31186*
X35661*
Y31223*
X35624*
Y31334*
X3555*
Y31371*
X35513*
Y31445*
X35476*
Y31519*
X35439*
Y31593*
X35364*
Y3163*
X35327*
Y31778*
X35291*
Y31889*
X35253*
Y31964*
X35179*
Y32075*
X35142*
Y32186*
X35105*
Y32371*
X35031*
Y32519*
X34994*
Y3263*
X34957*
Y32778*
X3492*
Y32927*
X34846*
Y33075*
X34809*
Y33149*
X34772*
Y33297*
X34735*
Y33371*
X34661*
Y33482*
X34624*
Y33593*
X34587*
Y3363*
X3455*
Y33704*
X34476*
Y33778*
X34439*
Y33852*
X34402*
Y33927*
X34328*
Y33964*
X34291*
Y34001*
X34253*
Y34075*
X34179*
Y34149*
X34142*
Y34186*
X34105*
Y3426*
X34068*
Y34297*
X33994*
Y34371*
X33957*
Y34445*
X3392*
Y34482*
X33846*
Y34556*
X33809*
Y3463*
X33772*
Y34667*
X33735*
Y34704*
X33661*
Y34778*
X33624*
Y34816*
X3355*
Y34852*
X33476*
Y34889*
X33365*
Y34964*
X32846*
Y34889*
X32587*
Y34852*
X32476*
Y34816*
X32439*
Y34778*
X32402*
Y34704*
X32365*
Y34667*
X32291*
Y3463*
X32253*
Y34482*
X32216*
Y33778*
X32253*
Y3363*
X32291*
Y33482*
X32365*
Y33334*
X32402*
Y3326*
X32439*
Y33149*
X32476*
Y33075*
X3255*
Y33001*
X32587*
Y32927*
X32624*
Y32889*
X32661*
Y32816*
X32735*
Y32741*
X32772*
Y32704*
X32883*
Y3263*
X3292*
Y32593*
X32994*
Y32556*
X33068*
Y32519*
X33216*
Y32445*
X33365*
Y32519*
X33587*
Y32445*
X33661*
Y32408*
X33735*
Y32297*
X33772*
Y32186*
X33809*
Y32075*
X33846*
Y31816*
X3392*
Y31186*
X33957*
Y31112*
X3392*
Y31075*
X33772*
Y31112*
X33624*
Y31186*
X3355*
Y31223*
X33439*
Y3126*
X33365*
Y31334*
X33291*
Y31371*
X33253*
Y31408*
X33216*
Y31445*
X33179*
Y31519*
X33105*
Y31556*
X33068*
Y31593*
X33031*
Y31704*
X32994*
Y31741*
X3292*
Y31816*
X32883*
Y31889*
X32846*
Y31964*
X32772*
Y32075*
X32735*
Y32149*
X32661*
Y3226*
X32624*
Y32408*
X32587*
Y32556*
X3255*
Y32704*
X32476*
Y32816*
X32439*
Y32964*
X32402*
Y33001*
X32365*
Y33112*
X32253*
Y33149*
X32216*
Y33186*
X32105*
Y3326*
X32031*
Y33297*
X31883*
Y33334*
X31735*
Y33371*
X3155*
Y33445*
X31365*
Y33482*
X3118*
Y33519*
X31068*
Y33593*
X31031*
Y3363*
X30994*
Y33778*
X31031*
Y33852*
X31068*
Y33927*
X31105*
Y33964*
X3118*
Y34001*
X31216*
Y34075*
X31291*
Y34112*
X31365*
Y34149*
X31402*
Y3426*
X31476*
Y34334*
X31513*
Y34816*
X31476*
Y34964*
X31402*
Y35075*
X31365*
Y35223*
X31328*
Y35334*
X31291*
Y35445*
X31216*
Y35556*
X31291*
Y3563*
X31328*
Y35556*
X31402*
Y35704*
X31365*
Y35815*
X31328*
Y35889*
X31291*
Y35964*
X3118*
Y36*
X31068*
Y36038*
X3092*
Y36075*
X30735*
Y36149*
X3018*
Y36186*
X29809*
Y36223*
X29513*
Y3626*
X29291*
Y36334*
X29031*
Y36371*
X28846*
Y36408*
X28661*
Y36445*
X28439*
Y36519*
X28217*
Y36556*
G37*
G36*
X27439Y39519D02*
X27365D01*
Y39482*
X27291*
Y39223*
X27365*
Y39075*
X27402*
Y38963*
X27439*
Y38926*
X27476*
Y38815*
X2755*
Y38778*
X27587*
Y38741*
X27624*
Y38704*
X27661*
Y3863*
X27772*
Y38593*
X27809*
Y38519*
X28031*
Y38482*
X28069*
Y38519*
X28402*
Y38482*
X28587*
Y38445*
X28661*
Y38408*
X28772*
Y38334*
X28846*
Y38297*
X2892*
Y3826*
X28994*
Y38223*
X29031*
Y38149*
X29142*
Y38112*
X2918*
Y38075*
X29217*
Y38*
X29291*
Y37963*
X29328*
Y37889*
X29365*
Y37778*
X29402*
Y3763*
X29365*
Y37593*
X29142*
Y3763*
X28994*
Y37704*
X28846*
Y37741*
X28772*
Y37778*
X28661*
Y37815*
X28587*
Y37889*
X28476*
Y37927*
X28365*
Y37963*
X28217*
Y38*
X28069*
Y38075*
X2792*
Y38112*
X27661*
Y38149*
X27402*
Y38223*
X2692*
Y38149*
X26698*
Y38112*
X2655*
Y38075*
X26476*
Y38*
X26402*
Y37963*
X26291*
Y37927*
X26254*
Y37889*
X26217*
Y37778*
X2618*
Y37741*
X26106*
Y3763*
X26069*
Y37445*
X26031*
Y36964*
X26069*
Y36927*
X26106*
Y36889*
X2618*
Y36815*
X26254*
Y36778*
X26402*
Y36741*
X26698*
Y36778*
X26883*
Y36815*
X26957*
Y36927*
X26883*
Y36964*
X26772*
Y37038*
X26698*
Y37075*
X2655*
Y37149*
X26402*
Y37186*
X26254*
Y37223*
X26217*
Y37334*
X26291*
Y37371*
X26365*
Y37408*
X26476*
Y37445*
X2655*
Y37519*
X26698*
Y37556*
X26846*
Y37593*
X27735*
Y37556*
X27957*
Y37519*
X28142*
Y37445*
X28365*
Y37408*
X28476*
Y37371*
X28624*
Y37334*
X28772*
Y3726*
X2892*
Y37223*
X29031*
Y37186*
X2918*
Y37149*
X29328*
Y37075*
X29476*
Y37038*
X29661*
Y36964*
X29809*
Y36927*
X30217*
Y36964*
X30291*
Y37038*
X30328*
Y37075*
X30365*
Y37519*
X30328*
Y37593*
X30291*
Y37741*
X30217*
Y37815*
X3018*
Y37889*
X30142*
Y37927*
X30105*
Y38*
X30031*
Y38075*
X29994*
Y38112*
X29957*
Y38149*
X2992*
Y38223*
X29846*
Y3826*
X29809*
Y38297*
X29772*
Y38334*
X29661*
Y38408*
X29624*
Y38445*
X29476*
Y38482*
X29402*
Y38519*
X29365*
Y38593*
X29328*
Y3863*
X29291*
Y38741*
X2918*
Y38778*
X29142*
Y38815*
X28994*
Y38889*
X28142*
Y38926*
X28031*
Y38963*
X27957*
Y39*
X2792*
Y39075*
X27846*
Y39111*
X27809*
Y39223*
X27772*
Y3926*
X27735*
Y39297*
X27661*
Y39334*
X27624*
Y39408*
X27587*
Y39445*
X2755*
Y39482*
X27439*
Y39519*
G37*
G36*
X31068Y37815D02*
X30994D01*
Y37741*
X31031*
Y3763*
X31068*
Y37593*
X31105*
Y37556*
X3118*
Y37519*
X31216*
Y37445*
X31328*
Y37408*
X31365*
Y37371*
X31476*
Y37334*
X3155*
Y3726*
X31661*
Y37223*
X31735*
Y37186*
X31809*
Y3726*
X31735*
Y37334*
X31698*
Y37371*
X31661*
Y37408*
X31587*
Y37445*
X3155*
Y37519*
X31513*
Y37556*
X31476*
Y37593*
X31365*
Y3763*
X31328*
Y37704*
X31216*
Y37741*
X3118*
Y37778*
X31068*
Y37815*
G37*
G36*
X21402Y40074D02*
X21217D01*
Y40038*
X21143*
Y4*
X21106*
Y39963*
X21143*
Y39889*
X21328*
Y39963*
X21402*
Y40074*
G37*
G36*
X23291Y40149D02*
X22624D01*
Y40074*
X22587*
Y39889*
X22624*
Y39852*
X22661*
Y39815*
X22735*
Y39778*
X22772*
Y39704*
X22809*
Y39667*
X22846*
Y3963*
X2292*
Y39593*
X22958*
Y39519*
X22995*
Y39445*
X23031*
Y39334*
X22995*
Y39297*
X22661*
Y39334*
X22624*
Y39408*
X22513*
Y39445*
X22476*
Y39482*
X22328*
Y39519*
X22254*
Y39482*
X22143*
Y39408*
X22106*
Y3926*
X22069*
Y39075*
X22032*
Y38926*
X21958*
Y38778*
X2192*
Y38741*
X21883*
Y38704*
X21846*
Y3863*
X21772*
Y38593*
X21439*
Y3863*
X21328*
Y38741*
X21402*
Y38778*
X21439*
Y38815*
X21476*
Y38889*
X2155*
Y39111*
X21439*
Y39149*
X21328*
Y39111*
X21106*
Y39075*
X21032*
Y39*
X20847*
Y38963*
X20698*
Y38926*
X20587*
Y38889*
X20513*
Y38815*
X20476*
Y38778*
X20402*
Y38741*
X20365*
Y3863*
X20328*
Y38482*
X20254*
Y3826*
X20328*
Y38112*
X20365*
Y38*
X20402*
Y37963*
X20476*
Y37927*
X20513*
Y37889*
X2055*
Y37815*
X20661*
Y37778*
X20735*
Y37741*
X2092*
Y37704*
X21143*
Y37741*
X21328*
Y37778*
X21439*
Y37815*
X21587*
Y37889*
X21698*
Y37927*
X21772*
Y37815*
X21735*
Y37778*
X21698*
Y37741*
X21661*
Y37704*
X21587*
Y3763*
X21476*
Y37593*
X21439*
Y37556*
X21402*
Y37519*
X21328*
Y37445*
X21254*
Y37408*
X21217*
Y37371*
X21143*
Y37334*
X21069*
Y3726*
X21032*
Y37038*
X20958*
Y36889*
X2092*
Y36704*
X20884*
Y36556*
X20847*
Y36445*
X20772*
Y36334*
X20735*
Y36223*
X20698*
Y36149*
X20661*
Y36038*
X20587*
Y35964*
X2055*
Y35815*
X20513*
Y35741*
X20476*
Y35667*
X20402*
Y35556*
X20365*
Y35445*
X20328*
Y35371*
X20254*
Y3526*
X20217*
Y35223*
X2018*
Y35149*
X20143*
Y35038*
X20069*
Y34964*
X20032*
Y34889*
X19995*
Y34816*
X1992*
Y34704*
X19884*
Y34667*
X19847*
Y34556*
X19772*
Y34482*
X19735*
Y34445*
X19698*
Y34371*
X19661*
Y34334*
X19587*
Y34371*
X19513*
Y34445*
X19476*
Y34667*
X19513*
Y34778*
X1955*
Y34852*
X19587*
Y34964*
X19661*
Y35038*
X19698*
Y35149*
X19735*
Y35186*
X19772*
Y3526*
X19847*
Y35334*
X19884*
Y35408*
X1992*
Y35445*
X19995*
Y35556*
X20032*
Y35667*
X20069*
Y35704*
X20143*
Y35815*
X2018*
Y35889*
X20217*
Y36*
X20254*
Y36186*
X20328*
Y3626*
X20254*
Y36334*
X2018*
Y36371*
X20143*
Y36445*
X20069*
Y36593*
X20032*
Y36704*
X20069*
Y36815*
X20143*
Y36927*
X2018*
Y37038*
X20217*
Y37075*
X20254*
Y37186*
X20328*
Y3726*
X20365*
Y37371*
X20402*
Y37408*
X20476*
Y37593*
X20402*
Y3763*
X20365*
Y37741*
X20328*
Y37815*
X20254*
Y37889*
X20217*
Y37927*
X2018*
Y37963*
X20143*
Y38*
X20069*
Y38075*
X20032*
Y38112*
X19995*
Y38149*
X1992*
Y38223*
X19847*
Y3826*
X19735*
Y38297*
X19587*
Y38334*
X1918*
Y38297*
X19069*
Y3826*
X18995*
Y38223*
X18958*
Y38149*
X18847*
Y38112*
X18809*
Y38075*
X18772*
Y38*
X18698*
Y37927*
X18661*
Y37815*
X18624*
Y37741*
X18587*
Y37704*
X18513*
Y3763*
X18476*
Y37556*
X18439*
Y37519*
X18402*
Y37445*
X18328*
Y37408*
X18217*
Y37371*
X1818*
Y37334*
X18143*
Y3726*
X18032*
Y37223*
X17995*
Y37186*
X17884*
Y37149*
X17847*
Y37075*
X17772*
Y37038*
X17698*
Y36964*
X17624*
Y36927*
X17513*
Y36889*
X17476*
Y36815*
X17402*
Y36778*
X17328*
Y36741*
X17254*
Y36704*
X17217*
Y3663*
X17143*
Y36593*
X17069*
Y36556*
X17032*
Y36519*
X16958*
Y36445*
X16921*
Y36408*
X16884*
Y36371*
X16809*
Y36334*
X16773*
Y3626*
X16958*
Y36223*
X17032*
Y36149*
X16958*
Y36075*
X16921*
Y36038*
X16884*
Y36*
X16809*
Y35964*
X16773*
Y35889*
X16698*
Y35852*
X16624*
Y35815*
X16587*
Y35741*
X16513*
Y35704*
X16439*
Y35667*
X16402*
Y3563*
X16328*
Y35556*
X16291*
Y35445*
X16254*
Y35371*
X16328*
Y35334*
X16439*
Y3526*
X16476*
Y35223*
X16513*
Y35149*
X16476*
Y35075*
X16402*
Y35038*
X16254*
Y35001*
X16106*
Y34964*
X16032*
Y34889*
X15958*
Y34852*
X15884*
Y34816*
X15809*
Y34778*
X15736*
Y34704*
X15698*
Y3463*
X15624*
Y34445*
X15698*
Y34371*
X15736*
Y34297*
X15773*
Y3426*
X15809*
Y34186*
X15884*
Y34149*
X15921*
Y34112*
X16032*
Y34075*
X16069*
Y34001*
X16106*
Y33927*
X16069*
Y33852*
X15736*
Y33816*
X15698*
Y33778*
X15624*
Y33704*
X15587*
Y33667*
X1555*
Y33593*
X15513*
Y33519*
X15439*
Y33482*
X15402*
Y33371*
X15365*
Y33334*
X15328*
Y3326*
X15254*
Y33186*
X15217*
Y33112*
X15143*
Y33001*
X15106*
Y32964*
X15069*
Y32889*
X15032*
Y32778*
X14958*
Y32704*
X14921*
Y32593*
X14884*
Y32519*
X14847*
Y32408*
X14773*
Y32297*
X14736*
Y32186*
X14698*
Y32075*
X14625*
Y31964*
X14587*
Y31889*
X1455*
Y31741*
X14513*
Y3163*
X14439*
Y31519*
X14402*
Y31371*
X14365*
Y31223*
X14328*
Y31075*
X14254*
Y30408*
X14217*
Y3026*
X1418*
Y30149*
X14143*
Y30001*
X14069*
Y29853*
X14032*
Y29705*
X13995*
Y29556*
X13958*
Y29445*
X13884*
Y2926*
X13847*
Y28853*
X13958*
Y2889*
X13995*
Y28927*
X14032*
Y29001*
X14069*
Y29038*
X14143*
Y29112*
X1418*
Y29149*
X14217*
Y29186*
X14328*
Y2926*
X14365*
Y29297*
X14402*
Y29334*
X1455*
Y29297*
X14587*
Y29112*
X14625*
Y28927*
X14587*
Y28667*
X1455*
Y28482*
X14513*
Y28334*
X14439*
Y2826*
X14402*
Y28112*
X14365*
Y28001*
X14328*
Y2789*
X14254*
Y27779*
X14217*
Y27667*
X1418*
Y27556*
X14143*
Y27371*
X14069*
Y2726*
X14032*
Y27075*
X13995*
Y26631*
X14032*
Y26482*
X14069*
Y26408*
X14143*
Y26371*
X1418*
Y26297*
X14217*
Y26223*
X14254*
Y26186*
X14365*
Y26112*
X14402*
Y25927*
X14365*
Y25779*
X14328*
Y25631*
X14254*
Y25075*
X14328*
Y2489*
X14365*
Y24742*
X14402*
Y24631*
X14439*
Y24519*
X14513*
Y24408*
X1455*
Y24334*
X14587*
Y24223*
X14625*
Y24112*
X14698*
Y24075*
X14736*
Y24001*
X14773*
Y2389*
X14847*
Y23853*
X14884*
Y23742*
X14921*
Y23705*
X14958*
Y23631*
X15032*
Y23556*
X15069*
Y23483*
X15106*
Y23445*
X15143*
Y23334*
X15217*
Y23223*
X15254*
Y23186*
X15328*
Y23112*
X15365*
Y23001*
X15402*
Y22779*
X15365*
Y22668*
X15328*
Y22149*
X15365*
Y22001*
X15402*
Y21927*
X15439*
Y21853*
X15513*
Y21779*
X1555*
Y21742*
X15587*
Y21668*
X15698*
Y21631*
X15736*
Y21594*
X15809*
Y21556*
X15958*
Y21483*
X16143*
Y21445*
X16291*
Y21408*
X16328*
Y2126*
X16291*
Y21186*
X16254*
Y21112*
X16217*
Y21001*
X16143*
Y20927*
X16106*
Y20853*
X16069*
Y20779*
X16032*
Y20742*
X15958*
Y20631*
X15921*
Y20594*
X15884*
Y20445*
X15809*
Y20186*
X15884*
Y20112*
X15921*
Y20075*
X16032*
Y20038*
X16143*
Y20001*
X16328*
Y19927*
X16402*
Y19372*
X16439*
Y19112*
X16476*
Y19001*
X16513*
Y1889*
X16587*
Y18742*
X16624*
Y18594*
X16661*
Y1852*
X16698*
Y18483*
X16773*
Y18372*
X16809*
Y18297*
X16884*
Y18223*
X16921*
Y18149*
X16958*
Y18038*
X17032*
Y17927*
X17069*
Y17816*
X17106*
Y17742*
X17143*
Y17705*
X17217*
Y17668*
X17254*
Y17594*
X17291*
Y17557*
X17402*
Y1752*
X17476*
Y17483*
X17624*
Y17409*
X17772*
Y17372*
X17847*
Y17334*
X17995*
Y17297*
X18143*
Y17223*
X18217*
Y17186*
X18291*
Y17149*
X18217*
Y17038*
X1818*
Y16927*
X18143*
Y16816*
X1818*
Y16631*
X18217*
Y16557*
X18291*
Y16446*
X18328*
Y16409*
X18402*
Y16334*
X18439*
Y16298*
X18513*
Y16223*
X18587*
Y16186*
X18624*
Y16149*
X18661*
Y16112*
X18772*
Y16038*
X18809*
Y16001*
X18884*
Y15964*
X18958*
Y15927*
X19032*
Y15853*
X19069*
Y15816*
X1918*
Y15779*
X19217*
Y15742*
X19328*
Y15668*
X19365*
Y15631*
X19402*
Y15594*
X19476*
Y15557*
X19513*
Y15483*
X19587*
Y15446*
X19661*
Y15334*
X19698*
Y15298*
X19735*
Y15261*
X19772*
Y15149*
X19847*
Y15223*
X19884*
Y15557*
X19847*
Y15668*
X19772*
Y15779*
X19735*
Y15853*
X19698*
Y15964*
X19661*
Y16038*
X19587*
Y16112*
X1955*
Y16186*
X19513*
Y16298*
X19476*
Y16409*
X19402*
Y16446*
X19365*
Y16594*
X19328*
Y16668*
X19291*
Y16779*
X19217*
Y16927*
X1918*
Y17186*
X19217*
Y17223*
X19291*
Y17297*
X19328*
Y17334*
X19402*
Y17372*
X19847*
Y17409*
X19884*
Y17483*
X1992*
Y1752*
X19995*
Y17594*
X20032*
Y17668*
X20069*
Y17705*
X20143*
Y17816*
X2018*
Y18001*
X20143*
Y18038*
X19995*
Y18112*
X1955*
Y18038*
X19328*
Y18001*
X19143*
Y17964*
X18772*
Y18001*
X18513*
Y18038*
X18476*
Y18186*
X18513*
Y18223*
X18624*
Y18297*
X18661*
Y18334*
X18772*
Y18372*
X18809*
Y18409*
X18884*
Y18483*
X18958*
Y1852*
X19032*
Y18557*
X19069*
Y18594*
X19143*
Y18668*
X1918*
Y18705*
X19217*
Y18742*
X19291*
Y18853*
X19328*
Y18927*
X19365*
Y19186*
X19328*
Y1926*
X19291*
Y19445*
X19328*
Y19557*
X19365*
Y19594*
X19513*
Y19557*
X1955*
Y1952*
X19587*
Y19445*
X19661*
Y19372*
X19698*
Y19297*
X19735*
Y19223*
X19772*
Y19112*
X19847*
Y19038*
X19884*
Y19001*
X1992*
Y1889*
X19995*
Y18853*
X20032*
Y18742*
X20069*
Y18705*
X20143*
Y18668*
X20217*
Y18594*
X20402*
Y18668*
X20476*
Y18705*
X20513*
Y18742*
X2055*
Y18853*
X20587*
Y18927*
X20661*
Y19038*
X20698*
Y19186*
X20735*
Y19297*
X20772*
Y20038*
X20735*
Y20223*
X20698*
Y20372*
X20661*
Y20483*
X20587*
Y20594*
X2055*
Y20668*
X20513*
Y20779*
X20476*
Y20853*
X20402*
Y20964*
X20365*
Y21075*
X20328*
Y21112*
X20254*
Y21223*
X20217*
Y21297*
X2018*
Y21408*
X20143*
Y21445*
X20069*
Y21556*
X20032*
Y21631*
X19995*
Y21668*
X1992*
Y21779*
X19884*
Y21853*
X19847*
Y21964*
X19772*
Y22001*
X19735*
Y22112*
X19698*
Y22149*
X19661*
Y22186*
X19587*
Y2226*
X1955*
Y22371*
X19513*
Y22964*
X1955*
Y23519*
X19587*
Y23742*
X19661*
Y2389*
X19698*
Y23927*
X19735*
Y2389*
X19772*
Y23853*
X19847*
Y23705*
X19884*
Y23519*
X1992*
Y23297*
X19995*
Y23112*
X20032*
Y22853*
X20069*
Y22668*
X20143*
Y2252*
X2018*
Y22371*
X20217*
Y2226*
X20254*
Y22149*
X20328*
Y22112*
X20365*
Y22038*
X20402*
Y21964*
X20476*
Y21927*
X20513*
Y21816*
X2055*
Y21779*
X20587*
Y21668*
X20661*
Y21631*
X20698*
Y21594*
X20735*
Y21556*
X20772*
Y21445*
X20847*
Y21408*
X20884*
Y21371*
X2092*
Y2126*
X20958*
Y21223*
X21032*
Y21186*
X21069*
Y21075*
X21106*
Y21001*
X21143*
Y20964*
X21217*
Y20853*
X21254*
Y20816*
X21291*
Y20742*
X21328*
Y20631*
X21402*
Y20557*
X21439*
Y20445*
X21476*
Y20372*
X2155*
Y20223*
X21587*
Y19927*
X21661*
Y19779*
X21587*
Y19557*
X2155*
Y19409*
X21476*
Y19297*
X21439*
Y19223*
X21402*
Y19186*
X21328*
Y19075*
X21291*
Y19038*
X21254*
Y19001*
X21217*
Y18927*
X21106*
Y1889*
X21069*
Y18853*
X21032*
Y18742*
X20958*
Y18705*
X2092*
Y1852*
X20884*
Y18186*
X2092*
Y17705*
X20884*
Y17594*
X20847*
Y17483*
X20772*
Y17409*
X20735*
Y17372*
X20698*
Y17334*
X20661*
Y17297*
X20587*
Y17223*
X20513*
Y17186*
X20476*
Y17149*
X20402*
Y17112*
X20365*
Y17038*
X20328*
Y17001*
X20254*
Y16964*
X20217*
Y16853*
X2018*
Y16446*
X20217*
Y16298*
X20254*
Y16186*
X20328*
Y16112*
X20365*
Y16001*
X20402*
Y15927*
X20476*
Y15816*
X20513*
Y15779*
X2055*
Y15668*
X20587*
Y15594*
X20661*
Y15557*
X20698*
Y15446*
X20735*
Y15334*
X20772*
Y15261*
X20847*
Y15149*
X20884*
Y14964*
X20847*
Y14446*
X20884*
Y14372*
X2092*
Y14298*
X20958*
Y14261*
X21069*
Y14223*
X21254*
Y14261*
X21402*
Y14298*
X21883*
Y14372*
X22032*
Y14409*
X22069*
Y14446*
X22143*
Y14483*
X22217*
Y14594*
X22254*
Y14964*
X22217*
Y15075*
X22143*
Y15112*
X22106*
Y15149*
X22069*
Y15223*
X22032*
Y15261*
X21958*
Y15298*
X21883*
Y15334*
X21772*
Y15409*
X21735*
Y15483*
X21772*
Y15557*
X21846*
Y15594*
X21883*
Y15631*
X2192*
Y15668*
X21958*
Y15816*
X22032*
Y16001*
X22069*
Y16409*
X22032*
Y16631*
X21958*
Y16779*
X2192*
Y16964*
X22291*
Y16927*
X22439*
Y16853*
X22513*
Y16816*
X22624*
Y16779*
X22661*
Y16742*
X22735*
Y16668*
X22772*
Y16631*
X22809*
Y16557*
X22846*
Y16409*
X2292*
Y15334*
X22846*
Y1489*
X2292*
Y14557*
X22958*
Y14409*
X22995*
Y14372*
X23402*
Y14409*
X23476*
Y14446*
X23513*
Y14483*
X23587*
Y14557*
X23624*
Y14631*
X23661*
Y14742*
X23698*
Y15038*
X23772*
Y16483*
X23809*
Y16631*
X23846*
Y16742*
X2392*
Y16853*
X23958*
Y17001*
X23994*
Y17112*
X24031*
Y17297*
X24106*
Y17409*
X24143*
Y17557*
X2418*
Y17816*
X24217*
Y18001*
X24291*
Y18223*
X24328*
Y18594*
X24365*
Y18927*
X24328*
Y19186*
X24291*
Y19297*
X24217*
Y19372*
X2418*
Y19409*
X24143*
Y19445*
X24031*
Y1952*
X23661*
Y19445*
X23513*
Y19409*
X23439*
Y19372*
X23328*
Y19297*
X23291*
Y1926*
X23254*
Y19223*
X23143*
Y19186*
X22846*
Y19223*
X22809*
Y19668*
X22846*
Y19742*
X2292*
Y1989*
X22958*
Y19927*
X22995*
Y20038*
X23031*
Y20075*
X23106*
Y20112*
X23217*
Y20186*
X23513*
Y20112*
X23587*
Y20075*
X23624*
Y20038*
X23772*
Y20075*
X2392*
Y20112*
X23958*
Y20186*
X24031*
Y20223*
X24106*
Y2026*
X24143*
Y20297*
X2418*
Y20372*
X24217*
Y20408*
X24291*
Y20483*
X24328*
Y20557*
X24365*
Y20631*
X24402*
Y20779*
X24476*
Y20964*
X24513*
Y21223*
X2455*
Y21668*
X24587*
Y22371*
X24661*
Y22779*
X24698*
Y24075*
X24735*
Y24334*
X24809*
Y24816*
X24735*
Y2489*
X24698*
Y25001*
X24661*
Y25038*
X24513*
Y25075*
X24365*
Y25038*
X24106*
Y25001*
X23958*
Y24927*
X23809*
Y2489*
X23661*
Y24853*
X23513*
Y24816*
X23328*
Y24853*
X23291*
Y24927*
X23328*
Y25186*
X23402*
Y25371*
X23439*
Y25482*
X23476*
Y25631*
X23513*
Y25779*
X23587*
Y2589*
X23624*
Y26001*
X23661*
Y26038*
X23698*
Y26112*
X23772*
Y26186*
X23809*
Y2626*
X23846*
Y26297*
X2392*
Y26371*
X23958*
Y26408*
X23994*
Y26445*
X24031*
Y26482*
X24106*
Y26556*
X24143*
Y26594*
X2418*
Y26631*
X24291*
Y26667*
X24328*
Y26742*
X24402*
Y26779*
X24513*
Y27149*
X24476*
Y27927*
X24513*
Y28482*
X2455*
Y29001*
X24587*
Y29556*
X24661*
Y30075*
X24587*
Y30371*
X24328*
Y30408*
X23402*
Y30371*
X22958*
Y30334*
X22661*
Y3026*
X22439*
Y30223*
X22291*
Y30186*
X22106*
Y30149*
X21958*
Y30075*
X21846*
Y30038*
X21698*
Y30001*
X21587*
Y29927*
X21476*
Y2989*
X21402*
Y29853*
X21291*
Y29816*
X21254*
Y29742*
X21217*
Y29667*
X21143*
Y2963*
X21106*
Y29556*
X21069*
Y29519*
X21032*
Y29482*
X20958*
Y29445*
X2092*
Y29371*
X20884*
Y29334*
X20772*
Y29297*
X20735*
Y2926*
X20661*
Y29186*
X20513*
Y29149*
X19772*
Y29186*
X1955*
Y2926*
X19402*
Y29297*
X19291*
Y29334*
X19143*
Y29371*
X18995*
Y29445*
X18884*
Y29482*
X18772*
Y29519*
X18624*
Y29556*
X18476*
Y2963*
X18402*
Y29667*
X18143*
Y2963*
X17995*
Y29556*
X17884*
Y29519*
X17809*
Y29482*
X17772*
Y29445*
X17661*
Y29371*
X17624*
Y29334*
X17587*
Y29297*
X17476*
Y2926*
X17439*
Y29186*
X17402*
Y29112*
X17328*
Y29038*
X17291*
Y29001*
X17254*
Y28927*
X17217*
Y28853*
X17143*
Y28816*
X17106*
Y28705*
X17069*
Y2863*
X17032*
Y28519*
X16958*
Y28445*
X16921*
Y28297*
X16884*
Y28149*
X16809*
Y28001*
X16773*
Y2789*
X16698*
Y2763*
X16661*
Y27334*
X16624*
Y26964*
X16587*
Y26482*
X16513*
Y26445*
X16476*
Y26408*
X16439*
Y26371*
X16402*
Y26297*
X16254*
Y26371*
X16217*
Y27112*
X16254*
Y27482*
X16291*
Y2789*
X16328*
Y28112*
X16402*
Y2826*
X16439*
Y28371*
X16476*
Y28482*
X16513*
Y28556*
X16587*
Y28667*
X16624*
Y28742*
X16661*
Y28853*
X16698*
Y2889*
X16773*
Y28927*
X16809*
Y29038*
X16884*
Y29112*
X16921*
Y29149*
X16958*
Y29186*
X17032*
Y29297*
X17069*
Y29334*
X17106*
Y29371*
X17143*
Y29445*
X17217*
Y29482*
X17254*
Y29519*
X17291*
Y29556*
X17328*
Y2963*
X17402*
Y29667*
X17439*
Y29705*
X17476*
Y29742*
X17513*
Y29816*
X17587*
Y29853*
X17624*
Y2989*
X17661*
Y29927*
X17698*
Y30001*
X17772*
Y30038*
X17809*
Y30075*
X17847*
Y30149*
X17884*
Y30186*
X17958*
Y30223*
X17995*
Y3026*
X18032*
Y30371*
X18069*
Y30408*
X18143*
Y30445*
X1818*
Y30519*
X18217*
Y30556*
X18291*
Y3063*
X18328*
Y30705*
X18402*
Y30816*
X18439*
Y30853*
X18476*
Y30927*
X18587*
Y3089*
X18624*
Y30741*
X18661*
Y3063*
X18698*
Y30556*
X18772*
Y30445*
X18809*
Y30408*
X18847*
Y30334*
X18884*
Y3026*
X18958*
Y30186*
X18995*
Y30149*
X19032*
Y30075*
X19069*
Y30038*
X19143*
Y30001*
X1918*
Y29927*
X19217*
Y2989*
X19291*
Y29853*
X19365*
Y29816*
X19402*
Y29742*
X1955*
Y29705*
X19661*
Y29667*
X20143*
Y29705*
X20328*
Y29742*
X20365*
Y29816*
X20402*
Y29853*
X20476*
Y2989*
X20513*
Y29927*
X2055*
Y30001*
X20587*
Y30038*
X20661*
Y30075*
X20698*
Y30149*
X20735*
Y30186*
X20847*
Y30223*
X2092*
Y3026*
X21032*
Y30334*
X21106*
Y30371*
X21217*
Y30408*
X21328*
Y30445*
X21439*
Y30519*
X21661*
Y30556*
X21772*
Y30593*
X2192*
Y3063*
X22069*
Y30705*
X22254*
Y30741*
X22402*
Y30816*
X22476*
Y30853*
X22587*
Y3089*
X22735*
Y30927*
X22809*
Y31001*
X22846*
Y31038*
X22958*
Y31075*
X22995*
Y31112*
X23031*
Y31186*
X23106*
Y31223*
X23143*
Y3126*
X23217*
Y31334*
X23254*
Y31371*
X23291*
Y31408*
X23328*
Y31445*
X23402*
Y31519*
X23587*
Y31556*
X23661*
Y31593*
X23772*
Y3163*
X23809*
Y31704*
X23846*
Y31741*
X2392*
Y31816*
X23958*
Y31889*
X23994*
Y31964*
X24031*
Y32075*
X24106*
Y32186*
X24143*
Y32593*
X2418*
Y32704*
X24143*
Y32816*
X24106*
Y32927*
X24031*
Y32964*
X23958*
Y33001*
X23772*
Y32964*
X23624*
Y32889*
X23587*
Y32778*
X23513*
Y32741*
X23476*
Y3263*
X23439*
Y32593*
X23402*
Y32556*
X23031*
Y32593*
X22958*
Y3263*
X2292*
Y32704*
X22846*
Y32741*
X22809*
Y32816*
X22772*
Y32889*
X22735*
Y32964*
X22661*
Y33075*
X22624*
Y33149*
X22587*
Y3326*
X22513*
Y33371*
X22476*
Y33704*
X22513*
Y33778*
X22587*
Y33704*
X22661*
Y33667*
X22735*
Y3363*
X22772*
Y33593*
X22809*
Y33667*
X22846*
Y33778*
X2292*
Y33852*
X22958*
Y33927*
X22995*
Y33964*
X23031*
Y34075*
X23106*
Y34112*
X23217*
Y34149*
X23254*
Y34186*
X23328*
Y3426*
X23698*
Y34186*
X23809*
Y34149*
X2392*
Y34112*
X23958*
Y34075*
X23994*
Y34001*
X24143*
Y34075*
X2418*
Y34149*
X24217*
Y34186*
X24291*
Y34297*
X24328*
Y34445*
X24365*
Y3463*
X24328*
Y34778*
X24291*
Y34816*
X24217*
Y34852*
X2418*
Y34889*
X24106*
Y34964*
X23994*
Y35001*
X23809*
Y35038*
X23031*
Y35001*
X22809*
Y34964*
X22735*
Y34889*
X22587*
Y34852*
X22439*
Y34816*
X22217*
Y34778*
X22069*
Y34704*
X2192*
Y34667*
X21846*
Y3463*
X21735*
Y34556*
X21661*
Y34519*
X2155*
Y34482*
X21476*
Y34445*
X21402*
Y34371*
X21328*
Y34334*
X21291*
Y34297*
X21217*
Y3426*
X21143*
Y34186*
X21106*
Y34149*
X21069*
Y34112*
X21032*
Y34075*
X20958*
Y33964*
X2092*
Y33927*
X20884*
Y33852*
X20847*
Y33778*
X20772*
Y33667*
X20735*
Y33593*
X20698*
Y33445*
X20661*
Y32927*
X20698*
Y32778*
X20735*
Y32704*
X20772*
Y32593*
X20847*
Y32556*
X20884*
Y32445*
X2092*
Y32408*
X20958*
Y32371*
X21032*
Y32297*
X21069*
Y3226*
X21106*
Y32186*
X21143*
Y32149*
X21217*
Y32112*
X21254*
Y32001*
X21291*
Y31927*
X21328*
Y31778*
X21291*
Y31704*
X21254*
Y3163*
X21143*
Y31593*
X21106*
Y31556*
X21032*
Y31519*
X2092*
Y31445*
X20884*
Y31408*
X20772*
Y31371*
X20698*
Y31334*
X20661*
Y3126*
X2055*
Y31223*
X20513*
Y31186*
X20476*
Y31112*
X20402*
Y31038*
X20365*
Y30927*
X20328*
Y30853*
X20254*
Y3063*
X20217*
Y30556*
X2018*
Y30408*
X20143*
Y30334*
X20069*
Y30223*
X20032*
Y30186*
X1992*
Y30223*
X19884*
Y30334*
X19847*
Y30445*
X19772*
Y30593*
X19735*
Y30816*
X19698*
Y30927*
X19661*
Y31075*
X19587*
Y31186*
X1955*
Y3126*
X19513*
Y31371*
X19476*
Y31408*
X19402*
Y31445*
X19365*
Y31519*
X19291*
Y31556*
X1918*
Y31593*
X19069*
Y3163*
X19032*
Y31704*
X18958*
Y31741*
X18847*
Y31778*
X18772*
Y31816*
X18661*
Y31889*
X18587*
Y31927*
X18476*
Y31964*
X18402*
Y32001*
X18291*
Y32075*
X18143*
Y32112*
X18032*
Y32149*
X17884*
Y32186*
X17698*
Y3226*
X17513*
Y32297*
X17254*
Y32371*
X16587*
Y32297*
X16402*
Y3226*
X16291*
Y32186*
X16217*
Y32149*
X16106*
Y32112*
X16069*
Y32075*
X16032*
Y32001*
X15958*
Y31964*
X15921*
Y31927*
X15884*
Y31889*
X15809*
Y3163*
X15884*
Y31408*
X15809*
Y31334*
X15773*
Y3126*
X15736*
Y31223*
X15587*
Y31186*
X15328*
Y31223*
X15217*
Y3126*
X15143*
Y31334*
X15106*
Y31371*
X15069*
Y31519*
X15106*
Y31593*
X15143*
Y3163*
X15217*
Y31704*
X15254*
Y31778*
X15328*
Y31816*
X15365*
Y31927*
X15402*
Y31964*
X15439*
Y32001*
X15513*
Y32075*
X1555*
Y32112*
X15587*
Y32149*
X15624*
Y32186*
X15698*
Y3226*
X15736*
Y32297*
X15773*
Y32371*
X15809*
Y32408*
X15884*
Y32445*
X15921*
Y32519*
X15958*
Y32556*
X16032*
Y32593*
X16069*
Y3263*
X16143*
Y32704*
X16217*
Y32741*
X16254*
Y32778*
X16291*
Y32816*
X16328*
Y32889*
X16402*
Y32927*
X16476*
Y32964*
X16513*
Y33001*
X16587*
Y33075*
X16624*
Y33112*
X16661*
Y33149*
X16698*
Y33186*
X16773*
Y3326*
X16809*
Y33297*
X16884*
Y33334*
X16958*
Y33297*
X16921*
Y33149*
X16958*
Y32927*
X17032*
Y32816*
X17069*
Y32778*
X17106*
Y32741*
X17143*
Y32704*
X17217*
Y3263*
X17291*
Y32593*
X17402*
Y32556*
X17587*
Y32519*
X17809*
Y32445*
X18143*
Y32408*
X18476*
Y32371*
X18698*
Y32297*
X18884*
Y3226*
X18995*
Y32186*
X19069*
Y32149*
X1918*
Y32112*
X19217*
Y32075*
X19291*
Y32001*
X19328*
Y31964*
X19402*
Y31927*
X19476*
Y31889*
X1955*
Y31816*
X19661*
Y31778*
X19735*
Y31741*
X19995*
Y31778*
X20069*
Y31816*
X20143*
Y31964*
X2018*
Y32112*
X20217*
Y32445*
X20254*
Y3326*
X20328*
Y33482*
X20365*
Y3363*
X20402*
Y33704*
X20476*
Y33816*
X20513*
Y33927*
X2055*
Y34001*
X20587*
Y34112*
X20661*
Y34149*
X20698*
Y34186*
X20735*
Y3426*
X20772*
Y34334*
X20847*
Y34371*
X20884*
Y34445*
X2092*
Y34482*
X20958*
Y34519*
X21069*
Y34556*
X21106*
Y3463*
X21143*
Y34667*
X21254*
Y34704*
X21291*
Y34778*
X21402*
Y34816*
X21476*
Y34852*
X2155*
Y34889*
X21661*
Y34964*
X21735*
Y35001*
X21846*
Y35038*
X21958*
Y35075*
X22069*
Y35149*
X22217*
Y35186*
X22291*
Y35223*
X22439*
Y3526*
X22587*
Y35334*
X22735*
Y35371*
X22846*
Y35408*
X22995*
Y35445*
X23106*
Y35519*
X23254*
Y35556*
X23402*
Y3563*
X23476*
Y35667*
X23624*
Y35704*
X23698*
Y35741*
X23772*
Y35815*
X23809*
Y35852*
X23846*
Y35889*
X2392*
Y36*
X23958*
Y36223*
X2392*
Y36334*
X23846*
Y36371*
X23809*
Y36408*
X23772*
Y36445*
X23698*
Y36519*
X23661*
Y36556*
X23587*
Y36593*
X23513*
Y3663*
X23476*
Y36704*
X23439*
Y36778*
X23402*
Y36964*
X23439*
Y37038*
X23476*
Y37075*
X23624*
Y37149*
X23661*
Y37186*
X23772*
Y37223*
X23809*
Y3726*
X23846*
Y37371*
X2392*
Y37556*
X23846*
Y3763*
X23809*
Y37704*
X23772*
Y37741*
X23698*
Y37778*
X23661*
Y37815*
X23624*
Y37889*
X23587*
Y37927*
X23476*
Y37963*
X23439*
Y38*
X23328*
Y38075*
X23291*
Y38112*
X23217*
Y38149*
X23106*
Y38223*
X22995*
Y3826*
X2292*
Y38297*
X22809*
Y38334*
X22735*
Y38408*
X22587*
Y38445*
X22476*
Y38482*
X22402*
Y38519*
X22328*
Y38593*
X22291*
Y38704*
X22328*
Y38741*
X22587*
Y38778*
X2292*
Y38741*
X23291*
Y38704*
X23439*
Y3863*
X23587*
Y38593*
X23624*
Y3863*
X23661*
Y38741*
X23698*
Y39*
X23772*
Y39297*
X23698*
Y39593*
X23661*
Y39704*
X23624*
Y39815*
X23587*
Y39889*
X23513*
Y39963*
X23476*
Y4*
X23439*
Y40038*
X23402*
Y40074*
X23291*
Y40149*
G37*
G36*
X15767Y02653D02*
X15729D01*
X15706Y02649*
X15663Y02638*
X15625Y02621*
X15595Y02604*
X1557Y02587*
X15553Y0257*
X15543Y0256*
X15538Y02558*
Y02556*
X15523Y02537*
X15511Y02515*
X15492Y02469*
X15477Y0242*
X15469Y02372*
X15462Y02329*
X1546Y0231*
Y02293*
X15458Y0228*
Y0227*
Y02264*
Y02262*
Y02226*
X15462Y02194*
X15464Y02162*
X15471Y02135*
X15477Y02107*
X15483Y02084*
X1549Y02063*
X15498Y02044*
X15507Y02025*
X15513Y0201*
X15519Y01999*
X15526Y01989*
X1553Y0198*
X15534Y01974*
X15538Y01972*
Y0197*
X15553Y01953*
X1557Y01938*
X15606Y01912*
X15642Y01895*
X15676Y01885*
X15706Y01876*
X15731Y01874*
X15741Y01872*
X15754*
X1578Y01874*
X15803Y01876*
X15847Y01887*
X15885Y01904*
X15915Y01921*
X1594Y01938*
X15957Y01955*
X15968Y01965*
X15972Y0197*
X15985Y01989*
X15997Y0201*
X16016Y02056*
X16031Y02105*
X1604Y02154*
X16046Y02196*
X16048Y02213*
Y0223*
X1605Y02243*
Y02253*
Y02259*
Y02262*
Y02297*
X16046Y02331*
X16044Y02361*
X16038Y02391*
X16034Y02416*
X16027Y02441*
X16019Y02463*
X16012Y02482*
X16006Y02501*
X15997Y02515*
X15991Y02528*
X15987Y02537*
X15981Y02545*
X15978Y02551*
X15974Y02553*
Y02556*
X15959Y02573*
X15943Y02587*
X15907Y02613*
X1587Y0263*
X15835Y0264*
X15803Y02649*
X1579Y02651*
X15777*
X15767Y02653*
G37*
G36*
X29566Y02289D02*
X29551D01*
Y02001*
X296Y01967*
X29623Y01953*
X29647Y0194*
X29664Y01931*
X29678Y01923*
X29687Y01919*
X29691Y01917*
X29719Y01906*
X29748Y01898*
X29776Y01891*
X29801Y01887*
X29824Y01885*
X29841Y01883*
X29856*
X29894Y01885*
X29926Y01889*
X29953Y01898*
X29977Y01906*
X29994Y01912*
X30006Y01921*
X30015Y01925*
X30017Y01927*
X30034Y01946*
X30046Y01967*
X30057Y01989*
X30063Y0201*
X30068Y02029*
X3007Y02044*
Y02054*
Y02058*
X30068Y02086*
X30063Y02111*
X30055Y02132*
X30046Y02149*
X3004Y02162*
X30032Y02173*
X30027Y02179*
X30025Y02181*
X30006Y02196*
X29987Y02211*
X29966Y02221*
X29947Y0223*
X2993Y02238*
X29917Y02243*
X29909Y02247*
X29905*
X29879Y02253*
X29852Y02259*
X29824Y02264*
X29799Y02268*
X29774Y0227*
X29755Y02272*
X29742Y02274*
X29738*
X29699Y02276*
X29664Y0228*
X29632Y02283*
X29604Y02285*
X29583Y02287*
X29566Y02289*
G37*
G36*
X27457D02*
X27442D01*
Y02001*
X27491Y01967*
X27514Y01953*
X27537Y0194*
X27554Y01931*
X27569Y01923*
X27577Y01919*
X27582Y01917*
X27609Y01906*
X27639Y01898*
X27666Y01891*
X27692Y01887*
X27715Y01885*
X27732Y01883*
X27747*
X27785Y01885*
X27817Y01889*
X27844Y01898*
X27867Y01906*
X27884Y01912*
X27897Y01921*
X27905Y01925*
X27907Y01927*
X27924Y01946*
X27937Y01967*
X27948Y01989*
X27954Y0201*
X27958Y02029*
X2796Y02044*
Y02054*
Y02058*
X27958Y02086*
X27954Y02111*
X27946Y02132*
X27937Y02149*
X27931Y02162*
X27922Y02173*
X27918Y02179*
X27916Y02181*
X27897Y02196*
X27878Y02211*
X27857Y02221*
X27838Y0223*
X27821Y02238*
X27808Y02243*
X278Y02247*
X27795*
X2777Y02253*
X27742Y02259*
X27715Y02264*
X2769Y02268*
X27664Y0227*
X27645Y02272*
X27632Y02274*
X27628*
X2759Y02276*
X27554Y0228*
X27522Y02283*
X27495Y02285*
X27474Y02287*
X27457Y02289*
G37*
G36*
X25214D02*
X25199D01*
Y02001*
X25248Y01967*
X25271Y01953*
X25294Y0194*
X25311Y01931*
X25326Y01923*
X25334Y01919*
X25339Y01917*
X25366Y01906*
X25396Y01898*
X25423Y01891*
X25449Y01887*
X25472Y01885*
X25489Y01883*
X25504*
X25542Y01885*
X25574Y01889*
X25601Y01898*
X25625Y01906*
X25641Y01912*
X25654Y01921*
X25663Y01925*
X25665Y01927*
X25682Y01946*
X25694Y01967*
X25705Y01989*
X25711Y0201*
X25715Y02029*
X25718Y02044*
Y02054*
Y02058*
X25715Y02086*
X25711Y02111*
X25703Y02132*
X25694Y02149*
X25688Y02162*
X25679Y02173*
X25675Y02179*
X25673Y02181*
X25654Y02196*
X25635Y02211*
X25614Y02221*
X25595Y0223*
X25578Y02238*
X25565Y02243*
X25557Y02247*
X25552*
X25527Y02253*
X255Y02259*
X25472Y02264*
X25447Y02268*
X25421Y0227*
X25402Y02272*
X2539Y02274*
X25385*
X25347Y02276*
X25311Y0228*
X2528Y02283*
X25252Y02285*
X25231Y02287*
X25214Y02289*
G37*
G36*
X23282D02*
X23267D01*
Y02001*
X23316Y01967*
X23339Y01953*
X23363Y0194*
X2338Y01931*
X23394Y01923*
X23403Y01919*
X23407Y01917*
X23435Y01906*
X23464Y01898*
X23492Y01891*
X23517Y01887*
X2354Y01885*
X23557Y01883*
X23572*
X2361Y01885*
X23642Y01889*
X2367Y01898*
X23693Y01906*
X2371Y01912*
X23722Y01921*
X23731Y01925*
X23733Y01927*
X2375Y01946*
X23762Y01967*
X23773Y01989*
X23779Y0201*
X23784Y02029*
X23786Y02044*
Y02054*
Y02058*
X23784Y02086*
X23779Y02111*
X23771Y02132*
X23762Y02149*
X23756Y02162*
X23748Y02173*
X23743Y02179*
X23741Y02181*
X23722Y02196*
X23703Y02211*
X23682Y02221*
X23663Y0223*
X23646Y02238*
X23633Y02243*
X23625Y02247*
X23621*
X23595Y02253*
X23568Y02259*
X2354Y02264*
X23515Y02268*
X2349Y0227*
X23471Y02272*
X23458Y02274*
X23454*
X23416Y02276*
X2338Y0228*
X23348Y02283*
X2332Y02285*
X23299Y02287*
X23282Y02289*
G37*
%LNpcb-3*%
%LPD*%
G36*
X31402Y22445D02*
X31513D01*
Y22371*
X31587*
Y22334*
X31661*
Y22297*
X31698*
Y22149*
X31735*
Y21816*
X31698*
Y21779*
X31661*
Y21742*
X31587*
Y21668*
X31513*
Y21742*
X31476*
Y21779*
X31402*
Y21853*
X31365*
Y22038*
X31328*
Y22186*
X31291*
Y22297*
X31328*
Y22445*
X31365*
Y22483*
X31402*
Y22445*
G37*
G36*
X26957Y17372D02*
X27069D01*
Y17334*
X27142*
Y17297*
X27254*
Y17223*
X27291*
Y17186*
X27402*
Y17149*
X27439*
Y16927*
X27402*
Y16853*
X27365*
Y16816*
X27217*
Y16779*
X2655*
Y16816*
X26365*
Y16853*
X26254*
Y16927*
X26217*
Y16964*
X2618*
Y17001*
X26106*
Y17038*
X2618*
Y17112*
X26254*
Y17149*
X26291*
Y17186*
X26402*
Y17223*
X26476*
Y17297*
X2655*
Y17334*
X26661*
Y17372*
X26846*
Y17409*
X26957*
Y17372*
G37*
G36*
X25698Y16186D02*
X25735D01*
Y16112*
X25772*
Y15927*
X25735*
Y15853*
X25587*
Y15927*
X2555*
Y15964*
X25513*
Y16001*
X25476*
Y16112*
X25513*
Y16149*
X2555*
Y16186*
X25587*
Y16223*
X25698*
Y16186*
G37*
G36*
X26735Y15964D02*
X26772D01*
Y15853*
X26846*
Y15631*
X26772*
Y15557*
X26735*
Y15483*
X26698*
Y15446*
X26661*
Y15409*
X26513*
Y15446*
X26402*
Y15483*
X26365*
Y15594*
X26291*
Y15668*
X26254*
Y15779*
X26217*
Y15927*
X26254*
Y15964*
X26365*
Y16001*
X26735*
Y15964*
G37*
G36*
X28069Y26038D02*
X28105D01*
Y2589*
X28142*
Y25556*
X28217*
Y25297*
X28142*
Y25001*
X28105*
Y24705*
X28069*
Y24519*
X28031*
Y24334*
X27957*
Y24112*
X2792*
Y2389*
X27846*
Y23483*
X27809*
Y23297*
X27846*
Y22964*
X2792*
Y22816*
X27957*
Y22668*
X28031*
Y22631*
X28069*
Y2252*
X28105*
Y22445*
X28142*
Y22334*
X28217*
Y2226*
X28254*
Y22112*
X28291*
Y21631*
X28254*
Y21371*
X28217*
Y21186*
X28142*
Y20964*
X28105*
Y20668*
X28069*
Y20372*
X28105*
Y20223*
X28142*
Y20112*
X28217*
Y20075*
X28291*
Y20038*
X28402*
Y20001*
X2855*
Y19927*
X28587*
Y19853*
X28439*
Y19779*
X28365*
Y19742*
X28291*
Y19705*
X28217*
Y19668*
X28142*
Y19594*
X28105*
Y19557*
X28031*
Y1952*
X27957*
Y19445*
X2792*
Y19409*
X27846*
Y19372*
X27772*
Y19297*
X27735*
Y1926*
X27661*
Y19223*
X27624*
Y19186*
X27587*
Y19112*
X2755*
Y19075*
X27439*
Y19038*
X27402*
Y19001*
X27291*
Y18927*
X27254*
Y1889*
X27142*
Y18853*
X27069*
Y18816*
X26957*
Y18742*
X26513*
Y18816*
X26365*
Y18853*
X26254*
Y1889*
X26217*
Y18927*
X26106*
Y19075*
X26254*
Y19112*
X26365*
Y19186*
X26513*
Y19223*
X26587*
Y1926*
X26735*
Y19297*
X26846*
Y19372*
X26883*
Y19409*
X26957*
Y19445*
X27069*
Y1952*
X27106*
Y19557*
X27142*
Y19594*
X27217*
Y19668*
X27254*
Y19705*
X27291*
Y1989*
X27254*
Y20038*
X27217*
Y20557*
X27254*
Y20742*
X27291*
Y20853*
X27365*
Y21001*
X27402*
Y21112*
X27439*
Y2126*
X27476*
Y21371*
X2755*
Y21445*
X27587*
Y21594*
X27624*
Y21742*
X27661*
Y21927*
X27735*
Y22371*
X27661*
Y22556*
X27624*
Y22742*
X27587*
Y22779*
X2755*
Y22853*
X27476*
Y22964*
X27439*
Y23038*
X27402*
Y23186*
X27365*
Y23334*
X27291*
Y23519*
X27254*
Y24408*
X27291*
Y24631*
X27365*
Y24816*
X27402*
Y24927*
X27439*
Y25075*
X27476*
Y25186*
X2755*
Y25297*
X27587*
Y25408*
X27624*
Y25482*
X27661*
Y25594*
X27735*
Y25705*
X27772*
Y25779*
X27809*
Y25927*
X27846*
Y26038*
X2792*
Y26112*
X28069*
Y26038*
G37*
G36*
X30809Y18557D02*
X30846D01*
Y1852*
X30883*
Y18409*
X30846*
Y18372*
X30809*
Y18334*
X30698*
Y18297*
X30291*
Y18334*
X30217*
Y18372*
X3018*
Y18409*
X30142*
Y1852*
X3018*
Y18557*
X30328*
Y18594*
X30809*
Y18557*
G37*
G36*
X34661Y26408D02*
X34772D01*
Y26371*
X34809*
Y26297*
X34846*
Y26186*
X34809*
Y26112*
X34476*
Y26186*
X34402*
Y26223*
X34291*
Y2626*
X34253*
Y26371*
X34328*
Y26408*
X34439*
Y26445*
X34661*
Y26408*
G37*
G36*
X30142Y35556D02*
X3018D01*
Y35519*
X30217*
Y34964*
X3018*
Y34778*
X30142*
Y3463*
X30105*
Y34519*
X30031*
Y34371*
X29994*
Y34334*
X29957*
Y3426*
X2992*
Y34149*
X29846*
Y34112*
X29809*
Y34001*
X29772*
Y33667*
X29809*
Y33519*
X29846*
Y33445*
X2992*
Y33334*
X29957*
Y3326*
X29994*
Y33186*
X30031*
Y33112*
X30105*
Y33001*
X30142*
Y32889*
X3018*
Y32741*
X30217*
Y32593*
X3018*
Y32408*
X30142*
Y31927*
X3018*
Y31889*
X30291*
Y31816*
X30735*
Y31889*
X30994*
Y31927*
X31216*
Y31964*
X3155*
Y32001*
X31883*
Y31964*
X32031*
Y31927*
X32068*
Y31889*
X32105*
Y31816*
X32179*
Y31778*
X32216*
Y31741*
X32253*
Y31704*
X32365*
Y3163*
X32402*
Y31593*
X32439*
Y31556*
X32476*
Y31519*
X32587*
Y31445*
X32624*
Y31408*
X32661*
Y31371*
X32735*
Y31334*
X32772*
Y3126*
X32846*
Y31223*
X32883*
Y31186*
X3292*
Y31075*
X32994*
Y31038*
X33031*
Y31001*
X33068*
Y30927*
X33105*
Y30853*
X33179*
Y30816*
X33216*
Y30741*
X33253*
Y3063*
X33291*
Y30593*
X33365*
Y30519*
X33402*
Y30445*
X33439*
Y30371*
X33476*
Y3026*
X3355*
Y30186*
X33587*
Y30075*
X33624*
Y30001*
X33661*
Y29853*
X33735*
Y29705*
X33772*
Y2963*
X33809*
Y29371*
X33846*
Y2926*
X33809*
Y29186*
X33661*
Y2926*
X33624*
Y29297*
X33587*
Y29334*
X3355*
Y29371*
X33476*
Y29445*
X33439*
Y29519*
X33402*
Y2963*
X33365*
Y29667*
X33291*
Y29742*
X33253*
Y29853*
X33216*
Y2989*
X33179*
Y30001*
X33105*
Y30075*
X33068*
Y30149*
X33031*
Y30223*
X32994*
Y30334*
X3292*
Y30371*
X32883*
Y30408*
X32846*
Y30519*
X32772*
Y30556*
X32735*
Y30593*
X32661*
Y3063*
X32624*
Y30705*
X32587*
Y30741*
X3255*
Y30816*
X32476*
Y30853*
X32402*
Y3089*
X32291*
Y30927*
X32179*
Y31001*
X31994*
Y31038*
X31883*
Y31075*
X31735*
Y31112*
X31661*
Y31186*
X3155*
Y31223*
X31402*
Y3126*
X31291*
Y31334*
X31068*
Y31371*
X30809*
Y31334*
X30661*
Y3126*
X30624*
Y31223*
X30513*
Y31186*
X30476*
Y31075*
X30402*
Y31038*
X30365*
Y31001*
X30328*
Y3089*
X30291*
Y30816*
X30217*
Y3063*
X3018*
Y30445*
X30217*
Y30408*
X30291*
Y30371*
X30365*
Y30334*
X30513*
Y3026*
X30809*
Y30223*
X31031*
Y30186*
X31216*
Y30149*
X31328*
Y30075*
X31365*
Y30038*
X31402*
Y30001*
X31476*
Y29927*
X31513*
Y29853*
X3155*
Y29816*
X31587*
Y29742*
X31661*
Y29705*
X31698*
Y29667*
X31735*
Y2963*
X31809*
Y29556*
X31846*
Y29519*
X31883*
Y29482*
X3192*
Y29445*
X31994*
Y29371*
X32031*
Y29297*
X32068*
Y2926*
X32105*
Y29149*
X32179*
Y29112*
X32216*
Y29001*
X32253*
Y2889*
X32291*
Y28816*
X32365*
Y28705*
X32402*
Y2863*
X32439*
Y28482*
X32476*
Y28371*
X3255*
Y2826*
X32587*
Y28149*
X32624*
Y28001*
X32661*
Y2789*
X32735*
Y27742*
X32772*
Y2763*
X32846*
Y27482*
X32883*
Y27371*
X3292*
Y27297*
X32994*
Y27149*
X33031*
Y27112*
X33068*
Y27001*
X33105*
Y26927*
X33179*
Y26816*
X33216*
Y26779*
X33253*
Y26667*
X33291*
Y26631*
X33365*
Y26594*
X33402*
Y26556*
X33439*
Y26482*
X33476*
Y26445*
X3355*
Y26408*
X33587*
Y26371*
X33624*
Y2626*
X33661*
Y26223*
X33735*
Y26112*
X33661*
Y26075*
X33439*
Y26112*
X33253*
Y26186*
X33179*
Y26223*
X33031*
Y2626*
X3292*
Y26297*
X32846*
Y26371*
X32772*
Y26408*
X32661*
Y26445*
X32587*
Y26482*
X3255*
Y26556*
X32476*
Y26594*
X32439*
Y26631*
X32402*
Y26667*
X32365*
Y26742*
X32291*
Y27334*
X32253*
Y27742*
X32216*
Y27927*
X32179*
Y28112*
X32105*
Y28297*
X32068*
Y28371*
X32031*
Y28519*
X31994*
Y2863*
X3192*
Y28705*
X31883*
Y28816*
X31846*
Y28853*
X31809*
Y28927*
X31735*
Y29001*
X31698*
Y29038*
X31661*
Y29112*
X31587*
Y29149*
X31513*
Y29186*
X31402*
Y2926*
X31068*
Y29186*
X30994*
Y29149*
X30883*
Y29112*
X30809*
Y29038*
X30735*
Y29001*
X30624*
Y29038*
X3055*
Y29112*
X30513*
Y29149*
X30476*
Y2926*
X30402*
Y29297*
X30365*
Y29334*
X30328*
Y29445*
X30291*
Y29482*
X30217*
Y29519*
X3018*
Y2963*
X30142*
Y29667*
X30105*
Y29705*
X30031*
Y29742*
X29994*
Y29853*
X29957*
Y2989*
X2992*
Y29927*
X29846*
Y30001*
X29809*
Y30038*
X29772*
Y30075*
X29735*
Y30149*
X29661*
Y30186*
X29587*
Y30223*
X29513*
Y3026*
X29402*
Y30334*
X29328*
Y30371*
X2918*
Y30408*
X2892*
Y30371*
X28772*
Y30334*
X28661*
Y3026*
X28587*
Y30223*
X2855*
Y30186*
X28476*
Y30149*
X28439*
Y30075*
X28402*
Y30038*
X28291*
Y30001*
X27661*
Y30038*
X2755*
Y30075*
X27439*
Y30149*
X27365*
Y30186*
X27254*
Y30223*
X27217*
Y3026*
X27106*
Y30334*
X27069*
Y30371*
X27031*
Y30408*
X26957*
Y30445*
X26883*
Y30519*
X26846*
Y30556*
X26772*
Y30593*
X26735*
Y3063*
X26698*
Y30705*
X26661*
Y30816*
X26587*
Y30853*
X2655*
Y3089*
X26513*
Y30927*
X26476*
Y31001*
X26402*
Y31075*
X26365*
Y31112*
X26291*
Y31223*
X26254*
Y3126*
X26217*
Y31371*
X2618*
Y31408*
X26106*
Y31519*
X26069*
Y31593*
X26031*
Y3163*
X25958*
Y31741*
X2592*
Y31816*
X25883*
Y31927*
X25846*
Y32001*
X25772*
Y32112*
X25735*
Y32297*
X25772*
Y32371*
X26069*
Y32297*
X26106*
Y3226*
X26217*
Y32186*
X26254*
Y32112*
X26291*
Y32075*
X26365*
Y32001*
X26402*
Y31927*
X26476*
Y31816*
X26513*
Y31778*
X2655*
Y31704*
X26587*
Y31593*
X26661*
Y31519*
X26698*
Y31408*
X26735*
Y31371*
X26772*
Y3126*
X26846*
Y31186*
X26883*
Y31112*
X2692*
Y31038*
X26957*
Y30927*
X27031*
Y3089*
X27069*
Y30816*
X27106*
Y30741*
X27142*
Y30705*
X27217*
Y3063*
X27254*
Y30593*
X27365*
Y30556*
X27661*
Y30593*
X27809*
Y3063*
X2792*
Y30705*
X28031*
Y30741*
X28069*
Y30816*
X28142*
Y30853*
X28254*
Y3089*
X28291*
Y30927*
X28402*
Y31001*
X28476*
Y31038*
X28587*
Y31075*
X28735*
Y31112*
X28846*
Y31186*
X29105*
Y31223*
X29142*
Y31334*
X2918*
Y31371*
X29217*
Y31445*
X29291*
Y31556*
X29328*
Y31704*
X29365*
Y31816*
X29402*
Y32593*
X29365*
Y32778*
X29328*
Y32927*
X29291*
Y33001*
X29217*
Y33112*
X2918*
Y33186*
X29142*
Y3326*
X29105*
Y33334*
X29031*
Y33371*
X28994*
Y33445*
X28957*
Y33482*
X2892*
Y33519*
X28846*
Y33593*
X28809*
Y3363*
X28772*
Y33667*
X28735*
Y33704*
X28624*
Y33778*
X28587*
Y33816*
X28476*
Y33852*
X28402*
Y33927*
X28291*
Y33964*
X28217*
Y34001*
X28069*
Y34075*
X28031*
Y34112*
X27957*
Y34149*
X27846*
Y34186*
X27809*
Y3426*
X27772*
Y34297*
X27661*
Y34334*
X27587*
Y34371*
X27476*
Y34445*
X27402*
Y34482*
X27254*
Y34519*
X27142*
Y34556*
X27069*
Y3463*
X2692*
Y34667*
X26846*
Y34704*
X26698*
Y34778*
X26587*
Y34816*
X26513*
Y34852*
X26402*
Y34889*
X26291*
Y34964*
X26254*
Y35001*
X2618*
Y35038*
X26106*
Y35075*
X26069*
Y35149*
X26031*
Y35223*
X25958*
Y35408*
X26031*
Y35519*
X26069*
Y3563*
X26254*
Y35556*
X26291*
Y35519*
X26402*
Y35445*
X26513*
Y35408*
X26587*
Y35371*
X26661*
Y35334*
X26735*
Y3526*
X26846*
Y35223*
X2692*
Y35186*
X26957*
Y35149*
X27069*
Y35075*
X27142*
Y35038*
X27291*
Y35001*
X27402*
Y34964*
X27476*
Y34889*
X27624*
Y34852*
X27735*
Y34816*
X27846*
Y34778*
X28069*
Y34704*
X28402*
Y34667*
X2855*
Y34704*
X28846*
Y34778*
X28994*
Y34816*
X29105*
Y34852*
X2918*
Y34889*
X29291*
Y34964*
X29328*
Y35001*
X29402*
Y35038*
X29476*
Y35075*
X29513*
Y35149*
X29587*
Y35186*
X29624*
Y35223*
X29661*
Y3526*
X29735*
Y35334*
X29772*
Y35371*
X29809*
Y35408*
X29846*
Y35445*
X2992*
Y35519*
X29957*
Y35556*
X30031*
Y3563*
X30142*
Y35556*
G37*
G36*
X34402Y3363D02*
X34439D01*
Y33482*
X34402*
Y33445*
X34179*
Y33482*
X34142*
Y33593*
X34179*
Y3363*
X34253*
Y33667*
X34402*
Y3363*
G37*
G36*
X30994Y27816D02*
X31031D01*
Y27742*
X30994*
Y2763*
X3092*
Y27594*
X30883*
Y27556*
X30846*
Y27482*
X30698*
Y27445*
X30476*
Y27556*
X30513*
Y27594*
X3055*
Y2763*
X30624*
Y27667*
X30661*
Y27742*
X30698*
Y27779*
X30735*
Y27816*
X30846*
Y2789*
X30994*
Y27816*
G37*
G36*
X2918Y29371D02*
X29142D01*
Y29186*
X29105*
Y29038*
X29031*
Y2889*
X28994*
Y28816*
X28957*
Y28667*
X2892*
Y28556*
X28846*
Y28445*
X28809*
Y28334*
X28772*
Y28186*
X28735*
Y28112*
X28661*
Y27927*
X28624*
Y27742*
X28587*
Y27445*
X28624*
Y27297*
X28661*
Y27186*
X28735*
Y27149*
X28772*
Y27112*
X28809*
Y27075*
X2892*
Y27001*
X28957*
Y26964*
X29105*
Y26927*
X2918*
Y2689*
X29402*
Y26816*
X29661*
Y26779*
X2992*
Y26742*
X30105*
Y26667*
X30217*
Y26631*
X30365*
Y26594*
X30513*
Y26556*
X30624*
Y26482*
X30735*
Y26445*
X30846*
Y26408*
X3092*
Y26371*
X31031*
Y26297*
X31105*
Y2626*
X31216*
Y26223*
X31328*
Y26186*
X31402*
Y26112*
X31513*
Y26075*
X3155*
Y26038*
X31661*
Y26001*
X31735*
Y25927*
X31809*
Y2589*
X31883*
Y25816*
X31994*
Y25779*
X32068*
Y25742*
X32105*
Y25705*
X32216*
Y25631*
X32291*
Y25594*
X32402*
Y25556*
X32476*
Y25482*
X3255*
Y25445*
X32624*
Y25408*
X32735*
Y25371*
X32846*
Y25297*
X3292*
Y2526*
X33031*
Y25223*
X33105*
Y25186*
X33216*
Y25112*
X33402*
Y25186*
X33624*
Y25112*
X33809*
Y25075*
X33846*
Y25038*
X3392*
Y25001*
X33957*
Y2489*
X33994*
Y24223*
X33957*
Y23927*
X3392*
Y23556*
X33846*
Y23483*
X3392*
Y22816*
X33846*
Y22631*
X33735*
Y22668*
X33661*
Y22779*
X33624*
Y22853*
X33587*
Y22964*
X3355*
Y23112*
X33476*
Y23186*
X33439*
Y23334*
X33402*
Y23483*
X33365*
Y23556*
X33291*
Y23631*
X33253*
Y23705*
X33216*
Y23742*
X33179*
Y23816*
X33105*
Y23853*
X33068*
Y2389*
X33031*
Y23927*
X32994*
Y24001*
X3292*
Y24038*
X32883*
Y24075*
X32846*
Y24112*
X32772*
Y24186*
X32735*
Y24223*
X32661*
Y2426*
X32624*
Y24334*
X3255*
Y24371*
X32476*
Y24408*
X32439*
Y24483*
X32402*
Y24519*
X32291*
Y24556*
X32253*
Y24631*
X32179*
Y24668*
X32105*
Y24705*
X32031*
Y24742*
X3192*
Y24816*
X31883*
Y24853*
X31809*
Y2489*
X31698*
Y24927*
X31587*
Y25001*
X31476*
Y25038*
X31365*
Y25075*
X31291*
Y25112*
X31105*
Y25186*
X3092*
Y25223*
X30735*
Y2526*
X30513*
Y25223*
X30476*
Y24816*
X30402*
Y24519*
X30365*
Y2426*
X30328*
Y24075*
X30291*
Y23853*
X30217*
Y23668*
X3018*
Y23371*
X30142*
Y23149*
X30105*
Y22112*
X30142*
Y21853*
X3018*
Y21742*
X30217*
Y21594*
X30291*
Y20964*
X30217*
Y20408*
X30291*
Y20297*
X30328*
Y20223*
X30365*
Y20186*
X30402*
Y20112*
X30513*
Y20075*
X30624*
Y20038*
X30809*
Y20001*
X3092*
Y19927*
X31068*
Y1989*
X31216*
Y19853*
X31328*
Y19779*
X31365*
Y19705*
X31328*
Y19668*
X30735*
Y19594*
X30661*
Y19668*
X30105*
Y19594*
X29994*
Y19557*
X29957*
Y1952*
X29846*
Y19445*
X29809*
Y19409*
X29772*
Y19372*
X29735*
Y19297*
X29661*
Y1926*
X29624*
Y19186*
X29587*
Y19112*
X29513*
Y19075*
X29476*
Y19001*
X29402*
Y1889*
X29365*
Y18853*
X29328*
Y18742*
X29291*
Y18668*
X29217*
Y1852*
X2918*
Y18409*
X29142*
Y18297*
X29105*
Y18149*
X29031*
Y17964*
X28994*
Y17705*
X28957*
Y17372*
X28994*
Y17334*
X29031*
Y17223*
X29105*
Y17186*
X29142*
Y17112*
X2918*
Y17001*
X29217*
Y16631*
X2918*
Y16557*
X29142*
Y16446*
X29105*
Y16409*
X29031*
Y16298*
X28994*
Y16223*
X28957*
Y16186*
X2892*
Y16149*
X28846*
Y16112*
X28809*
Y16001*
X28772*
Y15964*
X28735*
Y15927*
X28661*
Y15816*
X28624*
Y15779*
X28587*
Y15742*
X2855*
Y15631*
X28476*
Y15557*
X28439*
Y15409*
X28476*
Y15075*
X28439*
Y14927*
X28402*
Y1489*
X28291*
Y14853*
X28142*
Y1489*
X28031*
Y14927*
X27957*
Y14964*
X2792*
Y15038*
X27846*
Y15075*
X27809*
Y15223*
X27772*
Y15483*
X27809*
Y15594*
X27846*
Y15631*
X2792*
Y15668*
X27957*
Y15742*
X28031*
Y15779*
X28069*
Y15816*
X28105*
Y15853*
X28217*
Y15927*
X28254*
Y15964*
X28291*
Y16001*
X28365*
Y16038*
X28402*
Y16112*
X28439*
Y16186*
X28476*
Y16298*
X2855*
Y16779*
X28476*
Y16964*
X28439*
Y17149*
X28402*
Y17297*
X28365*
Y17557*
X28291*
Y17853*
X28365*
Y18001*
X28402*
Y18112*
X28439*
Y18186*
X28476*
Y18223*
X2855*
Y18297*
X28587*
Y18334*
X28624*
Y18372*
X28661*
Y18483*
X28735*
Y1852*
X28772*
Y18594*
X28809*
Y18705*
X28846*
Y18742*
X2892*
Y18853*
X28957*
Y18927*
X28994*
Y19038*
X29031*
Y19112*
X29105*
Y19223*
X29142*
Y19297*
X2918*
Y19445*
X29217*
Y19557*
X29291*
Y19705*
X29328*
Y19853*
X29365*
Y19927*
X29402*
Y20112*
X29476*
Y20297*
X29513*
Y20445*
X29587*
Y20742*
X29624*
Y20964*
X29661*
Y21445*
X29735*
Y22001*
X29661*
Y22186*
X29624*
Y22853*
X29661*
Y23112*
X29735*
Y23334*
X29772*
Y23519*
X29809*
Y23705*
X29846*
Y23927*
X2992*
Y24112*
X29957*
Y24927*
X2992*
Y25112*
X29846*
Y25223*
X29809*
Y25297*
X29772*
Y25408*
X29735*
Y25482*
X29661*
Y25594*
X29624*
Y25742*
X29587*
Y25816*
X29513*
Y2589*
X29476*
Y26001*
X29402*
Y26038*
X29365*
Y26075*
X29328*
Y26186*
X29291*
Y26223*
X29217*
Y2626*
X2918*
Y26297*
X29142*
Y26371*
X29105*
Y26408*
X28994*
Y26445*
X28957*
Y26482*
X28846*
Y26556*
X28809*
Y26594*
X28735*
Y26631*
X28624*
Y26667*
X2855*
Y26742*
X28402*
Y26779*
X28217*
Y26816*
X2792*
Y2689*
X27402*
Y26816*
X27106*
Y26779*
X2692*
Y26742*
X26772*
Y26667*
X26698*
Y26631*
X26587*
Y26594*
X26513*
Y26556*
X26402*
Y26779*
X26476*
Y26964*
X26513*
Y27186*
X2655*
Y27371*
X26587*
Y27594*
X26661*
Y27742*
X26698*
Y2789*
X26735*
Y27964*
X26772*
Y28075*
X26846*
Y28112*
X26883*
Y28149*
X2692*
Y28186*
X27142*
Y28149*
X27217*
Y28186*
X27365*
Y2826*
X27476*
Y28297*
X2755*
Y28334*
X27624*
Y28371*
X27661*
Y28445*
X27772*
Y28482*
X27809*
Y28519*
X27846*
Y28556*
X2792*
Y2863*
X27957*
Y28667*
X28031*
Y28705*
X28069*
Y28742*
X28105*
Y28816*
X28142*
Y28853*
X28217*
Y2889*
X28254*
Y28927*
X28291*
Y29001*
X28365*
Y29038*
X28402*
Y29112*
X28439*
Y29149*
X28476*
Y29186*
X2855*
Y2926*
X28587*
Y29297*
X28624*
Y29334*
X28661*
Y29371*
X28735*
Y29445*
X28772*
Y29482*
X28809*
Y29519*
X28846*
Y29556*
X2892*
Y2963*
X28957*
Y29667*
X28994*
Y29705*
X29031*
Y29742*
X29105*
Y29816*
X2918*
Y29371*
G37*
G36*
X3555Y31038D02*
X35624D01*
Y30927*
X35476*
Y31038*
X35513*
Y31075*
X3555*
Y31038*
G37*
G36*
X34809Y30816D02*
X3492D01*
Y30741*
X34957*
Y30593*
X3492*
Y30519*
X34846*
Y30445*
X34772*
Y30408*
X34735*
Y30371*
X34402*
Y30408*
X34291*
Y30445*
X34253*
Y30519*
X34179*
Y30556*
X34142*
Y30593*
X34105*
Y30705*
X34142*
Y30741*
X34179*
Y30816*
X34291*
Y30853*
X34809*
Y30816*
G37*
G36*
X17217Y2126D02*
X17254D01*
Y21186*
X17291*
Y20964*
X17254*
Y20927*
X17217*
Y20853*
X17143*
Y20927*
X17106*
Y20964*
X17069*
Y21075*
X17032*
Y2126*
X17069*
Y21297*
X17217*
Y2126*
G37*
G36*
X18328Y19705D02*
X18402D01*
Y19668*
X18439*
Y19409*
X18402*
Y19372*
X18328*
Y19297*
X18291*
Y1926*
X18069*
Y19297*
X17995*
Y19372*
X17884*
Y19409*
X17847*
Y19557*
X17884*
Y19594*
X17958*
Y19668*
X18032*
Y19705*
X18143*
Y19742*
X18328*
Y19705*
G37*
G36*
X17402Y20372D02*
X17439D01*
Y20297*
X17476*
Y20223*
X17439*
Y20038*
X17402*
Y1989*
X17328*
Y19779*
X17291*
Y19705*
X17254*
Y19594*
X17217*
Y19557*
X17143*
Y1952*
X17106*
Y19445*
X16958*
Y1952*
X16921*
Y19594*
X16884*
Y20001*
X16921*
Y20075*
X16958*
Y20112*
X17032*
Y20186*
X17069*
Y20223*
X17106*
Y2026*
X17143*
Y20297*
X17217*
Y20372*
X17291*
Y20408*
X17402*
Y20372*
G37*
G36*
X15587Y25816D02*
X15624D01*
Y25742*
X15698*
Y25631*
X15736*
Y25445*
X15698*
Y25408*
X15513*
Y25445*
X15439*
Y25482*
X15402*
Y25556*
X15365*
Y25594*
X15328*
Y25779*
X15365*
Y25816*
X15402*
Y2589*
X15587*
Y25816*
G37*
G36*
X21846Y26186D02*
X21883D01*
Y26112*
X2192*
Y26075*
X21958*
Y26038*
X22032*
Y25927*
X22069*
Y25816*
X22106*
Y25705*
X22143*
Y25445*
X22217*
Y25223*
X22143*
Y25001*
X22106*
Y2489*
X22069*
Y24853*
X22032*
Y24742*
X21958*
Y24705*
X2192*
Y24668*
X21846*
Y24631*
X21735*
Y24519*
X21772*
Y24483*
X21846*
Y24408*
X21883*
Y24334*
X2192*
Y2426*
X21958*
Y24186*
X22032*
Y24112*
X22069*
Y24075*
X22106*
Y24001*
X22143*
Y23927*
X22217*
Y23853*
X22254*
Y23816*
X22291*
Y23742*
X22328*
Y23668*
X22402*
Y23631*
X22439*
Y23556*
X22476*
Y23483*
X22513*
Y23445*
X22587*
Y23371*
X22624*
Y23297*
X22661*
Y23223*
X22735*
Y23186*
X22772*
Y23112*
X22809*
Y23038*
X22846*
Y22964*
X2292*
Y22927*
X22958*
Y22816*
X22995*
Y22779*
X23031*
Y22668*
X23106*
Y22631*
X23143*
Y2252*
X23217*
Y22445*
X23254*
Y22371*
X23291*
Y22297*
X23328*
Y22186*
X23402*
Y22112*
X23439*
Y22001*
X23476*
Y21927*
X23513*
Y21816*
X23587*
Y21668*
X23624*
Y21556*
X23661*
Y21445*
X23698*
Y21112*
X23587*
Y21186*
X23513*
Y21223*
X23476*
Y2126*
X23439*
Y21297*
X23402*
Y21371*
X23328*
Y21445*
X23291*
Y21483*
X23254*
Y21556*
X23217*
Y21631*
X23143*
Y21668*
X23106*
Y21779*
X23031*
Y21816*
X22995*
Y21853*
X22958*
Y21964*
X2292*
Y22001*
X22846*
Y22038*
X22809*
Y22149*
X22772*
Y22186*
X22735*
Y2226*
X22661*
Y22297*
X22624*
Y22334*
X22587*
Y22371*
X22513*
Y22445*
X22476*
Y22483*
X22402*
Y2252*
X22328*
Y22556*
X22291*
Y22668*
X22254*
Y22779*
X22217*
Y22853*
X22143*
Y22964*
X22106*
Y23001*
X22069*
Y23112*
X22032*
Y23149*
X21958*
Y23223*
X2192*
Y23297*
X21883*
Y23371*
X21846*
Y23445*
X21772*
Y23519*
X21735*
Y23556*
X21698*
Y23668*
X21661*
Y23705*
X21587*
Y23816*
X2155*
Y23853*
X21476*
Y23927*
X21439*
Y24038*
X21402*
Y24112*
X21328*
Y24223*
X21291*
Y24334*
X21254*
Y24483*
X21217*
Y24631*
X21143*
Y24853*
X21106*
Y25631*
X21143*
Y25816*
X21217*
Y25927*
X21254*
Y26001*
X21291*
Y26075*
X21328*
Y26112*
X21402*
Y26186*
X21476*
Y26223*
X21846*
Y26186*
G37*
G36*
X18439Y21964D02*
X18513D01*
Y21927*
X18624*
Y21853*
X18698*
Y21816*
X18809*
Y21779*
X18884*
Y21742*
X18995*
Y21668*
X19069*
Y21631*
X19143*
Y21594*
X1918*
Y21445*
X19143*
Y21408*
X19032*
Y21371*
X1818*
Y21408*
X17995*
Y21445*
X17958*
Y21594*
X17995*
Y21742*
X18032*
Y21816*
X18069*
Y21927*
X18143*
Y21964*
X1818*
Y22001*
X18439*
Y21964*
G37*
G36*
X23439Y17964D02*
X23476D01*
Y17853*
X23439*
Y17816*
X23402*
Y17742*
X23328*
Y17705*
X23291*
Y17668*
X23143*
Y17594*
X23031*
Y17557*
X2292*
Y1752*
X22661*
Y17483*
X22513*
Y1752*
X22291*
Y17557*
X22217*
Y17594*
X22143*
Y17668*
X22106*
Y17816*
X22217*
Y17853*
X22439*
Y17927*
X22772*
Y17964*
X22995*
Y18001*
X23439*
Y17964*
G37*
G36*
X17809Y18297D02*
X17847D01*
Y18149*
X17809*
Y18112*
X17772*
Y18038*
X17661*
Y18001*
X17513*
Y18038*
X17439*
Y18112*
X17402*
Y18149*
X17439*
Y18186*
X17476*
Y18223*
X17513*
Y18297*
X17587*
Y18334*
X17809*
Y18297*
G37*
G36*
X17772Y35519D02*
X17809D01*
Y35445*
X17847*
Y35371*
X17884*
Y3526*
X17958*
Y34667*
X17884*
Y34445*
X17847*
Y34334*
X17809*
Y3426*
X17772*
Y34112*
X17698*
Y34075*
X17661*
Y34001*
X17624*
Y33927*
X17587*
Y33852*
X17513*
Y33816*
X17476*
Y33778*
X17439*
Y33704*
X17402*
Y33667*
X17328*
Y3363*
X17254*
Y33593*
X17143*
Y33519*
X17106*
Y33593*
X17069*
Y33667*
X17106*
Y33778*
X17143*
Y33816*
X17217*
Y33852*
X17254*
Y33927*
X17291*
Y34001*
X17328*
Y34149*
X17402*
Y34445*
X17328*
Y34667*
X17291*
Y34816*
X17254*
Y35001*
X17217*
Y35149*
X17143*
Y35371*
X17217*
Y35408*
X17254*
Y35445*
X17291*
Y35519*
X17439*
Y35556*
X17772*
Y35519*
G37*
G36*
X22254Y36186D02*
X22291D01*
Y36075*
X22328*
Y35889*
X22291*
Y35852*
X22254*
Y35815*
X22069*
Y35852*
X22032*
Y35889*
X21958*
Y35964*
X2192*
Y36*
X21883*
Y36075*
X2192*
Y36149*
X22032*
Y36186*
X22069*
Y36223*
X22254*
Y36186*
G37*
G36*
X18661Y37075D02*
X18698D01*
Y37038*
X18661*
Y36964*
X18587*
Y36927*
X18439*
Y37038*
X18476*
Y37075*
X18587*
Y37149*
X18661*
Y37075*
G37*
G36*
X17661Y36556D02*
X17698D01*
Y36519*
X17661*
Y36445*
X17624*
Y36408*
X17513*
Y36371*
X17439*
Y36334*
X17291*
Y36371*
X17328*
Y36408*
X17402*
Y36445*
X17439*
Y36519*
X17513*
Y36556*
X17587*
Y36593*
X17661*
Y36556*
G37*
G36*
X17291Y3626D02*
X17254D01*
Y36334*
X17291*
Y3626*
G37*
G36*
X23106Y31593D02*
X22995D01*
Y31704*
X23106*
Y31593*
G37*
G36*
X23439Y2926D02*
X23587D01*
Y29186*
X23624*
Y29149*
X23661*
Y29112*
X23698*
Y29001*
X23772*
Y28519*
X23809*
Y28445*
X23846*
Y28334*
X2392*
Y28186*
X23958*
Y28112*
X23994*
Y28001*
X23958*
Y27964*
X23846*
Y28001*
X23772*
Y28075*
X23698*
Y28112*
X23624*
Y28149*
X23587*
Y28186*
X23476*
Y2826*
X23402*
Y28297*
X23328*
Y28334*
X23254*
Y28371*
X23143*
Y28445*
X23031*
Y28482*
X22958*
Y28519*
X22809*
Y28556*
X22587*
Y28519*
X22439*
Y28482*
X22402*
Y28445*
X22328*
Y28371*
X22291*
Y28334*
X22254*
Y2826*
X22217*
Y28149*
X22143*
Y28075*
X22106*
Y27964*
X22069*
Y27816*
X22032*
Y27779*
X21958*
Y27667*
X2192*
Y2763*
X21883*
Y27556*
X21846*
Y27482*
X21772*
Y27445*
X21735*
Y27334*
X21698*
Y27297*
X21661*
Y2726*
X21587*
Y27186*
X2155*
Y27149*
X21476*
Y27112*
X21439*
Y27075*
X21402*
Y26964*
X21328*
Y26927*
X21291*
Y2689*
X21254*
Y26816*
X21217*
Y26779*
X21143*
Y26742*
X21106*
Y26667*
X21069*
Y26631*
X21032*
Y26594*
X20958*
Y26556*
X2092*
Y26482*
X20884*
Y26445*
X20847*
Y26408*
X20772*
Y26371*
X20735*
Y26297*
X20698*
Y2626*
X20661*
Y26223*
X20587*
Y26186*
X2055*
Y26112*
X20513*
Y26075*
X20476*
Y26038*
X20402*
Y26001*
X20365*
Y25927*
X20328*
Y25816*
X20254*
Y25779*
X20217*
Y25742*
X2018*
Y25631*
X20143*
Y25594*
X20069*
Y25482*
X20032*
Y25408*
X19995*
Y25371*
X1992*
Y2526*
X19884*
Y25223*
X19772*
Y25186*
X19735*
Y25112*
X19698*
Y25075*
X19661*
Y25038*
X1955*
Y25001*
X19513*
Y24927*
X19402*
Y2489*
X19365*
Y24853*
X19291*
Y24816*
X19217*
Y24742*
X19143*
Y24705*
X19032*
Y24668*
X18995*
Y24631*
X18884*
Y24556*
X18809*
Y24519*
X18772*
Y24483*
X18661*
Y24408*
X18587*
Y24371*
X18476*
Y24334*
X18439*
Y2426*
X18328*
Y24223*
X18217*
Y24186*
X1818*
Y24112*
X18143*
Y24075*
X18032*
Y24038*
X17995*
Y24001*
X17958*
Y23927*
X17884*
Y2389*
X17809*
Y23853*
X17772*
Y23816*
X17698*
Y23742*
X17661*
Y23705*
X17624*
Y23631*
X17587*
Y23556*
X17513*
Y23519*
X17476*
Y23445*
X17439*
Y23334*
X17402*
Y23223*
X17328*
Y23112*
X17291*
Y22927*
X17254*
Y22631*
X17217*
Y22445*
X17143*
Y22334*
X17106*
Y2226*
X17069*
Y22186*
X16921*
Y2226*
X16884*
Y22334*
X16809*
Y22483*
X16773*
Y23038*
X16809*
Y23223*
X16884*
Y23483*
X16921*
Y24038*
X16884*
Y24112*
X16809*
Y24223*
X16773*
Y2426*
X16698*
Y24334*
X16661*
Y24371*
X16624*
Y24408*
X16587*
Y24519*
X17032*
Y24483*
X17217*
Y24519*
X17513*
Y24556*
X17698*
Y24631*
X17847*
Y24668*
X17958*
Y24705*
X18032*
Y24742*
X18143*
Y24816*
X18217*
Y24853*
X18291*
Y2489*
X18402*
Y24927*
X18439*
Y25001*
X18476*
Y25038*
X18513*
Y25075*
X18624*
Y25112*
X18661*
Y25186*
X18698*
Y25223*
X18772*
Y2526*
X18809*
Y25371*
X18847*
Y25408*
X18884*
Y25445*
X18958*
Y25482*
X18995*
Y25594*
X19032*
Y25631*
X19069*
Y25742*
X19143*
Y25816*
X1918*
Y25927*
X19217*
Y26075*
X19291*
Y2626*
X19328*
Y26816*
X19365*
Y2689*
X19476*
Y26927*
X19661*
Y26964*
X19772*
Y27001*
X19884*
Y27075*
X20032*
Y27112*
X20069*
Y27149*
X2018*
Y27186*
X20254*
Y2726*
X20365*
Y27297*
X20402*
Y27334*
X20513*
Y27371*
X2055*
Y27445*
X20661*
Y27482*
X20698*
Y27556*
X20735*
Y27594*
X20847*
Y2763*
X20884*
Y27667*
X2092*
Y27742*
X20958*
Y27779*
X21069*
Y27816*
X21106*
Y2789*
X21143*
Y27927*
X21217*
Y27964*
X21254*
Y28001*
X21291*
Y28075*
X21328*
Y28112*
X21402*
Y28149*
X21439*
Y28186*
X21476*
Y2826*
X2155*
Y28297*
X21587*
Y28334*
X21661*
Y28371*
X21698*
Y28445*
X21735*
Y28482*
X21772*
Y28519*
X21846*
Y28556*
X2192*
Y2863*
X21958*
Y28667*
X22032*
Y28705*
X22106*
Y28742*
X22143*
Y28816*
X22254*
Y28853*
X22291*
Y2889*
X22402*
Y28927*
X22439*
Y29001*
X22513*
Y29038*
X22624*
Y29112*
X22772*
Y29149*
X22846*
Y29186*
X22995*
Y2926*
X23217*
Y29297*
X23439*
Y2926*
G37*
G36*
X1818Y27927D02*
X18217D01*
Y2789*
X18291*
Y27816*
X18328*
Y27779*
X18402*
Y27667*
X18439*
Y2763*
X18476*
Y27594*
X18513*
Y27556*
X18587*
Y27482*
X18661*
Y27445*
X18772*
Y27371*
X18809*
Y27334*
X18847*
Y27297*
X18884*
Y27186*
X18958*
Y2689*
X18884*
Y26779*
X18847*
Y26667*
X18809*
Y26631*
X18772*
Y26556*
X18698*
Y26482*
X18661*
Y26445*
X18587*
Y26408*
X18513*
Y26371*
X18476*
Y26297*
X18402*
Y2626*
X18291*
Y26223*
X1818*
Y26186*
X17884*
Y26223*
X17847*
Y2626*
X17809*
Y26445*
X17847*
Y26556*
X17884*
Y26594*
X17958*
Y26667*
X17995*
Y26742*
X18032*
Y26779*
X18069*
Y26816*
X18143*
Y2689*
X1818*
Y26927*
X18217*
Y26964*
X18291*
Y27112*
X18217*
Y2726*
X1818*
Y27371*
X18143*
Y27594*
X18069*
Y27927*
X18143*
Y27964*
X1818*
Y27927*
G37*
G36*
X16884Y31075D02*
X16921D01*
Y31038*
X16958*
Y30927*
X16921*
Y3089*
X16884*
Y30853*
X16698*
Y3089*
X16624*
Y31038*
X16661*
Y31075*
X16698*
Y31112*
X16884*
Y31075*
G37*
G54D33*
X33992Y11667D02*
X34359Y12033D01*
X35092*
X35459Y11667*
Y113*
X35092Y10934*
X34359*
X33992Y10567*
Y10201*
X34359Y09834*
X35092*
X35459Y10201*
X33259Y09834D02*
Y113D01*
X32893*
X32526Y10934*
Y09834*
Y10934*
X3216Y113*
X31793Y10934*
Y09834*
X30694Y113D02*
X2996D01*
X29594Y10934*
Y09834*
X30694*
X3106Y10201*
X30694Y10567*
X29594*
X28861Y113D02*
Y09834D01*
Y10567*
X28494Y10934*
X28128Y113*
X27761*
X26295Y11667D02*
Y113D01*
X26661*
X25928*
X26295*
Y10201*
X25928Y09834*
X22629Y12033D02*
Y09834D01*
Y10934*
X21163*
Y12033*
Y09834*
X20063D02*
X1933D01*
X18964Y10201*
Y10934*
X1933Y113*
X20063*
X2043Y10934*
Y10201*
X20063Y09834*
X18231D02*
Y113D01*
X17864*
X17498Y10934*
Y09834*
Y10934*
X17131Y113*
X16765Y10934*
Y09834*
X14932D02*
X15665D01*
X16031Y10201*
Y10934*
X15665Y113*
X14932*
X14565Y10934*
Y10567*
X16031*
X36375Y08113D02*
X36742Y0848D01*
X37475*
X37841Y08113*
Y07747*
X37475Y0738*
X36742*
X36375Y07014*
Y06647*
X36742Y0628*
X37475*
X37841Y06647*
X34542Y0628D02*
X35275D01*
X35642Y06647*
Y0738*
X35275Y07747*
X34542*
X34176Y0738*
Y07014*
X35642*
X33443Y0628D02*
Y07747D01*
X32343*
X31976Y0738*
Y0628*
X31243D02*
X30144D01*
X29777Y06647*
X30144Y07014*
X30877*
X31243Y0738*
X30877Y07747*
X29777*
X28677Y0628D02*
X27944D01*
X27578Y06647*
Y0738*
X27944Y07747*
X28677*
X29044Y0738*
Y06647*
X28677Y0628*
X26845Y07747D02*
Y0628D01*
Y07014*
X26478Y0738*
X26112Y07747*
X25745*
X22446Y0848D02*
Y0628D01*
X21346*
X2098Y06647*
Y07014*
X21346Y0738*
X22446*
X21346*
X2098Y07747*
Y08113*
X21346Y0848*
X22446*
X1988Y0628D02*
X19147D01*
X18781Y06647*
Y0738*
X19147Y07747*
X1988*
X20247Y0738*
Y06647*
X1988Y0628*
X17681Y07747D02*
X16948D01*
X16581Y0738*
Y0628*
X17681*
X18047Y06647*
X17681Y07014*
X16581*
X15848Y07747D02*
Y0628D01*
Y07014*
X15482Y0738*
X15115Y07747*
X14749*
X12183Y0848D02*
Y0628D01*
X13282*
X13649Y06647*
Y0738*
X13282Y07747*
X12183*
M02*