%FSTAX23Y23*%
%MOMM*%
%SFA1B1*%

%IPPOS*%
%AMD11*
4,1,8,1.099820,-0.500380,1.099820,0.500380,0.599440,1.000760,-0.599440,1.000760,-1.099820,0.500380,-1.099820,-0.500380,-0.599440,-1.000760,0.599440,-1.000760,1.099820,-0.500380,0.0*
1,1,1.000252,0.599440,-0.500380*
1,1,1.000252,0.599440,0.500380*
1,1,1.000252,-0.599440,0.500380*
1,1,1.000252,-0.599440,-0.500380*
%
%ADD10R,0.999998X1.299972*%
G04~CAMADD=11~8~0.0~0.0~787.4~866.1~196.9~0.0~15~0.0~0.0~0.0~0.0~0~0.0~0.0~0.0~0.0~0~0.0~0.0~0.0~270.0~866.0~788.0*
%ADD11D11*%
%ADD12R,0.400050X1.350010*%
%ADD13R,0.762000X1.350010*%
%ADD14R,1.999996X0.899922*%
%ADD15R,1.800098X3.199892*%
%ADD16R,1.299972X0.999998*%
%ADD17C,0.254000*%
%ADD18C,0.762000*%
%ADD19R,2.800096X3.275076*%
%ADD20C,1.500124*%
%ADD21R,1.500124X1.500124*%
%ADD22C,4.999990*%
%ADD23R,1.500124X1.500124*%
%ADD24C,1.199896*%
%ADD25R,1.199896X1.199896*%
%ADD26C,1.299972*%
%LNpcb-1*%
%LPD*%
G36*
X48324Y49633D02*
X48637Y49538D01*
X48925Y49384*
X49177Y49177*
X49384Y48925*
X49538Y48637*
X49633Y48324*
X49664Y48005*
X49663Y47999*
Y01999*
X49664Y01993*
X49633Y01675*
X49538Y01362*
X49384Y01074*
X49177Y00822*
X48925Y00615*
X48637Y00461*
X48324Y00366*
X48123Y00346*
X47999Y00336*
X47875*
X01999*
X01993Y00335*
X01675Y00366*
X01362Y00461*
X01074Y00615*
X00822Y00822*
X00615Y01074*
X00461Y01362*
X00366Y01675*
X00346Y01876*
X00336Y01999*
Y02125*
Y47873*
Y47875*
Y47999*
X00346Y48122*
X00366Y48324*
X00461Y48637*
X00615Y48925*
X00822Y49177*
X01074Y49384*
X01362Y49538*
X01675Y49633*
X01993Y49664*
X01999Y49663*
X28076*
X28128Y49536*
X27375Y48782*
X27269Y48796*
X27021Y48763*
X26789Y48667*
X2659Y48514*
X26525Y4843*
X12934*
X12707Y48385*
X12513Y48256*
X10878Y46621*
X10749Y46427*
X10704Y462*
Y3978*
X05903*
Y40138*
X03996*
Y39678*
X03888Y39606*
X03153Y38871*
X03024Y38677*
X02979Y3845*
Y19249*
X03024Y19022*
X03153Y18828*
X03868Y18113*
X04061Y17984*
X04249Y17947*
X0432Y17855*
X04519Y17702*
X04751Y17606*
X04999Y17573*
X05248Y17606*
X0548Y17702*
X05679Y17855*
X05832Y18054*
X05928Y18286*
X05961Y18534*
X05928Y18783*
X05832Y19015*
X05679Y19214*
X0548Y19367*
X05248Y19463*
X04999Y19496*
X04751Y19463*
X04519Y19367*
X04394Y19272*
X0417Y19496*
Y20121*
X05953*
Y22028*
X0417*
Y30822*
X04297Y30864*
X04469Y30732*
X04701Y30636*
X04949Y30603*
X05198Y30636*
X0543Y30732*
X05629Y30885*
X05782Y31084*
X05878Y31316*
X05891Y31415*
X06789Y32313*
X11164*
X11556Y31921*
Y2681*
X11581Y26681*
X11654Y26572*
X12547Y25679*
X12656Y25606*
X12785Y25581*
X18521*
X18631Y25471*
Y13807*
X18656Y13678*
X18729Y13569*
X20811Y11486*
X20921Y11413*
X21049Y11388*
X2985*
X29978Y11413*
X30088Y11486*
X30663Y12061*
X30736Y12171*
X30761Y12299*
Y2066*
X32014Y21913*
X36924*
X37053Y21938*
X37162Y22011*
X4032Y25169*
X40393Y25278*
X40418Y25407*
Y32192*
X40639Y32413*
X45775*
X45903Y32438*
X46013Y32511*
X46512Y33011*
X46586Y33121*
X46611Y33249*
Y36299*
X46586Y36428*
X46512Y36538*
X46168Y36883*
X46058Y36955*
X4593Y36981*
X45892*
X45832Y37125*
X45679Y37324*
X4548Y37477*
X45248Y37573*
X44999Y37606*
X44751Y37573*
X44519Y37477*
X4432Y37324*
X44167Y37125*
X44071Y36893*
X44038Y36645*
X44071Y36396*
X44167Y36164*
X4432Y35965*
X44519Y35812*
X44751Y35716*
X44999Y35683*
X45248Y35716*
X4548Y35812*
X45679Y35965*
X45798Y3612*
X4582Y36126*
X45938Y36063*
Y34645*
X45933Y34643*
X45811Y34613*
X45679Y34784*
X4548Y34937*
X45248Y35033*
X44999Y35066*
X44751Y35033*
X44519Y34937*
X4432Y34784*
X44167Y34585*
X44071Y34353*
X44038Y34105*
X44071Y33856*
X4413Y33712*
X43962Y33543*
X4031*
X40181Y33518*
X40072Y33445*
X39387Y32759*
X39313Y3265*
X39288Y32521*
Y25736*
X36596Y23043*
X31685*
X31556Y23018*
X31447Y22945*
X29769Y21267*
X29685Y21281*
X29636Y213*
X29632Y21303*
X29579Y21432*
X30942Y22796*
X31015Y22905*
X31041Y23034*
Y30565*
X31224Y30748*
X31351Y30696*
Y30271*
X32713*
Y26999*
X32738Y26871*
X32811Y26761*
X33087Y26486*
X33196Y26413*
X33291Y26394*
Y25871*
X34613*
Y25628*
X33291*
Y23921*
X34698*
Y24547*
X35188Y25037*
X35261Y25146*
X35286Y25275*
Y34774*
X35261Y34903*
X35188Y35013*
X34863Y35338*
X34753Y35411*
X34698Y35422*
Y35953*
X33291*
Y34246*
X34613*
Y33978*
X33291*
Y33459*
X33171Y33436*
X33061Y33363*
X32885Y33186*
X32758Y33238*
Y33978*
X31351*
Y32897*
X30244Y3179*
X30126Y31838*
Y34275*
X30614Y34763*
X31351*
Y34246*
X32758*
Y35953*
X31351*
Y35436*
X30474*
X30346Y35411*
X30236Y35338*
X29552Y34653*
X29479Y34543*
X29472Y34511*
X29333Y34462*
X2919Y34572*
X28958Y34668*
X28709Y34701*
X28461Y34668*
X28229Y34572*
X2803Y34419*
X27877Y3422*
X27781Y33988*
X27748Y3374*
X27781Y33491*
X27877Y33259*
X2803Y3306*
X28229Y32907*
X28461Y32811*
X28709Y32778*
X28958Y32811*
X2919Y32907*
X29326Y33011*
X29453Y32948*
Y31991*
X29326Y31928*
X2919Y32032*
X28958Y32128*
X28709Y32161*
X28461Y32128*
X28229Y32032*
X2803Y31879*
X27877Y3168*
X27781Y31448*
X27748Y312*
X27781Y30951*
X27877Y30719*
X2803Y3052*
X28229Y30367*
X28461Y30271*
X28709Y30238*
X28958Y30271*
X2919Y30367*
X29326Y30471*
X29453Y30408*
Y29451*
X29326Y29388*
X2919Y29492*
X28958Y29588*
X28709Y29621*
X28461Y29588*
X28229Y29492*
X2803Y29339*
X27877Y2914*
X27817Y28996*
X2764*
X27461Y29175*
Y40935*
X27578Y41052*
X35013*
X35142Y41077*
X35252Y41151*
X36338Y42236*
X36411Y42346*
X36436Y42474*
Y47174*
X36411Y47303*
X36338Y47413*
X35841Y47909*
X35818Y48083*
X35722Y48315*
X35598Y48477*
X35649Y48604*
X36053*
X37254Y47403*
Y44999*
X37299Y44772*
X37428Y44578*
X41028Y40978*
X41222Y40849*
X4145Y40804*
X46078*
X47024Y39858*
Y31891*
X4511Y29978*
X44046*
Y28071*
X44484*
Y23468*
X44378Y2333*
X44297Y23134*
X44269Y22925*
X44297Y22715*
X44378Y22519*
X44484Y22381*
Y14201*
X4378Y13497*
X43653Y135*
Y14703*
X41446*
Y13495*
X4079*
Y17021*
X40898*
Y18728*
X4079*
Y18996*
X40898*
Y20703*
X39491*
Y18996*
X39599*
Y18728*
X39491*
Y17021*
X39599*
Y13495*
X37053*
Y13553*
X34646*
Y13495*
X34421*
X3412Y13796*
Y16648*
X34494Y17021*
X35208*
Y18728*
X34025*
X33976Y18845*
X34127Y18996*
X35208*
Y20703*
X33801*
Y19623*
X32536Y18358*
X32463Y18248*
X32438Y1812*
Y11195*
X1205*
X11821Y1115*
X11628Y11021*
X10453Y09846*
X10324Y09653*
X10279Y09424*
Y04774*
X1029Y04717*
Y03896*
X11344*
X11459*
X11586*
X12278*
X12821*
X13628*
Y05653*
X12953*
X12146*
X11471*
X1147Y05779*
Y09178*
X12296Y10004*
X34646*
Y09946*
X37053*
Y11253*
X34646*
Y11195*
X33111*
Y12955*
X33229Y13003*
X33753Y12478*
X33947Y12349*
X34174Y12304*
X34646*
Y12246*
X37053*
Y12304*
X41446*
Y11096*
X43653*
Y12304*
X44025*
X44252Y12349*
X44446Y12478*
X45501Y13533*
X4563Y13727*
X45675Y13955*
Y22381*
X45781Y22519*
X45862Y22715*
X4589Y22925*
X45862Y23134*
X45781Y2333*
X45675Y23468*
Y28071*
X45953*
Y29135*
X48041Y31223*
X4817Y31417*
X48215Y31645*
Y40105*
X4817Y40332*
X48041Y40526*
X46746Y41821*
X46552Y4195*
X46325Y41995*
X41696*
X38445Y45246*
Y47649*
X384Y47877*
X38271Y48071*
X36806Y49536*
X36858Y49663*
X47999*
X48005Y49664*
X48324Y49633*
G37*
G36*
X29101Y48477D02*
X28977Y48315D01*
X28881Y48083*
X28848Y47835*
X28881Y47586*
X28941Y47442*
X28436Y46937*
X28363Y46828*
X28338Y46699*
Y44539*
X2781Y44011*
X26124*
X25996Y43985*
X25886Y43913*
X24512Y42538*
X24438Y42428*
X24413Y42299*
Y22264*
X23525Y21376*
X21982*
X21922Y2152*
X21769Y21719*
X2157Y21872*
X21338Y21968*
X21089Y22001*
X20841Y21968*
X20609Y21872*
X2041Y21719*
X20257Y2152*
X20161Y21288*
X20128Y2104*
X20161Y20791*
X20257Y20559*
X2041Y2036*
X20609Y20207*
X20841Y20111*
X21089Y20078*
X21338Y20111*
X2157Y20207*
X21769Y2036*
X21922Y20559*
X21982Y20703*
X23664*
X23793Y20728*
X23903Y20801*
X24771Y2167*
X24888Y21621*
Y20039*
X23685Y18836*
X21982*
X21922Y1898*
X21769Y19179*
X2157Y19332*
X21338Y19428*
X21089Y19461*
X20841Y19428*
X20609Y19332*
X2041Y19179*
X20257Y1898*
X20161Y18748*
X20128Y185*
X20161Y18251*
X20257Y18019*
X2041Y1782*
X20609Y17667*
X20841Y17571*
X21089Y17538*
X21338Y17571*
X2157Y17667*
X21769Y1782*
X21922Y18019*
X21982Y18163*
X23824*
X23953Y18188*
X24062Y18261*
X25246Y19444*
X25363Y19396*
Y17264*
X24395Y16296*
X21982*
X21922Y1644*
X21769Y16639*
X2157Y16792*
X21338Y16888*
X21089Y16921*
X20841Y16888*
X20609Y16792*
X2041Y16639*
X20257Y1644*
X20161Y16208*
X20128Y1596*
X20161Y15711*
X20257Y15479*
X2041Y1528*
X20609Y15127*
X20841Y15031*
X21089Y14998*
X21338Y15031*
X2157Y15127*
X21769Y1528*
X21922Y15479*
X21982Y15623*
X24535*
X24663Y15648*
X24773Y15721*
X25721Y16669*
X25838Y16621*
Y14225*
X25864Y14096*
X25936Y13987*
X26741Y13181*
X26851Y13108*
X26979Y13083*
X27817*
X27877Y12939*
X2803Y1274*
X28153Y12645*
X28109Y12518*
X22467*
X21959Y13027*
X22018Y13171*
X22051Y1342*
X22018Y13668*
X21922Y139*
X21769Y14099*
X2157Y14252*
X21338Y14348*
X21089Y14381*
X20841Y14348*
X20697Y14289*
X19761Y15224*
Y258*
X19736Y25928*
X19663Y26038*
X19088Y26613*
X18978Y26686*
X1885Y26711*
X17344*
X17243Y26773*
Y27138*
X20725*
X20751Y27011*
X20609Y26952*
X2041Y26799*
X20257Y266*
X20161Y26368*
X20128Y2612*
X20161Y25871*
X20257Y25639*
X2041Y2544*
X20609Y25287*
X20841Y25191*
X21089Y25158*
X21338Y25191*
X2157Y25287*
X21769Y2544*
X21922Y25639*
X21982Y25783*
X2272*
X22848Y25808*
X22958Y25881*
X23467Y26391*
X23584Y26342*
Y24536*
X22965Y23916*
X21982*
X21922Y2406*
X21769Y24259*
X2157Y24412*
X21338Y24508*
X21089Y24541*
X20841Y24508*
X20609Y24412*
X2041Y24259*
X20257Y2406*
X20161Y23828*
X20128Y2358*
X20161Y23331*
X20257Y23099*
X2041Y229*
X20609Y22747*
X20841Y22651*
X21089Y22618*
X21338Y22651*
X2157Y22747*
X21769Y229*
X21922Y23099*
X21982Y23243*
X23105*
X23233Y23268*
X23343Y23341*
X24159Y24158*
X24232Y24267*
X24258Y24396*
Y36625*
X24232Y36753*
X24159Y36863*
X19161Y4186*
Y44046*
X19778*
Y45953*
X17871*
Y44046*
X18488*
Y42053*
X18371Y42005*
X16621Y43754*
Y44107*
X16765Y44167*
X16964Y4432*
X17117Y44519*
X17213Y44751*
X17246Y44999*
X17213Y45248*
X17117Y4548*
X16964Y45679*
X16765Y45832*
X16533Y45928*
X16284Y45961*
X16036Y45928*
X15804Y45832*
X15605Y45679*
X15452Y4548*
X15356Y45248*
X15323Y44999*
X15356Y44751*
X15452Y44519*
X15605Y4432*
X15804Y44167*
X15948Y44107*
Y43615*
X15974Y43486*
X16046Y43376*
X22078Y37345*
X22011Y37233*
X20979*
X18606Y39606*
X18412Y39735*
X18185Y3978*
X11895*
Y45953*
X13181Y47239*
X26525*
X2659Y47155*
X26789Y47002*
X27021Y46906*
X27269Y46873*
X27518Y46906*
X2775Y47002*
X27949Y47155*
X28102Y47354*
X28198Y47586*
X28231Y47835*
X28217Y4794*
X28881Y48604*
X2905*
X29101Y48477*
G37*
G36*
X20136Y3639D02*
Y35326D01*
X20015Y35311*
X19939*
X17643Y37608*
X17533Y37681*
X17405Y37706*
X16988*
Y38223*
X15581*
Y36516*
X16988*
Y37033*
X17265*
X19562Y34737*
X19671Y34663*
X198Y34638*
X20486*
X20529Y34511*
X2041Y34419*
X20257Y3422*
X20197Y34076*
X20024*
X18568Y35533*
X18458Y35605*
X18329Y35631*
X16988*
Y36148*
X15581*
Y34441*
X15948*
Y33843*
X15536*
Y32762*
X14678Y31904*
X13511*
Y30498*
X15045*
X15094Y3038*
X14832Y30118*
X13511*
Y28711*
X15218*
Y29552*
X15419Y29753*
X15536Y29704*
Y28712*
X17243*
Y29079*
X18529*
X19186Y28421*
X19296Y28348*
X19424Y28323*
X20197*
X20257Y28179*
X2041Y2798*
X20464Y27938*
X20421Y27811*
X17243*
Y28179*
X15536*
Y27811*
X15218*
Y28178*
X13511*
Y26771*
X13409Y26711*
X13114*
X12686Y27139*
Y3225*
X12661Y32378*
X12587Y32488*
X11712Y33363*
X11603Y33436*
X11474Y33461*
X06069*
X05818Y33712*
X05878Y33856*
X05911Y34105*
X05878Y34353*
X05782Y34585*
X05629Y34784*
X0543Y34937*
X05198Y35033*
X04949Y35066*
X04701Y35033*
X04469Y34937*
X04297Y34805*
X0417Y34847*
Y38203*
X04199Y38231*
X05903*
Y38589*
X17938*
X20136Y3639*
G37*
%LNpcb-2*%
%LPC*%
G36*
X04999Y14416D02*
X04751Y14383D01*
X04519Y14287*
X0432Y14134*
X04167Y13935*
X04071Y13703*
X04038Y13454*
X04071Y13206*
X04167Y12974*
X0432Y12775*
X04519Y12622*
X04751Y12526*
X04999Y12493*
X05248Y12526*
X0548Y12622*
X05679Y12775*
X05832Y12974*
X05928Y13206*
X05961Y13454*
X05928Y13703*
X05832Y13935*
X05679Y14134*
X0548Y14287*
X05248Y14383*
X04999Y14416*
G37*
G36*
Y11876D02*
X04751Y11843D01*
X04519Y11747*
X0432Y11594*
X04167Y11395*
X04071Y11163*
X04038Y10914*
X04071Y10666*
X04167Y10434*
X0432Y10235*
X04519Y10082*
X04751Y09986*
X04999Y09953*
X05248Y09986*
X0548Y10082*
X05679Y10235*
X05832Y10434*
X05928Y10666*
X05961Y10914*
X05928Y11163*
X05832Y11395*
X05679Y11594*
X0548Y11747*
X05248Y11843*
X04999Y11876*
G37*
G36*
X32003Y05953D02*
X30096D01*
Y04046*
X32003*
Y05953*
G37*
G36*
X25653D02*
X23746D01*
Y04046*
X25653*
Y05953*
G37*
%LNpcb-3*%
%LPD*%
G54D10*
X34504Y1985D03*
X36444D03*
X34504Y17874D03*
X36444D03*
X16284Y35295D03*
X14344D03*
X33995Y24774D03*
X32055D03*
X33995Y26725D03*
X32055D03*
X33995Y28725D03*
X32055D03*
X16284Y3737D03*
X14344D03*
X40194Y1985D03*
X38254D03*
X40194Y17874D03*
X38254D03*
X32055Y31124D03*
X33995D03*
X32055Y351D03*
X33995D03*
X32055Y33124D03*
X33995D03*
G54D11*
X16299Y021D03*
X088D03*
G54D12*
X12549Y04774D03*
X13225D03*
X11875D03*
G54D13*
X10875Y04774D03*
X14225D03*
G54D14*
X3585Y12899D03*
Y10599D03*
Y15199D03*
G54D15*
X4255Y12899D03*
G54D16*
X14364Y31201D03*
Y33141D03*
X16389Y312D03*
Y3314D03*
Y27476D03*
Y29416D03*
X14364Y27474D03*
Y29414D03*
G54D17*
X14451Y31201D02*
X16389Y3314D01*
X16284Y33245D02*
Y35295D01*
X361Y42474D02*
Y47174D01*
X35013Y41389D02*
X361Y42474D01*
X27439Y41389D02*
X35013D01*
X32774Y10599D02*
Y1812D01*
X34504Y1985*
X39167Y25786D02*
Y35682D01*
X38569Y3628D02*
X39167Y35682D01*
X28709Y3628D02*
X38569D01*
X32055Y26725D02*
Y28725D01*
Y24774D02*
Y26725D01*
X36546Y23164D02*
X39167Y25786D01*
X32585Y23164D02*
X36546D01*
X32055Y23694D02*
X32585Y23164D01*
X32055Y23694D02*
Y24774D01*
X31124Y31124D02*
X32055D01*
X30704Y30704D02*
X31124Y31124D01*
X30704Y23034D02*
Y30704D01*
X28709Y2104D02*
X30704Y23034D01*
X28709Y2358D02*
X30247Y25117D01*
Y31317*
X32055Y33124*
X30474Y351D02*
X32055D01*
X2979Y34415D02*
X30474Y351D01*
X2979Y272D02*
Y34415D01*
X28709Y2612D02*
X2979Y272D01*
X33995Y351D02*
X34625D01*
X34949Y34774*
Y25275D02*
Y34774D01*
X3445Y24774D02*
X34949Y25275D01*
X33995Y24774D02*
X3445D01*
X33325Y26725D02*
X33995D01*
X33049Y26999D02*
X33325Y26725D01*
X33049Y26999D02*
Y32874D01*
X33299Y33124*
X33995*
Y28725D02*
Y31124D01*
X46274Y33249D02*
Y36299D01*
X45775Y32749D02*
X46274Y33249D01*
X405Y32749D02*
X45775D01*
X40082Y32332D02*
X405Y32749D01*
X40082Y25407D02*
Y32332D01*
X36924Y22249D02*
X40082Y25407D01*
X39625Y32521D02*
X4031Y33207D01*
X39625Y25596D02*
Y32521D01*
X36735Y22707D02*
X39625Y25596D01*
X31685Y22707D02*
X36735D01*
X4031Y33207D02*
X44102D01*
X44999Y34105*
Y36645D02*
X4593D01*
X46274Y36299*
X31874Y22249D02*
X36924D01*
X29967Y20989D02*
X31685Y22707D01*
X29967Y1775D02*
Y20989D01*
X29467Y17249D02*
X29967Y1775D01*
X2775Y17249D02*
X29467D01*
X27224Y16725D02*
X2775Y17249D01*
X27224Y15225D02*
Y16725D01*
Y15225D02*
X27699Y1475D01*
X29667*
X29967Y1445*
Y12489D02*
Y1445D01*
X2966Y12182D02*
X29967Y12489D01*
X22327Y12182D02*
X2966D01*
X21089Y1342D02*
X22327Y12182D01*
X30424Y12299D02*
Y208D01*
X28709Y1596D02*
X30424D01*
Y208D02*
X31874Y22249D01*
X26979Y1342D02*
X28709D01*
X26174Y14225D02*
X26979Y1342D01*
X26174Y14225D02*
Y41574D01*
X06649Y32649D02*
X11303D01*
X11892Y3206*
Y2681D02*
Y3206D01*
X05929Y33124D02*
X11474D01*
X12349Y3225*
Y26999D02*
Y3225D01*
X04949Y34105D02*
X05929Y33124D01*
X05564Y31565D02*
X06649Y32649D01*
X2985Y11724D02*
X30424Y12299D01*
X21049Y11724D02*
X2985D01*
X18967Y13807D02*
X21049Y11724D01*
X18967Y13807D02*
Y2561D01*
X1866Y25917D02*
X18967Y2561D01*
X12785Y25917D02*
X1866D01*
X11892Y2681D02*
X12785Y25917D01*
X04949Y31565D02*
X05564D01*
X12349Y26999D02*
X12975Y26375D01*
X1885*
X19424Y258*
Y15085D02*
Y258D01*
Y15085D02*
X21089Y1342D01*
X16389Y29416D02*
X18668D01*
X19424Y2866*
X21089*
X23007Y28407D02*
Y34614D01*
X22075Y27474D02*
X23007Y28407D01*
X14364Y27474D02*
X22075D01*
X23464Y26864D02*
Y36435D01*
X2272Y2612D02*
X23464Y26864D01*
X21089Y2612D02*
X2272D01*
X23921Y24396D02*
Y36625D01*
X23105Y2358D02*
X23921Y24396D01*
X21089Y2358D02*
X23105D01*
X2475Y22124D02*
Y42299D01*
X23664Y2104D02*
X2475Y22124D01*
X21089Y2104D02*
X23664D01*
X25224Y199D02*
Y41917D01*
X23824Y185D02*
X25224Y199D01*
X21089Y185D02*
X23824D01*
X25699Y17124D02*
Y41746D01*
X24535Y1596D02*
X25699Y17124D01*
X21089Y1596D02*
X24535D01*
X27124Y41074D02*
X27439Y41389D01*
X27124Y29036D02*
Y41074D01*
Y29036D02*
X27501Y2866D01*
X26649Y19325D02*
Y41246D01*
X27249Y41846*
X26649Y19325D02*
X27474Y185D01*
X26174Y41574D02*
X26903Y42303D01*
X25699Y41746D02*
X26714Y4276D01*
X25224Y41917D02*
X26524Y43217D01*
X2475Y42299D02*
X26124Y43675D01*
X18824Y41721D02*
X23921Y36625D01*
X16284Y43615D02*
X23464Y36435D01*
X21341Y3628D02*
X23007Y34614D01*
X21999Y34975D02*
X22549Y34424D01*
Y3012D02*
Y34424D01*
X21089Y2866D02*
X22549Y3012D01*
X27501Y2866D02*
X28709D01*
X3544Y47835D02*
X361Y47174D01*
X34889Y47835D02*
X3544D01*
X34889Y42915D02*
Y45295D01*
X33821Y41846D02*
X34889Y42915D01*
X27249Y41846D02*
X33821D01*
X32349Y43124D02*
Y45295D01*
X31528Y42303D02*
X32349Y43124D01*
X26903Y42303D02*
X31528D01*
X27474Y185D02*
X28709D01*
X26714Y4276D02*
X30085D01*
X31049Y43725*
Y46535*
X32349Y47835*
X29809Y44163D02*
Y45295D01*
X28864Y43217D02*
X29809Y44163D01*
X26124Y43675D02*
X27949D01*
X28675Y44399*
Y46699*
X26524Y43217D02*
X28864D01*
X28675Y46699D02*
X29809Y47835D01*
X18824Y41721D02*
Y44999D01*
X16284Y43615D02*
Y44999D01*
X21089Y3628D02*
X21341D01*
X14604Y29414D02*
X16389Y312D01*
X14364Y29414D02*
X14604D01*
X14364Y31201D02*
X14451D01*
X14364Y33141D02*
Y37349D01*
X16284Y3737D02*
X17405D01*
X198Y34975*
X21999*
X19884Y3374D02*
X21089D01*
X18329Y35295D02*
X19884Y3374D01*
X16284Y35295D02*
X18329D01*
G54D18*
X45079Y13955D02*
Y22925D01*
X44025Y12899D02*
X45079Y13955D01*
X4255Y12899D02*
X44025D01*
X44999Y29025D02*
X47619Y31645D01*
X44999Y29025D02*
X45079Y28945D01*
Y22925D02*
Y28945D01*
X47619Y31645D02*
Y40105D01*
X36275Y15199D02*
X36444Y1537D01*
X3645Y15024D02*
X38725D01*
X36444Y20169D02*
X39399Y23124D01*
X4125*
X43649Y25524*
Y31049*
X44165Y31565*
X44999*
X36444Y1537D02*
Y17874D01*
X3585Y15199D02*
X36275D01*
X14225Y04774D02*
X21934D01*
X0429Y18534D02*
X04999D01*
X03575Y19249D02*
X0429Y18534D01*
X03575Y19249D02*
Y3845D01*
X0431Y39185D02*
X04949D01*
X03575Y3845D02*
X0431Y39185D01*
X46325Y41399D02*
X47619Y40105D01*
X4145Y41399D02*
X46325D01*
X3785Y44999D02*
X4145Y41399D01*
X27269Y47835D02*
X28634Y492D01*
X36299*
X3785Y47649*
Y44999D02*
Y47649D01*
X1205Y10599D02*
X32774D01*
X10875Y09424D02*
X1205Y10599D01*
X10875Y04774D02*
Y09424D01*
X32774Y10599D02*
X3585D01*
X34174Y12899D02*
X3585D01*
X33524Y1355D02*
X34174Y12899D01*
X33524Y1355D02*
Y16895D01*
X34504Y17874*
X3585Y12899D02*
X4255D01*
X40194Y17874D02*
Y1985D01*
Y12945D02*
Y17874D01*
X11299Y39185D02*
X18185D01*
X04949D02*
X11299D01*
Y462*
X12934Y47835*
X27269*
X18185Y39185D02*
X21089Y3628D01*
G54D19*
X37349Y18862D03*
G54D20*
X28709Y1342D03*
Y1596D03*
Y185D03*
Y2104D03*
Y2358D03*
Y2612D03*
Y2866D03*
Y312D03*
Y3374D03*
Y3628D03*
X21089Y1342D03*
Y1596D03*
Y185D03*
Y2104D03*
Y2358D03*
Y2612D03*
Y2866D03*
Y312D03*
Y3374D03*
X22159Y04999D03*
X13744Y44999D03*
X16284D03*
X04999Y18534D03*
Y15994D03*
Y13454D03*
Y10914D03*
X44999Y31565D03*
Y34105D03*
Y36645D03*
Y39185D03*
X04949Y36645D03*
Y34105D03*
Y31565D03*
Y29025D03*
X27269Y47835D03*
X29809Y45295D03*
Y47835D03*
X32349Y45295D03*
Y47835D03*
X34889Y45295D03*
Y47835D03*
G54D21*
X21089Y3628D03*
X24699Y04999D03*
X18824Y44999D03*
X27269Y45295D03*
G54D22*
X44999Y44999D03*
Y04999D03*
X04999D03*
Y44999D03*
G54D23*
X31049Y04999D03*
X3755D03*
X04999Y21074D03*
X44999Y29025D03*
X04949Y39185D03*
G54D24*
X45079Y22925D03*
G54D25*
X47619Y22925D03*
G54D26*
X38725Y11174D03*
Y15024D03*
M02*